<?xml version="1.0" encoding="utf-8"?>
<!-- Generator: Adobe Illustrator 18.1.0, SVG Export Plug-In . SVG Version: 6.00 Build 0)  -->
<!DOCTYPE svg PUBLIC "-//W3C//DTD SVG 1.1//EN" "http://www.w3.org/Graphics/SVG/1.1/DTD/svg11.dtd">
<svg version="1.1" id="Layer_1" xmlns="http://www.w3.org/2000/svg" xmlns:xlink="http://www.w3.org/1999/xlink" x="0px" y="0px"
	 viewBox="0 0 500 500" enable-background="new 0 0 500 500" xml:space="preserve">
<g>
	<circle fill="#DC0606" cx="250" cy="250.4" r="250"/>
	<g>
		<rect x="98.2" y="111.2" fill="#DC0606" width="303.7" height="278.2"/>
		<path fill="#FFFFFF" d="M350.9,315l-8.5-1.7v21.4l-30.5-18.8v33.2l8.6,1.8v-18.5l30.4,19.8V315z M364.2,295.5l-52.3-20.9v10.1
			l25.4,9.5l-25.4,8.9V314l37.1-14.3l15.2,6.8V295.5z M350.9,237.5h-27.2c-8.2,0-12.6,5.4-12.6,11.9c0,6,2.8,9.8,6.3,12.6l-5.5,0.6
			v9.5h39V262h-25.3c-3.8-3-5.3-6.3-5.3-9.3c0-3,1.5-5.1,6.4-5.1h24.2V237.5z M362.9,228.9c0.9-2.9,1.7-7.1,1.7-13.6
			c0-11.7-6.3-17.2-19.3-17.2h-33.4v9.4l2.7,0.3c-1.9,2.1-3.5,5.8-3.5,9.6c0,10.7,7.7,16.4,20.1,16.4c11.2,0,19-5.6,19-15.5
			c0-3.8-1.8-7.7-4.8-10.1h2.3c4.9,0,8.5,2.7,8.5,8.6c0,5-0.9,7.9-1.8,10.3L362.9,228.9z M319.7,215.6c0-2.6,1.1-5.6,2.7-7.4h15
			c2.2,1.9,3.9,5,3.9,8.6c0,3.4-2.4,6.4-10.1,6.4C323.9,223.2,319.7,221.2,319.7,215.6z M350.9,158.7h-39v9.4l2.7,0.3
			c-1.9,2.1-3.5,5.8-3.5,9.6c0,10.7,8.4,16.4,20.8,16.4c11.2,0,19.9-5.6,19.9-15.5c0-3.8-1.8-7.7-4.8-10.1l4-0.6V158.7z
			 M319.7,176.2c0-2.6,1.1-5.6,2.7-7.4H339c2.2,1.9,3.9,5,3.9,8.6c0,3.4-3.3,6.4-11,6.4C324.6,183.8,319.7,181.8,319.7,176.2z"/>
		<g>
			<g>
				<path fill="#FFFFFF" d="M335.9,145.8c0-4.1,3.3-7.6,7.5-7.6c4.4,0,7.6,3.5,7.6,7.6c0,4.2-3.3,7.6-7.6,7.6
					C339.2,153.4,335.9,149.9,335.9,145.8z M350,145.8c0-3.5-2.8-6.2-6.5-6.2c-3.6,0-6.4,2.7-6.4,6.2c0,3.5,2.8,6.3,6.4,6.3
					C347.2,152.1,350,149.3,350,145.8z M339.1,148.8v-3.4c0-2.1,0.8-3.1,2.5-3.1c1.6,0,2.3,1,2.4,2.3l3.9-2.5v1.5l-3.8,2.4v1.5h3.8
					v1.4H339.1z M343,147.4v-1.4c0-1.2-0.1-2.3-1.5-2.3c-1.2,0-1.4,1-1.4,1.9v1.8H343z"/>
			</g>
		</g>
		<path fill="#FFFFFF" d="M271.8,160.2c2.9-3.5,7.3-6.8,13.2-1.4c5.9,5.3,11,9.9,9.4,11.5c-1.1,1.1-3.6-0.3-5.3-1.2
			c-2.1,1-3.1,2.5-3.7,5c-0.6,2.5-1.4,5.3-2.7,5.7c1.4,7,0.7,20.2-1.6,24.3l0,7.4c6.4,11.5,10.7,42.8,2.3,57.2
			c0,0-0.1,18.5-3.7,26.7c0,0-4.1,17.6-2.9,27c1.9,0.8,6.8,3.7,7.6,5.3c0.8,1.6,1.2,4.1,1,4.7c-2.3,4.1-14.4,4.2-20,0.1
			c-1.3-3.8,0.8-18.9,0.2-27.9c-0.6-9-1.4-12.5-3.2-24.5c-7.5,1.8-16.1,2.3-24.8,1.4c-2.3,10.2-6.5,25-7,33.8
			c-0.4,6.5-1,25.6-1,25.6c0.2,1.9,1.3,3.4,1.5,4.7c0.2,1.7,0.6,4.3,0.1,5.7c-3.2,6-17,5.3-19.2,0.2c-0.1-1.3,0.3-4.7,1-5.7
			c0.8-1.3,3.9-3.5,4.5-5.1c0.8-6.3,1.6-29.9-0.1-35.2c-2.6-4.9-4.4-18.3-4.9-30.1c-1.4-0.6-8.6-4.5-15.4-8.8
			c-2.3,7.9-7.4,12-7.4,12l2.3,10.9c1.7,0.2,6.5,2.2,7.4,3.7c0.9,1.6,1,3,0.8,4.1c-1.5,2.6-12,2.3-13.9-0.3l-7.3-22.1
			c0,0,2.7-7.3,1.5-17c-22.4,2.4-29.1,31.1-31.6,44.6l0.5,2c0.1,0.5,0.1,2.7,0,3.3c-2.1,3.5-12.6,3-15,0.1c0-1,0.4-2.9,1.2-4
			c0.8-1.2,4.5-3.9,5.4-4.5l5-19.6c0.8-21.9,6.4-42.7,15.5-53.9c-12.4-15.4-11.1-32.5-1.2-41.5c1-0.9,2.8-2,3.4-1.6
			c0.7,0.4,0.5,1.2-0.6,2.9c-6.9,10.4-5.7,24.5,7.2,32.2c15-9.2,58.2-11.3,58.2-11.3l1.2-4.1c-0.9-1.6-2.3-9.1-1.9-13
			c-0.6-0.3-1.9-1.9-3.6-3.3c-1.7-1.5-3.9-1.5-4.5-2.6c-4.8,6.1-3.5-1.6-2.9-4.5c1.2-5.6,2.1-13.6,10.8-14.3c2-0.2,6.1,0,7.8,2
			c1.5-2.3,13.9-4.9,16.3-4.6C254.5,159.7,270.7,159.1,271.8,160.2z"/>
	</g>
</g>
</svg>
