<?xml version="1.0" encoding="utf-8"?>
<!-- Generator: Adobe Illustrator 18.1.0, SVG Export Plug-In . SVG Version: 6.00 Build 0)  -->
<!DOCTYPE svg PUBLIC "-//W3C//DTD SVG 1.1//EN" "http://www.w3.org/Graphics/SVG/1.1/DTD/svg11.dtd">
<svg version="1.1" id="Layer_1" xmlns="http://www.w3.org/2000/svg" xmlns:xlink="http://www.w3.org/1999/xlink" x="0px" y="0px"
	 viewBox="0 0 500 500" enable-background="new 0 0 500 500" xml:space="preserve">
<g>
	<radialGradient id="SVGID_1_" cx="250" cy="250.0001" r="250" gradientUnits="userSpaceOnUse">
		<stop  offset="0" style="stop-color:#FF9700"/>
		<stop  offset="1" style="stop-color:#FF6300"/>
	</radialGradient>
	<circle fill="url(#SVGID_1_)" cx="250" cy="250" r="250"/>
	<g>
		<g>
			<g>
				<path fill="#B54600" d="M402,242.9c-2.9,6.9-9,11.3-16.1,9.9c-4.5-0.9-5.7-1.9-5.7-1.9s-3.1,14-4.3,26.5
					c-1.1,12.5-2.1,42.2-3.9,54.6c-2.7,18.4-18.7,22.6-28.5,22.9c-5.5,0.2-14.2-1.8-19.5-3.2c-24.3-6.5-42.2-11.9-76.8-10.4
					c-11.9,0.1-18.9,1.4-25.4,2.3s-14.5,3.2-15,1.9s6.4-6,15.3-9.1c26.9-9.2,45.6-12.6,73.5-8.1c10.2,1.6,22.6,5,32.9,5.2
					c7,0.2,16-2.7,20.7-7.6c4.1-4.4,7.8-20.9,7.1-21.5s-2.8,2.5-3.7,3.4c-2.4,2.5-2.9,3.4-8.1,6c-10,4.6-19.9,1.4-22.6-8
					c-1.2-4-1.2-7.7-2.1-7.7s-3.4,7-4.7,9.2c-4.4,7.3-8.2,10.2-17.3,9.9c-6.5-0.2-11.5-2.2-11.6-9c-0.2-9.8,0.2-19.6,0.2-29.4
					c0-5.4,0.1-10.9-0.6-16.2c-0.4-3.4-2.3-7.4-6.5-6.7c-2.8,0.5-5.3,3.8-6.2,5.5c-1.8,3.4-1.3,7.4-1.4,11.4
					c-0.3,13.3-0.3,26.7-0.1,40c0.1,4.2-1.5,5.5-5.4,5.6c-9,0.2-15.4-0.1-16-13.2c0-0.6-0.5-1.2-1.2-3.1c-1.2,2.2-1.8,3.7-2.6,5
					c-2.7,4.3-4.8,9-8.3,12.6c-7.6,7.8-17.2,6-22.2-3.7c-0.8-1.5-1.5-3-2.8-5.6c-1.7,4.3-2.9,7.5-4.3,10.6c-7.5,17.5-19.8,19-31,3.5
					c-12-16.5-17.9-35.9-24-55c-1.4-4.4-2.5-10.2-3.8-15c10.3-1.9,18.6-3.1,27.7-5.2c22.5-6.2,44.3-14.2,62.8-29.1
					c5.8-4.7,8.4-7.5,12.9-13.7c2.7-3.7,4.6-9.4,6.7-15.2c-4.5,2.3-10.1,1.9-11.5,1.9c-9,0.1-16.5-3.6-20.4-14.5
					c-3.7-10.1,0.9-22.9,10.7-27.7c10.2-4.9,22.5-2,28.5,8.5c6,10.5,5.8,24.1,3.4,35.5c-5,23.6-23.3,43.2-37,51.9
					c-15.5,9.8-31.6,15.9-54.4,21.6c0.2,4.4,9,21.6,10.3,24.1c4.4,8.3,11.4,16.6,16.4,14.6c4.6-1.8,4.8-3.7,4.9-7.9
					c0.2-8.6,0.2-17.1,0-25.7c0-1.7-0.2-5.1-0.2-5.1s2.6-1.2,4-1.9c6.1-2.8,12.3-7.2,19.1-10.6c0.5,8,0.6,16.8,1.2,24
					c0.5,5.2,1.1,10.5,2.2,15.5c0.4,1.9,2.4,4.7,3.8,4.7c1.7,0.1,4.3-2,5-3.7c1.6-4.5,3-9.4,3.2-14.2c0.5-9.4,0.2-18.9,0.1-28.3
					c0-1.7-0.2-5.9-0.2-5.9c2.3-4,7.4-8.5,12.6-9.5c4-0.8,7.4,2.4,8.4,6.2c0.5,2,1.1,4,1.2,7.5c2-4.3,2.8-8.5,4.4-11.4
					c3.9-7,9.3-13.6,18.6-12.4c9.2,1.2,13.1,12.5,14,20.5c1.1,10.2,0.2,23.9-0.3,34s0.4,12.3,2,12.3c2.7,0.1,6.8-5,7.8-19.1
					c0.9-13,1.6-26.5,8.9-37.6c7.5-11.5,22.4-17.7,34.9-4.1c0.9,1,3.6,3.8,5.2,5.2c0.2-2,0.7-5.6,3.6-10.7c1.4-2.5,4.8-8,10.9-10.4
					c8.8-3.5,19.4,1.7,21.4,8.6C404.9,234.4,402.6,241.3,402,242.9z M351.7,245c-5.4,0.1-8.2,3.9-10,8.3c-4.2,10-5.2,20.5-3.4,31.2
					c1.1,6.4,4.3,9.2,9.8,8.8c5.3-0.4,9.4-4.8,10-10.4c0.9-9.1,1.9-18.2,2.9-27.3C361.7,249.6,357.7,245,351.7,245z"/>
				<path fill="#B54600" d="M97.3,233.4c3.5-10.6,18.3-15.1,27.7-9.4c7.4,4.5,13.2,12.8,15.5,20.9c4.5,16,7.2,26,9.6,43.2
					c1.6,11.1,6,26.7,8.7,37.5c2.7,10.9,8.4,19.3,17.2,27.3c-20.4,4.5-37.4-1.4-41.8-21.4c-2.4-10.9-2.5-16.7-3.2-27.9
					c-0.8-14-3.5-29.3-5.7-41.9c-0.6-3.7-0.9-4.2-5.5-3.1c-10.7,2.6-19.6-4.9-22.7-13.2C96.7,243.9,95.3,239.3,97.3,233.4z"/>
			</g>
		</g>
		<g>
			<g>
				<linearGradient id="SVGID_2_" gradientUnits="userSpaceOnUse" x1="276.941" y1="144.9248" x2="276.941" y2="351.1487">
					<stop  offset="0" style="stop-color:#FFF139"/>
					<stop  offset="0.6659" style="stop-color:#FFF139"/>
					<stop  offset="0.6725" style="stop-color:#FEDF02"/>
					<stop  offset="1" style="stop-color:#FEDF02"/>
				</linearGradient>
				<path fill="url(#SVGID_2_)" d="M402,239c-2.9,6.9-9,11.3-16.1,9.9c-4.5-0.9-5.7-1.9-5.7-1.9s-3.1,14-4.3,26.5
					c-1.1,12.5-2.1,42.2-3.9,54.6c-2.7,18.4-18.7,22.6-28.5,22.9c-5.5,0.2-14.2-1.8-19.5-3.2c-24.3-6.5-42.2-11.9-76.8-10.4
					c-11.9,0.1-18.9,1.4-25.4,2.3s-14.5,3.2-15,1.9s6.4-6,15.3-9.1c26.9-9.2,45.6-12.6,73.5-8.1c10.2,1.6,22.6,5,32.9,5.2
					c7,0.2,16-2.7,20.7-7.6c4.1-4.4,7.8-20.9,7.1-21.5s-2.8,2.5-3.7,3.4c-2.4,2.5-2.9,3.4-8.1,6c-10,4.6-19.9,1.4-22.6-8
					c-1.2-4-1.2-7.7-2.1-7.7s-3.4,7-4.7,9.2c-4.4,7.3-8.2,10.2-17.3,9.9c-6.5-0.2-11.5-2.2-11.6-9c-0.2-9.8,0.2-19.6,0.2-29.4
					c0-5.4,0.1-10.9-0.6-16.2c-0.4-3.4-2.3-7.4-6.5-6.7c-2.8,0.5-5.3,3.8-6.2,5.5c-1.8,3.4-1.3,7.4-1.4,11.4
					c-0.3,13.3-0.3,26.7-0.1,40c0.1,4.2-1.5,5.5-5.4,5.6c-9,0.2-15.4-0.1-16-13.2c0-0.6-0.5-1.2-1.2-3.1c-1.2,2.2-1.8,3.7-2.6,5
					c-2.7,4.3-4.8,9-8.3,12.6c-7.6,7.8-17.2,6-22.2-3.7c-0.8-1.5-1.5-3-2.8-5.6c-1.7,4.3-2.9,7.5-4.3,10.6c-7.5,17.5-19.8,19-31,3.5
					c-12-16.5-17.9-35.9-24-55c-1.4-4.4-2.5-10.2-3.8-15c10.3-1.9,18.6-3.1,27.7-5.2c22.5-6.2,44.3-14.2,62.8-29.1
					c5.8-4.7,8.4-7.5,12.9-13.7c2.7-3.7,4.6-9.4,6.7-15.2c-4.5,2.3-10.1,1.9-11.5,1.9c-9,0.1-16.5-3.6-20.4-14.5
					c-3.7-10.1,0.9-22.9,10.7-27.7c10.2-4.9,22.5-2,28.5,8.5c6,10.5,5.8,24.1,3.4,35.5c-5,23.6-23.3,43.2-37,51.9
					c-15.5,9.8-31.6,15.9-54.4,21.6c0.2,4.4,9,21.6,10.3,24.1c4.4,8.3,11.4,16.6,16.4,14.6c4.6-1.8,4.8-3.7,4.9-7.9
					c0.2-8.6,0.2-17.1,0-25.7c0-1.7-0.2-5.1-0.2-5.1s2.6-1.2,4-1.9c6.1-2.8,12.3-7.2,19.1-10.6c0.5,8,0.6,16.8,1.2,24
					c0.5,5.2,1.1,10.5,2.2,15.5c0.4,1.9,2.4,4.7,3.8,4.7c1.7,0.1,4.3-2,5-3.7c1.6-4.5,3-9.4,3.2-14.2c0.5-9.4,0.2-18.9,0.1-28.3
					c0-1.7-0.2-5.9-0.2-5.9c2.3-4,7.4-8.5,12.6-9.5c4-0.8,7.4,2.4,8.4,6.2c0.5,2,1.1,4,1.2,7.5c2-4.3,2.8-8.5,4.4-11.4
					c3.9-7,9.3-13.6,18.6-12.4c9.2,1.2,13.1,12.5,14,20.5c1.1,10.2,0.2,23.9-0.3,34s0.4,12.3,2,12.3c2.7,0.1,6.8-5,7.8-19.1
					c0.9-13,1.6-26.5,8.9-37.6c7.5-11.5,22.4-17.7,34.9-4.1c0.9,1,3.6,3.8,5.2,5.2c0.2-2,0.7-5.6,3.6-10.7c1.4-2.5,4.8-8,10.9-10.4
					c8.8-3.5,19.4,1.7,21.4,8.6C404.9,230.5,402.6,237.4,402,239z M351.7,241.1c-5.4,0.1-8.2,3.9-10,8.3c-4.2,10-5.2,20.5-3.4,31.2
					c1.1,6.4,4.3,9.2,9.8,8.8c5.3-0.4,9.4-4.8,10-10.4c0.9-9.1,1.9-18.2,2.9-27.3C361.7,245.7,357.7,241,351.7,241.1z"/>
				<linearGradient id="SVGID_3_" gradientUnits="userSpaceOnUse" x1="136.1612" y1="217.5989" x2="136.1612" y2="350.4551">
					<stop  offset="0" style="stop-color:#FFF139"/>
					<stop  offset="0.4975" style="stop-color:#FFF139"/>
					<stop  offset="0.5064" style="stop-color:#FEDF02"/>
					<stop  offset="1" style="stop-color:#FEDF02"/>
				</linearGradient>
				<path fill="url(#SVGID_3_)" d="M97.3,229.5c3.5-10.6,18.3-15.1,27.7-9.4c7.4,4.5,13.2,12.8,15.5,20.9c4.5,16,7.2,26,9.6,43.2
					c1.6,11.1,6,26.7,8.7,37.5c2.7,10.9,8.4,19.3,17.2,27.3c-20.4,4.5-37.4-1.4-41.8-21.4c-2.4-10.9-2.5-16.7-3.2-27.9
					c-0.8-14-3.5-29.3-5.7-41.9c-0.6-3.7-0.9-4.2-5.5-3.1c-10.7,2.6-19.6-4.9-22.7-13.2C96.7,239.9,95.3,235.4,97.3,229.5z"/>
			</g>
		</g>
	</g>
</g>
</svg>
