<?xml version="1.0" encoding="utf-8"?>
<!-- Generator: Adobe Illustrator 18.1.0, SVG Export Plug-In . SVG Version: 6.00 Build 0)  -->
<!DOCTYPE svg PUBLIC "-//W3C//DTD SVG 1.1//EN" "http://www.w3.org/Graphics/SVG/1.1/DTD/svg11.dtd">
<svg version="1.1" id="Layer_1" xmlns="http://www.w3.org/2000/svg" xmlns:xlink="http://www.w3.org/1999/xlink" x="0px" y="0px"
	 viewBox="0 0 500 500" enable-background="new 0 0 500 500" xml:space="preserve">
<g>
	<circle fill="#3BB24A" cx="250" cy="250" r="250"/>
	<g>
		<polygon fill="#FFFFFF" points="144.8,223.6 144.8,250.5 126.4,223.6 106.5,223.6 106.5,276.9 126.3,276.9 126.3,250 144.7,276.9 
			164.6,276.9 164.6,223.6 		"/>
		<path fill="#FFFFFF" d="M377.5,257c7.1-2,11.6-7,11.6-15.2c0-13.7-10.9-18.1-25.2-18.1c-7,0-24.8,0-24.8,0v53.3h19.8v-16.6
			l11.8,16.6h22.8L377.5,257z M367.7,246.1c-1.2,0.9-3.4,1.4-5.2,1.4h-4.3V237h4.2c2,0,4.3,0.5,5.4,1.4c1.1,1,1.6,2.3,1.6,3.9
			C369.4,243.9,368.9,245.2,367.7,246.1z"/>
		<path fill="#FFFFFF" d="M290.7,223.6h40.2v13.9h-20.6v6.3h18.9v13.1h-18.9v6.2h21.2v13.9h-40.8V223.6z"/>
		<path fill="#FFFFFF" d="M212.4,223.6h-22.6l-20.9,53.3h22.1l1.9-7h16.4l1.9,7h22.1L212.4,223.6z M196.1,257.6l4.7-17.6h0.5
			l4.7,17.6H196.1z"/>
		<polygon fill="#FFFFFF" points="264.8,223.6 255,255.8 254.5,255.8 244.7,223.6 223.1,223.6 245.4,276.9 264.1,276.9 286.5,223.6 
					"/>
	</g>
</g>
</svg>
