<?xml version="1.0" encoding="iso-8859-1"?>
<!-- Generator: Adobe Illustrator 18.0.0, SVG Export Plug-In . SVG Version: 6.00 Build 0)  -->
<!DOCTYPE svg PUBLIC "-//W3C//DTD SVG 1.0//EN" "http://www.w3.org/TR/2001/REC-SVG-20010904/DTD/svg10.dtd">
<svg version="1.0" id="Layer_1" xmlns="http://www.w3.org/2000/svg" xmlns:xlink="http://www.w3.org/1999/xlink" x="0px" y="0px"
	 viewBox="0 0 500 500" enable-background="new 0 0 500 500" xml:space="preserve">
<g>
	<circle fill="#275AA5" cx="250.003" cy="250.176" r="250"/>
	<path fill="#FFFFFF" d="M413.278,221.807c-4.446-25.527-81.147-33.494-171.324-17.794c-37.871,6.596-72.067,16.326-98.696,27.273
		c4.089,0.09,7.124,1.028,8.966,2.866c1.441,1.442,2.169,3.422,2.169,5.89v2.532h-8.841v-2.237c0-1.863-1.117-3.018-3.098-3.018
		c-1.661,0-2.688,0.751-3.016,2.23c-0.093,0.413-0.119,1.12,0.036,1.765c0.946,3.868,14.076,6.269,15.507,13.409
		c0.187,0.918,0.441,2.882,0.041,5.696c-0.819,5.756-5.878,7.978-12.317,7.978c-8.987,0-12.638-4.258-12.638-10.125l0.006-2.776
		h9.48l0.005,3.458c0,1.944,1.413,3.017,3.338,3.017c1.823,0,2.889-0.734,3.257-2.237c0.172-0.691,0.246-1.706-0.064-2.485
		c-1.753-4.402-14.016-6.457-15.524-13.572c-0.337-1.6-0.365-2.96-0.085-4.682c0.152-0.933,0.439-1.73,0.785-2.46
		c-29.542,13.814-46.821,29.013-44.538,42.136c4.451,25.529,81.151,33.49,171.325,17.789c39.639-6.901,75.274-17.229,102.398-28.804
		c-0.394,0.019-0.773,0.061-1.18,0.061c-6.172,0-11.682-2.313-12.255-8.621c-0.102-1.148-0.121-1.628-0.124-2.284l0.003-14.501
		c0-0.625,0.073-1.722,0.143-2.29c0.731-6.096,5.552-8.611,12.232-8.611c5.17,0,11.51,1.484,12.207,8.615
		c0.092,0.896,0.083,1.851,0.081,2.166c0,0,0,0.003,0,0.007v1.363h-8.933v-2.037v-0.007c0-0.045-0.011-0.808-0.111-1.285
		c-0.146-0.728-0.767-2.415-3.311-2.415c-2.513,0-3.165,1.69-3.327,2.417c-0.092,0.399-0.137,0.972-0.137,1.607v15.761
		c-0.008,0.547,0.019,0.973,0.075,1.29c0.045,0.25,0.495,2.42,3.418,2.42c2.905,0,3.352-2.171,3.394-2.42
		c0.076-0.427,0.086-0.936,0.083-1.29v-4.884h-3.515v-5.26h12.426v9.355c-0.003,0.636-0.013,1.109-0.121,2.282
		c-0.15,1.654-0.671,3.055-1.489,4.252C398.785,249.695,415.532,234.741,413.278,221.807z M179.454,267.05l-4.523-30.739h-0.163
		l-4.638,30.739h-9.537l6.412-34.713h15.555l6.374,34.713H179.454z M225.313,267.05l-0.21-30.144h-0.152l-5.612,30.144h-8.948
		l-5.583-30.144h-0.158l-0.203,30.144h-8.869l0.768-34.713h14.262l4.153,25.788h0.203l4.162-25.788h14.256l0.766,34.713H225.313z
		 M267.069,260.323c-0.954,6.725-7.541,7.897-12.197,7.897c-7.73,0-12.511-3.302-12.511-10.028l0.005-2.742h9.365l0.007,3.417
		c0,1.855,1.308,2.991,3.327,2.991c1.802,0,2.856-0.724,3.222-2.21c0.169-0.693,0.242-1.702-0.06-2.463
		c-1.724-4.318-13.89-6.433-15.369-13.437c-0.34-1.588-0.363-2.936-0.084-4.639c1.029-6.349,7.123-7.669,12.027-7.669
		c4.387,0,7.58,0.958,9.495,2.873c1.428,1.43,2.152,3.392,2.152,5.832v2.505h-8.758v-2.21c0-1.892-1.174-2.987-3.061-2.987
		c-1.675,0-2.688,0.744-3.017,2.209c-0.068,0.309-0.135,1.027,0.042,1.745c0.937,3.849,13.952,6.202,15.377,13.274
		C267.212,255.587,267.464,257.524,267.069,260.323z M299.504,257.17c0.013,0.651-0.051,1.951-0.086,2.284
		c-0.534,5.72-4.624,8.627-12.128,8.627c-7.532,0-11.625-2.907-12.156-8.627c-0.037-0.333-0.102-1.633-0.086-2.28v-24.846h8.96
		v25.631c-0.01,0.573,0.019,0.997,0.076,1.292c0.111,0.57,0.677,2.421,3.206,2.421c2.521,0,3.088-1.85,3.206-2.415
		c0.051-0.301,0.079-0.748,0.079-1.298v-25.631h8.928C299.504,232.329,299.504,257.175,299.504,257.17z M338.106,266.697h-12.468
		L317.27,239.2h-0.14l0.464,27.497h-8.689v-34.36h12.989l7.735,26.414h0.181l-0.458-26.414h8.753V266.697z"/>
</g>
</svg>
