<?xml version="1.0" encoding="utf-8"?>
<!-- Generator: Adobe Illustrator 18.1.0, SVG Export Plug-In . SVG Version: 6.00 Build 0)  -->
<!DOCTYPE svg PUBLIC "-//W3C//DTD SVG 1.1//EN" "http://www.w3.org/Graphics/SVG/1.1/DTD/svg11.dtd">
<svg version="1.1" id="Layer_1" xmlns="http://www.w3.org/2000/svg" xmlns:xlink="http://www.w3.org/1999/xlink" x="0px" y="0px"
	 viewBox="0 0 500 500" enable-background="new 0 0 500 500" xml:space="preserve">
<g>
	<circle fill="#F7971D" cx="250" cy="250" r="250"/>
	<circle fill="#FFFFFF" cx="249.9" cy="247.7" r="238.6"/>
	<g>
		<g>
			<path fill-rule="evenodd" clip-rule="evenodd" fill="#F7971D" d="M214.4,296c-13.8,10.2-33.7,15.6-50.9,15.6
				c-24.1,0-45.8-8.9-62.2-23.7c-1.3-1.2-0.1-2.8,1.4-1.9c17.7,10.3,39.6,16.5,62.2,16.5c15.3,0,32-3.2,47.5-9.7
				C214.7,291.8,216.7,294.3,214.4,296z"/>
			<path fill-rule="evenodd" clip-rule="evenodd" fill="#F7971D" d="M220.1,289.5c-1.8-2.3-11.6-1.1-16.1-0.5
				c-1.3,0.2-1.6-1-0.3-1.9c7.9-5.5,20.8-3.9,22.3-2.1c1.5,1.9-0.4,14.8-7.8,21c-1.1,1-2.2,0.4-1.7-0.8
				C218.1,301,221.9,291.7,220.1,289.5z"/>
		</g>
		<g>
			<path fill-rule="evenodd" clip-rule="evenodd" d="M204.3,248v-5.4c0-0.8,0.6-1.4,1.4-1.4l24.1,0c0.8,0,1.4,0.6,1.4,1.4l0,4.6
				c0,0.8-0.7,1.8-1.8,3.4l-12.5,17.8c4.6-0.1,9.5,0.6,13.7,3c0.9,0.5,1.2,1.3,1.3,2.1v5.7c0,0.8-0.9,1.7-1.8,1.2
				c-7.4-3.9-17.3-4.3-25.5,0c-0.8,0.4-1.7-0.5-1.7-1.2v-5.5c0-0.9,0-2.4,0.9-3.7l14.5-20.8l-12.6,0
				C205,249.3,204.3,248.8,204.3,248z"/>
			<path fill-rule="evenodd" clip-rule="evenodd" d="M116.4,281.6h-7.3c-0.7,0-1.3-0.6-1.3-1.2l0-37.6c0-0.8,0.6-1.4,1.4-1.4l6.8,0
				c0.7,0,1.3,0.6,1.3,1.3v4.9h0.1c1.8-4.8,5.1-7,9.7-7c4.6,0,7.5,2.2,9.5,7c1.8-4.8,5.8-7,10.1-7c3.1,0,6.4,1.3,8.5,4.1
				c2.3,3.2,1.8,7.8,1.8,11.8l0,23.7c0,0.8-0.6,1.4-1.4,1.4h-7.3c-0.7,0-1.3-0.6-1.3-1.4l0-20c0-1.6,0.1-5.5-0.2-7
				c-0.5-2.5-2.2-3.2-4.3-3.2c-1.8,0-3.6,1.2-4.4,3.1c-0.8,1.9-0.7,5.1-0.7,7.2v19.9c0,0.8-0.6,1.4-1.4,1.4h-7.3
				c-0.7,0-1.3-0.6-1.3-1.4l0-20c0-4.2,0.7-10.4-4.5-10.4c-5.3,0-5.1,6-5.1,10.4l0,19.9C117.8,281,117.2,281.6,116.4,281.6z"/>
			<path fill-rule="evenodd" clip-rule="evenodd" d="M251.9,240.5c10.9,0,16.8,9.3,16.8,21.2c0,11.5-6.5,20.6-16.8,20.6
				c-10.7,0-16.5-9.3-16.5-21C235.5,249.6,241.3,240.5,251.9,240.5z M252,248.2c-5.4,0-5.8,7.4-5.8,12c0,4.6-0.1,14.4,5.7,14.4
				c5.7,0,6-7.9,6-12.8c0-3.2-0.1-7-1.1-10C256,249.2,254.3,248.2,252,248.2z"/>
			<path fill-rule="evenodd" clip-rule="evenodd" d="M282.8,281.6h-7.3c-0.7,0-1.3-0.6-1.3-1.4l0-37.6c0.1-0.7,0.7-1.2,1.4-1.2
				l6.8,0c0.6,0,1.2,0.5,1.3,1.1v5.8h0.1c2.1-5.1,4.9-7.6,10-7.6c3.3,0,6.5,1.2,8.6,4.4c1.9,3,1.9,8.1,1.9,11.7v23.7
				c-0.1,0.7-0.7,1.2-1.4,1.2h-7.4c-0.7,0-1.2-0.5-1.3-1.2v-20.4c0-4.1,0.5-10.1-4.6-10.1c-1.8,0-3.4,1.2-4.2,3
				c-1,2.3-1.2,4.6-1.2,7.1v20.3C284.2,281,283.6,281.6,282.8,281.6z"/>
			<ellipse fill-rule="evenodd" clip-rule="evenodd" cx="312.5" cy="278.6" rx="3.6" ry="3.4"/>
			<path d="M386.6,281.6c-0.8,0-1.4-0.6-1.4-1.4v-37.6c0.1-0.7,0.6-1.2,1.3-1.2l2.7,0c0.7,0,1.3,0.5,1.4,1.2v5.5
				c1.9-4.3,5.5-7.8,10-7.8l0.3,0l0.3,0c4.8,0,8.3,3.5,9.6,8.7c2-5.1,5.8-8.7,10.9-8.7l0.3,0l0.3,0c3.6,0,7,2.3,8.8,5.8
				c1.7,3.3,1.6,7.8,1.6,11.5l0,22.6c0,0.7-0.6,1.3-1.3,1.4h-3.2c-0.7,0-1.3-0.5-1.4-1.2v-22.8c0-2.7,0.1-5.5-1-8
				c-1.1-2.5-3.3-4.1-5.5-4.2c-2.6,0.1-4.9,2-6.4,4.5c-2,3.2-1.9,6.2-1.9,10v20.5c-0.1,0.6-0.6,1.1-1.3,1.2h-3.2
				c-0.8,0-1.4-0.6-1.4-1.4l0-24.1c0-2.2-0.1-4.8-1.2-6.8c-1.2-2.3-3.3-3.8-5.5-3.9c-2.3,0.1-4.6,1.9-6,4c-1.8,2.6-2.1,5.9-2.1,9.2
				l0,21.7c0,0.7-0.6,1.3-1.3,1.4H386.6z"/>
			<path d="M364.5,282.4c-10.4,0-15.1-10.6-15.1-21.2c0-11.2,5.5-20.8,15.9-20.8l0.3,0l0.3,0c10.2,0,15.3,10.3,15.3,20.9
				c0,11.2-5.6,21.1-16.2,21.1l-0.3,0L364.5,282.4z M365.3,277.2c3.4-0.1,6.1-2.2,7.7-5.8c1.4-3.2,1.7-6.8,1.7-10.3
				c0-3.8-0.4-7.8-2.2-11c-1.6-2.8-4.3-4.6-7.3-4.7c-3.2,0.1-6.1,2.3-7.6,5.7c-1.3,2.9-1.7,6.8-1.7,10.1c0,3.6,0.5,7.8,2,11
				C359.4,275.1,362.2,277.1,365.3,277.2z"/>
			<path d="M332,277c4.7-0.1,7.1-3.9,8.1-8.7c0.2-0.6,0.7-1.1,1.3-1.1l3.1,0c0.7,0,1.4,0.6,1.3,1.3c-1.4,8.3-6.4,13.9-13.5,13.9
				l-0.3,0l-0.3,0c-10.3,0-14.8-10.4-14.8-20.9c0-10.5,4.5-21.1,14.9-21.1l0.3,0l0.3,0c7.2,0,12.3,5.5,13.4,13.8
				c0,0.6-0.6,1.2-1.2,1.2l-3.2,0c-0.7-0.1-1.1-0.7-1.2-1.3c-0.8-4.6-3.4-8.3-7.8-8.4c-7,0.2-9,8.9-9,15.5
				C323.3,267.5,325,276.8,332,277z"/>
			<path fill-rule="evenodd" clip-rule="evenodd" d="M185.1,263.6c0,2.9,0.1,5.2-1.4,7.8c-1.2,2.1-3,3.3-5.1,3.3
				c-2.8,0-4.5-2.1-4.5-5.3c0-6.2,5.6-7.4,10.9-7.4V263.6z M192.5,281.5c-0.5,0.4-1.2,0.5-1.7,0.2c-2.4-2-2.9-3-4.2-4.9
				c-4,4.1-6.9,5.3-12.1,5.3c-6.2,0-11-3.8-11-11.4c0-6,3.2-10,7.8-12c4-1.7,9.5-2.1,13.8-2.5v-1c0-1.7,0.1-3.8-0.9-5.3
				c-0.9-1.3-2.6-1.9-4.1-1.9c-2.8,0-5.3,1.4-5.9,4.4c-0.1,0.7-0.6,1.3-1.3,1.3l-7.1-0.8c-0.6-0.1-1.3-0.6-1.1-1.5
				c1.6-8.6,9.4-11.2,16.4-11.2c3.6,0,8.2,1,11,3.7c3.6,3.3,3.2,7.8,3.2,12.6v11.4c0,3.4,1.4,4.9,2.8,6.8c0.5,0.7,0.6,1.5,0,1.9
				C196.7,277.9,194,280.2,192.5,281.5L192.5,281.5z"/>
			<path fill-rule="evenodd" clip-rule="evenodd" d="M89,263.6c0,2.9,0.1,5.2-1.4,7.8c-1.2,2.1-3,3.3-5.1,3.3
				c-2.8,0-4.5-2.1-4.5-5.3c0-6.2,5.6-7.4,10.9-7.4V263.6z M96.4,281.5c-0.5,0.4-1.2,0.5-1.7,0.2c-2.4-2-2.9-3-4.2-4.9
				c-4,4.1-6.9,5.3-12.1,5.3c-6.2,0-11-3.8-11-11.4c0-6,3.2-10,7.8-12c4-1.7,9.5-2.1,13.8-2.5v-1c0-1.7,0.1-3.8-0.9-5.3
				c-0.9-1.3-2.6-1.9-4.1-1.9c-2.8,0-5.3,1.4-5.9,4.4c-0.1,0.7-0.6,1.3-1.3,1.3l-7.1-0.8c-0.6-0.1-1.3-0.6-1.1-1.5
				c1.6-8.6,9.4-11.2,16.4-11.2c3.6,0,8.2,1,11,3.7c3.6,3.3,3.2,7.8,3.2,12.6v11.4c0,3.4,1.4,4.9,2.8,6.8c0.5,0.7,0.6,1.5,0,1.9
				C100.5,277.9,97.9,280.2,96.4,281.5L96.4,281.5z"/>
		</g>
	</g>
</g>
</svg>
