<?xml version="1.0" encoding="utf-8"?>
<!-- Generator: Adobe Illustrator 18.1.1, SVG Export Plug-In . SVG Version: 6.00 Build 0)  -->
<svg version="1.1" id="Layer_1" xmlns="http://www.w3.org/2000/svg" xmlns:xlink="http://www.w3.org/1999/xlink" x="0px" y="0px"
	 viewBox="0 0 500 500" enable-background="new 0 0 500 500" xml:space="preserve">
<g>
	<circle fill="#F40000" cx="250.3" cy="250.3" r="250"/>
	<g>
		<path fill-rule="evenodd" clip-rule="evenodd" fill="#FFFFFF" d="M142.3,136.9c3.9,6.9,20.8,16.7,30.2,18.8
			c0.5-13.5,21-16.4,40.7-16.5l37.4,184.8l36.5-185c19.7,0,40.2,2.7,40.8,16.3c9.3-2.2,26.2-12,30.1-18.9
			c-28.2-10.6-74.7-11.9-94.9-11.1l-12.9,15.5l-13-15.5C216.9,124.7,170.4,126.2,142.3,136.9L142.3,136.9z"/>
		<path fill-rule="evenodd" clip-rule="evenodd" fill="#FFFFFF" d="M129.1,118.6l7.2,9.9c27.3-9,59.8-13.4,94.1-14.5
			c12.9-0.4,26.2-0.4,39.1-0.1c34.3,0.9,66.7,5.1,94.1,14l7.2-9.9c-32.3-10.1-66.6-13.5-101-14.2c-13.3-0.3-26.6-0.3-39.9,0.1
			C195.7,104.8,161.4,108.3,129.1,118.6L129.1,118.6z"/>
		<polygon fill="#FFFFFF" points="344.7,376.3 344.7,376.3 344.8,396.7 351.3,396.6 351.2,383.1 374.8,383 374.9,396.6 381.3,396.6 
			381.3,376.3 344.7,376.3 		"/>
		<path fill="#FFFFFF" d="M241.5,370.1L241.5,370.1l23.2-0.1c3.5-1,6-3.6,6.7-6.6l-36.4,0.1l0,19.8l30.1-0.1l0,7l-23.3,0.1
			c-3.4,1.3-6,3.6-6.7,6.5l-0.1,0.3l36.6-0.1l0-20.3l-30.1,0.1L241.5,370.1L241.5,370.1z"/>
		<path fill="#FFFFFF" d="M320.1,396.6L320.1,396.6c3.2-1.4,5-3.8,5.7-6.6l-28.9,0.1l0-26.7l-6.5,0l0.1,33.2L320.1,396.6
			L320.1,396.6z"/>
		<path fill="#FFFFFF" d="M350.4,369.9L350.4,369.9l25.1-0.1c3.5-1.3,6-3.7,6.7-6.6l-38.7,0.1C344.1,366.3,346.9,368.6,350.4,369.9
			L350.4,369.9z"/>
		<path fill="#FFFFFF" d="M184.3,370.4L184.3,370.4l25.1-0.1c3.5-1.3,6.1-3.8,6.8-6.8l-38.7,0.1
			C178.2,366.7,180.8,369.1,184.3,370.4L184.3,370.4z"/>
		<path fill="#FFFFFF" d="M184.4,397.1L184.4,397.1l25.1-0.1c3.5-1.3,6.1-3.8,6.8-6.7l-38.7,0.1
			C178.3,393.4,180.9,395.8,184.4,397.1L184.4,397.1z"/>
		<path fill="#FFFFFF" d="M119,363.8L119,363.8c0.8,2.9,3.3,5.4,6.8,6.7l10.6,0l0.5,0.2l0.1,26.6l6.6,0l-0.1-26.6l0.6-0.2l10.6,0
			c3.5-1.3,6-3.8,6.7-6.7l0-0.1L119,363.8L119,363.8L119,363.8z"/>
		<path fill="#FFFFFF" d="M184.3,383.5l25.1-0.1c3.5-1.3,6.1-3.8,6.8-6.7l-38.7,0.1C178.2,379.7,180.8,382.2,184.3,383.5
			L184.3,383.5z"/>
	</g>
</g>
</svg>
