<?xml version="1.0" encoding="iso-8859-1"?>
<!-- Generator: Adobe Illustrator 18.0.0, SVG Export Plug-In . SVG Version: 6.00 Build 0)  -->
<!DOCTYPE svg PUBLIC "-//W3C//DTD SVG 1.0//EN" "http://www.w3.org/TR/2001/REC-SVG-20010904/DTD/svg10.dtd">
<svg version="1.0" id="Layer_1" xmlns="http://www.w3.org/2000/svg" xmlns:xlink="http://www.w3.org/1999/xlink" x="0px" y="0px"
	 viewBox="0 0 500 500" enable-background="new 0 0 500 500" xml:space="preserve">
<g>
	<circle fill="#D8D8D8" cx="249.714" cy="250.176" r="250"/>
	<g>
		<path fill-rule="evenodd" clip-rule="evenodd" fill="#231F20" d="M316.327,271.431c-3.64,8.066-5.385,11.668-10.073,18.797
			c-6.539,9.957-15.757,22.353-27.182,22.461c-10.154,0.094-12.759-6.607-26.537-6.53c-13.776,0.075-16.651,6.647-26.805,6.555
			c-11.423-0.106-20.162-11.301-26.704-21.256c-18.292-27.837-20.204-60.508-8.923-77.874c8.019-12.344,20.664-19.568,32.557-19.568
			c12.109,0,19.721,6.639,29.733,6.639c9.711,0,15.627-6.65,29.627-6.65c10.581,0,21.791,5.761,29.782,15.719
			C285.628,224.066,289.88,261.439,316.327,271.431L316.327,271.431z"/>
		<path fill-rule="evenodd" clip-rule="evenodd" fill="#231F20" d="M271.401,182.884c5.086-6.528,8.949-15.743,7.547-25.165
			c-8.308,0.572-18.026,5.859-23.7,12.748c-5.151,6.254-9.402,15.529-7.747,24.544C256.571,195.292,265.955,189.875,271.401,182.884
			L271.401,182.884z"/>
	</g>
</g>
</svg>
