<?xml version="1.0" encoding="utf-8"?>
<!-- Generator: Adobe Illustrator 18.1.0, SVG Export Plug-In . SVG Version: 6.00 Build 0)  -->
<!DOCTYPE svg PUBLIC "-//W3C//DTD SVG 1.1//EN" "http://www.w3.org/Graphics/SVG/1.1/DTD/svg11.dtd">
<svg version="1.1" id="Layer_1" xmlns="http://www.w3.org/2000/svg" xmlns:xlink="http://www.w3.org/1999/xlink" x="0px" y="0px"
	 viewBox="0 0 500 500" enable-background="new 0 0 500 500" xml:space="preserve">
<g>
	<path fill="none" d="M205.1,236.4c-0.4-0.2-1.1-0.7-1.8-0.9c-2.1-0.8-4.2-1.2-6.3-1.2c2.1,0,4.2,0.4,6.2,1.2
		C204,235.8,204.7,236.2,205.1,236.4z"/>
	<polygon fill="none" points="246.1,254.3 246.1,254.3 256.8,265.2 267.5,276 256.8,265.1 	"/>
	<path fill="none" d="M206.1,274.6C206.1,274.6,206.1,274.6,206.1,274.6C206.1,274.6,206.1,274.6,206.1,274.6
		c-0.1,0-0.7,0.4-1.7,0.9c-1,0.5-2.4,1-3.1,1.2c-1.1,0.3-3.2,0.5-5,0.4c-1.1,0-2.1-0.1-2.8-0.2c-4.4-0.9-8.4-3.5-11.2-7.3
		c-2.8-3.8-4.2-7.8-4.4-12.7c0-0.6,0-1.1,0-1.7c0,0.5,0,1.1,0,1.7c0.2,4.9,1.6,8.9,4.4,12.7c2.8,3.7,6.7,6.3,11.1,7.3
		c0.7,0.1,1.7,0.2,2.8,0.3c1.8,0,3.9-0.1,5-0.4c0.7-0.2,2.1-0.6,3.1-1.1c0.8-0.4,1.4-0.6,1.6-0.6
		C206.1,274.8,206.2,274.6,206.1,274.6z"/>
	<path fill="none" d="M280.2,263.7c1.5,2.4,4.2,3.8,6.9,3.7C284.5,267.5,281.7,266,280.2,263.7c-1.3-2.1-1.2-2.1-1.2-15.8
		C279,261.6,278.9,261.6,280.2,263.7z"/>
	<path fill="none" d="M269,248.6c0,15.2,0,14.9,1.9,18.8c0.4,0.8,0.9,1.5,1.4,2.2c-0.5-0.7-0.9-1.4-1.3-2.1
		C269.1,263.6,269,263.8,269,248.6z"/>
	<path fill="none" d="M331.2,267c0.6,0.3,1.4,0.5,1.9,0.5c0,0,0,0,0,0c-0.4,0-1.2-0.2-1.8-0.5c-1.3-0.6-2-1.7-2.3-3.3
		C329.3,265.3,329.8,266.4,331.2,267z"/>
	<path fill="none" d="M330.1,235.3c0.7,0,1.7,0,3,0C331.9,235.3,330.8,235.3,330.1,235.3z"/>
	<path fill="none" d="M172.9,271c2.2,2.9,3.7,5,3.7,5h0C176.7,275.9,175.1,273.9,172.9,271z"/>
	<path fill="none" d="M104.6,253.2l-1.2,1.2l4,5.3c1.4,1.9,2.7,3.5,3.4,4.6c-0.8-1-2-2.7-3.4-4.6l-4-5.3L104.6,253.2
		c5.6-5.6,3-15.3-4.7-17.3c-0.8-0.2-2.6-0.3-6.6-0.3c4,0,5.7,0.1,6.5,0.3C107.6,237.9,110.2,247.6,104.6,253.2z"/>
	<path fill="none" d="M111.6,265.5C111.6,265.5,111.6,265.5,111.6,265.5c-0.3,0-1.2,0.1-3.5,0l-3.7,0L101,261l-3.4-4.6l-1.9,0
		l-1.7,0l1.7,0l1.7,0l3.4,4.6l3.4,4.7l3.7,0.2c0,0,0,0,0,0C111,266,111.8,265.7,111.6,265.5z"/>
	<path fill="none" d="M319.2,265.7c-0.2-1.2-0.3-4.2-0.3-11.2l0-9.5l0,9.6C318.9,261.6,319,264.5,319.2,265.7
		c0.9,5.1,4.5,8.8,9.3,10.9C323.7,274.5,320.1,270.8,319.2,265.7z"/>
	<path fill="none" d="M159.4,239.6c0.4,0.9,0.6,1.5,0.6,2.6C160,241,159.9,240.5,159.4,239.6c-0.6-1.4-1.8-2.7-3.2-3.6
		C157.6,236.8,158.8,238.2,159.4,239.6z"/>
	<path fill="none" d="M206,236.1c0,0.4,0,0.6,0,0.7C206,236.8,206,236.5,206,236.1z"/>
	<path fill="none" d="M244.5,266.6c0.3,0.3,0.6,0.6,0.9,0.9l8.5,8.4l-8.5-8.4C245.1,267.3,244.8,266.9,244.5,266.6z"/>
	<path fill="none" d="M405.4,248.6l-0.7,1.4l-0.1,12.2l0.1-12.1L405.4,248.6c0.7-1.4,1.7-2.6,2.9-3.3
		C407.1,246,406.1,247.2,405.4,248.6z"/>
	<path fill="none" d="M405,235.6C405,235.6,405,235.6,405,235.6c0-0.3-0.3-0.5-3-0.6C404.7,235.1,405,235.3,405,235.6z"/>
	<path fill="none" d="M420.8,258.2c0,1.4,0,3,0,5l0.1,12.9l-0.1-12.9C420.8,261.2,420.8,259.6,420.8,258.2z"/>
	<path fill="none" d="M337.5,264.9C337.5,264.9,337.5,264.9,337.5,264.9c0.5,0,8.8,2.3,9,2.5c0,0,0,0,0,0.1c0,0,0-0.1,0-0.1
		C346.3,267.2,337.9,264.9,337.5,264.9z"/>
	<path fill="none" d="M380.3,274c-1.5,1-4,2.1-5.8,2.6c-1.9,0.5-6.9,0.6-8.8,0.2h0c-4-0.9-8.1-3.3-11-6.3c-3.2-3.5-5.2-7.7-5.7-12.3
		c0.5,4.6,2.5,8.8,5.7,12.3c2.8,3,7,5.5,11,6.3l0,0c1.9,0.4,6.9,0.3,8.8-0.2C376.3,276.1,378.8,275,380.3,274
		c1.3-0.8,4.8-4.2,5.6-5.4l0.5-0.6l0,0l-0.5,0.6C385,269.9,381.6,273.2,380.3,274z"/>
	<path fill="none" d="M405.6,235.8c2.1-1.1,3.6-1.4,7-1.4c3.6,0,4.9,0.3,7.5,1.5c2.2,1.1,3.8,2.2,5.5,4c1.1,1.1,2,2.4,2.7,3.8
		c0.5,0.9,0.9,1.9,1.3,2.9l0.7,1.9l0.1,12.6l0,1.1l0.1,13.7l-0.1-13.7l0-1.1l-0.1-12.6l-0.7-1.9c-0.4-1-0.8-2-1.3-2.9
		c-0.8-1.4-1.6-2.7-2.7-3.8c-1.7-1.8-3.3-3-5.5-4c-2.6-1.2-3.9-1.5-7.5-1.5C409.3,234.4,407.7,234.7,405.6,235.8
		c-0.5,0.2-0.6,0.2-0.6,0.1C405,236.1,405.1,236.1,405.6,235.8z"/>
	<path fill="#BF2E30" d="M250,0C111.9,0,0,111.9,0,250s111.9,250,250,250s250-111.9,250-250S388.1,0,250,0z M250,487.8
		C118.2,487.8,11.4,381,11.4,249.2S118.2,10.6,250,10.6s238.6,106.8,238.6,238.6S381.8,487.8,250,487.8z"/>
	<path fill="#FFFFFF" d="M369.2,243.4c-3.5-0.3-7.3,1.8-8.7,4.8c-0.9,2-1.6,1.8,7.5,1.8h8.1l-0.1-0.8
		C375.5,246.2,372.6,243.6,369.2,243.4z"/>
	<path fill="#FFFFFF" d="M159.5,245.7c0.5-1,0.6-1.5,0.6-3c0-0.2,0-0.3,0-0.5c0-1.1-0.2-1.6-0.6-2.6c-0.6-1.4-1.8-2.7-3.2-3.6
		c-0.3-0.2-0.6-0.4-0.9-0.5c-1.3-0.6-1.5-0.6-5.3-0.7l-4-0.1v7.9v8.4h3.7c3.1,0,3.8-0.3,5-0.7C156.9,249.6,158.4,248.1,159.5,245.7z
		"/>
	<path fill="#FFFFFF" d="M191.1,246.7c-2.1,2.1-3.5,5.8-3.5,9.1c0,5.5,3.4,10.5,7.8,11.6c1,0.3,3,0.1,4.2-0.3
		c5.7-2,8.5-10.4,5.7-16.9C202.4,243.7,195.7,242,191.1,246.7z"/>
	<path fill="#FFFFFF" d="M250,10.6c-131.8,0-238.6,106.8-238.6,238.6S118.2,487.8,250,487.8S488.6,381,488.6,249.2
		S381.8,10.6,250,10.6z M102.6,277.9c-2.3,0.5-7.3,0.6-9.6,0.2c-8.9-1.4-16.5-6.9-20.5-14.9c-2.2-4.4-3-7.8-3-12.8
		c0-4.5,0.7-7.8,2.5-11.6c3.8-8.1,11.4-14,20.4-15.7c2.2-0.4,7.7-0.4,9.9,0.1c4,0.8,7.2,2.2,10.5,4.3c5.5,3.6,9.7,9.6,11.4,16.1
		C128.1,259.1,118.3,274.7,102.6,277.9z M176.7,276c0,0-1.5,0-3.7,0c-0.5,0-1.1,0-1.7,0c-0.2,0-0.4,0-0.6,0h-6.1l-5.9-8l-5.9-8h-3.3
		H146v8.2v7.8h-4.9H136v-25.4v-25.5l9.8,0.1c10.9,0.1,10.8,0.1,14.3,1.8c4.6,2.3,7.9,6.4,9.2,11.4c1.6,6.3-0.4,13-5.2,17.4l-1.6,1.5
		l7.1,9.4c1.2,1.6,2.4,3.1,3.4,4.5C175.1,273.9,176.7,275.9,176.7,276L176.7,276L176.7,276z M216,255.7V276h-4.8H206v-0.7
		c0-0.1,0-0.2,0-0.3c-0.2,0.1-0.7,0.2-1.6,0.6c-1,0.5-2.4,0.9-3.1,1.1c-1.1,0.3-3.2,0.4-5,0.4c-1.1,0-2.1-0.1-2.8-0.3
		c-4.4-0.9-8.3-3.5-11.1-7.3c-2.8-3.8-4.2-7.8-4.4-12.7c0-0.6,0-1.1,0-1.7c0-3.8,0.7-6.9,2.4-10.1c3.4-6.7,9.8-10.7,16.4-10.8
		c0.1,0,0.2,0,0.3,0c2.1,0,4.2,0.4,6.3,1.2c0.7,0.3,1.4,0.7,1.8,0.9c0,0,0,0,0,0c0,0,0,0,0,0c0.5,0.3,0.7,0.4,0.8,0.4c0,0,0,0,0,0
		c0.1-0.1,0-0.3,0-0.7V235h5.2h4.8V255.7z M260.7,276h-6.8l-8.5-8.4c-0.3-0.3-0.6-0.6-0.9-0.9c-4.2-4.2-7.6-7.5-7.7-7.5
		c-0.1,0-0.2,3.8-0.2,8.5l-0.1,8.5l-4.8-0.1l-4.8-0.1v-27.2V222h4.8h5.2v13.9V250l7.2-7.5l7.2-7.5h6.9h6.9l-9.5,9.7l-9.4,9.6
		l10.7,10.8l10.7,10.9H260.7z M305,255.7V276h-5.1c-4.6,0-4.8,0-4.8-0.4c0-0.4,0-0.3-1,0.1c-2.2,1-3.8,1.3-6.6,1.4
		c-2,0.1-3.2-0.2-4.3-0.2h0c-4.4-0.8-8.3-3.7-10.9-7.4c-0.5-0.7-1-1.4-1.4-2.2c-2-3.9-1.9-3.6-1.9-18.8V235h5h5v12.9
		c0,13.7-0.1,13.7,1.2,15.8c1.5,2.3,4.2,3.8,6.9,3.7c0.4,0,0.8-0.1,1.1-0.1c3.2-0.6,5.3-2.5,6.3-5.5c0.4-1.3,0.4-1.7,0.4-13.9v-12.6
		l5,0.1l5,0.1V255.7z M344.2,271.7c-1.6,2.1-4,4-6.9,5c-1.9,0.7-5.9,0.3-8,0.3h0c-0.3-0.1-0.7-0.3-1-0.4c-4.8-2.1-8.3-5.8-9.3-10.9
		c-0.2-1.2-0.3-4.1-0.3-11.2l0-9.6h-3.4H312v-4.9v-4.9l3.5,0.1l3.5,0.1v-5.2V225h4.7h5.3v5.1v5l0.3,0.1c0.1,0,0.4,0,0.8,0
		c0.7,0,1.7,0,3,0c0.9,0,2,0,3.1,0l6.8-0.1v4.9v4.9h-7.3H329v8.8c0,5-0.1,9.2,0,9.9c0.3,1.6,1,2.7,2.3,3.3c0.6,0.3,1.4,0.5,1.8,0.5
		c1.1,0,2.4-0.7,3.2-1.7c0.4-0.5,0.9-0.9,1.2-0.9c0,0,0,0,0,0c0,0,0,0,0,0c0.5,0,8.8,2.3,9,2.4c0,0,0,0,0,0.1
		C346.4,267.9,345,270.6,344.2,271.7z M387.1,258l-0.1,1h-13.6c-15.5,0-13.9-0.5-13.2,1.7c1.7,5,7.2,7.8,11.8,6.4
		c1.7-0.5,3.2-1.4,4.6-2.8c0.7-0.7,1.3-1.2,1.4-1.1c0.1,0,2,1.1,4.3,2.4l4.1,2.4l0,0l0,0l-0.5,0.6c-0.8,1.2-4.3,4.5-5.6,5.4
		c-1.5,1-4,2.1-5.8,2.6c-1.9,0.5-6.9,0.6-8.8,0.2l0,0c-4-0.9-8.1-3.3-11-6.3c-3.2-3.5-5.2-7.7-5.7-12.3c-0.1-0.7-0.1-1.3-0.1-2
		c0-0.6,0-1.2,0-1.8c0.1-1.8,0.4-3.7,0.9-5.5c0.7-2.5,1.9-4.8,3.3-6.8c0.5-0.7,1-1.3,1.5-1.9c0.5-0.6,1.1-1.2,1.7-1.7
		c1.8-1.6,3.9-2.7,6.2-3.5c1.3-0.4,2.3-0.6,4.4-0.7c3.2-0.1,5,0.1,7.4,1.1c7.2,2.9,12.2,10.5,12.6,19.1
		C387.2,255.9,387.2,257.5,387.1,258z M420.9,276l-0.1-12.9c0-1.9,0-3.6,0-5c0-7.6-0.1-8.1-0.5-8.9c-1.5-3.4-4.2-5.2-7.7-5.2
		c-1.6,0-3,0.4-4.3,1.2c-1.2,0.8-2.2,1.9-2.9,3.3l-0.7,1.4l-0.1,12.1l0,0.8l-0.1,13h-4.9H395v-20.3V235h4.7c0.6,0,1.3,0,1.8,0
		c0.2,0,0.4,0,0.6,0c2.7,0.1,3,0.3,3,0.6c0-0.3-0.1-0.5-2.8-0.6c-0.2,0-0.4,0-0.6,0c0.2,0,0.4,0,0.6,0c2.7,0.1,2.8,0.3,2.8,0.6
		c0,0,0,0,0,0c0,0,0,0,0,0c0,0.1,0,0.3,0,0.3c0,0.1,0.1,0,0.6-0.2c2.1-1.1,3.7-1.4,7.1-1.4c3.6,0,4.9,0.3,7.5,1.5
		c2.2,1.1,3.8,2.2,5.5,4c1.1,1.1,2,2.4,2.7,3.8c0.5,0.9,0.9,1.9,1.3,2.9l0.7,1.9l0.1,12.6l0,1.1l0.1,13.7h-4.8H420.9z"/>
	<path fill="#FFFFFF" d="M97.6,256.4l3.4,4.6l3.4,4.6l3.7,0c2.3,0,3.2,0,3.4-0.1c-0.1-0.2-0.3-0.6-0.7-1.1c-0.8-1-2-2.7-3.4-4.6
		l-4-5.3l1.2-1.2c5.6-5.6,2.9-15.3-4.8-17.3c-0.8-0.2-2.5-0.3-6.5-0.3l-5.4,0v15V266h2.6H94v-5v-4.6l1.7,0L97.6,256.4z M94,250.6
		V246v-4.6l1.9,0c2.5,0,3.4,0.2,4.4,1.1c1.1,1,1.5,2.1,1.5,3.5c0,1.5-0.5,2.7-1.8,3.5c-1.1,0.8-2,1-4.3,1L94,250.6z"/>
	<path d="M169.6,266.5l-7.1-9.4l1.6-1.5c4.8-4.4,6.8-11.1,5.2-17.4c-1.3-5-4.6-9.1-9.2-11.4c-3.5-1.7-3.4-1.7-14.3-1.8l-9.8-0.1
		v25.5V276h5.1h4.9v-7.8V260h3.3h3.3l5.9,8l5.9,8h6.1c0.2,0,0.4,0,0.6,0c0.6,0,1.2,0,1.7,0c2.2,0,3.7,0,3.7,0l0,0c0,0-1.5-2-3.7-5
		C171.9,269.7,170.8,268.1,169.6,266.5z M149.7,251H146v-8.4v-7.9l4,0.1c3.9,0.1,4.1,0.1,5.3,0.7c0.3,0.1,0.6,0.3,0.9,0.5
		c1.3,0.9,2.5,2.2,3.2,3.6c0.4,1,0.6,1.5,0.6,2.6c0,0.2,0,0.3,0,0.5c0,1.5-0.1,2-0.6,3c-1.1,2.3-2.5,3.9-4.8,4.6
		C153.5,250.7,152.8,251,149.7,251z"/>
	<path d="M206,235v1.1c0,0.4,0,0.6,0,0.7c0,0,0,0,0,0c-0.1,0-0.3-0.1-0.8-0.4c0,0,0,0,0,0c0,0,0,0,0,0c-0.4-0.2-1.2-0.7-1.9-0.9
		c-2-0.8-4.1-1.2-6.2-1.2c-0.1,0-0.2,0-0.3,0c-6.6,0.1-13,4.1-16.4,10.8c-1.6,3.2-2.3,6.3-2.4,10.1c0,0.5,0,1.1,0,1.7
		c0.2,4.9,1.6,8.9,4.4,12.7c2.8,3.7,6.7,6.3,11.2,7.3c0.7,0.1,1.7,0.2,2.8,0.2c1.8,0,3.9-0.1,5-0.4c0.7-0.2,2.1-0.7,3.1-1.2
		c1-0.5,1.6-0.8,1.7-0.9c0,0,0,0,0,0c0,0,0,0,0,0c0,0,0,0.2-0.1,0.4c0,0.1,0,0.2,0,0.3v0.7h5.2h4.8v-20.3V235h-4.8H206z M199.6,267
		c-1.2,0.4-3.2,0.6-4.2,0.3c-4.4-1.1-7.8-6.1-7.8-11.6c0-3.3,1.4-6.9,3.5-9.1c4.5-4.6,11.3-3,14.2,3.5
		C208.1,256.5,205.3,265,199.6,267z"/>
	<path d="M374.5,235.5c-2.4-1-4.2-1.2-7.4-1.1c-2.1,0.1-3.1,0.2-4.4,0.7c-2.3,0.7-4.4,1.9-6.2,3.5c-0.6,0.5-1.2,1.1-1.7,1.7
		c-0.6,0.6-1.1,1.2-1.5,1.9c-1.4,2-2.6,4.3-3.3,6.8c-0.5,1.8-0.8,3.7-0.9,5.5c0,0.6,0,1.2,0,1.8c0,0.7,0.1,1.3,0.1,2
		c0.5,4.6,2.5,8.8,5.7,12.3c2.8,3,7,5.5,11,6.3h0c1.9,0.4,6.9,0.3,8.8-0.2c1.8-0.5,4.3-1.6,5.8-2.6c1.3-0.8,4.8-4.2,5.6-5.4l0.5-0.6
		l0,0l-4.1-2.4c-2.2-1.3-4.2-2.4-4.3-2.4c-0.1,0-0.7,0.5-1.4,1.1c-1.4,1.4-2.9,2.3-4.6,2.8c-4.7,1.4-10.1-1.5-11.8-6.4
		c-0.8-2.2-2.3-1.7,13.2-1.7H387l0.1-1c0.1-0.4,0.1-2,0-3.4C386.7,246,381.8,238.4,374.5,235.5z M368.1,250c-9.1,0-8.5,0.1-7.5-1.8
		c1.4-3,5.1-5.1,8.7-4.8c3.3,0.2,6.3,2.8,6.8,5.8l0.1,0.8H368.1z"/>
	<path fill="none" stroke="#000000" stroke-width="0" stroke-linecap="round" stroke-linejoin="round" d="M354.7,240.2
		c0.5-0.6,1.1-1.2,1.7-1.7"/>
	<path fill="none" stroke="#000000" stroke-width="0" stroke-linecap="round" stroke-linejoin="round" d="M348.9,254.4
		c0,0.6,0,1.2,0,1.8"/>
	<path fill="none" stroke="#000000" stroke-width="0" stroke-linecap="round" stroke-linejoin="round" d="M353.2,242.1
		c0.5-0.7,1-1.3,1.5-1.9"/>
	<path d="M430.5,262.3l0-1.1l-0.1-12.6l-0.7-1.9c-0.4-1-0.8-2-1.3-2.9c-0.8-1.4-1.7-2.7-2.7-3.8c-1.7-1.8-3.3-2.9-5.5-4
		c-2.6-1.2-3.9-1.5-7.5-1.5c-3.4,0-4.9,0.3-7,1.4c-0.5,0.3-0.6,0.3-0.6,0.1c0-0.1,0-0.2,0-0.3c0,0,0,0,0,0c0-0.3-0.3-0.5-3-0.6
		c-0.2,0-0.4,0-0.6,0c-0.5,0-1.2,0-1.8,0H395v20.7V276h4.6h4.9l0.1-13l0-0.8l0.1-12.2l0.7-1.4c0.7-1.4,1.7-2.6,2.9-3.3
		s2.7-1.2,4.3-1.2c3.5,0,6.3,1.8,7.7,5.2c0.3,0.8,0.4,1.3,0.5,8.9c0,1.4,0,3,0,5l0.1,12.9h4.8h4.8L430.5,262.3z"/>
	<path fill="none" stroke="#000000" stroke-width="0" stroke-linecap="round" stroke-linejoin="round" d="M401.7,235
		c0.2,0,0.4,0,0.6,0"/>
	<path d="M405,235.6c0-0.3-0.1-0.5-2.8-0.6C404.9,235.1,405,235.3,405,235.6C405,235.6,405,235.6,405,235.6
		C405,235.6,405,235.6,405,235.6z"/>
	
		<line fill="none" stroke="#000000" stroke-width="0" stroke-linecap="round" stroke-linejoin="round" x1="405" y1="236" x2="405" y2="236"/>
	<path d="M337.5,264.9C337.5,264.9,337.4,264.9,337.5,264.9c-0.2,0-0.8,0.4-1.2,0.9c-0.9,1-2.1,1.7-3.2,1.7c0,0,0,0,0,0
		c-0.4,0-1.2-0.2-1.9-0.5c-1.3-0.6-1.9-1.7-2.2-3.3c-0.1-0.7,0-4.9,0-9.9V245h6.7h7.3v-4.9v-4.9l-6.8,0.1c-1.1,0-2.2,0-3.1,0
		c-1.3,0-2.3,0-3,0c-0.5,0-0.8,0-0.8,0l-0.3-0.1v-5V225h-5.3H319v5.2v5.2l-3.5-0.1l-3.5-0.1v4.9v4.9h3.5h3.4l0,9.5
		c0,7,0.1,10,0.3,11.2c0.9,5.1,4.5,8.8,9.3,10.9c0.3,0.1,0.6,0.3,1,0.4h0c2.1,0,6.1,0.3,8-0.3c2.8-1,5.3-2.8,6.9-5
		c0.8-1.1,2.2-3.8,2.2-4.2c0,0,0-0.1,0-0.1C346.3,267.2,338,265,337.5,264.9z"/>
	<path d="M246.1,254.3L246.1,254.3l9.5-9.7l9.5-9.7h-6.9h-6.9l-7.2,7.5L237,250v-14.2V222h-5.2H227v26.9v27.2l4.8,0.1l4.8,0.1
		l0.1-8.5c0-4.7,0.1-8.5,0.2-8.5c0.1,0,3.5,3.3,7.7,7.5c0.3,0.3,0.6,0.6,0.9,0.9l8.5,8.4h6.8h6.8l-10.7-10.8L246.1,254.3z"/>
	<path d="M295,235.3v12.6c0,12.2,0,12.6-0.4,13.9c-1,3-3.1,4.9-6.3,5.5c-0.4,0.1-0.7,0.1-1.1,0.1c-2.7,0.1-5.4-1.4-6.9-3.7
		c-1.3-2.1-1.2-2.1-1.2-15.8V235h-5h-5v13.6c0,15.2,0.1,15,2,18.9c0.4,0.7,0.8,1.4,1.3,2.1c2.5,3.7,6.5,6.5,10.9,7.4h0
		c1.1,0,2.3,0.2,4.3,0.2c2.9-0.1,4.4-0.5,6.6-1.4c1-0.4,1-0.5,1-0.1c0,0.4,0.2,0.4,4.8,0.4h5.1v-20.3v-20.3l-5-0.1L295,235.3z"/>
	<path fill="#BF2E30" d="M101.7,246c0-1.5-0.4-2.6-1.5-3.5c-1-0.9-1.9-1.1-4.4-1.1l-1.9,0v4.6v4.6l1.6,0c2.3,0,3.2-0.2,4.3-1
		C101.2,248.7,101.7,247.6,101.7,246z"/>
	<path fill="#BF2E30" d="M112.8,227.6c-3.3-2.2-6.5-3.5-10.5-4.3c-2.2-0.5-7.7-0.5-9.9-0.1c-9.1,1.7-16.6,7.6-20.4,15.7
		c-1.8,3.9-2.5,7.2-2.5,11.6c0,5,0.8,8.4,3,12.8c4,7.9,11.6,13.4,20.5,14.9c2.3,0.4,7.4,0.3,9.6-0.2c15.7-3.2,25.4-18.8,21.5-34.3
		C122.5,237.2,118.2,231.1,112.8,227.6z M108.1,266l-3.7-0.2l-3.4-4.7l-3.4-4.6l-1.7,0l-1.7,0v4.6v5h-3.4H88v-15.4v-15l5.4,0
		c4,0,5.8,0.1,6.6,0.3c7.7,2,10.3,11.7,4.7,17.3l-1.3,1.2l4,5.3c1.4,1.9,2.7,3.5,3.4,4.6c0.4,0.5,0.6,0.9,0.7,1.1c0,0,0,0.1,0.1,0.1
		C111.8,265.7,111,266,108.1,266C108.1,266,108.1,266,108.1,266z"/>
</g>
</svg>
