<?xml version="1.0" encoding="utf-8"?>
<!-- Generator: Adobe Illustrator 18.1.1, SVG Export Plug-In . SVG Version: 6.00 Build 0)  -->
<svg version="1.1" id="Layer_1" xmlns="http://www.w3.org/2000/svg" xmlns:xlink="http://www.w3.org/1999/xlink" x="0px" y="0px"
	 viewBox="0 0 500 500" enable-background="new 0 0 500 500" xml:space="preserve">
<g>
	<circle fill="#D8D8D8" cx="249.8" cy="249.6" r="250"/>
	<circle fill="#FFFFFF" cx="249.8" cy="249.6" r="238.6"/>
	<g>
		<path d="M222.6,278.2c-3.7,0-7.3,0-11,0c0-0.5,0-1,0-1.5c0-7.9,0-15.7,0-23.6c0-1.1-0.1-2.2-0.2-3.2c-0.4-2.4-1.7-3.6-4-4
			c-2.5-0.3-5,0.1-7.4,0.8c-0.8,0.2-0.7,0.8-0.7,1.4c0,9.5,0,19,0,28.5c0,0.5,0,1,0,1.6c-3.6,0-7.2,0-10.9,0c0-13.4,0-26.8,0-40.4
			c1.3,0,2.7,0,4,0c3.4,0,3.4,0,4.7,3.1c0.1,0.3,0.2,0.5,0.4,0.9c3.4-3,7.2-4.9,11.8-5.1c4.5-0.2,8.6,0.9,11.3,5.1
			c0.4-0.3,0.7-0.6,1.1-0.9c4.5-3.6,9.6-5,15.3-3.9c4.6,0.9,7.6,4.4,8.5,9.7c0.3,1.6,0.5,3.3,0.5,5c0,8.4,0,16.9,0,25.3
			c0,0.4,0,0.7-0.1,1.2c-3.6,0-7.2,0-10.9,0c0-0.6,0-1.1,0-1.6c0-7.9,0-15.7,0-23.6c0-1.2-0.1-2.4-0.3-3.5c-0.5-2.3-1.7-3.3-4.1-3.6
			c-2.5-0.3-4.8,0.1-7.2,0.8c-0.9,0.2-0.7,0.9-0.7,1.5c0,9.5,0,19,0,28.5C222.6,277.1,222.6,277.6,222.6,278.2z"/>
		<path d="M96.2,278.3c-2.4,0-4.7,0-7.1,0c-0.2,0-0.6-0.4-0.7-0.7c-0.4-0.8-0.6-1.7-1-2.6c-1.1,0.7-2,1.4-2.9,1.9
			c-3.7,2.3-7.6,3.2-11.9,2.3c-5-1-8.6-3.9-10.5-8.6c-2.9-7.6-3.3-15.4-0.3-23.1c4-10.2,14-12.1,20.7-10.3c0.9,0.3,1.8,0.7,2.9,1.2
			c0-1,0-2,0-2.9c0-4.3,0-8.6,0-12.9c0-1.2,0.2-1.7,1.5-1.8c3.1-0.4,6.1-1,9.2-1.6C96.2,238.9,96.2,258.5,96.2,278.3z M85.6,257
			c0-3.4,0-6.8,0-10.1c0-0.8-0.2-1.2-1.1-1.3c-1.2-0.1-2.3-0.3-3.5-0.4c-4.5-0.4-7.7,1.6-9.1,5.9c-1.1,3.4-1.3,7-0.9,10.5
			c0.2,2,0.7,4,1.5,5.9c1.1,2.5,3.2,3.6,5.9,3.5c2.4-0.1,4.4-1,6.2-2.4c0.4-0.3,0.8-1,0.8-1.5C85.6,263.6,85.6,260.3,85.6,257z"/>
		<path d="M357.6,256.8c4.7,5.5,9.3,11,13.9,16.5c-2.7,2.1-5.4,4.2-8.2,6.4c-5.6-6.9-11.2-13.7-16.8-20.6c-0.1,0-0.2,0.1-0.3,0.1
			c0,6.3,0,12.6,0,18.9c-3.6,0-7.1,0-10.8,0c0-0.5,0-0.9,0-1.4c0-18.1,0-36.2,0-54.3c0-1.2,0.3-1.6,1.5-1.7c3.1-0.4,6.1-1,9.3-1.6
			c0,12.4,0,24.6,0,36.8c0.1,0,0.2,0.1,0.3,0.1c5.1-6.8,10.2-13.7,15.4-20.7c2.7,1.9,5.4,3.7,8.1,5.6
			C365.9,246.3,361.8,251.5,357.6,256.8z"/>
		<path d="M265.9,256c5.1-6.8,10.2-13.7,15.4-20.6c2.7,1.9,5.4,3.7,8.2,5.6c-4.2,5.3-8.3,10.5-12.4,15.8c4.6,5.5,9.2,10.9,13.9,16.5
			c-2.8,2.1-5.4,4.2-8.2,6.4c-5.6-6.9-11.2-13.7-16.8-20.6c-0.1,0-0.2,0.1-0.3,0.1c0,6.3,0,12.6,0,18.9c-3.6,0-7.1,0-10.8,0
			c0-0.5,0-1,0-1.4c0-18.1,0-36.2,0-54.3c0-1.2,0.3-1.6,1.5-1.7c3.1-0.4,6.1-1,9.3-1.6c0,12.4,0,24.6,0,36.8
			C265.7,256,265.8,256,265.9,256z"/>
		<path d="M453.6,258.3c-0.1,3.8-0.7,7.4-2.3,10.9c-2.8,6-7.6,9.1-14,10.1c-3,0.5-6.1,0.3-9.1-0.4c-6-1.5-10.3-5.2-12.3-11.1
			c-2.4-7-2.3-14,0.8-20.8c3.1-6.6,8.5-10,15.7-10.3c2.4-0.1,4.9,0.1,7.2,0.6c7.5,1.9,11.5,7.2,13.1,14.5
			C453.2,253.9,453.3,256.1,453.6,258.3z M442.6,258.5c-0.3-3.2-0.5-6.2-1.8-9.1c-1-2.2-2.5-3.7-4.9-4.3c-4.2-1-7.7,0.8-9.2,4.9
			c-1.8,5.2-1.8,10.6-0.2,15.9c1.1,3.5,3.7,5.2,7.4,5.1c3.7,0,6.3-1.7,7.3-5.3C442,263.5,442.2,261,442.6,258.5z"/>
		<path d="M143.8,237.8c3.7,0,7.2,0,10.9,0c0,0.6,0,1,0,1.5c0,7.9,0.1,15.9,0,23.8c-0.1,5.4,2.3,7.3,7.9,7.1c0.6,0,1.2-0.2,1.8-0.4
			c3.5-1,3.8-1.4,3.8-4.9c0-8.6,0-17.2,0-25.9c0-1.1,0.3-1.4,1.4-1.4c3.1,0.1,6.3,0,9.5,0c0,13.5,0,26.9,0,40.5c-2.4,0-4.8,0-7.2,0
			c-0.2,0-0.6-0.4-0.6-0.7c-0.3-1-0.5-2-0.8-3.2c-0.4,0.3-0.7,0.5-0.9,0.8c-5,4.3-10.8,5.4-17,3.6c-5.1-1.5-7.5-5.3-8.3-10.3
			c-0.2-1.2-0.3-2.5-0.3-3.7c0-8.6,0-17.2,0-25.7C143.8,238.6,143.8,238.3,143.8,237.8z"/>
		<path d="M408.4,278.3c-2.4,0-4.7,0-6.9,0c-0.3,0-0.7-0.4-0.8-0.7c-0.4-0.8-0.6-1.6-0.9-2.6c-0.5,0.3-0.8,0.5-1.2,0.8
			c-2.8,1.8-5.7,3.2-9,3.6c-9.5,1.1-15.3-4.7-14.3-14.3c0.6-5.9,4.2-9.7,10.5-10.7c3.4-0.6,7-0.5,10.5-0.7c0.7,0,1.3,0,1.9,0
			c1.2-4.3-1.6-7.9-6.1-8c-3.7-0.1-7.2,0.7-10.6,2.1c-0.3,0.1-0.6,0.3-0.9,0.4c-0.1,0-0.2,0-0.4,0c-0.9-2.2-1.9-4.5-2.9-6.9
			c0.3-0.2,0.5-0.5,0.8-0.6c6.1-3.6,12.7-4.9,19.7-3.4c5.8,1.3,9.6,5.5,10.4,11.4c0.2,1.3,0.3,2.6,0.3,3.9c0,8.1,0,16.2,0,24.3
			C408.4,277.3,408.4,277.7,408.4,278.3z M398.4,260.4c-3.3,0.1-6.4-0.3-9.5,0.6c-3.2,1-4.8,3.8-4,7c0.5,1.8,1.6,2.9,3.5,3
			c3.4,0.3,6.4-0.6,9.2-2.6c0.3-0.3,0.7-0.8,0.7-1.2C398.4,265.1,398.4,262.9,398.4,260.4z"/>
		<path d="M136,278.3c-2.5,0-4.7,0-7,0c-0.3,0-0.6-0.4-0.7-0.7c-0.3-0.8-0.6-1.6-0.9-2.6c-0.5,0.3-0.8,0.5-1.2,0.7
			c-2.8,1.8-5.7,3.2-9,3.6c-9.8,1.2-15.4-5.1-14.3-14.5c0.7-5.8,4.3-9.5,10.5-10.5c3.6-0.6,7.2-0.5,10.9-0.7c0.6,0,1.1-0.1,1.7-0.1
			c0.7-4.8-1.8-7.9-6.6-7.9c-3.6,0-7,0.8-10.2,2.1c-0.3,0.1-0.6,0.3-0.9,0.4c-0.1,0-0.2,0-0.4,0c-0.9-2.3-1.9-4.6-2.9-7
			c2.9-2,6.1-3.2,9.4-3.9c3.7-0.8,7.4-0.9,11.1,0c5.8,1.3,9.6,5.5,10.4,11.4c0.2,1.2,0.3,2.4,0.3,3.6c0,8.2,0,16.5,0,24.7
			C136,277.3,136,277.7,136,278.3z M126,260.3c-3,0.2-5.7,0.1-8.4,0.5c-4,0.6-5.9,3.6-5,7.2c0.4,1.8,1.6,2.8,3.4,3
			c3.4,0.3,6.5-0.6,9.3-2.6c0.3-0.2,0.7-0.6,0.7-1C126,265.2,126,262.9,126,260.3z"/>
		<path d="M317.6,253.7c0.9-4.7-1.7-7.9-6.2-8c-3.7-0.1-7.2,0.8-10.6,2.1c-0.3,0.1-0.7,0.3-1.2,0.5c-1-2.4-2-4.7-3-7.1
			c2.7-1.9,5.7-3.1,8.9-3.8c4.1-1,8.2-1.1,12.3,0c5.6,1.6,8.7,5.4,9.7,11.1c0.2,1.2,0.3,2.5,0.3,3.7c0,8.3,0,16.6,0,24.8
			c0,0.4,0,0.7-0.1,1.2c-2.4,0-4.7,0-7,0c-0.2,0-0.5-0.4-0.7-0.7c-0.3-0.8-0.6-1.6-0.9-2.6c-0.8,0.5-1.6,1-2.3,1.5
			c-4.2,2.5-8.6,3.8-13.5,2.7c-4.8-1.1-8-4.6-8.5-9.5c-0.2-2-0.3-4.1,0.1-6.1c1.1-5.6,5.1-8.3,10.3-9.2c3.5-0.6,7.1-0.5,10.6-0.7
			C316.4,253.6,317,253.7,317.6,253.7z M317.8,260.3c-2.9,0.1-5.6,0.1-8.3,0.5c-4,0.6-6,3.6-5.1,7.3c0.4,1.7,1.6,2.8,3.4,3
			c3.4,0.3,6.5-0.6,9.3-2.6c0.3-0.2,0.6-0.6,0.6-1C317.8,265.2,317.8,262.9,317.8,260.3z"/>
	</g>
</g>
</svg>
