<?xml version="1.0" encoding="utf-8"?>
<!-- Generator: Adobe Illustrator 18.1.0, SVG Export Plug-In . SVG Version: 6.00 Build 0)  -->
<!DOCTYPE svg PUBLIC "-//W3C//DTD SVG 1.1//EN" "http://www.w3.org/Graphics/SVG/1.1/DTD/svg11.dtd">
<svg version="1.1" id="Layer_1" xmlns="http://www.w3.org/2000/svg" xmlns:xlink="http://www.w3.org/1999/xlink" x="0px" y="0px"
	 viewBox="0 0 500 500" enable-background="new 0 0 500 500" xml:space="preserve">
<g>
	<linearGradient id="SVGID_1_" gradientUnits="userSpaceOnUse" x1="0" y1="250" x2="500" y2="250">
		<stop  offset="0" style="stop-color:#034EA1"/>
		<stop  offset="1" style="stop-color:#226CAD"/>
	</linearGradient>
	<circle fill="url(#SVGID_1_)" cx="250" cy="250" r="250"/>
	<g>
		<g>
			<path fill="#FFFFFF" d="M432.5,234.6c-1.8-6.8-2.8-10.3-3-10.6c-1.7,0.6-4.5,1.7-8.2,3.3c1.2,3.5,2.1,7,2.6,10.5
				C425.3,237.3,428.2,236.3,432.5,234.6z M402.2,246.8h9.1l1.1-5.5H396c0.4-0.7,0.8-1.4,1.1-2.3h13.5l1.1-5.5h-4.9
				c2.1-2.1,4-3.9,5.7-5.3l-5.7-3.7c-1.8,2.4-3.8,4.8-6,7l3.4,2.2h-4.9l0.7-2.3l0.9-2.3c0.7-2,1.3-3.4,1.8-4.3c0-0.4-0.2-0.6-1-0.7
				c-1.4-0.2-3.7-0.4-6.8-0.5c-0.9,4-1.8,7.2-2.7,9.9h-4.3l1.4-1c2.4-1.6,3.6-2.5,3.7-2.6c-1.3-3-2.4-5.1-3.4-6.1
				c0-0.2-1.8,0.9-5.4,3.3l-1.2,0.8c0,0.1,0.2,0.3,0.4,0.7c1.2,1.7,2.3,3.3,3.1,4.9h-3.5L382,239h8l-0.6,1.1l-0.6,1.2h-8.7l-1.1,5.5
				h6c-2.2,2.8-4.8,5.2-7.8,7l0,0c-0.4,0.3-0.9,0.5-1.3,0.8l0.2-0.8l5.5-27.1h-15.5l-5.5,27.1l-0.3,1.7c-1.3,6.5-3.5,12.2-6.6,17.2
				c1.6,1.5,3,3.1,4.1,4.8c3.3-4.8,5.8-11,7.8-18.6h3.3l-1.9,9.4c-0.2,1.3-1.4,1.8-3.7,1.6c0.5,2.3,0.6,4.7,0.5,7.1
				c5.5,0,8.4-1.4,8.5-4l3.3-16.4c1.2,1.3,2.1,2.5,2.7,3.8c0.8-0.4,1.8-1.2,3-2.2l-2.1,6.9h18.6l-0.4,1.8c-0.7,3.7-1.8,5.5-3.1,5.2
				l1.1-5.2h-20l-1.1,5.5h16.2c0.9,2.1,1.3,4.2,1.1,6.4c5.2-0.2,8.4-1,9.6-2.5c0.4-0.4,0.8-1.2,1.2-2.5c0.8-2.6,1.9-6.5,3.1-11.5
				l0.7-2.9h-6.9l0.9-4.4c2.1,1.9,3.9,3.2,5.1,3.8c1.5-1.9,2.9-3.6,4.2-5c0.6-0.6,1.2-1.2,1.7-1.8
				C407.2,250.9,404.1,249.1,402.2,246.8z M370,253.3h-3.3l1.5-7.4h3.3L370,253.3z M372.6,240.4h-3.3l1.6-7.8h3.3L372.6,240.4z
				 M392.7,259.7h-5.5c0.4-1.5,0.8-2.8,1.2-3.7c-0.3-0.2-0.5-0.2-0.6-0.2h-3.3l1.4-1.4h8L392.7,259.7z M390.8,249.1l0.9-1.1l0.9-1.2
				h2c0.3,0.8,0.6,1.6,1.1,2.3H390.8z M431,257.9l-1.3-2.8l-1.3,1.2c-2.2,2.1-3.9,3.5-4.8,4.3l1.3-6.6l2.6-12.9h-13.2l-1.3,6.4h6.3
				l-1.3,6.5l-2.2,10.8c-0.3,1.4-1.4,3-3.3,4.6c-0.6,0.5-0.9,0.8-0.9,0.9c0.7,2.3,1.9,4.4,3.7,6.5c0.1,0,0.9-0.6,2.1-2
				c1.9-2.1,6.8-6.8,14.7-14C432.2,260.6,431.8,259.7,431,257.9z M456,262.8c-1.2,3.7-1.9,4.9-2.2,3.6c-0.6-2.5-0.3-6.6,1-12.5h0
				c0-0.1,0-0.1,0-0.2l5.4-26.7h-24.4l-1.3,6.4h5.1l-2.4,12h-6.4l-1.3,6.4h6.4l-0.4,2l-4.7,23h7.1l4.7-23l0.4-2h5.1l-0.4,2l-0.6,2.8
				c-1.6,7.6-1,13.5,1.8,17.7c1.6,2.3,3.5,3.3,5.8,3c2.4,0.1,4.7-3.8,7.1-11.9C459.7,264.5,457.7,263.6,456,262.8z M449.6,245.4
				h-5.3l2.4-12h5.3L449.6,245.4z"/>
			<path fill="#FFFFFF" d="M87.1,223H40.1l-1.9,7.8h17.7l-5.6,23.1l-5.7,23.8h11.6l5.7-23.8l5.6-23.1h17.7L87.1,223z M155.2,236.8
				c-4.9,0-9.7,1.6-14.4,4.8l-10.4-3.7l-3.9,16l-5.7,23.8h11.3l4.6-19.2c0.4-1.7,0.9-3.2,1.4-4.6h0c1-2.6,2.1-4.5,3.4-5.8
				c2.1-2,4.9-3,8.7-3c3.4,0,5.6,0.8,6.5,2.3c0.8,1.3,1,3.5,0.4,6.6c-0.1,0.5-0.2,1-0.3,1.6l-5.4,22.2h11.3l5.7-23.8l0.1-0.6
				c1.4-5.6,1-9.7-1.2-12.1C164.9,238.2,160.9,236.8,155.2,236.8z M203.7,235.6c-7.5,0-14.2,2-20.4,6.1c-5.1,3.4-8.6,7.4-10.4,12.1
				l9,0l-9,0c-0.4,0.9-0.7,1.9-0.9,2.9c-1.4,5.9-0.1,10.9,4,14.9c4.1,4,9.9,6,17.5,6c4.6,0,9.4-1,14.4-2.9l2.9-12.1
				c-3.3,2.7-6.1,4.5-8.4,5.4c-2.3,0.9-4.8,1.4-7.5,1.4c-4.2,0-7.4-1.2-9.6-3.6c-2.1-2.4-2.7-5.5-1.8-9.2c0.2-1,0.6-1.9,1-2.8h0
				c1.1-2.4,2.9-4.5,5.4-6.3c3.4-2.4,7.2-3.6,11.4-3.6c2.7,0,4.9,0.5,6.7,1.5c1.8,1,3.7,2.7,5.6,5.3l3-12.2
				C212.8,236.6,208.5,235.6,203.7,235.6z M299.6,236.8c-4.9,0-9.7,1.6-14.4,4.8l-10.4-3.7l-3.9,16l-5.7,23.8h11.3l4.6-19.2
				c0.4-1.7,0.9-3.2,1.4-4.6h0c1-2.6,2.1-4.5,3.4-5.8c2.1-2,5-3,8.7-3c3.4,0,5.6,0.8,6.5,2.3c0.8,1.3,1,3.5,0.4,6.6
				c-0.1,0.5-0.2,1-0.3,1.6l-5.4,22.2H307l5.7-23.8l0.1-0.6c1.4-5.6,1-9.7-1.2-12.1C309.3,238.2,305.2,236.8,299.6,236.8z
				 M323.4,253.9l-5.7,23.8h11.2l5.8-23.8l1.6-6.7H325L323.4,253.9z M329.7,227.7l-2.4,10.2H318l-1.8,7.6h34.2L329.7,227.7z
				 M245.8,235.6c-7.1,0-13.3,1.9-18.5,5.8c-4.4,3.3-7.5,7.5-9.3,12.5l0,0h0c-0.3,0.9-0.6,1.8-0.8,2.8c-1.5,6.3-0.6,11.4,2.9,15.3
				c3.5,3.8,8.9,5.7,16.1,5.7c12.4,0,21.8-7.8,22.8-8.7l-5.3-1.3c-1.3,0.3-8.2,2.4-15,1.7c-8.7-0.8-10.7-7.4-10.2-10.7h34.9l0.6-2.2
				c0.2-1,0.4-1.9,0.5-2.8h-0.3l0.3,0c0.8-5.3-0.3-9.4-3-12.6C258.2,237.5,253,235.6,245.8,235.6z M231,251.3
				c0.6-1.2,1.4-2.2,2.3-3.1c0.9-0.9,1.9-1.7,3-2.3c1.2-0.6,2.4-1.1,3.6-1.5c1.3-0.4,2.6-0.5,4-0.5c6,0,9.2,2.5,9.6,7.4H231z
				 M100.5,235.6c-7.1,0-13.3,1.9-18.5,5.8c-4.4,3.3-7.5,7.5-9.3,12.5l0,0h0c-0.3,0.9-0.6,1.8-0.8,2.8c-1.5,6.3-0.6,11.4,2.9,15.3
				c3.5,3.8,8.9,5.7,16.1,5.7c12.4,0,21.8-7.8,22.8-8.7l-5.3-1.3c-1.3,0.3-8.2,2.4-15,1.7c-8.7-0.8-10.7-7.4-10.2-10.7H118l0.6-2.2
				c0.2-1,0.4-1.9,0.5-2.8h-0.3l0.3,0c0.8-5.3-0.3-9.4-3-12.6C112.9,237.5,107.6,235.6,100.5,235.6z M85.7,251.3
				c0.6-1.2,1.4-2.2,2.3-3.1c0.9-0.9,1.9-1.7,3-2.3c1.2-0.6,2.4-1.1,3.6-1.5c1.3-0.4,2.6-0.5,4-0.5c6,0,9.2,2.5,9.6,7.4H85.7z"/>
		</g>
	</g>
</g>
</svg>
