<?xml version="1.0" encoding="utf-8"?>
<!-- Generator: Adobe Illustrator 18.1.0, SVG Export Plug-In . SVG Version: 6.00 Build 0)  -->
<!DOCTYPE svg PUBLIC "-//W3C//DTD SVG 1.1//EN" "http://www.w3.org/Graphics/SVG/1.1/DTD/svg11.dtd">
<svg version="1.1" id="Layer_1" xmlns="http://www.w3.org/2000/svg" xmlns:xlink="http://www.w3.org/1999/xlink" x="0px" y="0px"
	 viewBox="0 0 500 500" enable-background="new 0 0 500 500" xml:space="preserve">
<g>
	<circle cx="250" cy="250.4" r="250"/>
	<g>
		<path fill="#FFFFFF" d="M115,262.3c0,36.8,48,66.7,107.2,66.7s107.2-29.9,107.2-66.7c0-36.9-48-66.7-107.2-66.7
			S115,225.5,115,262.3"/>
		<path fill="#E6162D" d="M224.7,323.6c-52.4,5.2-97.6-18.5-101-52.9c-3.4-34.4,36.3-66.5,88.7-71.6c52.4-5.2,97.6,18.5,101,52.9
			C316.8,286.4,277.1,318.5,224.7,323.6 M329.5,209.5c-4.5-1.3-7.5-2.2-5.2-8.1c5.1-12.7,5.6-23.7,0.1-31.5
			c-10.3-14.7-38.4-13.9-70.6-0.4c0,0-10.1,4.4-7.5-3.6c5-15.9,4.2-29.3-3.5-37c-17.5-17.5-64,0.7-103.8,40.5
			c-29.8,29.9-47.2,61.5-47.2,88.9c0,52.3,67.1,84.1,132.8,84.1c86.1,0,143.3-50,143.3-89.7C367.8,228.7,347.6,215.1,329.5,209.5"/>
		<path fill="#FF9933" d="M386.6,113.7c-20.8-23-51.4-31.8-79.7-25.8h0c-6.5,1.4-10.7,7.8-9.3,14.4c1.4,6.5,7.8,10.7,14.4,9.3
			c20.1-4.3,41.9,2,56.7,18.3c14.8,16.4,18.8,38.7,12.4,58.3l0,0c-2.1,6.4,1.4,13.2,7.8,15.3c6.4,2.1,13.2-1.4,15.3-7.8c0,0,0,0,0,0
			C413,168.1,407.4,136.7,386.6,113.7"/>
		<path fill="#FF9933" d="M354.7,142.5c-10.1-11.2-25.1-15.5-38.8-12.6c-5.6,1.2-9.2,6.7-8,12.4c1.2,5.6,6.7,9.2,12.4,8v0
			c6.7-1.4,14,0.7,19,6.1c4.9,5.5,6.3,13,4.2,19.5h0c-1.8,5.5,1.2,11.4,6.7,13.1c5.5,1.8,11.4-1.2,13.1-6.7
			C367.6,169,364.9,153.7,354.7,142.5"/>
		<path d="M227.6,261.3c-1.8,3.1-5.9,4.6-9.1,3.3c-3.1-1.3-4.1-4.8-2.3-7.9c1.8-3.1,5.7-4.6,8.8-3.3
			C228.2,254.6,229.4,258.2,227.6,261.3 M210.9,282.8c-5.1,8.1-15.9,11.6-24.1,7.9c-8.1-3.7-10.4-13.1-5.4-20.9
			c5-7.8,15.5-11.3,23.6-7.9C213.3,265.3,215.9,274.6,210.9,282.8 M229.9,225.6c-24.9-6.5-53.1,5.9-63.9,27.9
			c-11,22.4-0.4,47.3,24.8,55.4c26.1,8.4,56.8-4.5,67.5-28.7C268.9,256.6,255.7,232.2,229.9,225.6"/>
	</g>
	<g>
		<path fill="#FFFFFF" d="M154,385.8l-15.3,25.8h-3.6l-1.3-19.2l-11.1,19.2H119l-1.8-25.8h4.5l1.2,19.3l11.2-19.3h3.3l1.3,19.3
			l11.7-19.3H154z"/>
		<path fill="#FFFFFF" d="M175.8,396.1c0.3-1.5,0.4-2.7,0.2-3.9c-0.2-1.1-0.8-2.1-1.8-2.9c-1-0.8-2.3-1.2-4-1.2
			c-2.2,0-4.3,0.7-6.3,2.2c-1.9,1.4-3.3,3.4-4.2,5.8L175.8,396.1z M173.9,404l4,0.8c-1.4,2.2-3.3,4-5.9,5.5
			c-2.6,1.5-5.4,2.2-8.4,2.2c-4,0-6.8-1.2-8.6-3.7c-1.8-2.5-2.1-5.7-1.1-9.8c1.1-4.1,3.3-7.4,6.5-10c3.2-2.5,6.8-3.8,10.6-3.8
			c3.8,0,6.5,1.2,8.2,3.5c1.7,2.3,1.9,5.8,0.7,10.5h-21c-1,3.9-0.8,6.5,0.6,7.9c1.5,1.4,3.2,2,5.3,2
			C168.4,409.1,171.5,407.4,173.9,404"/>
		<path fill="#FFFFFF" d="M197.3,376.8l-1.2,4.5h-4.8l1.2-4.5H197.3z M194.7,385.8l-6.9,25.8h-4.5l6.9-25.8H194.7z"/>
		<path fill="#FFFFFF" d="M204,401.5c-0.5,2.7-0.1,4.6,1.2,5.8c1.3,1.2,2.8,1.8,4.6,1.8c2.3,0,4.4-0.9,6.3-2.7
			c1.9-1.8,3.2-4.2,4.1-7.3c0.9-3.3,0.9-5.9,0.1-7.8c-0.9-1.9-2.5-2.9-4.9-2.9c-1.9,0-3.8,0.7-5.7,2c-1.9,1.4-3.3,3.1-4.1,5.3
			L204,401.5L204,401.5z M198.9,411.7h-2.2l9.4-34.9h4.5l-3.6,13.4c3-3.3,6.3-5,9.9-5c3.3,0,5.8,1.2,7.4,3.5
			c1.6,2.3,1.8,5.7,0.6,10.2c-1,3.8-3,7.1-5.9,9.7c-2.9,2.6-6.1,3.9-9.7,3.9c-3.9,0-6.5-1.7-7.7-5L198.9,411.7z"/>
		<path fill="#FFFFFF" d="M239.7,409.1c2.3,0,4.4-0.8,6.4-2.5c2-1.7,3.5-4.3,4.4-7.9c1-3.6,0.8-6.2-0.4-7.8
			c-1.2-1.6-2.9-2.4-5.1-2.4c-2.2,0-4.3,0.8-6.3,2.4c-2,1.6-3.4,4.2-4.4,7.7c-1,3.7-0.9,6.4,0.2,8
			C235.8,408.2,237.5,409.1,239.7,409.1 M238.5,412.4c-4,0-6.7-1.3-8.3-3.9c-1.5-2.6-1.8-5.9-0.7-9.8c1.1-4.1,3.2-7.4,6.4-9.9
			c3.2-2.5,6.6-3.7,10.3-3.7c4,0,6.8,1.3,8.4,3.9c1.6,2.6,1.9,5.8,0.9,9.7c-1.1,4-3.2,7.3-6.4,9.9
			C246,411.1,242.4,412.4,238.5,412.4"/>
		<path fill="#FFFFFF" d="M266.4,405.9l-1.5,5.7h-6.4l1.5-5.7H266.4z"/>
		<path fill="#FFFFFF" d="M293,402.6l3.9,0.6c-1.3,2.9-3.2,5.1-5.6,6.7c-2.4,1.6-5.1,2.4-8,2.4c-4,0-6.7-1.3-8.1-3.9
			c-1.4-2.6-1.6-5.8-0.6-9.6c1.1-3.9,3-7.2,5.9-9.8c2.9-2.6,6.3-3.9,10.1-3.9c3.2,0,5.5,0.8,6.9,2.5c1.5,1.7,2.1,3.9,1.8,6.5
			l-4.3,0.7c0.4-4.3-1.4-6.4-5.2-6.4c-2.5,0-4.6,0.9-6.5,2.8c-1.8,1.9-3.2,4.3-4,7.3c-0.9,3.3-0.9,5.9-0.1,7.7
			c0.8,1.8,2.5,2.8,4.9,2.8C288,409.1,290.9,406.9,293,402.6"/>
		<path fill="#FFFFFF" d="M312.3,409.1c2.3,0,4.4-0.8,6.4-2.5c2-1.7,3.5-4.3,4.4-7.9c1-3.6,0.8-6.2-0.4-7.8
			c-1.2-1.6-2.9-2.4-5.1-2.4c-2.2,0-4.3,0.8-6.3,2.4c-2,1.6-3.4,4.2-4.4,7.7c-1,3.7-0.9,6.4,0.2,8
			C308.3,408.2,310,409.1,312.3,409.1 M311,412.4c-4,0-6.7-1.3-8.2-3.9c-1.5-2.6-1.8-5.9-0.7-9.8c1.1-4.1,3.2-7.4,6.4-9.9
			c3.2-2.5,6.6-3.7,10.3-3.7c4,0,6.8,1.3,8.4,3.9c1.6,2.6,1.9,5.8,0.9,9.7c-1.1,4-3.2,7.3-6.4,9.9C318.5,411.1,315,412.4,311,412.4"
			/>
		<path fill="#FFFFFF" d="M370.1,411.7h-4.4l4.3-16.1c0.4-1.7,0.6-2.9,0.6-3.7c0-0.8-0.5-1.6-1.3-2.3c-0.8-0.7-1.8-1-3.1-1
			c-1.7,0-3.6,0.7-5.5,2.1c-2,1.4-3.3,3.6-4.1,6.4l-3.9,14.5h-4.4l4.6-17c0.6-2.3,0.4-3.9-0.5-4.8c-1-0.9-2.1-1.4-3.4-1.4
			c-1.9,0-3.8,0.7-5.6,2.2c-1.8,1.5-3,3.3-3.6,5.6l-4.1,15.4h-4.3l6.9-25.8h3.9l-1.3,5c3.2-3.8,6.7-5.7,10.4-5.7
			c2.1,0,3.7,0.6,4.8,1.8c1.1,1.2,1.7,2.7,1.6,4.4c3.1-4.1,6.7-6.2,10.8-6.2c2,0,3.6,0.5,4.8,1.5c1.2,1,1.9,2.2,2,3.5
			c0.1,1.3-0.2,3.1-0.8,5.5L370.1,411.7z"/>
	</g>
</g>
</svg>
