<?xml version="1.0" encoding="utf-8"?>
<!-- Generator: Adobe Illustrator 18.1.0, SVG Export Plug-In . SVG Version: 6.00 Build 0)  -->
<!DOCTYPE svg PUBLIC "-//W3C//DTD SVG 1.1//EN" "http://www.w3.org/Graphics/SVG/1.1/DTD/svg11.dtd">
<svg version="1.1" id="Layer_1" xmlns="http://www.w3.org/2000/svg" xmlns:xlink="http://www.w3.org/1999/xlink" x="0px" y="0px"
	 viewBox="0 0 500 500" enable-background="new 0 0 500 500" xml:space="preserve">
<g>
	<circle fill-rule="evenodd" clip-rule="evenodd" fill="#EE7826" cx="250" cy="250" r="250"/>
	<g>
		<path fill-rule="evenodd" clip-rule="evenodd" fill="#231815" d="M117.3,315.2c-1.6-0.3-3.5-1.3-5.2-2.6
			c-14.8-14.5,4.2-31.2,25.8-40.9v-27.4c5.1,2.9,7.7,3.2,8.1,3.9l16.7-16.7l-5.5-14.2c48.6-17.1,68.3-23.5,107.9-30.3l-7.1-6.8
			l11.9-6.8c26.4,9,51.5,11.3,47,33.8c1.3-15.1-17.4-20.9-46.4-29.3l-5.5,3.5l10.6,8.7c-47.3,8.4-76.6,17.7-111.4,29.9l4.8,12.2
			l-17.4,17.4c2.9,0.6,33.2,11.3,64.7-11.3c0.3,0,0.6-0.3,0.6-0.6c-1-1.6-2.9-3.2-5.5-5.5c9,0.6,15.1,9,13.9,17.4h-4.2
			c0.6-2.6,0-5.8-1.3-7.7c-24.2,18-52.8,20.6-77,12.2v21.3c-11.6,4.2-32.8,17.1-32.5,29.6C111.2,311.4,114.4,313.6,117.3,315.2
			L117.3,315.2z"/>
		<path fill-rule="evenodd" clip-rule="evenodd" fill="#FFFFFF" d="M216.5,309.7c-26.4,13.5-51.5,24.2-90.2,25.8
			c-50.2-1-58.3-34.8-34.5-70.2c22.5-35.7,58.3-67.6,115.3-87.9c16.4-5.8,40.9-12.6,64.1-12.9c33.8-0.3,66.3,10.3,64.4,42.8
			c-1.3,24.8-37,59.9-55.7,85.3c-8.1,11-9.3,18,4.2,17.4c49.9-3.2,95-20.6,136.9-38.6c-28.3,19.3-174.9,92.7-175.5,42.5
			c0.3-6.1,3.2-12.9,7.7-20c4.8-7.1,11.3-14.8,18-22.2c10-11.6,34.8-39,42.8-55.7c14.2-31.2-17.4-32.8-44.1-42.5l-11.9,6.8l7.1,6.8
			c-39.6,6.8-59.3,13.2-107.9,30.3l5.5,14.2L146,248.2c-0.3-0.6-2.9-1-8.1-3.9v27.4c-21.6,9.7-40.6,26.4-25.8,40.9
			c1.6,1.3,3.5,2.3,5.2,2.6l0,0C144,330.4,216.5,309.7,216.5,309.7L216.5,309.7z"/>
	</g>
</g>
</svg>
