<?xml version="1.0" encoding="utf-8"?>
<!-- Generator: Adobe Illustrator 18.1.0, SVG Export Plug-In . SVG Version: 6.00 Build 0)  -->
<!DOCTYPE svg PUBLIC "-//W3C//DTD SVG 1.1//EN" "http://www.w3.org/Graphics/SVG/1.1/DTD/svg11.dtd">
<svg version="1.1" id="Layer_1" xmlns="http://www.w3.org/2000/svg" xmlns:xlink="http://www.w3.org/1999/xlink" x="0px" y="0px"
	 viewBox="0 0 500 500" enable-background="new 0 0 500 500" xml:space="preserve">
<g>
	<circle fill="#1E4079" cx="250" cy="250" r="250"/>
	<circle fill="#FFFFFF" cx="250" cy="250" r="238.6"/>
	<g>
		<path fill-rule="evenodd" clip-rule="evenodd" fill="#1E4079" d="M94.2,222.1h22.2c-5.3,18.3-10.5,36.7-15.8,55H78.4L94.2,222.1
			L94.2,222.1z"/>
		<path fill-rule="evenodd" clip-rule="evenodd" fill="#1E4079" d="M109.5,264.8c0,4.7,2.9,13.5,24.2,13.7c0,0,18.9-0.7,24.4-3.7
			l4.1-10.1l0.1-0.2c0,0-0.1,0.1-0.3,0.2l0.2,0h-0.2c-2.3,1.2-16.6,8.7-28.3,5.9c0,0-3.4-0.6-3.4-3.7l0.2-1.1l4.8-1.1l34.3-8.1
			c0,0,8.3-18.2-23.5-17.8c-31.8,0.4-36,20.6-36.4,24.8C109.5,264.1,109.5,264.5,109.5,264.8L109.5,264.8z M130.9,263l20.6-10.4
			c0,0,2-8-7.4-7.9c-9.4,0.1-10.8,8.5-10.8,8.5L130.9,263L130.9,263z"/>
		<path fill-rule="evenodd" clip-rule="evenodd" fill="#1E4079" d="M194.5,264.6l5.6-18.7c0,0,13.5-1.9,11.7,5l-4,13.7l-3.6,12.5
			h22.3l3.7-12.5l4.2-13.9c0,0,2.7-7.6-6.8-9.5c0,0-10.3-2.8-24.7-2c-14.3,0.8-24.5,2.7-24.5,2.7l-6.8,22.8l-3.7,12.5h22.8
			L194.5,264.6L194.5,264.6z"/>
		<path fill-rule="evenodd" clip-rule="evenodd" fill="#1E4079" d="M234.6,264.6c0-2.5,0.8-4.4,0.8-4.4s2.2-20,34.9-21.2
			c32.7-1.2,29.3,16.2,29.3,16.2s-0.3,4.4-3.9,9.4c-4.3,6.1-13.5,13-32.9,13.7C238.5,279.1,234.6,270.2,234.6,264.6L234.6,264.6z
			 M273.8,264.6c2.3-4.4,2.7-9.4,2.7-9.4c0.5-3.3,1.5-9.2-6.3-9.4c-7.8-0.1-9.5,7.6-9.5,7.6l-2.2,6.5c-0.5,1.9-0.7,3.4-0.7,4.7
			c0,7.1,5.9,6.6,5.9,6.6C268.9,271.3,272,268.1,273.8,264.6L273.8,264.6z"/>
		<polygon fill-rule="evenodd" clip-rule="evenodd" fill="#1E4079" points="304.5,264.6 301.6,240.2 322.1,240.2 325.1,264.6 
			325.3,265.9 326.2,264.6 343.1,240.2 364.5,240.2 347.9,264.6 339.3,277.1 306.1,277.1 304.5,264.6 		"/>
		<path fill-rule="evenodd" clip-rule="evenodd" fill="#1E4079" d="M356.6,264.6c0-2.5,0.8-4.4,0.8-4.4s2.2-20,34.9-21.2
			c32.7-1.2,29.3,16.2,29.3,16.2s-0.3,4.4-3.9,9.4c-4.3,6.1-13.5,13-32.9,13.7C360.4,279.1,356.6,270.2,356.6,264.6L356.6,264.6z
			 M395.8,264.6c2.3-4.4,2.7-9.4,2.7-9.4c0.5-3.3,1.5-9.2-6.3-9.4c-7.8-0.1-9.5,7.6-9.5,7.6l-2.2,6.5c-0.5,1.9-0.7,3.4-0.7,4.7
			c0,7.1,5.8,6.6,5.8,6.6C390.8,271.3,393.9,268.1,395.8,264.6L395.8,264.6z"/>
	</g>
</g>
</svg>
