<?xml version="1.0" encoding="iso-8859-1"?>
<!-- Generator: Adobe Illustrator 18.0.0, SVG Export Plug-In . SVG Version: 6.00 Build 0)  -->
<!DOCTYPE svg PUBLIC "-//W3C//DTD SVG 1.0//EN" "http://www.w3.org/TR/2001/REC-SVG-20010904/DTD/svg10.dtd">
<svg version="1.0" id="Layer_1" xmlns="http://www.w3.org/2000/svg" xmlns:xlink="http://www.w3.org/1999/xlink" x="0px" y="0px"
	 viewBox="0 0 500 500" enable-background="new 0 0 500 500" xml:space="preserve">
<g>
	<circle fill="#ED4026" cx="249.862" cy="250.176" r="250"/>
	<g>
		<polygon fill-rule="evenodd" clip-rule="evenodd" fill="#FFFFFF" points="333.727,226.637 325.946,226.637 325.946,274.269 
			362.496,274.269 367.447,266.487 333.727,266.487 333.727,226.637 333.727,226.637 		"/>
		<path fill-rule="evenodd" clip-rule="evenodd" fill="#FFFFFF" d="M227.038,228.995l-28.532,45.274h9.432l8.607-13.677h18.393
			l4.834-7.781h-18.393L231.4,237.13l23.462,37.14h9.432l-28.768-45.392l0,0C233.758,225.929,229.042,225.929,227.038,228.995
			L227.038,228.995L227.038,228.995L227.038,228.995z"/>
		<path fill-rule="evenodd" clip-rule="evenodd" fill="#FFFFFF" d="M282.333,234.405h32.718l4.827-7.775l-37.781,0.021l0,0
			c-13.145,0-21.797,10.657-21.797,23.802c0,13.145,8.652,23.802,21.797,23.802l0,0l31.959-0.037l5.004-7.716h-36.727l0,0
			c-8.863,0-14.044-7.186-14.044-16.049C268.289,241.59,273.47,234.405,282.333,234.405L282.333,234.405L282.333,234.405
			L282.333,234.405z"/>
		<path fill-rule="evenodd" clip-rule="evenodd" fill="#FFFFFF" d="M115.367,226.651h-33.72l0,0
			c-13.145,0-21.797,10.657-21.797,23.802c0,13.145,8.653,23.802,21.797,23.802l0,0h33.72l0,0c13.145,0,21.798-10.657,21.798-23.802
			C137.165,237.308,128.512,226.651,115.367,226.651L115.367,226.651L115.367,226.651L115.367,226.651z M115.367,266.502h-33.72l0,0
			c-8.863,0-14.044-7.185-14.044-16.049c0-8.863,5.181-16.049,14.044-16.049l0,0h33.72l0,0c8.863,0,14.044,7.185,14.044,16.049
			C129.411,259.316,124.23,266.502,115.367,266.502L115.367,266.502L115.367,266.502L115.367,266.502z"/>
		<path fill-rule="evenodd" clip-rule="evenodd" fill="#FFFFFF" d="M389.69,234.405h32.718l4.827-7.775l-37.781,0.021l0,0
			c-13.145,0-21.797,10.657-21.797,23.802c0,13.145,8.652,23.802,21.797,23.802l0,0l31.959-0.037l5.004-7.716H389.69l0,0
			c-7.565,0-12.409-5.231-13.677-12.276l0,0h41.207l4.952-7.781h-46.159l0,0C377.363,239.549,382.231,234.405,389.69,234.405
			L389.69,234.405L389.69,234.405L389.69,234.405z"/>
		<path fill-rule="evenodd" clip-rule="evenodd" fill="#FFFFFF" d="M181.509,254.916c7.804,0,14.131-6.327,14.131-14.131
			c0-7.804-6.327-14.131-14.131-14.131l0,0l-39.675-0.017v47.632h8.725v-39.862h30.95l0,0c3.522,0,6.378,2.855,6.378,6.378
			c0,3.522-2.855,6.378-6.378,6.378l0,0h-24.819l27.996,27.053h11.265l-20.044-19.282L181.509,254.916L181.509,254.916
			L181.509,254.916z"/>
		<path fill-rule="evenodd" clip-rule="evenodd" fill="#FFFFFF" d="M435.58,226.058c-2.339,0-4.318,1.799-4.318,4.239
			c0,2.463,1.979,4.262,4.318,4.262c2.316,0,4.295-1.799,4.295-4.262C439.875,227.857,437.896,226.058,435.58,226.058
			L435.58,226.058L435.58,226.058L435.58,226.058z M435.58,233.851c-1.946,0-3.464-1.506-3.464-3.553
			c0-2.013,1.518-3.531,3.464-3.531c1.923,0,3.441,1.518,3.441,3.531C439.021,232.344,437.502,233.851,435.58,233.851
			L435.58,233.851L435.58,233.851L435.58,233.851z"/>
		<path fill-rule="evenodd" clip-rule="evenodd" fill="#FFFFFF" d="M436.267,230.601c0.72-0.09,1.271-0.473,1.271-1.35
			c0-0.967-0.574-1.395-1.732-1.395l0,0h-1.867v4.903h0.742v-2.125h0.854l1.293,2.125h0.832L436.267,230.601L436.267,230.601
			L436.267,230.601z M434.681,230.005v-1.518h1.012l0,0c0.517,0,1.068,0.112,1.068,0.72c0,0.753-0.562,0.799-1.192,0.799l0,0
			H434.681L434.681,230.005L434.681,230.005z"/>
	</g>
</g>
</svg>
