<?xml version="1.0" encoding="utf-8"?>
<!-- Generator: Adobe Illustrator 18.1.0, SVG Export Plug-In . SVG Version: 6.00 Build 0)  -->
<!DOCTYPE svg PUBLIC "-//W3C//DTD SVG 1.1//EN" "http://www.w3.org/Graphics/SVG/1.1/DTD/svg11.dtd">
<svg version="1.1" id="Layer_1" xmlns="http://www.w3.org/2000/svg" xmlns:xlink="http://www.w3.org/1999/xlink" x="0px" y="0px"
	 viewBox="0 0 500 500" enable-background="new 0 0 500 500" xml:space="preserve">
<g>
	<circle fill="#009360" cx="250" cy="250" r="250"/>
	<circle fill="#FFFFFF" cx="250.7" cy="250.9" r="238.6"/>
	<g>
		<path fill-rule="evenodd" clip-rule="evenodd" fill="#231F20" d="M167.8,283.2h-17.3l-5.3-12.8h-28.9l-4.8,12.8H94.3l26.1-64.6
			h18.7L167.8,283.2L167.8,283.2L167.8,283.2z M130,234l-9.5,25.1h19.9L130,234L130,234z"/>
		<polygon fill-rule="evenodd" clip-rule="evenodd" fill="#231F20" points="230.8,218.6 244.8,218.6 244.8,283.2 228.7,283.2 
			228.7,242.8 211.3,263.1 208.8,263.1 191.4,242.8 191.4,283.2 175.2,283.2 175.2,218.6 189.3,218.6 210,242.5 230.8,218.6 		"/>
		<path fill-rule="evenodd" clip-rule="evenodd" fill="#231F20" d="M285.7,218.6c23.6,0,35.7,14.7,35.7,32.4
			c0,18.6-11.8,32.2-37.5,32.2h-26.7v-64.6H285.7L285.7,218.6L285.7,218.6z M273.2,271.3h10.5c16.2,0,21-11,21-20.5
			c0-11.1-6-20.5-21.2-20.5h-10.3V271.3L273.2,271.3z"/>
		<polygon fill-rule="evenodd" clip-rule="evenodd" fill="#009360" points="386.5,233.6 353.4,233.6 333.2,213.4 407.1,213.3 
			407.1,287.3 386.5,266.6 386.5,233.6 		"/>
		<polygon fill-rule="evenodd" clip-rule="evenodd" fill="#009360" points="353.4,267.2 353.5,237.4 332.5,258.3 332.5,287.8 
			362.8,287.8 383.4,267.2 353.4,267.2 		"/>
	</g>
</g>
</svg>
