<?xml version="1.0" encoding="utf-8"?>
<!-- Generator: Adobe Illustrator 18.1.0, SVG Export Plug-In . SVG Version: 6.00 Build 0)  -->
<!DOCTYPE svg PUBLIC "-//W3C//DTD SVG 1.1//EN" "http://www.w3.org/Graphics/SVG/1.1/DTD/svg11.dtd">
<svg version="1.1" id="Layer_1" xmlns="http://www.w3.org/2000/svg" xmlns:xlink="http://www.w3.org/1999/xlink" x="0px" y="0px"
	 viewBox="0 0 500 500" enable-background="new 0 0 500 500" xml:space="preserve">
<g>
	<circle fill="#ED2826" cx="250" cy="250.4" r="250"/>
	<g>
		<path fill-rule="evenodd" clip-rule="evenodd" fill="#221F1F" d="M118.6,203.2v1.5c0,0,0,3,0,5.3c-2.5-2.5-6.3-6.8-6.3-6.8h-17
			v84.3l10,7.8l10-1.3c0,0,0.3-4.5,0.3-7.5c3.3,2.8,7.8,6.5,7.8,6.5l16.8-1.8V212l-9-8.8H118.6L118.6,203.2z"/>
		<path fill-rule="evenodd" clip-rule="evenodd" fill="#221F1F" d="M221.4,203.2h-29v11.3c0,0,7.8,6,8.8,6.8c0,1.5,0,58,0,58
			l9.8,7.8l11.5-0.5c0,0,0-62.3,0-65.3c2,0,8.5,0,8.5,0V213l-8.8-9.8H221.4L221.4,203.2z"/>
		<polygon fill-rule="evenodd" clip-rule="evenodd" fill="#221F1F" points="338.7,203.2 327.4,203.2 327.4,280.8 337.2,289.8 
			348.7,290.8 348.7,212.2 339.4,203.2 338.7,203.2 		"/>
		<path fill-rule="evenodd" clip-rule="evenodd" fill="#221F1F" d="M395.7,250.8c0-0.8,6.8-38,6.8-38l-9.3-9.5h-0.8h-11.3
			c0,0-0.8,4-1,6.3c-2.5-2.5-6-6.3-6-6.3h-12.5c0,0,7.3,37.3,7.3,37.8c0,0.5-6.8,42.5-6.8,42.5l13.3,10l7.8,1c0,0,0-4.8,0-7.3
			c3.5,2.8,11,8.5,11,8.5l10.5,1.5C404.7,297.3,395.7,251.3,395.7,250.8L395.7,250.8z"/>
		<path fill-rule="evenodd" clip-rule="evenodd" fill="#221F1F" d="M307.4,267.5c0-5,0-55.8,0-55.8l-9-8.5h-0.8h-11.5v75.5l9.8,8.5
			l22,1.3l-0.5-9.8C317.4,278.8,309.7,270,307.4,267.5L307.4,267.5z"/>
		<path fill-rule="evenodd" clip-rule="evenodd" fill="#221F1F" d="M174.8,220c2.3,0,9.5,0,9.5,0v-8l-9-8.8h-0.8h-21V282l9.5,7.5
			l21.3-1.5v-8.5c0,0-8.8-9.8-9.5-10.5c0-1.3,0-11.8,0-14.3c2.3,0,9.8,0,9.8,0V246c0,0-9-8.8-9.8-9.5
			C174.8,235.3,174.8,222.5,174.8,220L174.8,220z"/>
		<path fill-rule="evenodd" clip-rule="evenodd" fill="#221F1F" d="M263.4,220c2.3,0,9.5,0,9.5,0v-8l-9-8.8h-0.5h-21.3v75l9.8,8
			l11.5,0.3c0,0,0-28.8,0-31.8c2.3,0,9.8,0,9.8,0V246c0,0-8.8-8.8-9.8-9.5C263.4,235.3,263.4,222.5,263.4,220L263.4,220z"/>
		<path fill-rule="evenodd" clip-rule="evenodd" fill="#FFF5E2" d="M329.9,279.3c0,0,3,0.3,8,0.5v-74.3h-8V279.3L329.9,279.3z"/>
		<path fill-rule="evenodd" clip-rule="evenodd" fill="#FFF5E2" d="M194.8,213h8.8v64.5c0,0,2,0,8-0.3V213h9v-7.5h-25.8V213
			L194.8,213z"/>
		<path fill-rule="evenodd" clip-rule="evenodd" fill="#FFF5E2" d="M121.3,269.5h-0.5l-9.8-64h-13v80.3c0,0,2.5-0.3,8-1l-0.5-61h0.5
			l9.3,60c0,0,3.3-0.3,14-1.5v-76.8h-8.3L121.3,269.5L121.3,269.5z"/>
		<polygon fill-rule="evenodd" clip-rule="evenodd" fill="#FFF5E2" points="392.2,205.5 383.2,205.5 378.7,234.3 378.2,234.3 
			373.4,205.5 364.4,205.5 371.4,241 364.7,282.5 373.4,283.3 377.7,249 378.4,249 382.7,284.3 392.2,285.3 385.4,242 392.2,205.5 
					"/>
		<path fill-rule="evenodd" clip-rule="evenodd" fill="#FFF5E2" d="M296.6,205.5h-8v71.8c0,0,5.5,0.3,18.5,0.8v-7.3
			c0,0-1.3-0.3-10.5-0.5V205.5L296.6,205.5z"/>
		<path fill-rule="evenodd" clip-rule="evenodd" fill="#FFF5E2" d="M156.1,280.3c0,0,4.8-0.5,18.5-1.3v-7.3l-10.5,0.5v-25.5h10.5
			v-7.5h-10.5V213h10.5v-7.5h-18.5V280.3L156.1,280.3z"/>
		<polygon fill-rule="evenodd" clip-rule="evenodd" fill="#FFF5E2" points="244.6,276.8 252.9,276.8 252.9,246.8 263.1,246.8 
			263.1,239.3 252.6,239.3 252.6,213 263.1,213 263.1,205.5 244.6,205.5 244.6,276.8 		"/>
	</g>
</g>
</svg>
