<?xml version="1.0" encoding="utf-8"?>
<!-- Generator: Adobe Illustrator 18.1.0, SVG Export Plug-In . SVG Version: 6.00 Build 0)  -->
<!DOCTYPE svg PUBLIC "-//W3C//DTD SVG 1.1//EN" "http://www.w3.org/Graphics/SVG/1.1/DTD/svg11.dtd">
<svg version="1.1" id="Layer_1" xmlns="http://www.w3.org/2000/svg" xmlns:xlink="http://www.w3.org/1999/xlink" x="0px" y="0px"
	 viewBox="0 0 500 500" enable-background="new 0 0 500 500" xml:space="preserve">
<g>
	<circle fill="#BB654E" cx="249.5" cy="250.4" r="250"/>
	<circle fill="#FFFFFF" cx="249.5" cy="250.4" r="238.6"/>
	<g>
		<polygon fill-rule="evenodd" clip-rule="evenodd" fill="#BB654E" points="267.3,170.2 267.3,215.4 232.7,215.4 232.7,170.2 
			161.7,170.2 161.7,330.3 232.7,330.3 232.7,281.8 267.3,281.8 267.3,330.3 338.3,330.3 338.3,170.2 267.3,170.2 		"/>
		<path fill-rule="evenodd" clip-rule="evenodd" fill="#FFFFFF" d="M212.9,311.2h-34V186.7h35v45.6h77c13.5,0,28.3,6.5,28.3,21.8
			l0,57.1h-33.7v-26.5c0-13.2-10.2-19.4-22.4-19.4h-28.2c-9.7,0-22.1,5-22.1,16.5V311.2L212.9,311.2z"/>
	</g>
</g>
</svg>
