<?xml version="1.0" encoding="utf-8"?>
<!-- Generator: Adobe Illustrator 18.1.1, SVG Export Plug-In . SVG Version: 6.00 Build 0)  -->
<svg version="1.1" id="Layer_1" xmlns="http://www.w3.org/2000/svg" xmlns:xlink="http://www.w3.org/1999/xlink" x="0px" y="0px"
	 viewBox="0 0 500 500" enable-background="new 0 0 500 500" xml:space="preserve">
<g>
	<g>
		<path fill="#8DC21F" d="M249.8,1.1C112.5,1.1,0.2,112.3,0.2,249.6s112.9,248.6,250.2,248.6c0.3,0,2.7,0,2.7,0V1.1
			C253,1.1,250.2,1.1,249.8,1.1z"/>
		<path fill="#3FA632" d="M500.5,249.6C500.5,112.7,389,1.6,253,1.1v497.1C389,497.6,500.5,386.5,500.5,249.6z"/>
	</g>
	<circle fill="#FFFFFF" cx="248.7" cy="249.6" r="230.7"/>
	<g>
		<path fill="#8DC21F" d="M204.7,177.1c27.8,0,62.7,25.7,62.7,25.7v-2.6c0,0-34.1-55.8-97.6-55.8h-19.5c-4.6,0-8.3,3.4-8.3,7.6v52.9
			c0,4.2,3.7,7.6,8.3,7.6h54.5L204.7,177.1z"/>
		<path fill="#3FA632" d="M297.3,240.1c-27.8,0-62.7-25.7-62.7-25.7v2.6c0,0,34.1,55.8,97.6,55.8h19.5c4.6,0,8.3-3.4,8.3-7.6v-52.9
			c0-4.2-3.7-7.6-8.3-7.6h-54.5L297.3,240.1z"/>
		<polygon fill="#231815" points="126.4,296.4 126.4,329.8 83.5,293.9 83.5,296.7 83.5,352 94.5,352 94.5,318.5 137.4,354.4 
			137.4,352 137.4,296.4 		"/>
		<path fill="#231815" d="M184.1,332.8c0,6-4.1,10.5-9.8,10.5c-5.7,0-9.8-4.5-9.8-10.5v-29.5h-10.7v29.9c0,11.5,7,20,20.5,20
			c13.5,0,20.5-8.5,20.5-20v-29.9h-10.7V332.8z"/>
		<path fill="#231815" d="M227.6,317.8l6.7,16.9h-6.7v9.1h10.4l3.3,8.3h12.1l-21.2-48.6h-4.6V317.8L227.6,317.8z M220.9,334.7h6.7
			v9.1h-10.1l-3.4,8.3h-11.8l21-48.6h4.2v14.4l-0.1-0.3L220.9,334.7L220.9,334.7z"/>
		<polygon fill="#231815" points="299.6,330.3 299.5,330.3 264.3,301 264.3,303.4 264.3,352 275,352 275,325 275.2,325 310.3,354.4 
			310.3,352 310.3,303.4 299.6,303.4 		"/>
		<path fill="#231815" d="M347.7,343.3c-7.8,0-13.7-6.6-13.7-15.7c0-9.1,6-15.7,14.1-15.7c4,0,7.1,1.5,9.2,4l8.2-6.7
			c-4.1-5.3-11-7.1-16.4-7.1c-15.2,0-26.2,10-26.2,25.6c0,15.6,11.1,25.5,26.2,25.5c6.7,0,13.5-2.7,17.6-8.4l-8.9-6.7
			C355.5,341.4,352,343.3,347.7,343.3z"/>
		<polygon fill="#231815" points="389.3,342.1 389.3,332.2 410.4,332.2 410.4,322.3 389.3,322.3 389.3,313.2 411.6,313.2 
			411.6,303.4 378.6,303.4 378.6,352 412.9,352 412.9,342.1 		"/>
		<path fill="#231815" d="M383.1,264.8c0.1-0.2,0.1-0.4,0.1-0.7c0-0.2-0.1-0.4-0.1-0.6v-1.4c0.9,0.3,1.4,1,1.4,2.1
			c0,1.1-0.6,1.8-1.4,2V264.8L383.1,264.8z M383.1,267.5l1.6,2.4h-1.3l-0.2-0.4V267.5L383.1,267.5z M383.1,272.5
			c2.9-0.8,5-3.4,5-6.7c0-3.2-2.2-5.8-5-6.6v1.1c2.2,0.8,3.8,2.9,3.8,5.5c0,2.7-1.6,4.8-3.8,5.6V272.5z M381.6,265.4
			c0.7,0,1.3-0.1,1.6-0.6v1.4c-0.2,0.1-0.5,0.1-0.7,0.2l0.7,1.1v2.1l-1.6-2.5V265.4L381.6,265.4z M383.1,263.5
			c-0.3-0.5-0.9-0.6-1.6-0.6v-1h0.1c0.6,0,1,0.1,1.4,0.2V263.5L383.1,263.5z M383.1,259.3v1.1c-0.5-0.2-1-0.3-1.6-0.3v-1
			C382.1,259,382.6,259.1,383.1,259.3L383.1,259.3z M383.1,271.4v1.1c-0.5,0.1-1,0.2-1.6,0.2l0,0v-1
			C382.1,271.7,382.6,271.6,383.1,271.4L383.1,271.4z M380.1,272.6c0.4,0.1,0.8,0.1,1.2,0.1c0.1,0,0.2,0,0.3,0v-1
			c-0.1,0-0.2,0-0.3,0c-0.4,0-0.8,0-1.2-0.1V272.6L380.1,272.6z M380.1,266.4h1.1l0.4,0.6v-1.6c-0.1,0-0.3,0-0.4,0h-1.1V266.4
			L380.1,266.4z M380.1,262.9h1.4l0.1,0v-1h-1.5V262.9L380.1,262.9z M380.1,260.1c0.4-0.1,0.8-0.1,1.2-0.1c0.1,0,0.2,0,0.3,0v-1l0,0
			c-0.1,0-0.2,0-0.3,0c-0.4,0-0.8,0-1.2,0.1V260.1z M380.1,259.1v1c-2.6,0.5-4.5,2.8-4.5,5.7c0,2.9,1.9,5.2,4.5,5.8v1
			c-3.2-0.6-5.7-3.3-5.7-6.8C374.4,262.4,376.9,259.7,380.1,259.1L380.1,259.1z M380.1,261.9h-1.5v8h1.3v-3.5h0.2v-1h-0.2l0,0v-2.6
			h0.2V261.9z"/>
	</g>
</g>
</svg>
