<?xml version="1.0" encoding="iso-8859-1"?>
<!-- Generator: Adobe Illustrator 18.0.0, SVG Export Plug-In . SVG Version: 6.00 Build 0)  -->
<!DOCTYPE svg PUBLIC "-//W3C//DTD SVG 1.0//EN" "http://www.w3.org/TR/2001/REC-SVG-20010904/DTD/svg10.dtd">
<svg version="1.0" id="Layer_1" xmlns="http://www.w3.org/2000/svg" xmlns:xlink="http://www.w3.org/1999/xlink" x="0px" y="0px"
	 viewBox="0 0 500 500" enable-background="new 0 0 500 500" xml:space="preserve">
<g>
	<circle fill="#2AA9E0" cx="249.567" cy="250.176" r="250"/>
	<path fill="#FFFFFF" d="M353.454,185.737c-7.644,3.391-15.86,5.682-24.483,6.712c8.8-5.276,15.56-13.629,18.742-23.584
		c-8.237,4.885-17.36,8.433-27.069,10.344c-7.775-8.285-18.854-13.461-31.114-13.461c-23.541,0-42.628,19.085-42.628,42.626
		c0,3.341,0.377,6.594,1.104,9.715c-35.427-1.778-66.837-18.748-87.861-44.539c-3.67,6.296-5.772,13.618-5.772,21.43
		c0,14.789,7.525,27.837,18.963,35.481c-6.988-0.222-13.561-2.139-19.307-5.332c-0.004,0.178-0.004,0.356-0.004,0.536
		c0,20.653,14.694,37.881,34.194,41.798c-3.577,0.974-7.343,1.495-11.23,1.495c-2.747,0-5.417-0.268-8.02-0.765
		c5.425,16.934,21.167,29.26,39.821,29.603c-14.589,11.434-32.969,18.248-52.941,18.248c-3.441,0-6.834-0.202-10.169-0.597
		c18.865,12.095,41.271,19.153,65.344,19.153c78.407,0,121.284-64.955,121.284-121.285c0-1.848-0.042-3.686-0.124-5.515
		C340.513,201.793,347.739,194.286,353.454,185.737z"/>
</g>
</svg>
