<?xml version="1.0" encoding="utf-8"?>
<!-- Generator: Adobe Illustrator 18.1.0, SVG Export Plug-In . SVG Version: 6.00 Build 0)  -->
<!DOCTYPE svg PUBLIC "-//W3C//DTD SVG 1.1//EN" "http://www.w3.org/Graphics/SVG/1.1/DTD/svg11.dtd">
<svg version="1.1" id="Layer_1" xmlns="http://www.w3.org/2000/svg" xmlns:xlink="http://www.w3.org/1999/xlink" x="0px" y="0px"
	 viewBox="0 0 500 500" enable-background="new 0 0 500 500" xml:space="preserve">
<g>
	<circle fill="#221F1F" cx="250" cy="250" r="250"/>
	<g>
		<path fill="#FFFFFF" d="M435.1,274.4h-1.9v5.6h-0.9v-5.6h-1.9v-0.7h4.8V274.4L435.1,274.4L435.1,274.4z M439.4,278.4L439.4,278.4
			l1.8-4.6h1.4v6.3h-0.9v-5.2h0l-2,5.2h-0.6l-1.9-5.2h0v5.2h-0.9v-6.3h1.5L439.4,278.4L439.4,278.4z"/>
		<path fill="#FFFFFF" d="M247.3,268.1c-0.4,0.8-2.3,4.5-7,4.5c-5.5,0-7.6-4.6-7.6-7.9c0-5.6,3.8-10.6,9.3-10.6c6,0,7.4,4.4,7.5,5.3
			h8.8c0.5-3.3-2.1-13.3-16-13.3c-10.2,0-18.3,8.1-18.3,19c0,8.9,5.6,15.7,15.9,15.7c12.8,0,16.3-10.1,16.7-12.5H247.3L247.3,268.1z
			"/>
		<path fill="#FFFFFF" d="M179.8,270.6c0-0.5,0.1-1.5,0.6-3.5c0.5-2,6.7-30.6,6.7-30.6h-8.2l-6.8,31.5c-0.3,1.3-0.4,2.6-0.4,3.8
			c0,6.9,5.3,8.9,9.6,8.9c1.5,0,3-0.2,3.3-0.3c0.2-0.7,1.4-6.6,1.5-6.9c-0.2,0-1.1,0.1-2.1,0.1C180.8,273.6,179.8,272.3,179.8,270.6
			L179.8,270.6z"/>
		<polygon fill="#FFFFFF" points="297,246 285.4,246 270.7,259.4 275.6,236.3 267.4,236.3 257.9,280 266.2,280 268.5,269.4 
			273.6,265.3 280.7,280 289.9,280 279.9,260.3 297,246 		"/>
		<path fill="#FFFFFF" d="M134.5,266.5c0.7-3.1,6.5-30.2,6.5-30.2s10.1,0,15.7,0c11.4,0,14.2,6.3,14.2,10.2c0,8.5-8,10.8-9,11.1
			c0.9,0.3,6.1,2.4,6.1,9.1c0,7.3-6.7,13.3-17.1,13.3c0,0-3.7,0-4.7,0C137.5,280,132.8,274,134.5,266.5L134.5,266.5L134.5,266.5z
			 M159.1,266c0-2.1-1.3-4.7-7.2-4.7h-7.6l-2.3,10.6h8.6C156.2,271.9,159.1,269.4,159.1,266L159.1,266L159.1,266z M161.9,248.4
			c0-2.1-1.6-4-5.6-4h-8.4l-1.9,8.8h8.8C159.5,253.2,161.9,251,161.9,248.4L161.9,248.4z"/>
		<path fill="#FFFFFF" d="M293.2,266.5c0.7-3.1,6.5-30.2,6.5-30.2s10.1,0,15.7,0c11.4,0,14.2,6.3,14.2,10.2c0,8.5-8,10.8-9,11.1
			c0.9,0.3,6.1,2.4,6.1,9.1c0,7.3-6.7,13.3-17.1,13.3c0,0-3.7,0-4.7,0C296.2,280,291.5,274,293.2,266.5L293.2,266.5L293.2,266.5z
			 M317.8,266c0-2.1-1.3-4.7-7.2-4.7H303l-2.3,10.6h8.6C314.9,271.9,317.8,269.4,317.8,266L317.8,266L317.8,266z M320.6,248.4
			c0-2.1-1.6-4-5.6-4h-8.4l-1.9,8.8h8.8C318.2,253.2,320.6,251,320.6,248.4L320.6,248.4z"/>
		<path fill="#FFFFFF" d="M386.7,246.1c-8.8,0-14.8,5.2-16.8,15c-0.9,4.2-4.1,19-4.1,19h8.3c0,0,3-14.1,4-18.5
			c1.3-5.8,4.3-7.7,8.4-7.7c1.3,0,2.2,0.2,2.6,0.2c0.2-1.2,1.4-6.4,1.6-7.7C389.9,246.2,388.5,246.1,386.7,246.1L386.7,246.1z"/>
		<path fill="#FFFFFF" d="M414.8,293l27.7-47h-8.9l-12.7,22.1l-3-22.1c0,0-4.5,0-9.5,0c-10.9,0-16.6,5-18.6,14.5
			c-1,4.8-4.2,19.5-4.2,19.5h8.2c0,0,3-13.9,4.2-19.6c1.2-5.5,5.2-7.1,9.6-6.2l1.7-8c1.3,7.6,5.2,31.9,5.2,31.9l-8.6,14.8H414.8
			L414.8,293z"/>
		<path fill="#FFFFFF" d="M203.6,265.5c1.8-0.3,7.1-1.1,7.9-1.2c-0.1,0.6-0.3,1.5-0.5,2.1c-1,4.1-5.1,6.7-9.8,6.7
			c-2.9,0-4.7-1.6-4.7-3.5C196.5,268.2,198,266.4,203.6,265.5L203.6,265.5L203.6,265.5z M200.5,256.7c0.2-0.3,2.3-3.6,7.6-3.6
			c3.3,0,5,1.2,5,2.7c0,2.1-3.3,2.6-9,3.4c-9.9,1.4-16.1,4.5-16.1,11.6c0,5,4.2,10,11.6,10c6.2,0,9.4-3.7,9.7-4
			c0,0.9,0.1,2.2,0.2,3.3c0.7,0,6.4,0,8.5,0c-0.3-1.5-0.9-4.3,0.1-8.8c0.5-2.4,2-9.2,2.8-13c1.4-7.1-2.5-12.2-12.5-12.2
			c-12.9,0-16.6,9.3-17.2,10.7H200.5L200.5,256.7z"/>
		<path fill="#FFFFFF" d="M353.7,269.8c-0.3,0.7-2.3,3.5-6.8,3.5c-6.5,0-7.9-5.5-7.8-7c3.4,0,23.3,0,25.1,0c0.1-0.6,0.7-2.9,0.7-5.2
			c0-7.9-5.4-15.2-16.3-15.2c-10,0-17.9,8.4-17.9,18.3c0,9.6,5.8,16.4,16,16.4c12.6,0,16-9.9,16.3-10.8
			C360.9,269.8,353.7,269.8,353.7,269.8L353.7,269.8L353.7,269.8z M348.8,253.5c5.6,0,7.7,3.4,7.5,6.1c-3.2,0-12.7,0-15.9,0
			C340.8,257.9,343.4,253.5,348.8,253.5L348.8,253.5z"/>
		<path fill="#FFFFFF" d="M82.3,231.4c0-2.1-1.3-4.8-6.7-4.8c-2.2,0-8.3,0-8.3,0L65,237.5c0,0,4.5,0,8.6,0
			C80.4,237.5,82.3,234.3,82.3,231.4L82.3,231.4z"/>
		<path fill="#FFFFFF" d="M104.6,231.4c0-2.1-1.3-4.8-6.7-4.8c-2.2,0-8.3,0-8.3,0l-2.4,10.9c0,0,4.5,0,8.6,0
			C102.7,237.5,104.6,234.3,104.6,231.4L104.6,231.4z"/>
		<path fill="#FFFFFF" d="M79.3,247.8c0-2.1-1.3-4.7-6.7-4.7c-2.2,0-8.3,0-8.3,0L62,253.9c0,0,4.5,0,8.7,0
			C77.4,253.9,79.3,250.7,79.3,247.8L79.3,247.8z"/>
		<path fill="#FFFFFF" d="M101.6,247.8c0-2.1-1.3-4.7-6.7-4.7c-2.2,0-8.3,0-8.3,0l-2.4,10.9c0,0,4.5,0,8.6,0
			C99.7,253.9,101.6,250.7,101.6,247.8L101.6,247.8z"/>
		<path fill="#FFFFFF" d="M125,241.1c0-2.1-1.3-4.8-6.7-4.8c-2.2,0-8.3,0-8.3,0l-2.4,10.9c0,0,4.5,0,8.6,0
			C123.1,247.3,125,244.1,125,241.1L125,241.1z"/>
		<path fill="#FFFFFF" d="M121.8,258.2c0-2.1-1.3-4.8-6.7-4.8c-2.2,0-8.3,0-8.3,0l-2.4,10.9c0,0,4.5,0,8.6,0
			C119.9,264.4,121.8,261.2,121.8,258.2L121.8,258.2z"/>
		<path fill="#FFFFFF" d="M98.4,264.9c0-2.1-1.3-4.8-6.7-4.8c-2.2,0-8.3,0-8.3,0L81.1,271c0,0,4.5,0,8.7,0
			C96.5,271,98.4,267.8,98.4,264.9L98.4,264.9z"/>
	</g>
</g>
</svg>
