<?xml version="1.0" encoding="iso-8859-1"?>
<!-- Generator: Adobe Illustrator 18.0.0, SVG Export Plug-In . SVG Version: 6.00 Build 0)  -->
<!DOCTYPE svg PUBLIC "-//W3C//DTD SVG 1.0//EN" "http://www.w3.org/TR/2001/REC-SVG-20010904/DTD/svg10.dtd">
<svg version="1.0" id="Layer_1" xmlns="http://www.w3.org/2000/svg" xmlns:xlink="http://www.w3.org/1999/xlink" x="0px" y="0px"
	 viewBox="0 0 500 500" enable-background="new 0 0 500 500" xml:space="preserve">
<g>
	<path fill="#15383F" d="M249.573-0.789C111.573-0.789-0.309,112-0.424,249h499.995C499.456,112,387.574-0.789,249.573-0.789z"/>
	<path fill="#C72C2F" d="M-0.424,249c0,0-0.003,0.465-0.003,0.536c0,138.071,111.929,250.162,250,250.162s250-112.172,250-250.243
		c0-0.071-0.003-0.454-0.003-0.454H-0.424z"/>
	<circle fill="#FFFFFF" cx="249.153" cy="249.063" r="238.623"/>
	<g>
		<path fill="#C72C2F" d="M219.691,306.855l-0.043,10.385l0.759,0.13c2.383,0.445,4.789,0.754,7.207,0.927
			c2.118,0.196,4.247,0.238,6.371,0.124c2.029-0.146,4.035-0.525,5.979-1.128c2.28-0.646,4.395-1.773,6.201-3.307
			c1.627-1.388,2.87-3.171,3.612-5.178c1.293-3.359,1.267-7.083-0.072-10.424c-0.706-1.733-1.816-3.272-3.24-4.487
			c-1.376-1.24-2.993-2.182-4.75-2.767l-7.831-2.906c-0.936-0.397-1.697-1.121-2.139-2.037c-0.345-0.762-0.313-1.642,0.088-2.376
			c0.14-0.258,0.316-0.495,0.522-0.703c0.24-0.243,0.509-0.456,0.8-0.634c0.116-0.072,0.235-0.138,0.355-0.201
			c0.876-0.433,1.821-0.708,2.792-0.813c1.658-0.239,3.343-0.222,4.995,0.053c1.952,0.211,3.888,0.557,5.791,1.036l0.405,0.09
			v-9.581l-0.749-0.161c-1.941-0.465-3.907-0.815-5.89-1.049c-2.57-0.343-5.172-0.354-7.745-0.033
			c-3.259,0.298-6.359,1.545-8.917,3.586c-1.734,1.361-3.053,3.18-3.809,5.251c-1.137,3.154-1.141,6.606-0.009,9.762
			c0.585,1.568,1.522,2.982,2.739,4.132c1.055,1.017,2.248,1.882,3.544,2.568c1.706,0.917,3.515,1.627,5.389,2.116
			c0.619,0.185,1.234,0.381,1.846,0.587l0.928,0.34c0.089,0.035,0.177,0.071,0.266,0.108c0.914,0.327,1.751,0.843,2.453,1.514
			c0.488,0.457,0.864,1.02,1.098,1.646c0.145,0.572,0.147,1.171,0.007,1.744c-0.293,0.924-0.937,1.696-1.793,2.15
			c-0.933,0.485-1.944,0.801-2.987,0.934c-1.531,0.243-3.083,0.322-4.631,0.234c-2.027-0.153-4.044-0.422-6.041-0.807
			c-1.044-0.214-2.083-0.457-3.114-0.728L219.691,306.855"/>
		<path fill="#C72C2F" d="M177.113,316.863v-12.058l-0.236,0.103c-2.718,1.316-5.675,2.067-8.691,2.206
			c-3.134,0.245-6.249-0.673-8.749-2.579c-1.786-1.378-3.113-3.264-3.809-5.409c-0.768-2.338-0.857-4.846-0.256-7.233
			c0.557-2.441,1.925-4.621,3.879-6.186c1.733-1.45,3.85-2.363,6.093-2.629c3.967-0.439,7.973,0.313,11.51,2.161l0.26,0.134v-12.127
			l-0.551-0.147c-3.541-1.137-7.258-1.623-10.973-1.436c-3.383,0.086-6.715,0.848-9.8,2.241c-3.114,1.427-5.858,3.548-8.023,6.201
			c-6.768,8.563-6.948,20.602-0.44,29.363c3.203,4.098,7.7,6.989,12.757,8.203c5.331,1.296,10.916,1.1,16.143-0.565L177.113,316.863
			"/>
		<polyline fill="#C72C2F" points="204.232,317.66 204.232,272.434 192.829,272.434 192.829,317.66 204.232,317.66 		"/>
		<polyline fill="#C72C2F" points="373.007,312.407 373.007,311.724 368.181,311.724 368.181,312.407 370.188,312.407 
			370.188,317.66 371,317.66 371,312.407 373.007,312.407 		"/>
		<polyline fill="#C72C2F" points="373.477,317.66 374.245,317.66 374.245,312.92 374.348,312.92 376.082,317.66 376.856,317.66 
			378.73,312.691 378.73,317.66 379.541,317.66 379.541,311.724 378.288,311.724 376.53,316.613 374.748,311.724 373.477,311.724 
			373.477,317.66 		"/>
		<path fill="#15383F" d="M119.195,236.088c0.106,1.424,0.746,2.753,1.792,3.725c1.046,0.971,2.42,1.51,3.848,1.51
			c1.427,0,2.801-0.54,3.847-1.51c1.046-0.971,1.686-2.301,1.792-3.725v-12.534c-0.057-1.457-0.676-2.835-1.728-3.846
			c-1.051-1.01-2.453-1.575-3.911-1.575c-1.459,0-2.86,0.565-3.912,1.575c-1.051,1.011-1.671,2.389-1.728,3.846V236.088"/>
		<path fill="#15383F" d="M150.414,236.088c0.106,1.424,0.747,2.753,1.792,3.725c1.046,0.971,2.42,1.51,3.848,1.51
			c1.427,0,2.801-0.54,3.847-1.51c1.046-0.971,1.687-2.301,1.792-3.725v-28.1c-0.057-1.457-0.677-2.835-1.728-3.846
			c-1.051-1.01-2.453-1.575-3.911-1.575c-1.459,0-2.86,0.565-3.912,1.575c-1.051,1.011-1.67,2.389-1.728,3.846V236.088"/>
		<path fill="#15383F" d="M181.466,247.406c0.106,1.423,0.746,2.753,1.792,3.724c1.046,0.971,2.42,1.51,3.847,1.51
			c1.427,0,2.801-0.539,3.847-1.51c1.046-0.97,1.686-2.301,1.792-3.724v-60.782c-0.057-1.458-0.677-2.836-1.728-3.847
			c-1.051-1.01-2.453-1.575-3.911-1.575c-1.459,0-2.86,0.565-3.911,1.575c-1.051,1.011-1.671,2.389-1.728,3.847V247.406"/>
		<path fill="#15383F" d="M212.68,236.088c0.106,1.424,0.746,2.753,1.792,3.725c1.046,0.971,2.42,1.51,3.847,1.51
			c1.428,0,2.801-0.54,3.848-1.51c1.046-0.971,1.686-2.301,1.792-3.725v-28.1c-0.057-1.457-0.677-2.835-1.728-3.846
			c-1.052-1.01-2.453-1.575-3.912-1.575c-1.458,0-2.86,0.565-3.911,1.575c-1.052,1.011-1.67,2.389-1.728,3.846V236.088"/>
		<path fill="#15383F" d="M243.755,236.088c0.106,1.424,0.747,2.753,1.792,3.725c1.046,0.971,2.42,1.51,3.847,1.51
			c1.427,0,2.801-0.54,3.847-1.51c1.046-0.971,1.686-2.301,1.792-3.725v-12.534c-0.057-1.457-0.677-2.835-1.728-3.846
			c-1.051-1.01-2.453-1.575-3.911-1.575s-2.86,0.565-3.912,1.575c-1.051,1.011-1.67,2.389-1.728,3.846V236.088"/>
		<path fill="#15383F" d="M274.945,236.088c0.106,1.424,0.746,2.753,1.792,3.725c1.046,0.971,2.421,1.51,3.848,1.51
			c1.427,0,2.801-0.54,3.847-1.51c1.046-0.971,1.686-2.301,1.792-3.725v-28.1c-0.057-1.457-0.677-2.835-1.728-3.846
			c-1.051-1.01-2.453-1.575-3.911-1.575c-1.459,0-2.86,0.565-3.912,1.575c-1.051,1.011-1.671,2.389-1.728,3.846V236.088"/>
		<path fill="#15383F" d="M306.008,247.406c0.106,1.423,0.746,2.753,1.792,3.724c1.046,0.971,2.42,1.51,3.847,1.51
			c1.427,0,2.801-0.539,3.848-1.51c1.046-0.97,1.686-2.301,1.792-3.724v-60.782c-0.057-1.458-0.677-2.836-1.728-3.847
			c-1.051-1.01-2.453-1.575-3.912-1.575c-1.458,0-2.86,0.565-3.912,1.575c-1.051,1.011-1.67,2.389-1.727,3.847V247.406"/>
		<path fill="#15383F" d="M337.173,236.088c0.106,1.424,0.746,2.753,1.792,3.725c1.046,0.971,2.42,1.51,3.847,1.51
			c1.427,0,2.801-0.54,3.847-1.51c1.046-0.971,1.686-2.301,1.792-3.725v-28.1c-0.057-1.457-0.677-2.835-1.728-3.846
			c-1.051-1.01-2.453-1.575-3.911-1.575c-1.459,0-2.86,0.565-3.911,1.575c-1.051,1.011-1.671,2.389-1.728,3.846V236.088"/>
		<path fill="#15383F" d="M368.263,236.088c0.106,1.424,0.746,2.753,1.792,3.725c1.046,0.971,2.42,1.51,3.847,1.51
			c1.427,0,2.801-0.54,3.848-1.51c1.046-0.971,1.686-2.301,1.792-3.725v-12.534c-0.057-1.457-0.677-2.835-1.728-3.846
			c-1.051-1.01-2.453-1.575-3.912-1.575c-1.458,0-2.86,0.565-3.911,1.575c-1.052,1.011-1.671,2.389-1.728,3.846V236.088"/>
		<path fill="#C72C2F" d="M296.263,316.863v-12.058l-0.236,0.103c-2.718,1.316-5.675,2.067-8.691,2.206
			c-3.134,0.245-6.248-0.673-8.748-2.578c-1.786-1.379-3.114-3.264-3.809-5.41c-0.768-2.338-0.857-4.846-0.257-7.233
			c0.557-2.441,1.925-4.621,3.879-6.186c1.732-1.45,3.85-2.363,6.093-2.629c3.967-0.439,7.973,0.313,11.511,2.161l0.259,0.134
			v-12.127l-0.55-0.147c-3.541-1.137-7.258-1.623-10.973-1.436c-3.384,0.086-6.716,0.848-9.8,2.24
			c-3.114,1.427-5.858,3.549-8.023,6.201c-6.768,8.563-6.948,20.602-0.44,29.363c3.203,4.098,7.7,6.989,12.757,8.203
			c5.331,1.296,10.916,1.1,16.143-0.565L296.263,316.863"/>
		<path fill="#C72C2F" d="M308.279,295.066c0.111,7.149,3.43,13.869,9.04,18.302c5.61,4.433,12.915,6.108,19.896,4.563
			c9.479-1.785,16.866-9.246,18.557-18.742c1.691-9.496-2.667-19.048-10.948-23.995c-7.312-4.525-16.488-4.782-24.042-0.674
			C313.227,278.628,308.455,286.47,308.279,295.066 M324.833,285.789c2.464-1.968,5.61-2.876,8.745-2.525
			c3.134,0.351,6.001,1.933,7.969,4.398c1.968,2.464,2.876,5.61,2.525,8.744c-0.351,3.134-1.933,6.001-4.398,7.969
			c-2.464,1.968-5.61,2.876-8.744,2.525c-3.134-0.351-6.001-1.933-7.969-4.397c-1.968-2.464-2.876-5.61-2.525-8.744
			C320.786,290.624,322.368,287.757,324.833,285.789"/>
	</g>
</g>
</svg>
