<?xml version="1.0" encoding="utf-8"?>
<!-- Generator: Adobe Illustrator 18.1.0, SVG Export Plug-In . SVG Version: 6.00 Build 0)  -->
<!DOCTYPE svg PUBLIC "-//W3C//DTD SVG 1.1//EN" "http://www.w3.org/Graphics/SVG/1.1/DTD/svg11.dtd">
<svg version="1.1" id="Layer_1" xmlns="http://www.w3.org/2000/svg" xmlns:xlink="http://www.w3.org/1999/xlink" x="0px" y="0px"
	 viewBox="0 0 500 500" enable-background="new 0 0 500 500" xml:space="preserve">
<g>
	<polygon fill="none" points="135.9,363 136,363 136,362.6 135.9,362.6 	"/>
	<polygon fill="none" points="134.5,363 135.1,363 135.8,362.6 	"/>
	<polygon fill="none" points="236,309.3 234.8,310 236,309.4 306.4,325 236.1,309.3 	"/>
	<polygon fill="none" points="179.5,340.2 179,340.5 168,346.4 167.9,346.4 168,346.4 179,340.5 179.6,340.2 	"/>
	<polygon fill="none" points="223,233.9 234,236.4 199.1,228.6 184.3,225.4 179,224.2 199.1,228.6 	"/>
	<polygon fill="none" points="129.4,366.1 108,377.5 129.4,366.1 134.7,363 134.7,363 	"/>
	<polygon fill="none" points="235.9,310.2 207.9,325 233.2,311.6 	"/>
	<polygon fill="none" points="236,309.1 236.2,309.1 236.3,309 236,309 	"/>
	<polygon fill="none" points="236.3,310 233.6,311.4 235.6,310.4 236.3,310 304.3,325 236.3,310 236.3,310 236.3,310 236.3,310 
		236.3,310 236.3,310 235.9,310.2 236.3,310 	"/>
	<polygon fill="none" points="151.7,355 160.2,363 151.7,355 	"/>
	<polygon fill="none" points="179.6,340.2 179.6,340.1 189,335 192.8,333 192.8,333 189,335 	"/>
	<polygon fill="none" points="236.3,310 236.2,310 236.3,310 	"/>
	<polygon fill="none" points="211,323.5 208.1,325 222.3,317.4 	"/>
	<path fill="none" d="M250.4,12c-5.5,0-11,0.2-16.4,0.6C239.4,12.2,244.9,12,250.4,12C250.4,12,250.4,12,250.4,12z"/>
	<polygon fill="none" points="234,236.3 250.9,240 250.9,240 250.9,240.1 340.1,259.9 268.2,298.1 268.2,298.1 340.1,259.8 
		250.9,240 251,240 234,236.3 	"/>
	<path fill="#D8D8D8" d="M249.3,0.8c-4.8,0-10.3,0-15.3,0.3v11.5c5.4-0.4,10.9-0.6,16.4-0.6c0,0,0,0,0,0c0,0,0,0,0,0
		C382,12,488.7,118.7,488.7,250.3c0,39.4-9.5,76.5-26.5,109.3l0,0c0,0,0,0,0,0l10.5,2.3c0,0,0,0.1-0.1,0.1l1.1,0.3
		c16.8-33.6,26.3-71.6,26.3-111.7C500.1,112.7,387.2,0.8,249.3,0.8z"/>
	<path fill="#00A1DF" d="M12.3,259.7L1,257.1C2.5,313.2,22.4,364.6,55,405.6l10.2-5.4C33.9,361.5,14.4,312.8,12.3,259.7z"/>
	<rect x="60.1" y="397.1" fill="#00A1DF" width="0" height="11.5"/>
	<path fill="#002B49" d="M12.3,259.5c-0.1-3.1-0.2-6.1-0.2-9.2C12.1,124.2,110.1,21,234,12.6V1.1C103,8.5-0.3,117.2-0.3,250.3
		c0,2.2,0.6,4.4,0.7,6.6l0.6,0.1l11.4,2.6C12.3,259.6,12.3,259.6,12.3,259.5z"/>
	<path fill="#C4D600" d="M462.2,359.6c0,0-0.1,0.1-0.1,0.1C423.1,435,345,486.9,254.7,488.5c-1.4,0-2.9,0-4.3,0
		c-74.7,0-141.4-34.4-185.1-88.2L55,405.8c45.7,57.5,116.3,94.3,195.5,94.3c97.7,0,181.2-56.2,222.2-138.1c0,0,0-0.1,0.1-0.1
		L462.2,359.6z"/>
	<polygon fill="#C4D600" points="65.2,400.2 55,405.6 55,405.6 55,405.6 55,405.6 65.2,400.2 	"/>
	<polygon fill="#FFFFFF" points="191.3,333 189,333 189,334.2 189,334.8 189,335 192.8,333 192.5,333 	"/>
	<polygon fill="#FFFFFF" points="234,249.1 233.4,249.5 234,249.1 250.9,240.1 250.9,240.1 	"/>
	<path fill="#FFFFFF" d="M462.1,359.7c0,0,0.1-0.1,0.1-0.1c0,0,0,0,0,0l0,0c16.9-32.7,26.5-69.9,26.5-109.3
		C488.7,118.7,382,12,250.4,12c0,0,0,0,0,0c-5.5,0-11,0.2-16.4,0.6C110.1,21,12.1,124.2,12.1,250.3c0,3.1,0.1,6.2,0.2,9.2
		c0,0.1,0,0.1,0,0.2c2.1,53.1,21.5,101.8,52.9,140.5c0,0,0,0,0,0c0,0,0,0,0,0l0,0c0,0.1,0.1,0.1,0.1,0.1l0,0
		c43.7,53.8,110.3,88.3,185,88.3c1.4,0,2.9,0,4.3,0C345,486.9,423.1,435,462.1,359.7z M333,331.2v-0.4V325h7.4l10.5,9.8l0,0l0.6,0.5
		l0.1,0l13.5,12.9v-9.9v-0.3V325h10v15.2v0.3V363h-7.8L343,340.1V363h-10V331.2z M179,278.4L179,278.4l0-54.2l5.3,1.2l-5.3-1.2
		v-48.9l55-29.3l17-9v103h-0.1l89.2,19.8l-71.9,38.3l0,0l0,0l-34.2-7.6L179,278.4L179,278.4L179,278.4L179,278.4L179,278.4z
		 M236.2,309.1l-0.2,0V309h0.3L236.2,309.1z M218,333h-25.2h0l0,0l-3.8,2v0.1l0.2-0.1v0l-0.2,0.1v4.8h29v8h-29v7h29v8h-39v-22.5
		l-11,5.9V363h-7.8l-8.5-8l-0.1,0l0,0l0,0l0,0l0,0l-0.2-0.2l0,0l-0.3-0.3l0,0L136,340.1v22.4v0.4l0,0v0v0h-0.7h-0.6l-5.3,3.1
		L108,377.5l21.4-11.5l5.3-3h-0.2h0.6h-0.6H126v-38h7.4l24.6,23.2V325h10v20.5v0.6v0.3l11-5.9v0l0,0v0l0,0v-0.2v-0.6V325h27.6h1.3
		l28-14.8l0.4-0.2l0,0l0,0h0l0,0l0,0l68,15h2.1L236,309.4l-1.2,0.6l1.2-0.7l0.1-0.1l70.3,15.7H322v3.3v0.4V363h-43v-38h25.3l-68-15
		l-0.6,0.3l-2,1.1l2.7-1.4h0l-0.4,0.2l-2.7,1.4L207.9,325h0.2h0l2.9-1.5l11.3-6l-14.2,7.6h9.9V333z M236.3,310L236.3,310l-0.1,0
		L236.3,310z M248.7,351.2L238.2,363h-13l17-19l-17-19h13l10.5,11.9l10.5-11.9h13l-17,19l17,19h-13L248.7,351.2z"/>
	<rect x="290" y="333" fill="#FFFFFF" width="21" height="22"/>
	<polygon fill="#211F1F" points="208.1,325 207.9,325 206.6,325 179,325 179,339.7 179,340.3 179,340.5 179,340.5 179,340.5 
		179,340.5 179,340.5 179.5,340.2 179.6,340.2 179,340.5 179,363 218,363 218,355 189,355 189,348 218,348 218,340 189,340 
		189,335.2 189.2,335 189.2,335 189,335.2 189,335 179.6,340.1 179.6,340.2 189,335 189,334.8 189,334.2 189,333 191.3,333 
		192.5,333 192.8,333 192.8,333 218,333 218,325 208.1,325 	"/>
	<polygon fill="#211F1F" points="343,340.1 367.2,363 375,363 375,340.5 375,340.2 375,325 365,325 365,337.9 365,338.3 365,348.2 
		351.5,335.3 351.4,335.3 350.8,334.8 350.8,334.8 340.4,325 333,325 333,330.8 333,331.2 333,363 343,363 	"/>
	<path fill="#211F1F" d="M279,363h43v-34.2v-0.4V325h-15.6h-2.1H279V363z M290,333h21v22h-21V333z"/>
	<polygon fill="#211F1F" points="168,346.4 168,346.1 168,345.5 168,325 158,325 158,348.2 133.4,325 126,325 126,363 134.5,363 
		135.8,362.6 135.1,362.8 134.5,363 134.7,363 134.7,363 135.3,363 136,363 136,363 136,363 136,362.6 136,362.6 136,340.1 
		151.1,354.5 151,354.5 151.4,354.9 151.4,354.9 151.6,355.1 151.5,355.1 151.5,355.1 151.6,355.1 151.6,355.1 151.7,355 151.7,355 
		160.2,363 168,363 168,346.4 167.9,346.4 	"/>
	<polygon fill="#211F1F" points="272.2,363 255.2,344 272.3,325 259.3,325 248.7,336.9 238.2,325 225.2,325 242.3,344 225.3,363 
		238.2,363 248.7,351.2 259.3,363 	"/>
	<polygon fill="#00A1DF" points="179,278.4 179,278.4 179,278.4 	"/>
	<polygon fill="#00A1DF" points="233.4,249.5 234,249.1 250.9,240.1 234,236.4 199.1,228.6 223,233.9 199.1,228.6 179,224.2 
		179,278.3 222.5,255.2 	"/>
	<rect x="250.9" y="240.1" fill="#002B49" width="0" height="0"/>
	<polygon fill="#002B49" points="234,236.4 251,240.1 251,137 234,146 179,175.3 179,224.2 184.3,225.4 199.1,228.6 	"/>
	<polygon fill="#002B49" points="223,233.9 199.1,228.6 234,236.4 234,236.4 	"/>
	<polygon fill="#C4D600" points="179,278.4 234,290.6 268.2,298.1 268.2,298.1 340.1,259.9 250.9,240.1 250.9,240.1 234,249.1 
		233.4,249.5 222.5,255.2 179,278.3 179,278.4 179,278.4 179,278.4 	"/>
</g>
</svg>
