<?xml version="1.0" encoding="utf-8"?>
<!-- Generator: Adobe Illustrator 18.1.0, SVG Export Plug-In . SVG Version: 6.00 Build 0)  -->
<!DOCTYPE svg PUBLIC "-//W3C//DTD SVG 1.1//EN" "http://www.w3.org/Graphics/SVG/1.1/DTD/svg11.dtd">
<svg version="1.1" id="Layer_1" xmlns="http://www.w3.org/2000/svg" xmlns:xlink="http://www.w3.org/1999/xlink" x="0px" y="0px"
	 viewBox="0 0 500 500" enable-background="new 0 0 500 500" xml:space="preserve">
<g>
	<linearGradient id="SVGID_1_" gradientUnits="userSpaceOnUse" x1="1.249" y1="250.6449" x2="501.249" y2="250.6449">
		<stop  offset="4.000000e-02" style="stop-color:#005D9B"/>
		<stop  offset="0.96" style="stop-color:#3582C4"/>
	</linearGradient>
	<circle fill="url(#SVGID_1_)" cx="251.2" cy="250.6" r="250"/>
	<circle fill="#FFFFFF" cx="251.2" cy="250.6" r="238.6"/>
	<g>
		<rect x="262.8" y="151.9" fill-rule="evenodd" clip-rule="evenodd" width="11.3" height="43.2"/>
		<rect x="208.4" y="151.9" fill-rule="evenodd" clip-rule="evenodd" width="11.3" height="43.2"/>
		<rect x="302.7" y="151.9" fill-rule="evenodd" clip-rule="evenodd" width="11.3" height="43.2"/>
		<path fill-rule="evenodd" clip-rule="evenodd" d="M188.5,190.2c-3.9,3.4-9,5.5-14.6,5.5c-12.2,0-22.2-9.9-22.2-22.2
			c0-12.2,9.9-22.2,22.2-22.2c5.5,0,10.5,2,14.4,5.3L181,165c-1.9-1.6-4.4-2.6-7.1-2.6c-6.1,0-11.1,5-11.1,11.1
			c0,6.1,5,11.1,11.1,11.1c2.8,0,5.3-1,7.2-2.7L188.5,190.2z"/>
		<path fill-rule="evenodd" clip-rule="evenodd" d="M126.1,187.2l-2.6,8h-12l21.8-63.2l21.8,63.2h-12l-2.6-8H126.1z M133.4,164.6
			l-3.5,10.9h7L133.4,164.6z"/>
		<polygon fill-rule="evenodd" clip-rule="evenodd" points="201.9,148.3 219.9,148.3 241.3,205.1 262.7,148.3 316.5,148.3 
			310.2,136.9 254.3,136.9 241.3,170.9 228.3,136.9 170.8,136.9 164.5,148.3 190.6,148.3 190.6,195.2 201.9,195.2 		"/>
		<path fill-rule="evenodd" clip-rule="evenodd" d="M327.2,173.5c0-6.1,4.9-11,11-11c6.1,0,11,4.9,11,11c0,6.1-4.9,11-11,11
			C332.1,184.5,327.2,179.6,327.2,173.5z M316,173.5c0-12.2,9.9-22.2,22.2-22.2c12.2,0,22.2,9.9,22.2,22.2
			c0,12.2-9.9,22.2-22.2,22.2C326,195.7,316,185.8,316,173.5z"/>
		<polygon fill-rule="evenodd" clip-rule="evenodd" points="382.6,168.2 382.6,151.9 394,151.9 394,196.8 373.6,176.8 373.6,195.2 
			362.3,195.2 362.3,150.7 		"/>
		<path fill-rule="evenodd" clip-rule="evenodd" d="M288.8,163.3c0-1.8,1.7-2,3-2c1.3,0,7.4,0,7.4,0v-9.4c0,0-5.2,0-11.2,0
			c-8.6,0-10.2,6.1-10.2,9.9c0,10.2,11.6,16.9,11.6,20.9c0,2.3-2.6,2.7-3.8,2.7c-1.2,0-8.3,0-8.3,0v9.7c0,0,8.2,0,12.3,0
			c4.2,0,11.2-2,11.2-9.8C300.9,174.1,288.8,168.3,288.8,163.3z"/>
	</g>
	<path fill-rule="evenodd" clip-rule="evenodd" fill="#FFFFFF" d="M108.9,358.3h7.6v2.1h-4.7v2.2h4.4v2.1h-4.4v2.5h4.9v2.1h-7.8
		V358.3L108.9,358.3z M379.2,358.3h8.4v2.2h-2.7v8.8h-2.9v-8.8h-2.7V358.3L379.2,358.3z M354.3,358.3h3.7l3.2,6.6
		c0.1,0.2,0.2,0.5,0.4,0.9c0.1,0.4,0.3,0.9,0.5,1.5c-0.1-0.5-0.2-1-0.2-1.5c0-0.5-0.1-0.9-0.1-1.2v-6.2h2.6v11h-3.6l-3.3-6.8
		c-0.2-0.3-0.3-0.7-0.4-1c-0.1-0.4-0.2-0.8-0.4-1.2c0.1,0.7,0.2,1.3,0.2,1.8c0.1,0.6,0.1,1,0.1,1.5v5.8h-2.6V358.3L354.3,358.3z
		 M333,358.3h7.6v2.1h-4.7v2.2h4.4v2.1h-4.4v2.5h4.9v2.1H333V358.3L333,358.3z M306.4,358.3h4.3l1.9,6.6c0.1,0.3,0.1,0.6,0.2,0.9
		c0,0.3,0.1,0.7,0.1,1.1c0-0.4,0.1-0.8,0.1-1.1c0.1-0.3,0.1-0.6,0.2-0.9l1.9-6.6h4.2v11h-2.6v-7.4c0-0.4,0-0.7,0-1.1
		c0-0.4,0-0.8,0.1-1.2c-0.1,0.3-0.1,0.6-0.2,0.9c-0.1,0.3-0.2,0.6-0.2,0.9l-2.4,7.9h-2.5l-2.3-7.8c-0.1-0.3-0.2-0.6-0.2-0.9
		c-0.1-0.3-0.1-0.7-0.2-1c0,0.5,0.1,1,0.1,1.4c0,0.4,0,0.7,0,0.9v7.3h-2.4V358.3L306.4,358.3z M282.6,358.3h3.7l3.2,6.6
		c0.1,0.2,0.2,0.5,0.4,0.9c0.1,0.4,0.3,0.9,0.5,1.5c-0.1-0.5-0.2-1-0.2-1.5c0-0.5-0.1-0.9-0.1-1.2v-6.2h2.6v11H289l-3.3-6.8
		c-0.2-0.3-0.3-0.7-0.4-1c-0.1-0.4-0.2-0.8-0.4-1.2c0.1,0.7,0.2,1.3,0.2,1.8c0,0.6,0.1,1,0.1,1.5v5.8h-2.6V358.3L282.6,358.3z
		 M265.4,358.3h2.9v11h-2.9V358.3L265.4,358.3z M246.9,360.7l-1.4,4.1h2.8L246.9,360.7L246.9,360.7z M245.1,358.3h3.5l4.2,11h-3.1
		l-0.8-2.3h-4.2l-0.8,2.3H241L245.1,358.3L245.1,358.3z M221.1,358.3h8.4v2.2h-2.7v8.8h-2.9v-8.8h-2.7V358.3L221.1,358.3z
		 M202.5,360.2v2.8h1c0.6,0,1.1-0.1,1.4-0.3c0.3-0.2,0.5-0.6,0.5-1c0-0.5-0.2-0.9-0.5-1.1c-0.4-0.2-0.9-0.3-1.7-0.3H202.5
		L202.5,360.2z M199.7,358.3h4.4c1.5,0,2.5,0.2,3.2,0.7c0.7,0.5,1.1,1.2,1.1,2.2c0,0.7-0.2,1.3-0.6,1.8c-0.4,0.5-0.9,0.8-1.6,0.9
		c0.6,0.2,1,0.8,1.4,1.8c0,0,0,0,0,0l1.3,3.6h-3.1l-1-3c-0.2-0.5-0.4-0.8-0.6-1c-0.3-0.2-0.7-0.3-1.3-0.3h-0.4v4.3h-2.9V358.3
		L199.7,358.3z M177.8,358.3h7.6v2.1h-4.7v2.2h4.4v2.1h-4.4v2.5h4.9v2.1h-7.8V358.3L177.8,358.3z M155.7,358.3h8.4v2.2h-2.7v8.8
		h-2.9v-8.8h-2.7V358.3L155.7,358.3z M130.7,358.3h3.7l3.2,6.6c0.1,0.2,0.2,0.5,0.4,0.9c0.1,0.4,0.3,0.9,0.5,1.5
		c-0.1-0.5-0.2-1-0.2-1.5c0-0.5-0.1-0.9-0.1-1.2v-6.2h2.6v11h-3.6l-3.3-6.8c-0.2-0.3-0.3-0.7-0.4-1c-0.1-0.4-0.2-0.8-0.4-1.2
		c0.1,0.7,0.2,1.3,0.2,1.8c0.1,0.6,0.1,1,0.1,1.5v5.8h-2.6V358.3L130.7,358.3z"/>
	
		<linearGradient id="SVGID_2_" gradientUnits="userSpaceOnUse" x1="-188.6888" y1="738.3474" x2="184.0117" y2="580.1454" gradientTransform="matrix(0.7325 0 0 0.7325 251.4156 -204.0695)">
		<stop  offset="4.000000e-02" style="stop-color:#005D9B"/>
		<stop  offset="0.96" style="stop-color:#3582C4"/>
	</linearGradient>
	<path fill-rule="evenodd" clip-rule="evenodd" fill="url(#SVGID_2_)" d="M182.6,324.6c0,0,0.6,2.6,2.1,1.6c1.5-1,2.1-2.5,3.5-2.5
		s7.6-1.2,9.1,0c1.5,1.2,1.6,0.2,2.4,0.2s2.9,0.4,2.9,0.4c1.9-0.2,1.5-3.2,0.1-4.1c-2-1.5-4.6-2.5-6.6-4.1c-0.2-1.5-0.4-3-0.6-4.5
		c0.5-0.8,1.1-1.5,1.6-2.3c0-2.5,0-4.9,0-7.4c-0.3-0.7-0.6-1.3-0.9-2c-0.1-1.9-0.2-3.7-0.3-5.6c-0.2-0.3-0.5-0.7-0.7-1
		c0-0.7,0-1.4,0-2.1c0.5-0.7,1.5-1.4,2-2.1c0.1-1.4-0.5-2.3-0.4-3.7c-0.3-1.8-0.4-3.9-0.7-5.7c0-2.1,0-4.3,0-6.4
		c1.4-0.4,1.8-1.1,1.9-1.7c0.1-0.8-0.3-1.8-0.7-3.7c-0.2-10.3-0.3-21-0.5-31.2c0.8-1.2,1.7-1.9,1.7-2.8c0-0.7-0.7-1.3-1.7-2.1
		c0-0.7,0-1.4,0-2.1c0,0,1.6-3.3,2.9-3.3c1.3,0,2.2-1,2.2-2c1.2-2.4-1.3-2.6-1.3-2.6c-2.8-0.1-6,0.1-8.7,0c-2.4-0.1-4.4-0.3-6.7-0.4
		c-1,0.1-2.1,0.1-3.1,0.2c-2.5,0.8-2,2.1-1,2.9c1.2,0.7,2.2,1.6,3.5,1.6c1.6,0,3,0.6,3.5,2.2c0.1,6.6,0.3,13.2,0.4,19.8
		c0,4.9,0.2,9.7,0.2,14.6c0,4.9,0,9.7,0,14.6c0.1,5.7,0.2,11.4,0.3,17.2c0,0-0.3,2.1-0.7,2.6c-0.4,0.5-0.3,4.8-0.3,4.8
		c1.6,1.4,1.3,1.2,0.1,3.1c-0.1,4.2-0.2,8.5-0.3,12.7c-0.4,0.8-0.8,1.5-1.2,2.3C186.8,320,182.6,322.5,182.6,324.6L182.6,324.6z
		 M111.2,345.1c-2.2-0.4-2.6-1.5-1.8-2.1c0.5-0.4,1.7-0.4,2.3-0.6c0.8-0.4,1.7-0.9,2.1-1.5c0.8-1,0.3-3.5,1.3-5.4
		c1-8.3,1.3-19.3,0.3-23c-0.6-5.7,0-24.6,0-27c0.6-1.2,0.9-1.2,0.9-3.3c0-0.8,0.5-2,0-3c-0.8-0.9-0.6-4.6-0.6-6.7
		c-0.1-3.1,0.1-3,1-5.8c0.3-1,0.4-2.3,0-3.3c-0.7-1.6-1.7,0.3-1.6-3c0.2-7.9,0.5-15.9,0.3-23.8c0-0.7,1.2-0.8,1.4-1.5
		c0.3-0.8,0.4-1.9,0-2.7c-0.2-0.5-1.5,0.1-1.8-0.2c-2.2-2.1-5-3.4-6.3-6.3c-0.5-1.1,0.3-3.5,1.4-4c1.7-0.9,5,0,6.9-0.3
		c1-0.2,1.7-0.8,2.7-0.8c8.1-0.4,16.4-1.2,24.5-0.4c1.3,0.1,1.7,2.4,2.9,3c1.6,0.8,4,0.6,5.2,1.9c2,2.1,3.4,3.9,3.7,6.8
		c0.3,3.6,0.9,7.7,0.9,10.5c0,2.3-0.7,4.4-1.8,6.4c-1.4,2.7-3.1,5.3-4.9,8c-1.1,1.6-2.9,3-3.4,4.8c-0.5,1.8,4.3,0.5,5.3,2.1
		c0.9,1.5-0.8,3.4-0.3,5.1c0.5,1.6,3.2,1.7,3.5,3.3c0.8,4.1-1,8.5-0.3,12.6c0.2,1.3,2.3,1.4,2.5,2.7c0.2,2.9,0.2,5.9,0.2,9
		c0,3.2,0.1,6.5,0.1,9.6c-0.1,1.2-1.6,1.8-1.7,3c-0.4,3.1,0.7,6.6,0,9.6c-0.7,3.2-3.3,5.4-4.3,8.5c-0.9,2.7-0.6,6.6-2,8.3
		c-2.3,0.7-5.2,2.3-7,3.7c-2.7,2-4.4,4.2-5.2,4.3c-1,0.9-3.2,0.3-4.5,0.8c-1.2,0.4-1.3,1.4-2.5,1.3c-1-0.1-0.7-0.9-1.4-1.6
		c-0.4-0.4-1.3-0.4-1.7,0c-2.6,2.1-0.7,1.5-3.6,1.3C120.7,345,114.9,345.9,111.2,345.1L111.2,345.1z M128,333.1
		c0.7-1.3,1.4-2.6,2-3.9c-0.2-4.3-0.4-8.6-0.6-12.9c0.6-0.8,1.2-1.6,1.7-2.4c0-4.3,0-8.7,0-13c0-2-0.3-3.9-0.3-5.9
		c-2-1.7-1.1-1.7,0.6-3.6c0-1.9,0.5-3.4,0.5-5.3c-0.2-1.6-0.4-3.2-0.6-4.8c0.3-0.8,0.6-1.6,0.9-2.4c0-2.4,0.3-4.4,0.3-6.8
		c0-2.3,0.1-3,0.5-2.9c0.4,0.1,1.2,1.2,2.6,2.5c1.1,1,2.1,2,3.2,3c2,1.9,3.9,2,3.1,5.1c-0.7,2.9,1.4,3.7,0.7,6.5
		c-0.5,2.2-1.2,3.5-1,4.9c0.1,0.8,0.5,1.6,1.3,2.6c0.8,0.9,1.1,0.9,0.6,2c-0.8,1.8-1.4,2.8-1.5,3.9c-0.1,1.4,0.7,2,1.3,4.4
		c0.5,2,0.5,3.3,0,5.3c-0.6,2.4-1.2,4.7-1.8,7.1c-0.1,1.8-0.2,3.6-0.4,5.4c-0.2,2.7-0.6,2.8-2.4,4.7c-1.7,1.8-3.9,3.3-5.6,4.9
		C131.3,332.3,129.9,332.4,128,333.1L128,333.1z M132.5,257.3c1.5,0,2.1,0.2,2.6,0c0.5-0.2,0.7-0.7,1.4-2c0.9-1.7,2.1-3.8,3.2-3.9
		c1.8-0.3,2.7-0.5,2.7-0.5s0.9-0.2,0.6-2.5c-0.3-2.3-1-4.5-0.4-5.1c0.6-0.6,0.7-2.4,0.1-3.1c-0.6-0.7-1.2-1.4-0.2-2.4
		c1-1,1.7-2.6-0.7-2.3c-2.4,0.3-2.3-0.8-2.6-1.5c-0.3-0.7-2.9-0.5-4.2-0.6c-1.4,0.3-2.5,0.2-2.4,1.6c0,1.4-0.2,8.2-0.2,8.9
		C132.3,244.6,132.5,257.3,132.5,257.3L132.5,257.3z M207.5,319.2c-0.1,0.6-1.5,0.6-1.4,1.2c0.1,0.8,0.2,2.1,1,2.3
		c2.5,0.3,5.8-0.7,8.2-0.2c1,0.2,1,1.8,1.9,2.2c0.7,0,1.8,0,2.8,0c0.7-0.4,0.5-1.7,1.2-2.1c0.8-0.5,2-0.7,2.9-0.3
		c0.5,0.2-0.2,1.5,0.3,1.5c4.3-0.2,8.1,0.3,12.2,0c0.8-0.1,0-1.3,0.6-1.8c0.8-0.5,2.6,0.4,2.8-0.5c0.7-4.8-0.4-10.1,0.1-14.9
		c0.1-1.5,1.6-2.4,1.9-4c0.1-0.5,0.7-0.5,0.8-1c0.2-1.7,0.1-3.8-0.3-5.5c-0.6-0.6-2.3-0.8-2.9-0.5c-0.7,0.5-0.1,2.2-0.5,2.9
		c-0.2,0.3-1-0.3-1.2,0c-0.2,0.3,0.1,0.9,0.2,1.3c0.1,0.3,0.1,0.5-0.2,0.6c-1.1,0.6-2.8-0.8-3.8,0c-1,0.8,0.1,2.2-0.7,3.2
		c-1.3,1.5-4.2,2.4-5.5,3.9c-1.6,1.8-1.4,3.6-3.3,5.1c-1.4,1.2-3.9,1.3-5.6,2c-2,0.8-3,2.3-5,2.9c-0.6,0.2-1.4-0.9-1.2-1.5
		c1.6-5.1,3.6-10.1,5.3-15.2c1.1-3.2,1.6-5.2,2.8-8.4c1.2-3.3,2.8-7.4,4.8-10.3c0.4-0.6,1.7-0.2,1.9-0.9c0.5-1.6-0.4-3.5,0-5.2
		c0.3-1.2,1.6-2.4,2.7-3.1c0.7-0.5,1.9,0.2,2.2-0.6c0.7-1.9,0-3.8,0.5-5.8c0.3-1.3,1.2-2.1,1.8-3.3c0.8-1.6,0.7-3,1.5-4.6
		c0.7-1.3,2.1-3.1,2.5-4.5c0.6-1.9,0.1-2.9,0.3-4.9c0-0.5,0.8-0.8,0.9-1.4c0.3-6.5,0.6-13,0.2-19.4c0-0.5-1.2-0.5-1.2-1
		c0-2,0.3-3.7,0.2-5.5c0-0.3,0.1-0.6-0.2-0.6c-5.4-0.2-10.7-0.1-16.1,0c-4.4,0.1-8.8-0.3-13.2,0c-0.7,0-1.3,0.2-1.7,0.6
		c-0.4,0.5-0.7,1.5-0.6,2.1c0.1,2.9-0.1,6,0,9.5c0,0.6,1.3,0.3,1.5,0.9c0.6,1.7,0.7,3.6,0.5,5.3c0,0.6-0.7,1.3-0.7,1.9
		c0.3,2,0.5,3.4,0.9,5.3c0.2,0.7,0.8,1.3,1,2.1c0.2,0.9-0.6,2.7,0.3,2.8c0.3,0,1.4,0.2,1.9,0c0.7-0.3-0.3-1.5,0-2.2
		c0.2-0.5,1.1-0.5,1.2-1c0.5-2.8-0.3-6.2,0.1-9c0.1-0.9,0.6-1.8,1.4-2.2c0.6-0.4,1.8,0.6,2.2,0c0.6-0.8,0-1.8,0.4-2.7
		c0.6-1.4,1.5-2.6,2.6-3.6c1-0.9,2-2,3.4-2.1c3-0.3,6.6,0,10.7-0.2c0.4,0,0.5,0.6,0.5,1c0.1,1.9,0.5,4.4,0,5.7
		c-0.7,1.8-2.3,3.8-3.9,5.6c-1.1,1.3-2.2,2.4-3.1,3.7c-1,1.5,0.5,3.6,0,5.4c-0.5,1.8-2,3.7-3.2,5.2c-0.9,1.2-2.3,1.8-3.2,3.1
		c-1.1,1.6-1.7,3.1-2.4,4.9c-0.6,1.5-0.9,3.1-1.2,4.6c-0.2,1.2,0.4,2.7-0.2,3.8c-0.4,0.8-1.3,0.7-1.9,1.4c-0.8,1-1.3,2.2-1.7,3.4
		c-0.5,1.4-0.5,2.3-1.2,3.6c-0.8,1.5-2.5,2.9-3.2,4.5c-0.8,1.7-0.9,3.7-1.3,5.5c-0.4,1.8-0.7,3.4-1.1,5.2c-0.4,2.2-0.9,4.3-0.9,6.5
		c0,0.7,0.7,1.1,1,1.7c0.3,0.5,0.9,1,0.7,1.5c-0.2,0.7-1.6,0.8-1.7,1.5c-0.1,0.8,0.1,1.5,0.7,2.1c0.5,0.5,1.5,0.3,1.9,0.9
		c0.4,0.6,0.3,1.6,0,2.2c-0.3,0.6-1.2,0.4-1.3,1C207.3,314.9,208,316.7,207.5,319.2L207.5,319.2z M356.6,343.6c-0.3-1,0.5-1.2,1-1.8
		c0.8-0.8,1.5-1.5,1.9-3.1c0.1-0.6,0.7-1.5,0.9-2.5c0.2-1.4-0.1-2.8-0.5-3.7c-0.5-1.2-1.3-1.8-1-2.9c0.1-0.7,1.7-0.8,3-1.4
		c0.7-0.3,1.2-0.9,1.4-1.4c0.3-0.7-0.6-0.6-1.1-1.5c-0.5-1-0.6-2.4-1-3.1c-0.7-1.2-1.9-2.9-1.9-4.3c-0.1-3.8,1-7.6,1.1-11.2
		c0.1-3,0.8-3.8,0.6-6.9c-0.1-1.6-0.9-2.7-1.8-4.3c-0.7-1.3-1.6-2.6-2-3.8c-0.6-2.2,0-4.8-0.4-7.1c-0.1-0.4-1.2-1-1.2-1.4
		c-0.3-3.1,0.1-6.3-0.1-9.3c-0.1-0.6-0.6-0.7-0.6-1.3c-0.2-1.7,0-3.4,0-4.9c0-1.3-0.2-2.4-0.2-4c0-0.6-0.5-1-0.5-1.5
		c-0.1-3.4,0-7.1,0-10.4c0-3.6-0.3-6.8,0-10.4c0-0.6,1.3-0.6,1.2-1.2c-0.1-2.7-0.3-3.8-0.3-6.6c0-0.3,0.7-1.1,0.7-1.4
		c0.2-2.3,0.5-4.6-0.1-6.5c-0.4-1.4-1.5-1.9-2.7-2.8c-1.1-0.8-2.3-2.1-3.3-2.9c-1.3-0.9-2.1-1.7-3.1-3.1c-0.6-0.8,0.4-0.9,1.4-1
		c1.4,0,2.9,0.1,4.2,0.3c0.4,0.1,1.3,0.8,1.7,1c1,0.4,1.7-0.1,2.7,0.2c0.8,0.2,4.1,2,5,2.5c1.2,0.7,1.6,1.7,2.9,2.3
		c0.2,0.1,4.1,1.2,4.6,1.3c1.1,0.3,1.7-0.5,2.8-0.2c1.2,0.3,3.4,0.9,4.8,1.3c0.8,0.2,1.3,1.1,2.1,1.3c3.9,0.8,3.2-0.5,6.2,2.5
		c0.9,0.9,2.4,1.6,3.1,2.7c0.9,1.5,1,3.4,1.6,5.1c0.5,1.3,1.5,2.4,1.8,3.7c0.7,3.7,0,7.5,0.4,11.3c0.1,1.1,1.3,2.3,1.4,3.5
		c0.5,4.4,0.5,8.7,0,13c-0.2,1.5-1.4,2.1-1.6,3.5c-0.4,2.5,0.4,5,0.2,7.4c-0.1,1.2-0.7,2.4-1.4,3.4c-0.5,0.7-1.5,1-1.8,1.8
		c-0.9,2.1-0.7,5-1.1,7.2c-0.1,4.3,0,7.7,0.1,12c0.1,3.1,0.4,5.8,0.1,8.8c-0.1,1-1,1.6-1.2,2.7c-0.4,2.9-0.1,5.9-0.3,8.8
		c0,0.5-0.8,1.1-0.9,1.6c-0.2,2.7-0.4,6.5-1.5,9.5c-0.8,2-2.6,4-4.4,5.1c-1.7,1.1-3.6,1.3-5.6,1.9c-1.3,0.3-2.7,0.2-3.8,0.8
		c-0.7,0.4-0.2,0.4-0.9,0.8c-0.4,0.3-1,0.3-1.3,0c-0.5-0.4-0.3-0.6-0.9-0.8c-0.9-0.4-2-0.4-2.9,0c-0.6,0.3-0.4,0.8-1.1,0.9
		c-1.4,0.3-3,0.6-4.4,0.6C357.6,344,356.9,344.4,356.6,343.6L356.6,343.6z M369.5,245.6c1.9-0.1,2.3-0.2,4,0.7
		c1.8,0.9,2.1,1.6,3.2,3.3c0.6,0.5,1.1,1.1,1.7,1.6c2.3,2.2,3.3,5.3,4.3,8.2c0.2,3.1,0.8,8.6-0.7,11.5c-0.8,1.4-1.1,2.5-1.2,3.7
		c-0.4,3.4-1.3,2.8-2.3,5.4c-0.3,0.7-0.2,1.6-0.2,3.2c-0.1,5.9-0.2,11.8-0.3,17.6c-0.1,3.8-0.8,5.5-2.3,9c-0.9,1.7-1.4,2.7-1.4,4.6
		c0,2.2-0.5,3.3-1.3,5.3c-0.5,1.2-1.1,2.5-1.6,3.7c-0.6,1.5-1.2,2-1.7,1.8c-0.4-0.2-0.7-1.1-0.7-2.5c0-7.2,0.1-14.4,0.1-21.5
		c0.1-7.6,0.2-15.3,0.2-22.9c-0.1-1.6,0-2-1.1-3.2c-0.1-2.5-0.6-3.6-1.4-5.9c-1-1.9-0.9-3.2-0.9-5.3c-0.1-5.3-0.1-10.6-0.2-15.9
		C365.7,244.6,366.4,245.7,369.5,245.6L369.5,245.6z M244.4,336.8c-0.6-2.9-0.2-5.2,0-7.4c0.1-0.5,1.1,0,1.4-0.5
		c0.4-0.7,0.8-1.6,0.5-2.3c-0.2-0.4-0.5,0.2-0.7-0.2c-0.3-0.5-0.2-1.4,0.2-1.9c0.6-0.7,1.7-0.5,2.1-1.4c0.5-1.2-0.4-2.6,0-3.9
		c0.1-0.4,1.1,0.4,1.2,0c0.5-1.9-0.1-3.9,0.2-5.8c0.1-0.5,0.5-0.7,0.6-1.2c0.2-2.1,0.4-4.2,0-6.3c-0.2-1.3-1.3-2.2-1.4-3.5
		c-0.7-4.7-0.8-9.8-0.2-14.5c0.5-3.6,2.8-9.3,4.2-12.7c0.9-2.1,1.3-1.5,2-3.6c0.2-0.7,0.4-1.4,0.2-2.1c-0.3-0.8-1.3-1.5-1.1-2.3
		c0.2-1.1,1.5-1,1.8-2c0.5-1.4-0.5-3,0-4.4c0.6-1.6,2.5-2.6,3-4.2c0.5-1.6,0-4.1,0.4-5.7c0.9-3.1,1.9-5.1,3.4-8
		c0.9-1.7,2.4-3.1,3.1-4.9c0.7-1.7,0.6-4,0.9-5.4c-1.1-1.4-3.6,0.5-5.3-0.1c-0.8-0.3-0.8-1.7-1.7-2c-1.8-0.1-3.5-0.2-4.7,0.8
		c-1.7,1.3-1.7,2.8-2.4,4.8c-1,3-0.2,6.4-1.5,9.3c-0.5,1.2-2.5,1.5-3.4,2.3c-0.5,0.4-0.7,0.9-1.4,0.9c-0.7,0-1.2-0.2-1.4-0.9
		c-0.3-1.3,0.1-2.7,0-4c-0.1-1.1-0.6-2.1-0.4-3.2c0.1-0.5,1.4-0.3,1.4-0.9c0.5-6-0.2-12-0.1-17.8c0-2,0.6-1.7,2.6-1.7
		c3.3,0,8.7,0,12.5,0c6.8,0,13.5-0.3,20.3-0.1c1,0.1,2.3,0.4,2.4,1.4c0.1,2-1.2,4-2.2,5.8c-0.5,1-1.6,1.6-2,2.6
		c-0.6,1.7,0.1,3.7-0.6,5.4c-0.4,1-2.4,1.2-2.8,2.3c-0.6,1.5,0.4,3.3-0.2,4.7c-0.3,0.7-1.8,0.3-2.1,1.1c-0.9,2.5-0.4,5.3-1.1,7.9
		c-0.4,1.4-1.5,2.4-1.6,3.9c-0.5,3.9,0.3,8,0,11.9c-0.1,0.9-1,1.5-1.2,2.3c-0.6,1.9-0.9,4-1.6,6c-0.3,0.8-1.4,1.3-1.6,2.1
		c-0.3,1.2,0.5,2.7,0,3.9c-0.6,1.5-2.8,2.1-3.2,3.7c-0.9,4.5,0.6,9.2-0.1,13.7c-0.3,2-2.1,3.6-2.5,5.6c-0.5,2.6,0.3,5.6-0.3,8.2
		c-0.6,2.5-2.4,4.6-3.3,7c-0.2,2.3-3,4.5-1.5,6.2c1.8,0.2,4.9,0.6,7-0.4c1-0.4-0.2-2.5,0.7-3.2c2.6-2,5.6-2.7,8.6-4.2
		c1.7-0.9,3.8-1.7,5.3-2.8c0.8-0.6,0.8-2,1.8-2.3c0.5-0.2,0.7,1.1,1.2,1.2c2,0.3,3.7-0.5,5.6,0c0.8,0.2,0.7,1.2,0.9,2
		c0.2,0.7,0.5,1.4,0.1,2c-0.2,0.4-1.1,0-1.2,0.4c-0.3,0.8-0.2,1.8,0,2.6c0.2,0.7,0.8,1.1,0.8,1.8c0.3,3.5,0.4,7.1,0,10.7
		c-0.1,0.7-0.5,1.5-1.2,1.6c-5.1-0.2-9.7,0.1-14.8,0.2c-0.5,0-0.2-1-0.7-1.2c-1.3-0.6-3.7-0.6-5-0.3c-1.6,0.4-1.7,1.7-3.4,2
		c-2.9,0.6-6.3,0-9.2,0.5c-1,0.2-1.8,1-2.9,1.3C247.3,337.7,245.1,338.1,244.4,336.8L244.4,336.8z M166.3,345.1
		c-2.2,0.8-4.7,0-7,0.1c-0.7,0-1.9,0.6-2.6,0.4c-0.7-0.2-1.9-1.7-1.5-2.3c1.8-2.4,5.4-2.7,7.1-5.3c1-1.5,0.1-3.5,0.5-5.3
		c0.1-0.5,1.1-0.5,1.3-1c0.2-0.4,0.3-1,0-1.3c-0.7-0.8-1.1,0.9-1.3-1.5c-0.2-2.1-0.3-4.2-0.1-6.3c0.1-1.3,1.1-1,1.3-1.7
		c0.3-1.3-0.4-2.3,0-3.6c0.2-0.6,1.2-0.4,1.5-1c0.3-0.5,0.3-1.2,0-1.7c-0.7-1-2.4-1-2.6-2.1c-0.4-2.1-0.2-4.4-0.1-6.5
		c0-2.3-0.1-4.5,0.1-6.8c0-0.4,1-0.4,1.2-0.8c0.3-0.8,0.1-1.7,0-2.5c-0.1-0.7,0.1-2,0.1-2.7c-0.1-1-0.5-1.4,0-2.3
		c0.3-0.6,1.4-0.3,1.5-1c0.5-3.7-0.6-7.6-0.2-11.3c0.1-0.6,1.1-0.5,1.2-1.2c0.3-1,0.4-2.1-0.1-3.1c-0.2-0.4-1.2-0.4-1.2-0.9
		c-0.4-5.5,0.3-10.7-0.1-16.1c0-0.5-1.3,0.2-1.3-2c0-2.3-0.2-4.5-0.2-6.2c0-1.3,2.9-1.4,2.8-2.7c0-2,0.3-4.3-0.2-6.3
		c-0.1-0.7-1-0.6-1.3-1.2c-0.3-0.6,0-1.2,0.2-1.7c0.3-0.7,1.1-1.2,1.3-1.9c0.4-1.4,0.3-2.8,0-4.2c-0.1-0.4-0.9-0.9-1.1-1.3
		c-0.4-0.8-0.2-1.4-0.8-2.1c-0.4-0.5-1.5-0.2-1.9-0.6c-1.2-1-1.8-2.1-2.8-3c-0.9-0.8-2.1-1.5-2.8-2.7c-0.4-0.8,0.1-2.2,0.8-2.7
		c0.6-0.4,1.4-0.3,2.1,0c0.5,0.3,0.5,1.3,1.1,1.4c2.5,0.3,4.9-0.7,7.4-0.2c1.1,0.2,1.1,1.6,2.1,2c0.7,0.3,1.9-0.3,2.5,0.1
		c0.9,0.6,1.6,1.9,2.3,2.6c0.9,0.9,1.7,1.3,2.1,2.6c0.6,1.6,0.3,3.3,0.3,5c0,1.5,0.2,3,0.1,4.5c0,0.5-1,0.3-1.2,0.8
		c-0.2,0.9-0.1,1.8,0.4,2.6c0.3,0.6,1.2,0.3,1.4,0.9c0.5,1.5,0.6,3.2,0.2,4.7c-0.1,0.6-1.2,0.2-1.2,0.8c-0.4,7.2-0.5,14.5,0.2,21.7
		c0.1,1.2,2.1,1.7,2.2,2.9c0.7,6.8,0.1,13.7-0.2,20.5c0,1-0.5,2.2-0.9,2.9c-0.4,0.8-0.2,1.6-0.2,2.5c0,1.2-0.1,2.4,0.1,3.6
		c0.1,0.7,1.5,1.3,1.4,2c-0.1,1.9,0.1,2.7,0.3,4.6c0.1,0.9-1.6,1.4-2.1,2.2c-0.4,0.5-0.6,1.5-0.3,2.1c0.3,0.5,0.8,0.3,1,0.8
		c0.2,0.8,0.2,1.5-0.2,2.3c-0.3,0.5-1.2,0.4-1.3,1c-0.3,1.5,0.6,3.1,0.4,4.6c-0.1,0.5-1.1,0.3-1.2,0.8c-0.3,2.3,0.4,4.6,0,6.9
		c-0.1,0.9-1.5,1.2-1.5,2.1c0,0.5,1.1,0.1,1.3,0.6c0.4,0.7-0.5,2.1,0.2,2.3c2.5,0.7,5.5,0.5,8-0.1c1.4-0.4,2-2.3,3.4-2.5
		c1.7-0.2,3,1,4.7,1.3c2.3,0.4,4.7,0.5,7-0.1c1.3-0.4,2.1-1.7,3.4-1.9c5.8-0.8,11.2-0.3,17.1-0.3c5.6,0,12.7-0.3,16.8,0.1
		c2.4,0.1-0.2,8.4,0.7,12.8c0.2,1,1,1.5,1.5,2.4c0.8,1.4,1.1,2.1-0.9,2.1c-3.8,0-7.7,0.3-11.9,0.1c-0.8,0-0.8-1.6-1.5-1.9
		c-0.8-0.3-1.8,0.4-2.7,0.2c-1.3-0.3-2.8-1.6-4.1-1.7c-3.6-0.4-7.1,0.5-10.7,0c-0.8-0.1-0.9-1.7-1.7-1.7c-8.3-0.6-16.2,0.3-24.5-0.2
		c-1.8-0.1-1.9-0.7-3.1-1c-1.6-0.5-4.5-0.6-6,0.1C169.3,341.6,169.3,344,166.3,345.1L166.3,345.1z M266.2,312.6
		c-1.7-0.1-1.8-2.8-1.7-4.5c0.1-1.7,2.4-1.7,3.2-3.2c0.6-1.1-0.3-3.1,0.4-4.2c0.7-1.2,2.7-1.1,3.4-2.3c0.4-0.7-0.2-1.9-0.2-2.7
		c0-1.9,0.5-3.2,0.4-5.1c0-1-0.4-2.7-0.3-3.7c0.3-1.3,1-1,1.4-2.2c0.5-1.6-0.3-3.4,0.2-5c0.2-0.6,1.8-0.3,1.7-1
		c-0.1-0.8-1.6-0.4-1.7-1.1c-0.4-2.4-0.5-5.2,0.2-7.5c0.4-1.5,2.1-2.6,2.5-4c0.4-1.5-0.5-3.3,0-4.8c0.3-1,2-1.2,2.3-2.3
		c0.6-2.5,0.1-5.5,0.7-7.9c0.3-1.3,1-2.8,1.8-3.6c0.5-0.5,0.9-0.8,1.2-1.6c0.3-1-0.5-1.9-0.3-3c0.2-1,0.9-1.6,1.4-2.4
		c0.6-1.1,0.8-2.4,1.4-3.5c0.8-1.6,1.9-2.9,2.5-4.6c0.4-1.3-0.5-3.3,0.1-4.5c0.8-1.7,2.9-1.7,3.6-3.4c0.6-1.4-0.5-3.2,0.2-4.6
		c0.5-1,1.6-1.4,2.7-1.5c0.8,0,1.8,0.5,2.1,1.3c0.5,1.5,0.1,3.3,0.7,4.8c1.1,2.6,3,4.1,4,6.7c0.5,1.4,0,3.3,0.3,4.7
		c0.5,1.9,0.8,3.9,1.4,5.8c0.8,2.3,1.9,4.6,2.6,7c0.6,2.1,0.7,4.4,1.2,6.5c0.3,1.6,0.9,3,1.5,4.5c0.2,0.6,1,0.5,1.2,1.1
		c0.3,1.2-0.7,2.4-0.4,3.6c0.3,1.4,1.8,2.8,2.1,4.3c0.4,2.3,0,4.5,0,6.9c0.1,2.1,0.3,4.1,0.6,6.2c0.2,1.3,0.9,3.1,0.9,4
		c0.1,3.4,0.3,6.8,0.3,10.2c0.1,5,0.1,10.4-0.2,15.4c0,0.6-0.7,0.9-0.9,1.4c-0.8,2.1-1.4,3.2-1.9,5.4c-0.3,1.1-0.3,2.4-0.8,3.4
		c-0.3,0.7-1.6,1.2-1.9,1.9c-0.5,1.5,0.1,3,0,4.9c-0.1,1.6-0.8,2.6-1.4,4.1c-0.5,1-1.2,2.6-1.5,3.7c-0.3,1.2,0.3,2.5-0.1,3.6
		c-0.2,0.6-1,0.9-1.1,1.5c-0.3,1.6,0.3,3.2-0.2,4.8c-0.3,0.9-0.5,0.7-1.3,1.1c-0.6,0.3-2.1,0.6-2.2-0.1c-0.4-2.7,0.4-4.5,0-7.1
		c-0.5-3.1-1.8-5-2.6-8c-0.4-1.5,0.3-4.1-0.4-5.5c-1.3-2.4-5.3-3.4-5.1-6.2c0.2-2.6,1.8-4.4,3.4-6.5c1.1-1.5,1.8-3.9,2.5-5.6
		c0.5-1.2,0.8-2.7,0.8-3.9c0-1.8-0.5-2.6-1.8-3.7c-2.9-2.4-7.5-4.5-11.1-6.3c-0.5-0.3-1.1,0.7-1.1,1.3s0.7,1,0.8,1.6
		c0.2,1.7-0.8,3.5-0.1,5c0.8,1.6,3.9,2.1,3.4,3.9c-0.3,1.2-0.6,1.6-1.6,2.2c-0.6,0.3-1.3,0.3-2,0.4c-2.1,0.1-4.3-0.7-6.4-0.2
		c-2.2,0.5-4.2,1.5-6.3,2.5C269,311.8,267.7,312.7,266.2,312.6L266.2,312.6z M284.9,286c0-1.7-0.1-3.3-0.1-5c0-1.5,0-2.9,0.2-4.4
		c0.1-1,1-1.7,1.1-2.6c0.2-1.6-0.8-3.5-0.3-5c0.2-0.6,1.7,0,2.1-0.5c0.1-0.2,0.4-1.2,0.7-2c0.2-0.5,0.7-1,0.7-1.2c0-0.3,0-2.3,0.2-4
		c0.1-1,0.3-1.9,0.4-1.9c0.2,0,0.3,0.8,0.8,1.5c0.6,0.8,0.8,1.6,1.4,2.4c0.3,0.5,0.7,1.1,1.2,1.3c0.7,0.3,1.5-0.1,2.1,0.2
		c0.5,0.2,0.6,1,1.1,1.3c0.3,0.2,1-0.2,1.1,0.2c0.3,1.7,0,4,0.3,5.8c0.1,0.4,1,0.2,1,0.6c0.1,3,0.2,6.1,0.2,9.1c0,2.7-0.1,5.3-0.2,8
		c0,0.8-2.1,0.8-2.6,0.4c-1.1-0.8-1.8-1.8-3.2-2.1c-0.6-0.1-0.6-1.1-1.1-1.3c-1.2-0.4-2.8-0.5-4.1-0.5c-0.9,0-2.1,0.3-2.9,0.2
		C284.8,286.5,284.9,286.2,284.9,286L284.9,286z M325.4,233.9c0,1.7,0.2,3.6,0.2,5.4c0,2.3-0.2,4.4-0.2,6.8c0,2.5,0.2,5.3,0.2,7.8
		c0,2-0.4,5.8-0.2,7.5c0.2,2.1,0.3,2.5,3.2,2.5c1.4,0,3.3-1.5,4.7-2.9c1-1,0.8-2.7,1.2-3.5c0.5-1.1,1.5-2.1,1.7-3.4
		c0.3-1.6-0.4-3,0.7-4.1c0.4-0.4,0.8-5.1,0.8-6.2c0-1.5-1.6-3.7-3.3-5.6c-1.2-1.3-2.7-2.6-3.3-3.5c-1.1-1.7-2-2.4-3.4-2.7
		C325.3,231.5,325.4,231.7,325.4,233.9L325.4,233.9z M312.3,326.6c-0.5,1.8,0.9,2.6,2.6,3.6c1.7,1.1,3.6,2.5,5.4,4
		c3.1,2.5,5.1,7.1,7.1,11.6c1-1.1,0.3-6.2,0.9-9.2c0.1-0.7,0.8-1.1,0.9-1.8c0.2-2.4,0.3-4.8,0-7.1c-0.1-0.9-1-1.5-1.2-2.4
		c-0.2-0.7-0.1-1.4,0-2.1c0.2-0.8,0.8-1.5,0.9-2.4c0.2-2.5,0.4-5,0-7.4c-0.1-0.9-1.6-1.4-1.5-2.4c0.1-0.8,1.7-0.7,1.8-1.5
		c0.2-2.2-0.6-4.3-0.9-6.5c-0.6-4.9-1-9.9-1.5-14.9c-0.2-1.8-0.9-3.6-0.6-5.4c0.9-2.4,1.8-4.9,2.7-6.8c0.4-0.6,1,0.5,1.5,1.1
		c1.4,1.9,3.4,4.1,3.8,6.5c0.5,2.8-1,5.3-0.7,8.2c0.1,0.8,1.4,0.7,1.7,1.5c1.4,3.8,2.6,7.6,3.3,11.6c0.8,4.5,1.1,9.1,1.2,13.7
		c0.1,2,0,4-0.6,6c-0.8,2.7-2.5,4.9-3.3,7.5c-0.9,2.8-1.2,3.6,1.8,3.6c1.2,0,2.5,0,3.4,0.5c2.4,1.2,3.4,3.9,5.6,5.4
		c0.5,0.3,1.1,0.7,1.8,1.1c3.2,1.8,3.6,0.6,4.2-2.3c0.9-3.7,1.1-7.1,1.7-10.7c0.3-1.9,0.2-3.8,0.3-5.7c0.1-2.7,0.3-5.4,0.2-8
		c-0.1-1.3-0.1-2.6-0.9-3.6c-0.6-0.7-2.4,0-2.7-0.9c-0.3-1.2,1.5-2.3,1.5-3.6c-0.5-3.5-0.9-6.6-1-10c-0.1-4-0.9-2-2.3-3.6
		c-0.8-1-1.1-1.8-1.2-3c-0.4-3.7,0.2-7.7-0.4-11.3c-0.2-1.6-1-3.2-2.1-4.5c-0.4-0.4-1.1,0.2-1.4-0.3c-0.4-0.9,0.9-1.5,0.4-2.4
		c-1.2-2-3.8-3.5-5.7-4.8c-0.6-0.4-1.6,0.5-2.1,0c-0.5-0.5-0.5-2,0-2.5c3.4-0.5,5.2-2.1,6.9-4c2.3-2.6,3.4-5.5,4.5-8.8
		c0.5-1.5-0.1-3.3,0-4.9c0.3-2.9,1.9-5.6,1.4-8.5c-0.7-4.2-2.8-8-5.2-11.6c-1.3-2-3.4-3.7-5.6-4.8c-1.8-0.9-3.3-0.1-5.2-0.7
		c-2.2-0.6-4-1.9-6.2-2.4c-1.8-0.4-3.6,0.4-5.4,0c-1.1-0.3-1.3-1.5-2.4-1.7c-0.8-0.1-1.5,1-2.3,1.1c-5.3,0.5-9.7-0.6-15,0.1
		c-0.8,0.1-0.6,1,0.1,1.4c1,0.7,2.5,0.3,3.6,0.8c2,0.9,3.5,2,4.9,3.6c1.2,1.3,1.7,2.7,2.8,4.8c0.4,0.8,1.7-0.8,2.7-0.9
		c1.2-0.2,2-0.2,2.7,0.7c0.7,0.8-0.7,1.9-1.5,2.7c-1.6,1.5-2.7,2.2-4.1,3.2c-1,0.7-2.7,1.3-3.4,2.5c-1.6,2.9,0.3,6.1,0.9,9.3
		c0.2,1.2,0.5,2.3,0.7,3.5c0.9,3.8,0.6,6.9,1.1,10.8c0.2,1.2,1.1,2.3,1.2,3.6c0.2,1.5-0.1,2.6,0.1,4c0.1,0.6,0.6,1.3,0.8,1.9
		c0.7,2.7,1.4,6.1,1.5,9c0.3,9.2-0.2,18.3,0.2,27.5c0,0.8,1.3,1.2,1.5,2c0.3,1.3-0.6,2.7-1,4C315.4,318.5,313.4,322.3,312.3,326.6
		L312.3,326.6z"/>
</g>
</svg>
