<?xml version="1.0" encoding="utf-8"?>
<!-- Generator: Adobe Illustrator 18.1.0, SVG Export Plug-In . SVG Version: 6.00 Build 0)  -->
<!DOCTYPE svg PUBLIC "-//W3C//DTD SVG 1.1//EN" "http://www.w3.org/Graphics/SVG/1.1/DTD/svg11.dtd">
<svg version="1.1" id="Layer_1" xmlns="http://www.w3.org/2000/svg" xmlns:xlink="http://www.w3.org/1999/xlink" x="0px" y="0px"
	 viewBox="0 0 500 500" enable-background="new 0 0 500 500" xml:space="preserve">
<g>
	<path fill="none" d="M291.9,289.6c2.5,1.7,5.5,2.2,8,2.2c4.8,0,7.1-1.3,7.1-1.3s-2.3,1.3-7.1,1.3
		C297.5,291.7,294.4,291.2,291.9,289.6c-2.5-1.7-4.4-4.6-4.4-9.4C287.5,284.9,289.4,287.9,291.9,289.6z"/>
	<path fill="none" d="M299.7,242.8l0.2,0c-0.1,0-0.2,0-0.3,0c0,0,0,0,0,0.1l0,0c0,0,0,0,0,0C299.7,242.8,299.7,242.8,299.7,242.8z"
		/>
	<path fill="none" d="M320.6,239.4l2.6-0.4c-3,7.2-10.6,11-23.5,11c0,0,0,0,0,0c12.9,0,20.6-3.8,23.5-11l7.8-1.3l12-1.8v0l0.1,13.2
		l0.1-13.2l25.2-4l0,17.2l0-17.1L380,230l0,19l0-19l10.2-1.6l0,20.6l0-20.6l11.7-1.9l-11.7,1.6l0-26.1l0,26l-10.2,1.7l0-27.7
		l-0.2,27.7l-11.9,2.1l-25.1,3.7l0-0.1l-12.1,2l0-35.4l0,35.4l-7.7,1.4c0,0.1,0,0.1-0.1,0.2L320.6,239.4z"/>
	<path fill="none" d="M307.2,279c0-8-6-9-9.4-9c0,0,0,0,0,0C301.2,270,307.2,271,307.2,279z"/>
	<path fill="none" d="M288.5,212.9c-2.4,3-3.2,7.1-3.4,10.4c0,0.1,0,0.2,0,0.3c0,0.1,0,0.1,0,0.2c0,0.7-0.1,1.3-0.1,1.9
		c0,0,0,0.1,0,0.1c0,12.9,5.5,16.2,14.5,17.2c-9-1-14.5-4.3-14.4-17.2C285.2,222.2,285.6,216.7,288.5,212.9c0.6-0.6,1.1-1.2,1.7-1.7
		C289.6,211.7,289,212.3,288.5,212.9z"/>
	<path fill="none" d="M299.6,242.8c0,0,0,0.1,0,0.1C299.6,242.9,299.6,242.9,299.6,242.8L299.6,242.8z"/>
	<path fill="none" d="M126.2,278.8c0,0-0.1-0.1-0.1-0.1C126.2,278.7,126.2,278.7,126.2,278.8z"/>
	<path fill="none" d="M126.9,279.7c-0.1-0.1-0.2-0.2-0.3-0.4C126.7,279.5,126.8,279.6,126.9,279.7z"/>
	<path fill="none" d="M300,242.8l-0.2,0c0.8,0,1.6-0.1,2.3-0.2C301.5,242.7,300.8,242.8,300,242.8z"/>
	<path fill="none" d="M363.9,289.6c2.5,1.7,5.5,2.2,8,2.2c4.8,0,7.1-1.3,7.1-1.3s-2.3,1.3-7.1,1.3
		C369.4,291.7,366.4,291.2,363.9,289.6c-2.5-1.7-4.4-4.6-4.4-9.4C359.5,284.9,361.4,287.9,363.9,289.6z"/>
	<path fill="none" d="M301.6,201.1c0.8,0,1.5,0.1,2.2,0.2c0.1,0,0.1,0,0.2,0c0.7,0.1,1.4,0.2,2,0.3c0.1,0,0.2,0,0.3,0
		c0.6,0.1,1.2,0.2,1.8,0.3c0.1,0,0.2,0,0.3,0.1c0.1,0,0.1,0,0.2,0c0.2,0,0.3,0.1,0.5,0.1c0.2,0.1,0.4,0.1,0.6,0.2c0,0,0,0,0,0
		c6.1,1.6,10.8,4.8,12.9,9.9c-3.3-7.8-12.4-11.2-23.6-11.2c0,0,0,0,0,0C299.9,201,300.7,201,301.6,201.1
		C301.6,201.1,301.6,201.1,301.6,201.1z"/>
	<path fill="none" d="M272,225.6C272,225.6,272,225.6,272,225.6c0-2.9,0.4-5.7,1.1-8.3c1.3-4.5,3.9-8.5,7.9-11.3
		c0.7-0.5,1.4-1,2.2-1.4c0.4-0.2,0.9-0.5,1.4-0.7c-8.9,4-12.9,12.1-12.9,22.1h0.2c0,0,0-0.1,0-0.2c0,0,0,0,0,0
		C272,225.7,272,225.6,272,225.6z"/>
	<path fill="none" d="M277.8,241.8c-3.9-4.1-5.8-9.8-5.8-16.1c0,0,0,0,0,0c0,0.8,0,1.5,0.1,2.3C272.5,233.4,274.3,238.2,277.8,241.8
		c0.6,0.7,1.3,1.4,2.1,2c0,0,0,0,0,0C279.1,243.3,278.4,242.6,277.8,241.8z"/>
	<path fill="none" d="M125.8,277.8C125.7,277.8,125.7,277.8,125.8,277.8C125.7,277.8,125.7,277.8,125.8,277.8z"/>
	<polygon fill="none" points="253.2,230.2 253.2,230.2 253.1,231 253.1,231 253.2,230.3 253.5,231 253.7,231 253.3,230.2 	"/>
	<path fill="none" d="M281.5,245c0.2,0.1,0.3,0.2,0.5,0.2C282,245.2,281.6,245,281.5,245z"/>
	<path fill="none" d="M323,212.9c0.1,0.2,0.1,0.3,0.2,0.5c-0.1-0.4-0.3-0.8-0.4-1.2C322.9,212.5,322.9,212.7,323,212.9
		C323,212.9,323,212.9,323,212.9z"/>
	<path fill="none" d="M324,217.6c0,0.1,0,0.2,0,0.4c0-0.5-0.1-0.9-0.1-1.4c0,0,0,0.1,0,0.2C323.9,217,324,217.3,324,217.6z"/>
	<path fill="none" d="M379.2,279c0-8-6-9-9.4-9c0,0,0,0,0,0C373.2,270,379.2,271,379.2,279z"/>
	<path fill="none" d="M323.8,216c0,0.1,0,0.1,0,0.2c-0.1-0.4-0.1-0.8-0.2-1.2c0,0.2,0.1,0.3,0.1,0.5
		C323.8,215.7,323.8,215.9,323.8,216z"/>
	<path fill="none" d="M388.7,280.3L383,287L388.7,280.3c0.1,0-4.1-5.8-5.1-6.8c-1-1-3.5-1-3.5-1s2.5,0,3.5,1
		C384.5,274.6,388.7,280.3,388.7,280.3z"/>
	<path fill="none" d="M476.1,173.4c4.4,12.8,7.7,26.1,9.9,39.8c0,0,0,0,0,0c0,0,0,0,0,0c0-0.1,0-0.2,0-0.2h0
		C483.8,199.4,480.5,186.2,476.1,173.4z"/>
	<path fill="none" d="M372.6,45.6c-25.4-15.3-53.9-26-84.3-30.9l0,0.1l0,0C318.7,19.7,347.1,30.3,372.6,45.6z"/>
	<path fill="none" d="M250,489C118.2,489,11,382.1,11,250.4c0,0,0,0,0,0C11,382.2,118.2,489,250,489c131.8,0,239-106.8,239-238.6
		c0,0,0,0,0,0C489,382.2,381.8,489,250,489z"/>
	<path fill="none" d="M133,270C133,270,133,270,133,270c2.3,0,6,1,6,1S135.2,270,133,270z"/>
	<path fill="none" d="M281.5,245c-0.6-0.3-1.1-0.7-1.6-1C280.4,244.3,280.9,244.6,281.5,245z"/>
	<path fill="none" d="M171.4,273.4c3.6,0,3.7,1,3.7,2.2c0-1.2-0.1-2.3-3.7-2.3l-0.2-1.4c0,0,0,0,0,0l0,0.1c0,0,0,0,0,0L171.4,273.4z
		"/>
	<path fill="none" d="M189.7,275.8c0-1.2-0.7-2.4-3.7-2.4C189,273.4,189.7,274.6,189.7,275.8l-0.1,15l5.4,0l-5.4,0L189.7,275.8z"/>
	<path fill="none" d="M311.5,218c0-0.3,0-0.6,0-0.9C311.5,217.4,311.5,217.7,311.5,218z"/>
	<path fill="none" d="M127.2,280c2.9,2.9,8.7,3.8,8.8,6.5c0,0,0,0,0,0C136,283.6,130.1,282.8,127.2,280z"/>
	<path fill="none" d="M206,280.2c0-0.9,0.1-1.7,0.2-2.4C206,278.6,205.9,279.4,206,280.2c0,9.6,7.3,11.5,12.1,11.5
		c4.8,0,6.9-1.3,6.9-1.3s-2.1,1.3-6.9,1.3C213.2,291.7,206,289.7,206,280.2z"/>
	<path fill="none" d="M323.3,213.6c0.1,0.4,0.2,0.9,0.3,1.3C323.5,214.5,323.4,214,323.3,213.6z"/>
	<path fill="none" d="M216.1,270c0,0-0.1,0.1-0.1,0.1C216.1,270.1,216.1,270,216.1,270C216.2,270,216.2,270,216.1,270z"/>
	<path fill="#EF3E42" d="M372.6,45.6c48.1,28.8,85.2,74,103.6,127.8c4.4,12.8,7.7,26,9.9,39.6h0h0.1c0,0.1,0,0.1,0,0.2l10.9-1.7
		c-6.1-39-21.6-77.1-46.9-110.9c-40.4-54-98.5-87-160.2-96.9l-1.8,11.2c0,0,0.1,0,0.1,0l0-0.1C318.7,19.6,347.1,30.3,372.6,45.6z"/>
	<path d="M497.1,211.5l-11,1.7c1.9,11.9,2.9,24.6,2.9,37.1c0,0,0,0,0,0c0,0,0,0,0,0C489,382.2,381.8,489,250,489S11,382.2,11,250.4
		c0,0,0,0,0,0s0,0,0,0C11,118.6,118,11.7,249.8,11.7c13,0,25.9,1,38.3,3l1.8-11.1C225.3-6.8,156.7,7.9,100.2,50.3
		c-76.7,57.4-111,150.5-97.1,239c6.1,39,21.6,77.1,46.9,110.9c40.4,54,98.5,87,160.2,96.9c64.6,10.5,133.3-4.3,189.8-46.7
		C476.6,393.1,511,300,497.1,211.5z"/>
	<polygon fill="#FFFFFF" points="253.1,231 253.5,231 253.2,230.3 	"/>
	<polygon fill="#FFFFFF" points="343.1,228 343.1,235.4 342.9,235.4 342.9,235.5 368,231.7 368,228 	"/>
	<path fill="#FFFFFF" d="M250,489c131.8,0,239-106.8,239-238.6c0,0,0,0,0,0c0-12.5-1-25.2-2.9-37.1c0,0,0,0,0,0c0-0.1,0-0.1,0-0.2
		H486c0,0,0,0.1,0,0.2c0,0,0,0,0,0c0,0,0,0,0,0c-2.2-13.7-5.5-27-9.9-39.8c-18.4-53.9-55.5-99.1-103.6-127.8
		c-25.4-15.2-53.9-25.9-84.3-30.7l0,0l-31.8,196.3l16.6,35.6l8.9-1.3c-0.1,0,0.1-0.1,0.1-0.1c0,0,0,0,0-0.1
		c-0.2-0.1-0.3-0.2-0.5-0.2c0,0,0,0,0,0h0c0,0,0,0,0,0c0,0,0,0-0.1,0c-0.6-0.3-1.1-0.7-1.6-1c0,0,0,0,0,0c0,0,0,0,0,0
		c-0.9-0.6-1.7-1.3-2.4-2.1c-3.9-4.1-5.5-9.8-5.5-16.1c0,0.1,0,0.2,0,0.2h-0.2c0-10.1,3.9-18.1,12.9-22.1c3.5-1.7,7.8-2.7,12.9-2.9
		c0.3,0,0.6,0,0.8,0c0.2,0,0.5,0,0.7,0c0,0,0,0,0,0c0,0,0,0,0,0c11.2,0,20.4,3.4,23.6,11.2c0,0,0,0.1,0,0.1c0.2,0.4,0.3,0.8,0.4,1.2
		c0,0.1,0,0.1,0.1,0.2c0.1,0.4,0.2,0.9,0.3,1.3c0,0,0,0.1,0,0.1c0.1,0.4,0.1,0.8,0.2,1.2c0,0.1,0,0.2,0,0.3c0.1,0.5,0.1,0.9,0.1,1.4
		h0c0,0,0,0,0,0c0,0,0,0,0,0h-12.5c0-0.3,0-0.6,0-0.9c-0.3-4.6-3.4-8.1-12.6-8.1c9.7,0,12.7,4.5,12.6,9.5c0.1-5-2.9-9.5-12.6-9.5
		c0,0,0,0,0,0c-0.4,0-0.8-0.2-1.2-0.2c-3.2,0.2-5.7,1-7.5,2.4c-0.6,0.5-1.2,1.1-1.7,1.7c-3,3.8-3.4,9.3-3.5,12.9
		c-0.1,12.9,5.4,16.2,14.4,17.2h0c0,0,0,0,0,0c0,0,0-0.1,0-0.1l0,0c0,0,0,0,0,0l0,0c0,0,0-0.1,0-0.1c0.1,0,0.2,0,0.3,0l-0.2,0
		c0,0,0,0,0.1,0l0.2,0c0.7,0,1.4-0.1,2.1-0.2c1.2-0.2,2.3-0.5,3.2-0.9l0.8-0.1c3.6-2,5.2-5.1,5.3-8.6c0-0.2,0-0.7,0-1h13
		c-0.1,2.9-0.6,4.8-1.3,6.7l7.7-1.4l0-35.4H343v19h25v-19h12l0,27.7l10.2-1.7l0-26H402v24.5V249h-11.8l0-20.6L380,230l0,19h-11.7
		l0-17.2l-25.2,4l-0.1,13.2H331v-11.4l-7.8,1.3c-3,7.2-10.6,11-23.5,11c0,0,0,0,0,0c0,0,0,0,0,0c-7.7,0-13.7-1.7-18.1-4.5l-8.5,1.4
		l0.9,2.1h-13.4l0-0.1l0,0l0,0l-10.6,1.6l0,0l10.6-1.7l-4.2-9.7h-4.5h-18.5l-3.9,10h-13.7l21.5-47h15.1l4.1,8.9l0,0l0,0L288.1,15
		c-12.4-2-25.3-3.1-38.3-3.1C118,11.9,11,118.6,11,250.3c0,0,0,0,0,0C11,382.1,118.2,489,250,489z M421,273h-6c0,0,0,12.9,0,13.9
		c0,1.4,2,1.8,6,1.8c0,0.5,0,2.4,0,2.4s-1.6,0.5-4.4,0.5c-2.8,0-7.6-0.4-7.6-4.2c0-3.9,0-14.4,0-14.4h-3v-2h4v-6h5v6h6V273z
		 M403.4,265l7.2-9h6.3l-7.3,9H403.4z M398.2,271h6l-5.6,6h-5.2L398.2,271z M380,270.8l8.3,0l15.2,20.3H397l-5.4-6.6l-2.4,2.6H383
		l5.6-6.7c0,0-4.1-5.7-5.1-6.8c-1-1-3.5-1-3.5-1V270.8z M369.7,270C369.7,270,369.7,270,369.7,270C369.7,270,369.7,270,369.7,270
		c3.5,0,9.5,1,9.5,9h-13.6c0,0,0.6,9.5,8.4,9.5c2.7,0,5-1.1,5-1.1v3c0,0-2.3,1.3-7.1,1.3c-2.4,0-5.5-0.5-8-2.2
		c-2.5-1.7-4.4-4.6-4.4-9.4C359.5,270.7,366.2,270,369.7,270z M321,262.4c0,0,10.4,0,12.8,0l14.2,21.4V262h6v29h-6.9l-15.3-22.3
		l0,22.3H326c0,0,0-21.3,0-22.8c0-1.5,0.5-4.2-3.6-4.2H321V262.4z M297.7,270C297.7,270,297.7,270,297.7,270
		C297.7,270,297.8,270,297.7,270c3.5,0,9.5,1,9.5,9h-13.6c0,0,0.6,9.5,8.4,9.5c2.7,0,5-1.1,5-1.1v3c0,0-2.3,1.3-7.1,1.3
		c-2.4,0-5.5-0.5-8-2.2c-2.5-1.7-4.4-4.6-4.4-9.4C287.5,270.7,294.3,270,297.7,270z M259,262c0,0,7-0.4,9-1.1v13.7
		c0,0,2.5-4.3,7.7-4.3c5.2,0,6.3,3.9,6.3,6.5c0,2.6,0,14.2,0,14.2h-5v-14.3c0,0-0.3-2.6-3.1-2.6c-2.9,0-5.4,2.9-5.4,5.3
		c0,2.4-0.1,11.5-0.1,11.5H263c0,0,0-22,0-23.5c0-1,0.3-3.5-2.5-3.5H259V262z M241,271h4v-6h6v6h6v2h-6c0,0,0,12.9,0,13.9
		c0,1.4,1,1.8,5,1.8c0,0.5,0,2.4,0,2.4s-1.1,0.5-3.9,0.5c-2.8,0-7.1-0.4-7.1-4.2c0-3.9,0-14.4,0-14.4h-4V271z M132.1,291.6
		c-3.2,0-6.1-0.7-6.1-0.7v-4c0,0,0.1-0.1,0.2-0.1c0,0,0.1,0,0.2,0.1c2,1.4,4.3,2.1,6.3,2c1.9-0.1,3.3-0.9,3.3-2.5
		c-0.1-2.7-5.8-3.6-8.8-6.5c-0.1-0.1-0.2-0.2-0.2-0.2c-0.1-0.1-0.2-0.2-0.3-0.4c-0.2-0.2-0.3-0.4-0.4-0.6c0,0-0.1-0.1-0.1-0.1
		c-0.1-0.3-0.3-0.5-0.4-0.8c0,0,0,0,0,0c-0.1-0.3-0.2-0.6-0.2-1c0,0,0-0.1,0-0.1c0-0.2,0-0.4,0-0.6c0-4.9,5.2-6.1,7.5-6.1
		c0,0,0,0,0,0c0,0,0,0,0,0c2.3,0,6,1,6,1v4.4c-3-2.9-9-3.5-9-0.5c0,2.8,10.9,4.3,10.9,10.5C140.9,290.5,135.3,291.6,132.1,291.6z
		 M204,275.6c0,0-1.8-0.9-3.1-0.9c-1.4,0-5.9,1.4-5.9,4.8c0,3.4,0,11.4,0,11.4l-5.4,0l0.1-15c0-1.2-0.7-2.4-3.7-2.4v-1.7
		c0,0,8-0.8,9-1.2v3.6h0.4c0,0,1.9-3.6,5.7-3.6c1.7,0,2.9,0.2,2.9,0.2V275.6z M216,270.1c0,0,0.1-0.1,0.1-0.1c0,0,0,0,0,0
		c0,0,0,0,0,0c3.5,0,9.5,1,9.5,9H212c0,0,0.4,9.5,8.2,9.5c2.7,0,4.8-1.1,4.8-1.1v3c0,0-2.1,1.3-6.9,1.3c-4.8,0-12.1-2-12.1-11.5
		c0-0.9,0.1-1.7,0.2-2.5c0.1-0.7,0.3-1.4,0.5-2C208.3,270.6,213.2,270.1,216,270.1z M176,202h50v8h-19v39h-12v-39h-19V202z
		 M177.8,261.9c1.9,0,3.4,1.3,3.4,2.9c0,1.6-1.5,2.9-3.4,2.9c-1.9,0-3.4-1.3-3.4-2.9C174.4,263.2,176,261.9,177.8,261.9z
		 M171.2,271.9C171.2,271.9,171.2,271.9,171.2,271.9L171.2,271.9L171.2,271.9c0-0.1,7.8-1.1,8.8-1.4v4.2V291h-4.9l0-15.4
		c0-1.2-0.1-2.2-3.7-2.2L171.2,271.9C171.2,272,171.2,272,171.2,271.9L171.2,271.9z M160,202h11v47h-11V202z M153.6,273
		c0,0,1.1-2.5,5.3-2.5c4.2,0,8.6,2.4,8.6,10.1c0,7.7-3.5,10.7-8.6,10.7c-5.1,0-5.4-2.2-5.4-2.2H153v11h-5.5l0.1-23.9
		c0-1.2-0.6-2.6-3.6-2.6v-1.7c0,0,8-0.8,9-1.2v2.5H153.6z M100,202h12v19h25v-19h13v47h-13v-21h-25v21h-12V202z M105,270.5v4.2
		c0,0,2.9-4.2,7.9-4.2c5,0,6.1,4,6.1,5.3c0,1.3,0,15.2,0,15.2h-6c0,0,0-14.1,0-14.9s-0.6-2.3-2.7-2.3c-2.1,0-5.3,3.7-5.3,5.4
		c0,1.7,0,11.8,0,11.8h-5c0,0,0-14.2,0-15.5c0-1.2,0-2.2-3.6-2.2l-0.4-1.5C96,271.8,104,270.8,105,270.5z M79,262.8
		c0,0,8.7-0.3,11.1-1L89.8,291H83c0,0,0-21.5,0-23c0-1.5,1-4-3.1-4H79V262.8z"/>
	<path fill="#FFFFFF" d="M288.1,15L288.1,15L288.1,15C288.1,15,288.1,15,288.1,15C288.1,15,288.1,15,288.1,15z"/>
	<path fill="#FFFFFF" d="M272.1,228c0-0.7-0.1-1.5-0.1-2.3c0,0,0-0.1,0-0.1c0,0,0,0.1,0,0.1C272,226.5,272,227.3,272.1,228z"/>
	<path fill="none" stroke="#FFFFFF" stroke-width="0" stroke-linecap="round" stroke-linejoin="round" d="M324,218
		C324,218,324,218,324,218"/>
	<path fill="#FFFFFF" d="M157.2,288.6c2.1,0,4.5-1.3,4.5-8.1c0-6.8-3.4-7.1-4.5-7.1c-2.3,0-4.3,2.6-4.3,8.1
		C152.9,287.1,155.1,288.6,157.2,288.6z"/>
	<path fill="#FFFFFF" d="M297.8,272.8c-3.8,0-4.2,4.2-4.2,4.2h8.1C301.8,277,301.7,272.8,297.8,272.8z"/>
	<polygon fill="#FFFFFF" points="245,210.3 236.1,231 253.1,231 253.2,230.2 	"/>
	<path fill="#FFFFFF" d="M369.8,272.8c-3.8,0-4.2,4.2-4.2,4.2h8.1C373.8,277,373.7,272.8,369.8,272.8z"/>
	<path fill="#FFFFFF" d="M216.3,272.8c-3.8,0-4.2,4.2-4.2,4.2h8.1C220.2,277,220.1,272.8,216.3,272.8z"/>
	<polygon fill="#000105" points="112,228 137,228 137,249 150,249 150,202 137,202 137,221 112,221 112,202 100,202 100,249 
		112,249 	"/>
	<rect x="160" y="202" fill="#000105" width="11" height="47"/>
	<polygon fill="#000105" points="195,249 207,249 207,210 226,210 226,202 176,202 176,210 195,210 	"/>
	<path fill="#000105" d="M252.3,202h-15.1l-21.5,47h13.7l3.9-10h18.5h4.5l4.2,9.7l12.4-2l-16.7-35.6l-2.4,15l2.4-15.2l0,0L252.3,202
		z M253.5,231h-0.4h0h-17l8.9-20.7l8.2,19.9l0,0l0-0.1l0.4,0.8H253.5z"/>
	<polygon fill="#000105" points="260.6,249 274,249 273,246.9 273,246.8 260.6,248.9 260.6,248.9 	"/>
	<polygon fill="#000105" points="342.9,235.4 343.1,235.4 343.1,228 368,228 368,231.7 379.9,229.7 380,202 368,202 368,221 
		343,221 343,202 330.9,202 330.9,237.4 	"/>
	<polygon fill="#000105" points="343,235.8 331,237.6 331,249 343.1,249 343,235.8 	"/>
	<polygon fill="#000105" points="368.3,231.9 368.3,249 380,249 380,230 	"/>
	<polygon fill="#000105" points="402,226.5 402,202 390.2,202 390.3,228.1 	"/>
	<polygon fill="#000105" points="390.2,249 402,249 402,226.5 390.3,228.4 	"/>
	<path fill="#000105" d="M323.1,239l-2.6,0.4L323.1,239c0-0.1,0-0.2,0.1-0.2c0.8-1.9,1.2-3.8,1.3-6.7h-13c0,0.2,0,0.7,0,1
		c-0.1,3.5-1.7,6.6-5.3,8.6l-0.8,0.1c-0.9,0.4-2,0.7-3.2,0.9c-0.7,0.1-1.5,0.2-2.3,0.2c0,0,0,0-0.1,0c0,0-0.1,0-0.1,0c0,0,0,0,0,0
		c0,0,0,0,0,0c0,0,0,0.1,0,0.1c0,0,0,0,0,0h0c-9-1-14.5-4.3-14.5-17.2c0,0,0-0.1,0-0.1c0-0.6,0-1.2,0.1-1.9c0-0.1,0-0.1,0-0.2
		c0-0.1,0-0.2,0-0.3c0.2-3.3,1-7.4,3.4-10.4c0.5-0.6,1.1-1.2,1.7-1.7c1.8-1.4,4.2-2.2,7.5-2.4c0.4,0,0.8,0.2,1.2,0.2c0,0,0,0,0,0
		c9.7,0,12.7,4.5,12.6,9.5c0.1-5-2.8-9.5-12.6-9.5c9.1,0,12.3,3.5,12.6,8.1c0,0.3,0,0.6,0,0.9H324h0c0-0.1,0-0.2,0-0.4
		c0-0.3,0-0.6-0.1-0.9c0,0,0-0.1,0-0.2c0-0.1,0-0.2,0-0.3c0-0.1,0-0.1,0-0.2c0-0.2-0.1-0.3-0.1-0.5c0-0.2-0.1-0.3-0.1-0.5
		c0,0,0-0.1,0-0.1c-0.1-0.4-0.2-0.9-0.3-1.3c0-0.1,0-0.1-0.1-0.2c-0.1-0.2-0.1-0.4-0.2-0.5c0,0,0,0,0,0c-0.1-0.2-0.1-0.4-0.2-0.6
		c0,0,0-0.1,0-0.1c-2.1-5.1-6.8-8.3-12.9-9.9c0,0,0,0,0,0c-0.2-0.1-0.4-0.1-0.6-0.2c-0.2,0-0.3-0.1-0.5-0.1c-0.1,0-0.1,0-0.2,0
		c-0.1,0-0.2,0-0.3-0.1c-0.6-0.1-1.2-0.2-1.8-0.3c-0.1,0-0.2,0-0.3,0c-0.7-0.1-1.3-0.2-2-0.3c-0.1,0-0.1,0-0.2,0
		c-0.7-0.1-1.5-0.1-2.2-0.2c0,0-0.1,0-0.1,0c-0.8,0-1.6-0.1-2.4-0.1c0,0,0,0,0,0c-0.3,0-0.5,0-0.7,0c-0.3,0-0.5,0-0.8,0
		c-5.1,0.2-9.4,1.2-12.9,2.9c-0.5,0.2-0.9,0.5-1.4,0.7c-0.8,0.4-1.5,0.9-2.2,1.4c-4,2.9-6.5,6.8-7.9,11.3c-0.8,2.6-1.1,5.4-1.1,8.3
		c0,0,0,0,0,0c0,0,0,0.1,0,0.1c0,0,0,0,0,0c0,6.3,1.9,12,5.8,16.1c0.7,0.7,1.3,1.4,2.1,2.1c0.5,0.4,1,0.7,1.6,1c0,0,0,0,0.1,0
		c0,0,0,0,0,0h0c0,0,0,0,0,0c0.1,0,0.5,0.2,0.5,0.2c0,0,0,0.1,0,0.1c0,0-0.1,0.1-0.1,0.1c4.4,2.7,10.1,4.6,17.7,4.6c0,0,0,0,0,0
		C312.5,250,320.2,246.2,323.1,239z"/>
	<path fill="#000105" d="M277.8,241.8c-3.4-3.6-5.3-8.4-5.7-13.8c-0.1-0.7-0.1-1.5-0.1-2.3c0,0,0,0,0,0c0,6.3,1.6,12,5.5,16.1
		c0.7,0.7,1.5,1.4,2.4,2.1c0,0,0,0,0,0C279.1,243.2,278.4,242.6,277.8,241.8z"/>
	<path fill="none" stroke="#000105" stroke-width="0" stroke-linecap="round" stroke-linejoin="round" d="M299.6,243
		C299.5,243,299.5,243,299.6,243"/>
	<path fill="#000105" d="M83,268c0,1.5,0,23,0,23h6.8l0.2-29.2c-2.4,0.8-11.1,1-11.1,1v1.2h0.9C84,264,83,266.6,83,268z"/>
	<path fill="#000105" d="M326,268.2c0,1.5,0,22.8,0,22.8h5.8l0-22.3l15.3,22.3h6.9v-29h-6v21.8l-14.2-21.4c-2.4,0-12.8,0-12.8,0v1.6
		h1.4C326.5,264,326,266.7,326,268.2z"/>
	<path fill="#000105" d="M263,267.5c0,1.5,0,23.5,0,23.5h5.4c0,0,0.1-9.2,0.1-11.5c0-2.4,2.6-5.3,5.4-5.3c2.9,0,3.1,2.6,3.1,2.6V291
		h5c0,0,0-11.6,0-14.2c0-2.6-1.1-6.5-6.3-6.5c-5.2,0-7.7,4.3-7.7,4.3v-13.7c-2,0.8-9,1.1-9,1.1v2h1.5C263.3,264,263,266.5,263,267.5
		z"/>
	<path fill="#000105" d="M100,275.5c0,1.2,0,15.5,0,15.5h5c0,0,0-10.1,0-11.8c0-1.7,3.1-5.4,5.3-5.4c2.1,0,2.7,1.6,2.7,2.3
		s0,14.9,0,14.9h6c0,0,0-13.9,0-15.2c0-1.3-1.2-5.3-6.1-5.3c-5,0-7.9,4.2-7.9,4.2v-4.2c-1,0.3-9,1.3-9,1.3l0.4,1.5
		C100,273.3,100,274.3,100,275.5z"/>
	<path fill="#000105" d="M130,274.9c0-3,6-2.3,9,0.5V271c0,0-3.8-1-6-1c0,0,0,0,0,0c-2.3,0-7.5,1.2-7.5,6.1c0,0.2,0,0.4,0,0.6
		c0,0,0,0.1,0,0.1c0,0.3,0.1,0.7,0.2,1c0,0,0,0,0,0c0.1,0.3,0.2,0.6,0.4,0.8c0,0,0.1,0.1,0.1,0.1c0.1,0.2,0.3,0.4,0.4,0.6
		c0.1,0.1,0.2,0.2,0.3,0.4c0.1,0.1,0.2,0.2,0.2,0.2c3,2.9,8.8,3.7,8.8,6.5c0,0,0,0,0,0c0,1.6-1.4,2.4-3.3,2.5
		c-1.9,0.1-4.3-0.6-6.3-2c-0.1,0-0.1-0.1-0.2-0.1c-0.1,0-0.2,0.1-0.2,0.1v4c0,0,3,0.7,6.1,0.7c3.2,0,8.7-1,8.7-6.2
		C140.9,279.2,130,277.8,130,274.9z"/>
	<path fill="none" stroke="#000105" stroke-width="0" stroke-linecap="round" stroke-linejoin="round" d="M125.5,276.8
		C125.5,276.8,125.5,276.7,125.5,276.8"/>
	<path fill="#000105" d="M144,271.7v1.7c3,0,3.6,1.4,3.6,2.6l-0.1,23.9h5.5v-11h0.5c0,0,0.3,2.2,5.4,2.2c5.1,0,8.6-3,8.6-10.7
		c0-7.7-4.4-10.1-8.6-10.1c-4.2,0-5.3,2.5-5.3,2.5H153v-2.5C152,270.9,144,271.7,144,271.7z M157.1,273.5c1.2,0,4.5,0.3,4.5,7.1
		c0,6.8-2.4,8.1-4.5,8.1c-2.1,0-4.3-1.5-4.3-7C152.9,276.1,154.9,273.5,157.1,273.5z"/>
	<path fill="#000105" d="M175,275.6l0,15.4h4.9v-16.3v-4.2c-1,0.3-8.8,1.3-8.8,1.3l0,0l0,0.1l0.2,1.4
		C174.9,273.3,175,274.4,175,275.6z"/>
	<ellipse fill="#231F20" cx="177.8" cy="264.8" rx="3.4" ry="2.9"/>
	<path fill="#000105" d="M195.4,274H195v-3.6c-1,0.5-9,1.2-9,1.2v1.7c3,0,3.7,1.2,3.7,2.4l-0.1,15l5.4,0c0,0,0-8,0-11.4
		c0-3.4,4.5-4.8,5.9-4.8c1.4,0,3.1,0.9,3.1,0.9v-5c0,0-1.3-0.2-2.9-0.2C197.3,270.4,195.4,274,195.4,274z"/>
	<path fill="#000105" d="M383.5,273.5c1,1,5.2,6.8,5.2,6.8L383,287h6.2l2.4-2.6l5.4,6.6h6.5l-15.2-20.3l-8.3,0v1.7
		C380,272.5,382.5,272.5,383.5,273.5z"/>
	<path fill="#000105" d="M206.6,275.8c-0.2,0.6-0.4,1.3-0.5,2c-0.1,0.7-0.2,1.6-0.2,2.4c0,9.5,7.3,11.5,12.1,11.5
		c4.8,0,6.9-1.3,6.9-1.3v-3c0,0-2.1,1.1-4.8,1.1c-7.8,0-8.2-9.5-8.2-9.5h13.6c0-8-6-9-9.5-9c0,0,0,0,0,0c0,0-0.1,0.1-0.1,0.1
		C213.2,270.1,208.3,270.6,206.6,275.8z M216.3,272.8c3.8,0,4,4.2,4,4.2h-8.1C212.1,277,212.4,272.8,216.3,272.8z"/>
	<path fill="#000105" d="M291.9,289.5c2.5,1.7,5.5,2.2,8,2.2c4.8,0,7.1-1.3,7.1-1.3v-3c0,0-2.3,1.1-5,1.1c-7.8,0-8.4-9.5-8.4-9.5
		h13.6c0-8-6-9-9.4-9c0,0,0,0,0,0c-3.5,0-10.2,0.7-10.2,10.2C287.5,284.9,289.4,287.9,291.9,289.5z M297.8,272.8c3.8,0,4,4.2,4,4.2
		h-8.1C293.7,277,294,272.8,297.8,272.8z"/>
	<path fill="#000105" d="M363.9,289.5c2.5,1.7,5.5,2.2,8,2.2c4.8,0,7.1-1.3,7.1-1.3v-3c0,0-2.3,1.1-5,1.1c-7.8,0-8.4-9.5-8.4-9.5
		h13.6c0-8-6-9-9.4-9c0,0,0,0,0,0c-3.5,0-10.2,0.7-10.2,10.2C359.5,284.9,361.4,287.9,363.9,289.5z M369.8,272.8c3.8,0,4,4.2,4,4.2
		h-8.1C365.6,277,366,272.8,369.8,272.8z"/>
	<path fill="#000105" d="M245,287.4c0,3.9,4.2,4.2,7.1,4.2c2.8,0,3.9-0.5,3.9-0.5s0-1.9,0-2.4c-4,0-5-0.4-5-1.8c0-1,0-13.9,0-13.9h6
		v-2h-6v-6h-6v6h-4v2h4C245,273,245,283.5,245,287.4z"/>
	<path fill="#000105" d="M415,265h-5v6h-4v2h3c0,0,0,10.5,0,14.4c0,3.9,4.7,4.2,7.6,4.2c2.8,0,4.4-0.5,4.4-0.5s0-1.9,0-2.4
		c-4,0-6-0.4-6-1.8c0-1,0-13.9,0-13.9h6v-2h-6V265z"/>
	<polygon fill="#231F20" points="404.2,271 398.2,271 393.4,277 398.6,277 	"/>
	<polygon fill="#EF3E42" points="417,256 410.7,256 403.4,265 409.7,265 	"/>
</g>
</svg>
