<?xml version="1.0" encoding="utf-8"?>
<!-- Generator: Adobe Illustrator 18.1.0, SVG Export Plug-In . SVG Version: 6.00 Build 0)  -->
<!DOCTYPE svg PUBLIC "-//W3C//DTD SVG 1.1//EN" "http://www.w3.org/Graphics/SVG/1.1/DTD/svg11.dtd">
<svg version="1.1" id="Layer_1" xmlns="http://www.w3.org/2000/svg" xmlns:xlink="http://www.w3.org/1999/xlink" x="0px" y="0px"
	 viewBox="0 0 500 500" enable-background="new 0 0 500 500" xml:space="preserve">
<g>
	<circle fill="#2D55A2" cx="250" cy="250" r="250"/>
	<circle fill="#FFFFFF" cx="250" cy="250.9" r="238.6"/>
	<g>
		<g>
			<path fill="#909296" d="M145.8,273.9h-7.4v-5.2h7.4V273.9z M138.4,276h7.4v19.5h-7.4V276z"/>
			<path fill="#909296" d="M169.3,295.6h-7.2v-2.1H162c-0.2,0.3-0.5,0.6-0.8,0.9c-0.3,0.3-0.6,0.6-1.1,0.8c-0.4,0.3-1,0.5-1.6,0.6
				s-1.4,0.2-2.3,0.2c-1.4,0-2.6-0.3-3.6-0.9c-1-0.6-1.9-1.4-2.6-2.4c-0.7-1-1.2-2.1-1.5-3.3c-0.3-1.2-0.5-2.5-0.5-3.7
				c0-1.2,0.1-2.3,0.4-3.5c0.3-1.2,0.7-2.3,1.3-3.3c0.6-1,1.5-1.8,2.6-2.4c1.1-0.6,2.4-0.9,4.1-0.9c1.1,0,2.2,0.2,3.1,0.7
				s1.7,1.1,2.3,1.9h0.1v-9.5h7.4V295.6z M162.1,285.8c0-0.6,0-1.2-0.1-1.7c-0.1-0.6-0.3-1.1-0.5-1.5c-0.3-0.5-0.6-0.8-1-1.1
				c-0.4-0.3-1-0.4-1.6-0.4c-0.7,0-1.2,0.1-1.6,0.4c-0.4,0.3-0.7,0.7-1,1.1c-0.3,0.5-0.4,1-0.5,1.5c-0.1,0.6-0.1,1.2-0.1,1.7
				s0,1.2,0.1,1.7c0.1,0.6,0.3,1.1,0.5,1.6c0.3,0.5,0.6,0.8,1,1.1c0.4,0.3,1,0.4,1.6,0.4c0.7,0,1.2-0.1,1.6-0.4
				c0.4-0.3,0.7-0.7,1-1.1c0.3-0.5,0.4-1,0.5-1.6C162,286.9,162.1,286.3,162.1,285.8z"/>
			<path fill="#909296" d="M178.4,287.5c0.1,1.1,0.5,2,1.1,2.7c0.6,0.7,1.5,1.1,2.7,1.1c0.6,0,1.2-0.1,1.8-0.3
				c0.6-0.2,1-0.6,1.3-1.1h6.9c-0.4,1.1-0.9,2-1.6,2.7c-0.7,0.8-1.5,1.4-2.4,1.9c-0.9,0.5-1.9,0.9-2.9,1.1c-1,0.3-2.1,0.4-3.2,0.4
				c-1.6,0-3-0.2-4.3-0.7c-1.3-0.5-2.5-1.1-3.5-2c-1-0.9-1.7-1.9-2.3-3.2c-0.6-1.3-0.8-2.7-0.8-4.3c0-1.4,0.2-2.8,0.7-4
				c0.5-1.2,1.2-2.3,2.1-3.3c0.9-0.9,2-1.7,3.3-2.2c1.3-0.5,2.7-0.8,4.2-0.8c1.9,0,3.6,0.3,5,0.8c1.4,0.5,2.6,1.3,3.5,2.3
				c0.9,1,1.6,2.3,2,3.7c0.4,1.5,0.6,3.2,0.6,5.1H178.4z M185.6,283.6c0-0.9-0.3-1.7-0.9-2.3s-1.4-1-2.4-1c-1.1,0-2,0.3-2.6,0.8
				c-0.6,0.6-1,1.4-1.2,2.4H185.6z"/>
			<path fill="#909296" d="M213.7,291.2c0,0.7,0,1.5,0.1,2.3c0.1,0.8,0.3,1.5,0.8,2.1H207c-0.1-0.3-0.2-0.6-0.2-0.9
				c0-0.3-0.1-0.6,0-0.9h-0.1c-0.8,0.9-1.8,1.5-2.8,1.8c-1.1,0.3-2.2,0.5-3.4,0.5c-1,0-1.8-0.1-2.7-0.3c-0.8-0.2-1.6-0.6-2.2-1.1
				c-0.6-0.5-1.1-1.1-1.5-1.8c-0.4-0.7-0.5-1.6-0.5-2.7c0-1,0.2-1.9,0.5-2.6c0.4-0.7,0.9-1.3,1.5-1.7c0.6-0.5,1.3-0.8,2.1-1.1
				c0.8-0.3,1.6-0.5,2.4-0.6c0.8-0.1,1.6-0.3,2.4-0.4c0.8-0.1,1.5-0.2,2.1-0.3c0.5-0.1,1-0.3,1.4-0.5c0.4-0.2,0.6-0.6,0.6-1.3
				c0-0.7-0.3-1.1-0.8-1.4c-0.5-0.3-1.1-0.4-1.7-0.4c-0.6,0-1,0.1-1.4,0.2s-0.6,0.3-0.8,0.5c-0.2,0.2-0.4,0.4-0.4,0.7
				c-0.1,0.2-0.1,0.5-0.1,0.7h-6.9c0-1.4,0.4-2.5,1-3.3c0.6-0.8,1.4-1.5,2.4-1.9c1-0.5,2-0.8,3.2-0.9c1.2-0.1,2.3-0.2,3.5-0.2
				c2.3,0,4.1,0.2,5.4,0.7c1.3,0.4,2.2,1,2.7,1.7c0.6,0.7,0.9,1.6,1,2.5c0.1,0.9,0.1,1.8,0.1,2.8V291.2z M206.5,286.8
				c-0.5,0.2-0.9,0.4-1.4,0.5c-0.5,0.1-1,0.3-1.5,0.4c-0.8,0.2-1.5,0.4-1.9,0.7c-0.4,0.3-0.6,0.7-0.6,1.4c0,0.5,0.2,0.9,0.7,1.2
				c0.4,0.4,1,0.6,1.7,0.6c0.9,0,1.6-0.3,2.2-0.8c0.6-0.5,0.9-1.3,1-2.3V286.8z"/>
			<path fill="#909296" d="M227.8,281.7c0-0.3-0.1-0.6-0.3-0.8c-0.1-0.2-0.4-0.4-0.6-0.6c-0.5-0.4-1-0.6-1.7-0.6
				c-0.5,0-1,0.1-1.5,0.3c-0.5,0.2-0.7,0.6-0.7,1.2c0,0.3,0.1,0.5,0.3,0.6c0.2,0.1,0.4,0.3,0.6,0.4c0.3,0.1,0.7,0.2,1.2,0.3
				c0.5,0.1,1,0.2,1.6,0.3c0.6,0.1,1.2,0.2,1.8,0.4c0.6,0.1,1.3,0.3,1.9,0.5c0.6,0.2,1.2,0.4,1.8,0.7c0.6,0.3,1.1,0.7,1.5,1.1
				c0.4,0.4,0.8,1,1,1.5c0.3,0.6,0.4,1.3,0.4,2.1c0,1.4-0.3,2.5-0.9,3.4c-0.6,0.9-1.4,1.6-2.3,2.1c-0.9,0.5-2,0.9-3.2,1.1
				c-1.2,0.2-2.4,0.3-3.6,0.3c-1.2,0-2.3-0.1-3.4-0.4c-1.1-0.2-2.2-0.6-3.1-1.2c-0.9-0.6-1.7-1.3-2.3-2.1c-0.6-0.9-0.9-1.9-0.9-3.2
				h7.1c0,0.7,0.3,1.2,0.9,1.7c0.4,0.4,1.1,0.6,2,0.6c0.3,0,0.5,0,0.8-0.1c0.3-0.1,0.6-0.1,0.8-0.2c0.3-0.1,0.5-0.3,0.6-0.5
				c0.2-0.2,0.3-0.4,0.3-0.7c0-0.3,0-0.5-0.1-0.7c-0.1-0.2-0.3-0.4-0.6-0.5c-0.3-0.1-0.7-0.3-1.3-0.4c-0.5-0.1-1.2-0.3-2.1-0.4
				c-2.8-0.5-4.9-1.2-6.1-2.2c-1.2-1-1.9-2.3-1.9-4c0-1.2,0.3-2.2,0.9-3c0.6-0.8,1.3-1.4,2.3-1.9c0.9-0.5,1.9-0.8,3-1
				c1.1-0.2,2.1-0.3,3.1-0.3c1.1,0,2.1,0.1,3.2,0.3c1.1,0.2,2.1,0.5,3,0.9c0.9,0.5,1.7,1.1,2.3,1.9c0.6,0.8,0.9,1.8,1,3.1H227.8z"/>
			<path fill="#909296" d="M249.3,280.6h-3V276h3c0-1,0-1.9,0.2-2.9c0.2-1,0.6-1.8,1.4-2.6c0.8-0.8,1.7-1.3,2.7-1.5
				c1-0.2,2.3-0.3,3.8-0.3c0.6,0,1.1,0,1.7,0.1c0.5,0,1.1,0.1,1.7,0.1v5.1c-0.3,0-0.6-0.1-0.9-0.2c-0.3-0.1-0.6-0.1-0.9-0.1
				c-0.9,0-1.5,0.2-1.9,0.5c-0.3,0.3-0.5,0.9-0.4,1.8h3.9v4.6h-3.8v14.9h-7.4V280.6z"/>
			<path fill="#909296" d="M281.9,285.8c0,1.4-0.2,2.7-0.6,3.9c-0.4,1.2-1.1,2.3-1.9,3.3c-0.9,0.9-2,1.7-3.3,2.3
				c-1.3,0.6-2.9,0.8-4.8,0.8c-1.8,0-3.4-0.3-4.8-0.8c-1.3-0.6-2.4-1.3-3.3-2.3c-0.9-0.9-1.5-2-1.9-3.3c-0.4-1.2-0.6-2.5-0.6-3.9
				s0.2-2.6,0.6-3.9c0.4-1.2,1.1-2.3,1.9-3.3c0.9-0.9,2-1.7,3.3-2.3c1.3-0.6,2.9-0.8,4.8-0.8c1.8,0,3.4,0.3,4.8,0.8
				c1.3,0.6,2.4,1.3,3.3,2.3c0.9,0.9,1.5,2,1.9,3.3C281.7,283.1,281.9,284.4,281.9,285.8z M274.5,285.8c0-0.5,0-1.1-0.1-1.6
				c-0.1-0.6-0.2-1.1-0.4-1.5c-0.2-0.5-0.6-0.9-1-1.2c-0.4-0.3-1-0.5-1.7-0.5c-0.7,0-1.3,0.2-1.7,0.5c-0.4,0.3-0.8,0.7-1,1.2
				c-0.2,0.5-0.4,1-0.4,1.5c-0.1,0.6-0.1,1.1-0.1,1.6c0,0.5,0,1.1,0.1,1.6c0.1,0.6,0.2,1.1,0.4,1.6c0.2,0.5,0.6,0.9,1,1.2
				c0.4,0.3,1,0.5,1.7,0.5c0.7,0,1.3-0.2,1.7-0.5c0.4-0.3,0.8-0.7,1-1.2c0.2-0.5,0.4-1,0.4-1.6C274.4,286.8,274.5,286.3,274.5,285.8
				z"/>
			<path fill="#909296" d="M283.9,276h7.2v3.1h0.1c0.6-1.2,1.3-2.1,2.2-2.7c0.9-0.6,2-0.9,3.3-0.9c0.7,0,1.4,0.1,2.2,0.3v6.6
				c-0.4-0.1-0.8-0.2-1.2-0.3c-0.4-0.1-1-0.1-1.7-0.1c-1.5,0-2.6,0.5-3.4,1.4c-0.8,0.9-1.1,2.4-1.1,4.5v7.7h-7.4V276z"/>
			<path fill="#909296" d="M310.7,268.7h7.4v26.9h-7.4V268.7z"/>
			<path fill="#909296" d="M328.8,273.9h-7.4v-5.2h7.4V273.9z M321.3,276h7.4v19.5h-7.4V276z"/>
			<path fill="#909296" d="M333.3,280.6h-3V276h3c-0.1-1,0-1.9,0.2-2.9c0.2-1,0.6-1.8,1.4-2.6c0.8-0.8,1.7-1.3,2.7-1.5
				c1-0.2,2.3-0.3,3.8-0.3c0.6,0,1.1,0,1.7,0.1c0.5,0,1.1,0.1,1.7,0.1v5.1c-0.3,0-0.6-0.1-0.9-0.2c-0.3-0.1-0.6-0.1-0.9-0.1
				c-0.9,0-1.5,0.2-1.9,0.5c-0.3,0.3-0.5,0.9-0.4,1.8h3.9v4.6h-3.8v14.9h-7.5V280.6z"/>
			<path fill="#909296" d="M351.7,287.5c0.1,1.1,0.5,2,1.1,2.7c0.6,0.7,1.5,1.1,2.7,1.1c0.6,0,1.2-0.1,1.8-0.3
				c0.6-0.2,1-0.6,1.3-1.1h6.9c-0.4,1.1-0.9,2-1.6,2.7c-0.7,0.8-1.5,1.4-2.3,1.9c-0.9,0.5-1.9,0.9-2.9,1.1c-1,0.3-2.1,0.4-3.2,0.4
				c-1.6,0-3-0.2-4.3-0.7c-1.3-0.5-2.5-1.1-3.5-2c-1-0.9-1.7-1.9-2.3-3.2c-0.6-1.3-0.8-2.7-0.8-4.3c0-1.4,0.2-2.8,0.7-4
				c0.5-1.2,1.2-2.3,2.1-3.3c0.9-0.9,2-1.7,3.3-2.2c1.3-0.5,2.7-0.8,4.2-0.8c1.9,0,3.6,0.3,5,0.8c1.4,0.5,2.6,1.3,3.5,2.3
				c0.9,1,1.6,2.3,2,3.7c0.4,1.5,0.6,3.2,0.6,5.1H351.7z M358.8,283.6c0-0.9-0.3-1.7-0.9-2.3c-0.6-0.6-1.4-1-2.4-1
				c-1.1,0-2,0.3-2.6,0.8c-0.6,0.6-1,1.4-1.2,2.4H358.8z"/>
		</g>
		<g>
			<path fill-rule="evenodd" clip-rule="evenodd" fill="#2D55A2" d="M173.3,219.8h11.8l0.5,3.8c0.9-3,6.9-5.2,10.6-5.2
				c8.3,0,11.8,5.1,11.8,14.1v19.6h-13v-17.5c0-3.5-0.7-6.1-4.2-6.1c-3.2,0-5,3.5-5,6v17.6h-12.4V219.8L173.3,219.8z"/>
			<path fill-rule="evenodd" clip-rule="evenodd" fill="#2D55A2" d="M119,206.4H97.3v45.9h14.4v-13.7h7.3c13.7,0,19-6.8,19-16.6
				C138,212.9,132.1,206.4,119,206.4z M117.5,227.4h-5.8v-9.7h5.8c3.2,0,7.2,0.9,7.2,5C124.7,226.6,121,227.4,117.5,227.4z"/>
			<path fill-rule="evenodd" clip-rule="evenodd" fill="#2D55A2" d="M317.3,219.8h11.9l0.4,3.8c1-3,6.9-5.2,10.6-5.2
				c8.3,0,11.8,5.1,11.8,14.1v19.7h-13v-17.6c0-3.5-0.9-6.1-4.2-6.1c-3.1,0-4.8,3.5-4.8,6v17.8h-12.5V219.8L317.3,219.8z"/>
			<path fill-rule="evenodd" clip-rule="evenodd" fill="#2D55A2" d="M257.3,240.7c0,1.2,0.6,3.2,1.4,3.8c1,0.6,2.1,1.4,3.6,1.4
				c2.4,0,4.1-0.7,4.1-3c0.1-5.3-19.6-0.6-19.6-13.5c0-8.9,6.8-11,14.1-11c7.2,0,17.3,1.4,16.9,11.2h-10.9c0-0.9-0.5-1.5-1-2.4
				c-0.7-0.9-1.7-1.2-3.4-1.4c-2.2-0.1-4.3,0.2-4.3,2c0.1,5.1,20.5,1.6,20.5,13.5c0,8.3-5.8,12.2-17.1,12.2c-7.1-0.3-16-3.8-16-12.8
				H257.3L257.3,240.7z"/>
			<path fill-rule="evenodd" clip-rule="evenodd" fill="#2D55A2" d="M391.2,232.3c0-0.7,0-1.7-1.1-3.1c-0.5-0.6-1.6-2.1-3.5-2.1
				c-4.8,0-6.1,4.8-6.1,8.8c0,4.3,2.1,8.2,5.8,8.2c3.4,0,5.1-3.1,5.1-5.6h11.3c0.4,6.6-4.2,14.6-16.9,14.6
				c-10.2,0-17.5-7.1-17.5-17.4c0-12.7,9.4-17.4,17.4-17.4c10.9,0,17,6.5,16.9,13.9H391.2L391.2,232.3z"/>
			<path fill-rule="evenodd" clip-rule="evenodd" fill="#2D55A2" d="M170.4,247.6V233c0-7.2-1.5-14.4-15.3-14.4
				c-14.1,0-16.3,5.6-16.3,12.4h10.9c0.4-4,2-4.5,4.6-4.5c1.4,0,4-0.1,4,2.2c0,7.1-21.2,0.5-21.2,14.8c0,8.7,7.9,9.2,12,9.3
				c4,0,6.6-1.1,9.1-3.2l1.4,2.7l12.3-0.1V252C170.5,250.5,170.4,249.6,170.4,247.6z M152.1,245.7c-2.5,0-3.6-1.1-3.6-3.2
				c0.1-3.2,5.6-3.1,9.9-5.1C158.8,241.3,156.5,245.7,152.1,245.7z"/>
			<path fill-rule="evenodd" clip-rule="evenodd" fill="#2D55A2" d="M243.2,247.6V233c0-7.2-1.4-14.4-15.1-14.4
				c-14.3,0-16.3,5.6-16.3,12.4h10.8c0.5-4,2-4.5,4.7-4.5c1.4,0,4.1-0.1,4.1,2.2c-0.1,7.1-21.5,0.5-21.5,14.8c0,8.7,7.8,9.2,12,9.3
				c4.1,0,6.8-1.1,9.3-3.2l1.2,2.7l12.2-0.1V252C243.3,250.5,243.2,249.6,243.2,247.6z M225.1,245.7c-2.7,0-3.7-1.1-3.7-3.2
				c0-3.2,5.7-3.1,10.2-5.1C231.8,241.3,229.3,245.7,225.1,245.7z"/>
			<polygon fill-rule="evenodd" clip-rule="evenodd" fill="#2D55A2" points="366.4,252.3 366.4,219.8 354.3,219.8 354.3,252.3 
				366.4,252.3 			"/>
			<polygon fill-rule="evenodd" clip-rule="evenodd" fill="#2D55A2" points="354.3,215.7 366.4,215.7 366.4,206.3 354.3,206.3 
				354.3,215.7 			"/>
			<path fill-rule="evenodd" clip-rule="evenodd" fill="#2D55A2" d="M298,218.7c-10.9,0-17.5,7.4-17.5,17.4
				c0,9.9,6.6,17.4,17.5,17.4c10.7,0,17.3-7.4,17.3-17.4C315.2,226.1,308.6,218.7,298,218.7z M298,245c-4.5-0.1-5.8-5.1-5.8-8.9
				c0.1-4,1.4-9.1,5.8-9.1c4.2,0,5.5,5.1,5.5,9.1C303.4,239.9,302.2,245,298,245z"/>
		</g>
	</g>
</g>
</svg>
