<?xml version="1.0" encoding="utf-8"?>
<!-- Generator: Adobe Illustrator 18.1.0, SVG Export Plug-In . SVG Version: 6.00 Build 0)  -->
<!DOCTYPE svg PUBLIC "-//W3C//DTD SVG 1.1//EN" "http://www.w3.org/Graphics/SVG/1.1/DTD/svg11.dtd">
<svg version="1.1" id="Layer_1" xmlns="http://www.w3.org/2000/svg" xmlns:xlink="http://www.w3.org/1999/xlink" x="0px" y="0px"
	 viewBox="0 0 500 500" enable-background="new 0 0 500 500" xml:space="preserve">
<g>
	<circle fill="#4987CE" cx="250" cy="250" r="250"/>
	<path fill="#FFFFFF" d="M250,348.3c-1,0-2,0-2.9,0l20.1-55.3h27.7c4.9,0,10.2-3.7,11.9-8.3l21.8-60c3.6-9.8-2.1-17.9-12.5-17.9
		h-38.4l-32.3,88.6h0l-18.3,50.2c-43.4-10.3-75.7-49.3-75.7-95.9c0-45.2,30.4-83.3,71.9-94.9l-18.9,51.9h0l-31.4,86.2l20.9,0
		l26.7-73.2h15.7l-26.7,73.2l20.9,0l24.9-68.3c3.6-9.8-2.1-17.9-12.5-17.9h-17.6l20.2-55.4c1.5-0.1,2.9-0.1,4.4-0.1
		c54.4,0,98.5,44.1,98.5,98.5C348.5,304.2,304.4,348.3,250,348.3z M309.6,219.6h-15.7l-22,60.3h15.7L309.6,219.6z"/>
</g>
</svg>
