<?xml version="1.0" encoding="utf-8"?>
<!-- Generator: Adobe Illustrator 18.1.0, SVG Export Plug-In . SVG Version: 6.00 Build 0)  -->
<!DOCTYPE svg PUBLIC "-//W3C//DTD SVG 1.1//EN" "http://www.w3.org/Graphics/SVG/1.1/DTD/svg11.dtd">
<svg version="1.1" id="Layer_1" xmlns="http://www.w3.org/2000/svg" xmlns:xlink="http://www.w3.org/1999/xlink" x="0px" y="0px"
	 viewBox="0 0 500 500" enable-background="new 0 0 500 500" xml:space="preserve">
<g>
	<circle fill="#0094D9" cx="250" cy="250" r="250"/>
	<g>
		<path fill="#FFFFFF" d="M218.3,218.4h-26.7h-26.7c-7.8,0-14.1,6.6-14.1,14.6V267c0,8,6.4,14.6,14.1,14.6h26.7h26.7
			c7.8,0,14.1-6.6,14.1-14.6V233C232.4,225,226.1,218.4,218.3,218.4z M215.1,263c0,2.9-2.3,5.3-5,5.3h-18.5h-18.4
			c-2.8,0-5.1-2.4-5.1-5.3v-26c0-2.9,2.3-5.3,5.1-5.3h18.4h18.5c2.7,0,5,2.4,5,5.3V263z"/>
		<polygon fill="#FFFFFF" points="123.8,266.3 86.5,219.5 71.4,219.5 60.3,219.5 54.1,219.5 54.1,282.1 71.4,282.1 71.4,233.3 
			110.3,282.1 123.8,282.1 136.5,282.1 141.1,282.1 141.1,219.5 123.8,219.5 		"/>
		<path fill="#FFFFFF" d="M411.4,219.1h-5.1h-8.2h-8.3h-5l-33.5,61.5h21.6l5.8-10.6h19.5h19.5l5.8,10.6h21.5L411.4,219.1z
			 M398.1,257h-12.4l12.4-22.7l12.4,22.7H398.1z"/>
		<polygon fill="#FFFFFF" points="318.3,219.5 292.9,219.5 259.5,249 259.5,219.5 240.8,219.5 240.8,282.1 259.5,282.1 259.5,251 
			298.1,282.1 323.5,282.1 283.7,250 		"/>
		<rect x="328" y="219.5" fill="#FFFFFF" width="20.6" height="62.7"/>
	</g>
</g>
</svg>
