<?xml version="1.0" encoding="utf-8"?>
<!-- Generator: Adobe Illustrator 18.1.0, SVG Export Plug-In . SVG Version: 6.00 Build 0)  -->
<!DOCTYPE svg PUBLIC "-//W3C//DTD SVG 1.1//EN" "http://www.w3.org/Graphics/SVG/1.1/DTD/svg11.dtd">
<svg version="1.1" id="Layer_1" xmlns="http://www.w3.org/2000/svg" xmlns:xlink="http://www.w3.org/1999/xlink" x="0px" y="0px"
	 viewBox="0 0 500 500" enable-background="new 0 0 500 500" xml:space="preserve">
<g>
	<circle cx="250" cy="250" r="250"/>
	<g>
		<path fill-rule="evenodd" clip-rule="evenodd" fill="#FFFFFF" d="M139.7,256.8v-4.9v-5.6c0-1.7-1.4-3.1-3.1-3.1h-25.4
			c-2.4,0-4.3,1.9-4.3,4.3c0,2.4,1.9,4.3,4.3,4.3h16.6v4.4c0,3.4-4.4,6.3-9.8,6.3H79c-5.4,0-9.8-2.8-9.8-6.3v-24.8
			c0-3.4,4.4-6.3,9.8-6.3l18.7,0c2.2,0,4-1.8,4-4c0-2.2-1.8-4-4-4H77.8c-11.2,0-20.3,5.9-20.3,13v26.6c0,7.2,9.1,13,20.3,13h41.5
			C130.5,269.8,139.7,263.9,139.7,256.8z"/>
		<path fill-rule="evenodd" clip-rule="evenodd" fill="#FFFFFF" d="M151.7,241.9v14.6c0,7.4,10.5,13.5,23.3,13.5h25.1
			c12.8,0,23.3-6.1,23.3-13.5v-14.6c0-7.4-10.5-13.5-23.3-13.5H175C162.2,228.4,151.7,234.5,151.7,241.9L151.7,241.9z M163,256.4
			V242c0-3.4,5.1-6.3,11.4-6.3h26.3c6.3,0,11.4,2.8,11.4,6.3v14.4c0,3.4-5.1,6.3-11.4,6.3h-26.3C168.1,262.7,163,259.9,163,256.4z"
			/>
		<path fill-rule="evenodd" clip-rule="evenodd" fill="#FFFFFF" d="M235.3,225.3v41.3c0,2,1.6,3.6,3.6,3.6h4.9c2,0,3.6-1.6,3.6-3.6
			v-15.2H258h15.8h20.8c13.2,0,24-6.1,24-13.5v-7.2c0-7.4-10.8-13.5-24-13.5H258h-19.1c-2,0-3.6,1.6-3.6,3.6V225.3L235.3,225.3z
			 M247.4,243.1v-18.7h26.5h22.7c5.7,0,10.3,2.6,10.3,5.8v7c0,3.2-4.6,5.8-10.3,5.8h-22.7H247.4z"/>
		<path fill-rule="evenodd" clip-rule="evenodd" fill="#FFFFFF" d="M328.8,241.9V252v4.5v9.9c0,2,1.6,3.6,3.6,3.6h4
			c2,0,3.6-1.6,3.6-3.6v-10V252v-10c0-3.4,5.1-6.3,11.4-6.3l8.4,0c2,0,3.7-1.7,3.7-3.7c0-2-1.7-3.7-3.7-3.7h-7.7
			C339.3,228.4,328.8,234.5,328.8,241.9z"/>
		<path fill-rule="evenodd" clip-rule="evenodd" fill="#FFFFFF" d="M371.6,241.9v14.6c0,7.4,10.5,13.5,23.3,13.5H420
			c12.8,0,23.3-6.1,23.3-13.5v-14.6c0-7.4-10.5-13.5-23.3-13.5h-25.1C382,228.4,371.6,234.5,371.6,241.9L371.6,241.9z M382.8,256.4
			V242c0-3.4,5.1-6.3,11.4-6.3h26.3c6.3,0,11.4,2.8,11.4,6.3v14.4c0,3.4-5.1,6.3-11.4,6.3h-26.3C388,262.7,382.8,259.9,382.8,256.4z
			"/>
		<rect x="221.4" y="284.2" fill-rule="evenodd" clip-rule="evenodd" fill="#00ADEF" width="47.3" height="34.7"/>
		<rect x="279.7" y="284.2" fill-rule="evenodd" clip-rule="evenodd" fill="#00ADEF" width="47.3" height="34.7"/>
		<rect x="337" y="284.2" fill-rule="evenodd" clip-rule="evenodd" fill="#0C4CA3" width="47.3" height="34.7"/>
		<rect x="395.3" y="284.2" fill-rule="evenodd" clip-rule="evenodd" fill="#FFFFFF" width="47.3" height="34.7"/>
	</g>
</g>
</svg>
