<?xml version="1.0" encoding="utf-8"?>
<!-- Generator: Adobe Illustrator 18.1.0, SVG Export Plug-In . SVG Version: 6.00 Build 0)  -->
<!DOCTYPE svg PUBLIC "-//W3C//DTD SVG 1.1//EN" "http://www.w3.org/Graphics/SVG/1.1/DTD/svg11.dtd">
<svg version="1.1" id="Layer_1" xmlns="http://www.w3.org/2000/svg" xmlns:xlink="http://www.w3.org/1999/xlink" x="0px" y="0px"
	 viewBox="0 0 500 500" enable-background="new 0 0 500 500" xml:space="preserve">
<g>
	<circle fill="#231F20" cx="250" cy="250" r="250"/>
	<g>
		<path fill-rule="evenodd" clip-rule="evenodd" fill="#FFFFFF" d="M408.4,267.8c-2.8,0-5,2.2-5,5c0,2.8,2.2,5,5,5c2.8,0,5-2.2,5-5
			C413.4,270,411.2,267.8,408.4,267.8L408.4,267.8L408.4,267.8L408.4,267.8z M408.4,277.2c-2.4,0-4.4-2-4.4-4.4c0-2.4,2-4.4,4.4-4.4
			c2.4,0,4.4,2,4.4,4.4C412.8,275.2,410.8,277.2,408.4,277.2L408.4,277.2L408.4,277.2L408.4,277.2z"/>
		<path fill-rule="evenodd" clip-rule="evenodd" fill="#FFFFFF" d="M411,271.5c0-0.5-0.2-1-0.6-1.2c-0.4-0.2-0.9-0.3-1.4-0.3l0,0
			h-2.4v5.6h0.7V273h1.3l1.6,2.6h0.8l-1.7-2.6l0,0C410.2,273,411,272.6,411,271.5L411,271.5L411,271.5L411,271.5z M408.3,272.5h-1
			v-2h1.6l0,0c0.7,0,1.4,0.1,1.4,1C410.3,272.6,409.1,272.5,408.3,272.5L408.3,272.5L408.3,272.5L408.3,272.5z"/>
		<path fill-rule="evenodd" clip-rule="evenodd" fill="#FFFFFF" d="M379.2,244.5l10.2-10.9l0,0c0.6-0.8,0.9-1.4,0.9-1.8
			c0-0.8-0.7-1.1-2.8-1.1l0,0h-2.6v-6.9h27.8v6.9H409l0,0c-4.2,0-5,0.6-10.9,8.1l0,0L382,256.2v10.6l0,0c0,2.7,1.4,3.7,5.3,3.7l0,0
			h6.1v6.6h-39v-6.6h6.1l0,0c3.9,0,5.3-1,5.3-3.7l0,0v-10.6l-19-21l0,0c-3.1-3.7-2.7-4.5-11.4-4.5l0,0v-6.9h35.2v6.9h-2.5l0,0
			c-2.6,0-3.6,0.5-3.6,1.4c0,0.8,0.8,1.4,1.3,2.1l0,0l9.6,10.5l0,0C376.5,245.9,377.9,246,379.2,244.5L379.2,244.5L379.2,244.5
			L379.2,244.5z"/>
		<path fill-rule="evenodd" clip-rule="evenodd" fill="#FFFFFF" d="M142.9,223.9h8.5V243h-7.8l0,0c-0.7-3.8-3.1-5.3-5.3-7.3
			c-3.9-3.6-12.5-6.6-19.7-6.6c-9.3,0-17.1,2.9-17.1,7.1c0,11.7,53,2.4,53,24.6c0,11.6-11.4,18-31.7,18c-7.1,0-17.7-2.2-24-5.5
			c-2-1.1-2.8,1.1-3.2,3.9l0,0h-8.7v-19.8h7.9l0,0c1.7,5,4.1,6.1,6.3,8.1c3.8,3.5,12.9,6.1,21.3,6c12.6-0.1,16.9-2.9,16.9-6.9
			c0-4-4.3-4.9-18.1-7.1l0,0l-11.7-1.9l0,0c-13.2-2-22.8-4.9-22.8-15.5c0-10.9,12.2-17.8,31.4-17.8c8.1,0,14.9,1.1,21.4,4.8
			C141.2,228.1,142.9,228.2,142.9,223.9L142.9,223.9L142.9,223.9L142.9,223.9z"/>
		<path fill-rule="evenodd" clip-rule="evenodd" fill="#FFFFFF" d="M308.7,255.9l0.2-21.3l0,0c0-2.8-1.5-3.8-5.6-3.8l0,0h-4.9v-6.6
			h31v6.6h-4l0,0c-4.2,0-5.6,1-5.6,3.8l0,0v42.9l-12.2-0.1l-39.3-37.3v27.1l0,0c0,2.7,1.5,3.8,5.6,3.8l0,0h5.4v6.5h-32.2v-6.5h5.3
			l0,0c4.2,0,5.6-1,5.6-3.8l0,0v-32.6l0,0c0-2.8-1.5-3.8-5.6-3.8l0,0h-5.3v-6.6h27.9L308.7,255.9L308.7,255.9L308.7,255.9z"/>
		<path fill-rule="evenodd" clip-rule="evenodd" fill="#FFFFFF" d="M204.7,221.8c-24.7,0-40.2,10.9-40.2,28.5
			c0,17.2,15.3,28.1,39.5,28.1c25.7,0,40.7-10.7,40.7-29C244.6,232.9,228.5,221.8,204.7,221.8L204.7,221.8L204.7,221.8L204.7,221.8z
			 M204.2,271.4c-13.7,0-21.6-7.9-21.6-21.6c0-13.3,8.2-21.2,22.2-21.2c13.5,0,21.3,8.1,21.3,21.8
			C226.2,263.8,218.2,271.4,204.2,271.4L204.2,271.4L204.2,271.4L204.2,271.4z"/>
	</g>
</g>
</svg>
