<?xml version="1.0" encoding="iso-8859-1"?>
<!-- Generator: Adobe Illustrator 18.0.0, SVG Export Plug-In . SVG Version: 6.00 Build 0)  -->
<!DOCTYPE svg PUBLIC "-//W3C//DTD SVG 1.0//EN" "http://www.w3.org/TR/2001/REC-SVG-20010904/DTD/svg10.dtd">
<svg version="1.0" id="Layer_1" xmlns="http://www.w3.org/2000/svg" xmlns:xlink="http://www.w3.org/1999/xlink" x="0px" y="0px"
	 viewBox="0 0 500 500" enable-background="new 0 0 500 500" xml:space="preserve">
<g>
	<circle fill="#FFFFFF" cx="249.412" cy="250.488" r="249.557"/>
	<g>
		<path fill="#80B941" d="M255,245h244.851C497.372,113,389,3.213,255,0.333V245z"/>
		<path fill="#FAB515" d="M255,254v245.307C389,496.424,497.55,388,499.855,254H255z"/>
		<path fill="#EE5326" d="M247,245V0.309C112,2.219,3.348,111,0.857,245H247z"/>
		<path fill="#349DD8" d="M247,254H0.853C3.169,389,112,497.419,247,499.331V254z"/>
	</g>
	<circle fill="#FFFFFF" cx="250.354" cy="249.82" r="238.2"/>
	<g>
		<path fill="#EE5326" d="M48.936,206.967h40.875c-0.002,13.625,0,27.25-0.002,40.875c-13.622,0-27.247,0-40.872,0V206.967
			L48.936,206.967z"/>
		<path fill="#80B941" d="M93.984,206.967h40.875c0,13.625,0.002,27.25-0.002,40.875c-13.622-0.002-27.247,0-40.87,0
			C93.982,234.217,93.984,220.592,93.984,206.967L93.984,206.967z"/>
		<path fill="#797979" d="M417.533,222.541c3.768-2.452,8.637-2.681,12.884-1.512c0.037,2.524,0.005,5.05,0.017,7.576
			c-2.018-0.889-4.392-1.468-6.515-0.597c-1.684,0.668-2.686,2.396-2.948,4.124c-0.317,2.192-0.11,4.414-0.164,6.619
			c4.311,0.01,8.622,0.002,12.933,0.005c0.032-2.799-0.034-5.6,0.037-8.398c2.931-0.835,5.831-1.77,8.747-2.649
			c0.025,3.687-0.034,7.377,0.032,11.067c2.914-0.042,5.831-0.01,8.747-0.02v7.178c-2.926-0.12-5.855-0.032-8.781-0.042
			c0.012,4.127,0.002,8.253,0.005,12.383c0.047,2.286-0.123,4.583,0.145,6.862c0.162,1.343,0.651,2.831,1.91,3.525
			c2.109,1.181,4.785,0.665,6.722-0.631v7.249c-2.526,1.097-5.349,1.431-8.082,1.237c-2.592-0.191-5.278-1.134-6.97-3.196
			c-1.954-2.33-2.457-5.484-2.497-8.435c-0.022-6.334,0.002-12.667-0.01-19.004c-4.313-0.002-8.627-0.005-12.938,0.002
			c-0.005,9.94-0.002,19.88-0.002,29.82c-2.946,0-5.894,0-8.84,0c0-9.938-0.012-19.873,0.005-29.81
			c-2.05-0.039-4.102,0.01-6.152-0.032c0.007-2.359,0.017-4.721-0.005-7.083c2.04-0.047,4.083-0.027,6.128-0.012
			c0.15-3.137-0.329-6.366,0.609-9.422C413.34,226.587,415.102,224.098,417.533,222.541L417.533,222.541z"/>
		<path fill="#797979" d="M228.262,223.057c1.782-0.27,3.712,0.339,4.893,1.733c1.385,1.527,1.64,3.957,0.614,5.742
			c-1.134,2.013-3.673,2.948-5.884,2.465c-2.295-0.412-4.208-2.546-4.105-4.925C223.713,225.568,225.807,223.337,228.262,223.057
			L228.262,223.057z"/>
		<path fill="#797979" d="M160.513,224.152c4.286,0,8.57,0,12.856,0c4.002,10.161,8.033,20.312,12.039,30.473
			c1.024,2.541,1.981,5.111,3.054,7.632c5.148-12.697,10.37-25.362,15.478-38.076c4.122-0.066,8.246-0.015,12.37-0.025
			c-0.01,17.182-0.005,34.364-0.002,51.546c-2.975-0.007-5.948,0.025-8.921-0.017c0.032-12.68-0.002-25.359,0.015-38.042
			c0.005-0.57-0.015-1.139-0.054-1.709c-0.174,0.265-0.329,0.54-0.464,0.825c-5.109,12.979-10.316,25.922-15.395,38.913
			c-2.116,0.076-4.235,0.005-6.353,0.039c-5.271-12.979-10.475-25.988-15.719-38.977c-0.137-0.27-0.285-0.533-0.444-0.786
			c-0.108,5.556-0.017,11.116-0.047,16.671c0.002,7.694-0.005,15.388,0.002,23.081c-2.806,0.007-5.612,0-8.416,0.002
			C160.511,258.521,160.508,241.336,160.513,224.152L160.513,224.152z"/>
		<path fill="#797979" d="M252.591,238.722c4.267-1.215,8.867-1.166,13.131,0.039c0.879,0.245,1.731,0.587,2.521,1.051
			c-0.049,2.816,0,5.634-0.027,8.452c-2.85-2.178-6.466-3.557-10.09-3.101c-2.877,0.26-5.622,1.753-7.343,4.078
			c-2.212,2.882-2.723,6.709-2.342,10.235c0.285,2.759,1.426,5.516,3.572,7.345c2.229,1.981,5.354,2.683,8.271,2.462
			c2.882-0.331,5.602-1.552,7.932-3.255c0.025,2.669-0.012,5.337,0.02,8.006c-3.614,2.151-7.947,2.705-12.083,2.502
			c-4.232-0.223-8.452-1.826-11.516-4.802c-3.329-3.209-5.136-7.785-5.349-12.368c-0.216-4.765,0.754-9.736,3.496-13.716
			C245.081,242.255,248.675,239.851,252.591,238.722L252.591,238.722z"/>
		<path fill="#797979" d="M349.156,238.16c4.087-0.719,8.366-0.191,12.235,1.274c0.005,2.71,0,5.418,0.002,8.126
			c-2.703-1.858-6.005-2.858-9.285-2.742c-1.652,0.064-3.469,0.763-4.222,2.335c-0.599,1.554-0.184,3.592,1.281,4.522
			c2.507,1.677,5.497,2.389,8.094,3.891c2.045,1.149,4.029,2.651,5.065,4.817c1.947,4.056,1.122,9.415-2.3,12.439
			c-3.267,3.054-7.974,3.898-12.302,3.736c-3.074-0.199-6.162-0.805-8.988-2.062c0.012-2.85-0.017-5.698,0.015-8.546
			c2.376,1.726,5.119,2.961,8.02,3.461c2.02,0.329,4.218,0.344,6.101-0.56c1.802-0.896,2.126-3.457,1.056-5.023
			c-1.002-1.208-2.472-1.873-3.859-2.526c-2.605-1.171-5.342-2.151-7.63-3.906c-1.608-1.254-2.826-3.022-3.302-5.015
			c-0.707-2.939-0.486-6.25,1.223-8.818C342.311,240.57,345.701,238.776,349.156,238.16L349.156,238.16z"/>
		<path fill="#797979" d="M288.01,239.323c2.44-1.466,5.541-1.588,8.204-0.692c-0.012,2.948,0,5.897-0.007,8.845
			c-1.743-1.129-3.918-1.613-5.975-1.404c-2.509,0.285-4.497,2.212-5.529,4.421c-1.119,2.34-1.331,4.986-1.259,7.544
			c0,5.889,0.002,11.779,0,17.668c-2.907,0-5.811,0-8.715,0c-0.007-12.309,0.01-24.621-0.007-36.93
			c2.909-0.037,5.818-0.022,8.727-0.007c-0.012,2.114,0,4.227-0.007,6.344C284.387,242.812,285.794,240.578,288.01,239.323
			L288.01,239.323z"/>
		<path fill="#797979" d="M224.582,238.768c2.931-0.012,5.865-0.042,8.796,0.015c-0.034,12.307-0.002,24.616-0.015,36.922
			c-2.926,0-5.853,0-8.776,0C224.58,263.394,224.59,251.082,224.582,238.768L224.582,238.768z"/>
		<path fill="#797979" d="M312.484,238.086c4.242-0.54,8.717-0.299,12.655,1.493c3.417,1.542,6.186,4.392,7.721,7.804
			c1.637,3.633,2.035,7.713,1.758,11.654c-0.273,3.847-1.48,7.701-3.886,10.758c-2.462,3.245-6.174,5.445-10.149,6.263
			c-3.398,0.707-6.952,0.705-10.35-0.01c-4.065-0.869-7.829-3.228-10.213-6.66c-2.799-3.977-3.594-9.034-3.238-13.799
			c0.241-4.043,1.498-8.118,4.08-11.29C303.69,240.745,308.028,238.648,312.484,238.086L312.484,238.086z M315.12,245.102
			c-2.114,0.118-4.25,0.832-5.816,2.295c-2.16,1.957-3.147,4.873-3.415,7.708c-0.295,3.118-0.081,6.405,1.343,9.248
			c1.107,2.207,3.142,3.94,5.541,4.571c2.357,0.611,4.922,0.56,7.205-0.317c1.952-0.761,3.498-2.367,4.343-4.267
			c1.277-2.818,1.402-5.988,1.245-9.029c-0.219-2.779-1.009-5.693-3.051-7.701C320.605,245.679,317.776,244.928,315.12,245.102
			L315.12,245.102z"/>
		<path fill="#797979" d="M382.943,238.074c4.411-0.547,9.096-0.25,13.122,1.782c3.511,1.755,6.233,4.927,7.593,8.595
			c1.063,2.806,1.436,5.835,1.375,8.823c0.007,4.463-1.198,9.044-3.999,12.584c-2.622,3.427-6.633,5.654-10.868,6.353
			c-4.141,0.67-8.516,0.496-12.451-1.053c-3.987-1.569-7.301-4.77-8.98-8.713c-1.75-4.019-1.935-8.541-1.39-12.834
			c0.572-4.294,2.516-8.492,5.83-11.347C375.89,239.881,379.386,238.53,382.943,238.074L382.943,238.074z M385.329,245.11
			c-2.445,0.137-4.871,1.191-6.452,3.096c-1.733,2.04-2.477,4.733-2.678,7.357c-0.209,2.71,0,5.516,1.048,8.05
			c0.871,2.126,2.526,3.975,4.662,4.878c1.979,0.852,4.208,1.004,6.324,0.687c1.971-0.29,3.881-1.232,5.165-2.779
			c1.274-1.539,1.947-3.479,2.286-5.423c0.427-2.61,0.432-5.298-0.074-7.895c-0.449-2.214-1.429-4.414-3.199-5.882
			C390.492,245.512,387.826,244.935,385.329,245.11L385.329,245.11z"/>
		<path fill="#349DD8" d="M48.936,252.013c13.625,0.005,27.25-0.002,40.875,0.005c0.002,13.625,0,27.247,0,40.872H48.936V252.013
			L48.936,252.013z"/>
		<path fill="#FAB515" d="M93.987,252.018c13.622-0.005,27.247-0.002,40.872-0.002c0,13.625,0,27.25,0,40.875H93.984
			C93.987,279.265,93.982,265.64,93.987,252.018L93.987,252.018z"/>
	</g>
</g>
</svg>
