<?xml version="1.0" encoding="iso-8859-1"?>
<!-- Generator: Adobe Illustrator 18.0.0, SVG Export Plug-In . SVG Version: 6.00 Build 0)  -->
<!DOCTYPE svg PUBLIC "-//W3C//DTD SVG 1.0//EN" "http://www.w3.org/TR/2001/REC-SVG-20010904/DTD/svg10.dtd">
<svg version="1.0" id="Layer_1" xmlns="http://www.w3.org/2000/svg" xmlns:xlink="http://www.w3.org/1999/xlink" x="0px" y="0px"
	 viewBox="0 0 500 500" enable-background="new 0 0 500 500" xml:space="preserve">
<g>
	<g>
		<circle fill="#3D5A98" cx="249.426" cy="250.176" r="250"/>
	</g>
	<path fill="#FFFFFF" d="M259.768,249.296c-2.63,0-4.523,0.861-6.444,1.736v19.839c1.843,0.18,2.893,0.18,4.642,0.18
		c6.31,0,7.173-2.888,7.173-6.915v-9.479C265.139,251.685,264.152,249.296,259.768,249.296 M217.874,248.212
		c-4.377,0-5.375,2.399-5.375,5.371v1.668h10.746v-1.668C223.245,250.612,222.246,248.212,217.874,248.212 M136.717,268.866
		c0,2.349,1.11,3.569,3.561,3.569c2.631,0,4.186-0.856,6.106-1.736v-4.703h-5.751C137.911,265.996,136.717,266.499,136.717,268.866
		 M300.524,249.296c-4.384,0-5.902,2.389-5.902,5.361v10.858c0,2.982,1.519,5.376,5.902,5.376c4.371,0,5.902-2.394,5.902-5.376
		v-10.858C306.426,251.685,304.895,249.296,300.524,249.296 M115.23,281.035h-12.886v-31.15h-6.442v-10.737h6.442v-6.444
		c0-8.758,3.636-13.967,13.964-13.967h8.601v10.737h-5.373c-4.022,0-4.289,1.501-4.289,4.3l-0.016,5.373h9.741l-1.14,10.737h-8.601
		V281.035z M159.276,281.116h-10.741l-0.463-2.713c-4.906,2.713-9.284,3.154-12.169,3.154c-7.879,0-12.072-5.255-12.072-12.524
		c0-8.573,4.893-11.633,13.645-11.633h8.908v-1.853c0-4.379-0.502-5.662-7.241-5.662h-11.02l1.078-10.737h12.044
		c14.789,0,18.031,4.667,18.031,16.485V281.116z M195.8,250.673c-6.685-1.144-8.603-1.397-11.819-1.397
		c-5.777,0-7.522,1.276-7.522,6.171v9.269c0,4.9,1.745,6.176,7.522,6.176c3.216,0,5.134-0.253,11.819-1.402v10.468
		c-5.856,1.314-9.669,1.658-12.892,1.658c-13.837,0-19.335-7.267-19.335-17.765v-7.52c0-10.506,5.497-17.786,19.335-17.786
		c3.223,0,7.036,0.348,12.892,1.662V250.673z M236.131,263.849h-23.631v0.866c0,4.9,1.746,6.176,7.521,6.176
		c5.194,0,8.361-0.253,15.032-1.402v10.468c-6.433,1.314-9.784,1.658-16.1,1.658c-13.837,0-19.34-7.267-19.34-17.765v-8.598
		c0-9.183,4.085-16.708,18.262-16.708c14.18,0,18.257,7.436,18.257,16.708V263.849z M278.025,264.047
		c0,10.147-2.903,17.548-20.494,17.548c-6.348,0-10.079-0.559-17.09-1.638v-57.996l12.883-2.145v20.285
		c2.784-1.034,6.388-1.558,9.669-1.558c12.888,0,15.032,5.771,15.032,15.04V264.047z M319.324,264.27
		c0,8.752-3.619,17.242-18.758,17.242c-15.149,0-18.834-8.489-18.834-17.242v-8.451c0-8.755,3.685-17.245,18.834-17.245
		c15.138,0,18.758,8.49,18.758,17.245V264.27z M360.591,264.27c0,8.752-3.622,17.242-18.755,17.242
		c-15.149,0-18.836-8.489-18.836-17.242v-8.451c0-8.755,3.688-17.245,18.836-17.245c15.133,0,18.755,8.49,18.755,17.245V264.27z
		 M402.948,281.035h-13.969l-11.81-19.687v19.687h-12.886v-59.074l12.886-2.145v38.029l11.81-18.697h13.969l-12.896,20.403
		L402.948,281.035z M341.79,249.296c-4.376,0-5.895,2.389-5.895,5.361v10.858c0,2.982,1.519,5.376,5.895,5.376
		c4.371,0,5.918-2.394,5.918-5.376v-10.858C347.708,251.685,346.161,249.296,341.79,249.296"/>
</g>
</svg>
