<?xml version="1.0" encoding="utf-8"?>
<!-- Generator: Adobe Illustrator 18.1.0, SVG Export Plug-In . SVG Version: 6.00 Build 0)  -->
<!DOCTYPE svg PUBLIC "-//W3C//DTD SVG 1.1//EN" "http://www.w3.org/Graphics/SVG/1.1/DTD/svg11.dtd">
<svg version="1.1" id="Layer_1" xmlns="http://www.w3.org/2000/svg" xmlns:xlink="http://www.w3.org/1999/xlink" x="0px" y="0px"
	 viewBox="0 0 500 500" enable-background="new 0 0 500 500" xml:space="preserve">
<g>
	<path fill="none" d="M121.3,264.3c0.4,18.8,7.4,31.7,52.7,31.7c0,0,0,0,0,0C128.7,296,121.7,283.1,121.3,264.3z"/>
	<path fill="none" d="M253.8,255.4c0-9.3,2.7-15.3,7.5-18.9c6.9,7.5,6.6,21.6,6.6,31.8c0-10.2,0.4-24.3-6.5-31.8
		c5.6-4.4,13.6-5.4,22.9-5.5c-9.3,0.1-17.4,1.1-23,5.5c-2.3-2.3-5.4-3.9-9.4-4.5c4,0.6,6.9,2.2,9.2,4.5
		C256.4,240.1,253.7,246.1,253.8,255.4c-0.1,10.8,3.8,20.1,14,22.5c0,0,0,0,0-0.1C258,275.3,253.8,266.1,253.8,255.4z"/>
	<path fill="none" d="M198.6,232.4c0.9,0.2,1.8,0.3,2.6,0.5C200.4,232.7,199.5,232.5,198.6,232.4z"/>
	<path fill="none" d="M195.9,294.1c2-0.3,3.8-0.6,5.6-1c3.9-0.9,7.5-2.1,10.5-3.6c-3,1.5-6.6,2.7-10.5,3.6
		C199.8,293.5,197.9,293.8,195.9,294.1z"/>
	<path fill="none" d="M308,215.2c1.6,3.7,2,8,2,12.6C310,223.2,309.6,218.8,308,215.2z"/>
	<path fill="none" d="M174,230C174,230,174,230,174,230c9.9,0,18,0.7,24.5,1.9C192,230.7,184,230,174,230z"/>
	<path fill="#EE3E42" d="M11.5,250.4c0-81.6,41-153.7,103.5-196.7V40.2C47,84.7,0.4,162.2,0.4,250.4S47,416.1,115,460.6v-13.5
		C52.5,404,11.5,332,11.5,250.4z"/>
	<path fill="#7DC142" d="M386,40.2v14c62.1,43.1,102.8,114.9,102.8,196.2S448.1,403.5,386,446.5v14c70-44.5,114.6-122,114.6-210.2
		S456,84.7,386,40.2z"/>
	<path fill="#0060A8" d="M250.1,11.8c0.6,0,1.2,0,1.9,0V0.4c0,0-1,0-1.4,0C200.7,0.4,154,15,115,40.2v13.5
		C153.4,27.2,200,11.8,250.1,11.8z"/>
	<path fill="#0060A8" d="M250.1,489c-50.2,0-96.7-15.5-135.1-41.9v13.5c39,25.2,85.7,39.8,135.6,39.8c0.4,0,1.4,0,1.4,0V489
		C251.4,489,250.8,489,250.1,489z"/>
	<path fill="#FDBD10" d="M386,54.2v-14c-39-25-84-39.6-134-39.8v11.4C301.8,12.2,347.9,27.8,386,54.2z"/>
	<path fill="#FDBD10" d="M252,489v11.4c50-0.2,95-14.8,134-39.8v-14C347.9,473,301.8,488.6,252,489z"/>
	<path fill="#FFFFFF" d="M174,284.5c12.9,0,15.6-6.5,15.6-11.5h11.7h0.3H212v-7h-54.2C157.8,273,158.1,284.5,174,284.5z"/>
	<path fill="#FFFFFF" d="M190.8,256c0-6,0.6-14.7-16.8-14.7c-16.5,0-16.2,9.7-16.2,14.7H190.8z"/>
	<path fill="#FFFFFF" d="M250.1,11.8c-50.2,0-96.7,15.5-135.1,41.9C52.5,96.7,11.5,168.8,11.5,250.4S52.5,404,115,447.1
		c38.4,26.4,85,41.9,135.1,41.9c0.6,0,1.2,0,1.9,0c49.8-0.4,95.9-16,134-42.4c62.1-43.1,102.8-114.9,102.8-196.2
		S448.1,97.3,386,54.2c-38.1-26.4-84.2-42-134-42.4C251.4,11.8,250.8,11.8,250.1,11.8z M282.7,214.9c-7.2,0-7.7,5.1-7.7,11.1h-19.8
		c0-9,2.7-14.4,7.5-17.4c4.5-3.6,11.1-4.8,18.6-4.8c3.3,0,6.2,0.3,8.9,0.6l-4.7-9.4H314l18.6,42.9l20.1-42.9H379l-35,66.1V296h-26
		v-34.9l-8-16.5v18.9c0,4.5,0.7,8.5,1,13.5h-18.6l-0.9-10h-0.3c-4.2,8-9.8,11-18.5,11c-1.8,0-3.7,0.2-4.7-0.1c-0.1,0-0.1,0-0.2-0.1
		c0,0,0,0,0,0.1c0,0,0,0,0,0c-0.5,12-2.9,25.3-15.8,27.5c-1.2,0.2-2.5,0.1-4,0.1c-7.8,0-13.2-2.5-16.8-9.5H231v8h-19v-14.5
		c-3,1.5-6.6,2.7-10.5,3.6c-1.8,0.4-3.7,0.8-5.6,1.1c-6.3,1-13.7,1.8-21.9,1.8c0,0,0,0,0,0c0,0,0,0,0,0c-45.3,0-52.3-13-52.7-31.8
		c0-0.6,0-1.5,0-2.1c0-17.1,5.1-32.1,52.7-32.1c0,0,0,0,0,0c0,0,0,0,0,0c10,0,18,0.9,24.5,2.1c0,0,0,0.1,0.1,0.1
		c0.9,0.2,1.8,0.4,2.6,0.6c0,0,0,0,0,0c4.2,0.9,7.8,1.8,10.8,3.3V202h20v38h0.1c4.2-6,9-8.2,16.2-8.2c1.3,0,2.5,0,3.7,0.2
		c4,0.6,7.1,2.2,9.4,4.5c5.6-4.4,13.7-5.4,23-5.5c2.1,0,4.3,0,6.6,0.1v-5.7C291,219.4,289.9,214.9,282.7,214.9z"/>
	<path fill="#FFFFFF" d="M239.9,244c-8.1,0-8.1,9.9-8.1,24c0,18,1.2,25.5,8.1,25.5c7.2,0,8.4-7.5,8.4-25.5
		C248.3,253.9,248.6,244,239.9,244z"/>
	<path fill="#FFFFFF" d="M280.7,265.9c11.7,0,9.9-15.9,9.9-23.7c-9.9,0.6-17.4-0.3-17.4,12.3C273.2,259.6,274.1,265.9,280.7,265.9z"
		/>
	<path fill="#7DC142" d="M290.3,204.4L290.3,204.4c10.3,1.4,15.3,5.4,17.7,10.8c1.6,3.7,2,8,2,12.6v16.8l8,16.5V296h26v-34.9
		l35-66.1h-26.4l-20.1,42.9L314,195h-28.5L290.3,204.4C290.2,204.4,290.2,204.4,290.3,204.4z"/>
	<path fill="#FDBD10" d="M284.4,231c-9.3,0.1-17.3,1.1-22.9,5.5c6.9,7.5,6.5,21.6,6.5,31.8c0,2.7,0,6,0,9.6c1,0.3,2.9,0.1,4.7,0.1
		c8.7,0,14.3-3,18.5-11h0.3l0.9,10H311c-0.3-5-1-9-1-13.5v-18.9l-19.8-40.2c0,0,0,0,0,0l0,0c0,0,0,0,0,0c-2.7-0.3-5.6-0.6-8.9-0.6
		c-7.5,0-14.1,1.2-18.6,4.8c-4.8,3-7.5,8.4-7.5,17.4H275c0-6,0.5-11.1,7.7-11.1c7.2,0,8.3,4.5,8.3,10.5v5.7
		C288.8,231,286.5,231,284.4,231z M290.6,242.2c0,7.8,1.8,23.7-9.9,23.7c-6.6,0-7.5-6.3-7.5-11.4
		C273.2,241.9,280.7,242.8,290.6,242.2z"/>
	<path fill="#49742A" d="M308,215.2c-2.4-5.4-7.4-9.3-17.7-10.8c0,0,0,0,0,0l19.8,40.2v-16.8C310,223.2,309.6,218.9,308,215.2z"/>
	<path fill="#0060A8" d="M253.7,255.4c0-9.3,2.7-15.3,7.5-18.9c-2.3-2.3-5.2-3.9-9.2-4.5c-1.1-0.2-2.3-0.2-3.7-0.2
		c-7.2,0-12,2.2-16.2,8.2H232v-38h-20v34.2c14,6,16,16.8,15.1,29.8H212v7h14.5c-0.3,7-5.1,12.3-13.8,16.2c-0.3,0.3-0.6,0.3-0.6,0.3
		V304h19v-8h0.2c3.6,7,9,9.5,16.8,9.5c1.4,0,2.7,0.1,4-0.1c13-2.2,15.3-15.5,15.8-27.5c0,0,0,0,0,0
		C257.6,275.4,253.7,266.2,253.7,255.4z M248.3,268c0,18-1.2,25.5-8.4,25.5c-6.9,0-8.1-7.5-8.1-25.5c0-14.1,0-24,8.1-24
		C248.6,244,248.3,253.9,248.3,268z"/>
	<path fill="#D08616" d="M268,268.3c0-10.2,0.3-24.3-6.6-31.8c-4.8,3.6-7.5,9.6-7.5,18.9c0,10.7,4.1,20,14,22.4c0.1,0,0.1,0,0.2,0.1
		C268,274.2,268,270.9,268,268.3z"/>
	<path fill="#EE3E42" d="M201.6,273h-0.3h-11.7c0,5-2.7,11.5-15.6,11.5c-15.9,0-16.2-11.5-16.2-18.5H212v-29.8
		c-3-1.5-6.6-2.4-10.8-3.3c0,0,0,0,0,0c-0.8-0.2-1.7-0.4-2.6-0.5c0,0,0-0.3-0.1-0.3c-6.5-1.2-14.6-2.1-24.5-2.1c0,0,0,0,0,0
		c-47.7,0-52.7,14.9-52.7,32c0,0.6,0,1.4,0,2c0.4,18.8,7.4,31.9,52.7,31.9c0,0,0,0,0,0c8.2,0,15.6-0.8,21.9-1.8c2-0.3,3.8-0.7,5.6-1
		c3.9-0.9,7.5-2.1,10.5-3.6V273H201.6z M174,241.3c17.4,0,16.8,8.7,16.8,14.7h-33C157.8,251,157.5,241.3,174,241.3z"/>
	<path fill="#7A003C" d="M226.5,273H212v16.5c0,0,0.3,0,0.6-0.3C221.3,285.3,226.2,280,226.5,273z"/>
	<path fill="#7A003C" d="M227.1,266c0.9-13-1.1-23.8-15.1-29.8V266H227.1z"/>
</g>
</svg>
