<?xml version="1.0" encoding="utf-8"?>
<!-- Generator: Adobe Illustrator 18.1.0, SVG Export Plug-In . SVG Version: 6.00 Build 0)  -->
<!DOCTYPE svg PUBLIC "-//W3C//DTD SVG 1.1//EN" "http://www.w3.org/Graphics/SVG/1.1/DTD/svg11.dtd">
<svg version="1.1" id="Layer_1" xmlns="http://www.w3.org/2000/svg" xmlns:xlink="http://www.w3.org/1999/xlink" x="0px" y="0px"
	 viewBox="0 0 500 500" enable-background="new 0 0 500 500" xml:space="preserve">
<g>
	<circle fill="#E60012" cx="250" cy="250" r="250"/>
	<g>
		<path fill="#FFFFFF" d="M177.4,362.4l-2.3-13.8c-0.7-4-1.5-10.2-2.2-14.5h-0.3c-0.7,4.3-1.6,10.7-2.3,14.5l-2.5,13.8H177.4z
			 M166.6,371.3l-3,15.3h-11.2l13.9-63.7H180l12.7,63.7h-11.2l-3-15.3H166.6z"/>
		<path fill="#FFFFFF" d="M218.1,358.2c0-0.9,0-1.8-0.2-2.7c-0.4-3.2-2.1-6-4.8-6c-4.6,0-6.3,6.7-6.3,14.4c0,8.9,2.4,14,6.1,14
			c1.7,0,3.7-0.9,4.7-4.6c0.3-0.8,0.4-1.7,0.4-2.9V358.2z M229.6,321.3v52.2c0,4.1,0.2,9.2,0.4,13.2h-9.9l-0.7-5.3h-0.2
			c-1.7,3.3-5.3,6.1-9.6,6.1c-9.5,0-14.2-10.5-14.2-23.7c0-16.1,7-24,14.7-24c4,0,6.6,2,7.9,4.8h0.2v-23.3H229.6z"/>
		<path fill="#FFFFFF" d="M253.5,378.6c4.4,0,5.5-8.3,5.5-15.1c0-6.5-1.1-15-5.7-15c-4.9,0-5.9,8.5-5.9,15
			C247.4,371.3,248.7,378.6,253.5,378.6L253.5,378.6z M253.3,387.4c-10.6,0-17.2-8.5-17.2-23.7c0-16.6,8.5-24,17.5-24
			c10.4,0,17,8.9,17,23.7C270.5,382.4,260.3,387.4,253.3,387.4L253.3,387.4z"/>
		<path fill="#FFFFFF" d="M288.4,370.2c0,1.1,0.2,2.2,0.5,2.9c1.1,3.9,3.1,4.8,4.7,4.8c4.4,0,6.2-5.6,6.2-14.6
			c0-8.2-1.9-13.8-6.3-13.8c-2.2,0-4,2.4-4.6,4.9c-0.2,0.8-0.4,2-0.4,2.9V370.2z M276.9,321.3h11.5v24h0.2c2.3-3.5,5.3-5.6,9.6-5.6
			c8.7,0,13,9.8,13,22.7c0,16.3-6.5,25-14.9,25c-4,0-6.7-1.8-9.1-6.3H287l-0.6,5.5h-9.8c0.2-3.8,0.4-9.1,0.4-13.2V321.3z"/>
		<path fill="#FFFFFF" d="M338.7,359.2c0.1-6.5-1.8-11-5.5-11c-4.2,0-5.9,6.1-6.1,11H338.7z M327.2,367.3c0.1,8.3,4.5,11.1,10,11.1
			c3.4,0,6.4-0.8,8.6-1.6l1.5,8.3c-3,1.3-7.7,2.1-12.2,2.1c-12.3,0-19-8.4-19-22.8c0-15.4,7.8-24.7,18-24.7
			c9.8,0,15.3,8.2,15.3,21.6c0,3.1-0.1,4.8-0.3,6.1L327.2,367.3z"/>
		<polygon fill="#FFFFFF" points="275.9,113.1 349.3,113.1 349.3,288.9 		"/>
		<polygon fill="#FFFFFF" points="224.2,113.1 150.7,113.1 150.7,288.9 		"/>
		<polygon fill="#FFFFFF" points="250,177.9 296.8,288.9 266.2,288.9 252.2,253.5 217.9,253.5 		"/>
	</g>
</g>
</svg>
