<?xml version="1.0" encoding="iso-8859-1"?>
<!-- Generator: Adobe Illustrator 18.0.0, SVG Export Plug-In . SVG Version: 6.00 Build 0)  -->
<!DOCTYPE svg PUBLIC "-//W3C//DTD SVG 1.0//EN" "http://www.w3.org/TR/2001/REC-SVG-20010904/DTD/svg10.dtd">
<svg version="1.0" id="Layer_1" xmlns="http://www.w3.org/2000/svg" xmlns:xlink="http://www.w3.org/1999/xlink" x="0px" y="0px"
	 viewBox="310.4 179.8 300.2 170.3" style="enable-background:new 310.4 179.8 300.2 170.3;" xml:space="preserve">
<g>
	<g>
		<polygon style="fill:#1096EB;" points="339.1,243.6 310.4,243.6 341.9,331.7 356.3,291.5 		"/>
		<polygon style="fill:#1096EB;" points="417.4,179.8 373.2,225.8 384.9,225.8 344.1,339.5 372.9,339.5 413.6,225.8 424.3,225.8 		
			"/>
	</g>
	<g>
		<path d="M442.2,285l-13.3-37.9h5.4l10.8,32.8h0.1l10.9-32.8h5.3L447.9,285H442.2z"/>
		<path d="M483.2,284.9c-0.8,0.5-1.9,0.7-3.2,0.7c-1.2,0-2.1-0.3-2.8-1c-0.7-0.7-1-1.7-1-3.2c-1.2,1.5-2.7,2.6-4.3,3.2
			c-1.6,0.7-3.4,1-5.3,1c-1.2,0-2.4-0.1-3.5-0.4s-2.1-0.7-2.9-1.3c-0.8-0.6-1.5-1.4-1.9-2.4c-0.5-1-0.7-2.1-0.7-3.5
			c0-1.6,0.3-2.8,0.8-3.8s1.2-1.8,2.1-2.4s1.9-1.1,3-1.4s2.3-0.6,3.4-0.8c1.2-0.2,2.4-0.4,3.5-0.6c1.1-0.1,2.1-0.3,2.9-0.5
			s1.5-0.6,2-1s0.7-1.1,0.7-1.9c0-1-0.2-1.8-0.6-2.4s-0.8-1.1-1.4-1.4s-1.2-0.5-2-0.6c-0.7-0.1-1.4-0.2-2.1-0.2
			c-1.9,0-3.5,0.4-4.8,1.1s-2,2.1-2.1,4.1h-4.5c0.1-1.7,0.4-3.1,1.1-4.3c0.6-1.2,1.5-2.1,2.5-2.8c1.1-0.7,2.3-1.2,3.6-1.6
			s2.8-0.5,4.4-0.5c1.2,0,2.5,0.1,3.7,0.3c1.2,0.2,2.3,0.5,3.3,1.1c1,0.5,1.8,1.3,2.4,2.3s0.9,2.3,0.9,3.9v14.1
			c0,1.1,0.1,1.8,0.2,2.3s0.5,0.7,1.2,0.7c0.4,0,0.8-0.1,1.4-0.2L483.2,284.9L483.2,284.9z M475.9,270.8c-0.6,0.4-1.3,0.7-2.2,0.9
			c-0.9,0.2-1.9,0.4-2.9,0.5s-2,0.3-3.1,0.4c-1,0.2-1.9,0.4-2.8,0.8c-0.8,0.4-1.5,0.9-2,1.5c-0.5,0.7-0.8,1.5-0.8,2.7
			c0,0.7,0.1,1.4,0.5,1.9c0.3,0.5,0.7,0.9,1.2,1.2c0.5,0.3,1,0.5,1.7,0.7c0.6,0.1,1.3,0.2,2,0.2c1.5,0,2.8-0.2,3.8-0.6
			s1.9-0.9,2.6-1.5s1.2-1.3,1.5-2s0.5-1.4,0.5-2L475.9,270.8L475.9,270.8z"/>
		<path d="M489.4,247.1V285h-4.5v-37.9H489.4z"/>
		<path d="M512.1,285v-4.4H512c-1,1.7-2.2,2.9-3.7,3.7c-1.5,0.8-3.2,1.2-5.3,1.2c-1.8,0-3.3-0.2-4.5-0.7s-2.2-1.2-2.9-2
			c-0.7-0.9-1.3-1.9-1.6-3.2c-0.3-1.2-0.5-2.6-0.5-4.1v-18h4.5v18.6c0,1.7,0.5,3,1.5,4s2.4,1.5,4.1,1.5c1.4,0,2.6-0.2,3.6-0.6
			s1.8-1,2.5-1.8s1.2-1.7,1.5-2.7s0.5-2.2,0.5-3.4v-15.5h4.5V285H512.1z"/>
		<path d="M544.6,284.9c-0.8,0.5-1.9,0.7-3.2,0.7c-1.2,0-2.1-0.3-2.8-1s-1-1.7-1-3.2c-1.2,1.5-2.7,2.6-4.3,3.2c-1.6,0.7-3.4,1-5.3,1
			c-1.2,0-2.4-0.1-3.5-0.4s-2.1-0.7-2.9-1.3c-0.8-0.6-1.5-1.4-1.9-2.4c-0.5-1-0.7-2.1-0.7-3.5c0-1.6,0.3-2.8,0.8-3.8
			s1.2-1.8,2.1-2.4c0.9-0.6,1.9-1.1,3-1.4s2.3-0.6,3.4-0.8c1.2-0.2,2.4-0.4,3.5-0.6c1.1-0.1,2.1-0.3,2.9-0.5c0.8-0.2,1.5-0.6,2-1
			s0.7-1.1,0.7-1.9c0-1-0.2-1.8-0.6-2.4c-0.4-0.6-0.8-1.1-1.4-1.4c-0.6-0.3-1.2-0.5-2-0.6c-0.7-0.1-1.4-0.2-2.1-0.2
			c-1.9,0-3.5,0.4-4.8,1.1s-2,2.1-2.1,4.1h-4.5c0.1-1.7,0.4-3.1,1.1-4.3c0.6-1.2,1.5-2.1,2.5-2.8c1.1-0.7,2.3-1.2,3.6-1.6
			c1.4-0.3,2.8-0.5,4.4-0.5c1.2,0,2.5,0.1,3.7,0.3c1.2,0.2,2.3,0.5,3.3,1.1c1,0.5,1.8,1.3,2.4,2.3c0.6,1,0.9,2.3,0.9,3.9v14.1
			c0,1.1,0.1,1.8,0.2,2.3c0.1,0.5,0.5,0.7,1.2,0.7c0.4,0,0.8-0.1,1.4-0.2L544.6,284.9L544.6,284.9z M537.3,270.8
			c-0.6,0.4-1.3,0.7-2.2,0.9c-0.9,0.2-1.9,0.4-2.9,0.5s-2,0.3-3.1,0.4c-1,0.2-1.9,0.4-2.8,0.8c-0.8,0.4-1.5,0.9-2,1.5
			c-0.5,0.7-0.8,1.5-0.8,2.7c0,0.7,0.1,1.4,0.5,1.9c0.3,0.5,0.7,0.9,1.2,1.2c0.5,0.3,1,0.5,1.7,0.7c0.6,0.1,1.3,0.2,2,0.2
			c1.5,0,2.8-0.2,3.8-0.6c1.1-0.4,1.9-0.9,2.6-1.5c0.7-0.6,1.2-1.3,1.5-2s0.5-1.4,0.5-2V270.8z"/>
		<path d="M550.7,247.1V285h-4.5v-37.9H550.7z"/>
		<path d="M555.2,252.7v-5.5h4.5v5.5H555.2z M559.7,257.6V285h-4.5v-27.4H559.7z"/>
		<path d="M578.2,261.6h-15.5v-4H584v3.1L567.3,281h17.5v4h-23.1v-3.4L578.2,261.6z"/>
		<path d="M606,283.3c-2.1,1.6-4.6,2.3-7.7,2.3c-2.2,0-4.1-0.4-5.7-1.1c-1.6-0.7-3-1.7-4.1-3s-1.9-2.8-2.5-4.6
			c-0.5-1.8-0.9-3.7-0.9-5.8c0-2.1,0.3-4,1-5.7c0.6-1.7,1.5-3.2,2.7-4.5c1.1-1.3,2.5-2.3,4.1-3s3.3-1.1,5.2-1.1
			c2.4,0,4.5,0.5,6.1,1.5s2.9,2.3,3.9,3.8c1,1.6,1.6,3.3,2,5.1c0.4,1.8,0.5,3.6,0.5,5.3h-20.5c0,1.2,0.1,2.3,0.4,3.4
			c0.3,1.1,0.8,2,1.5,2.9c0.7,0.8,1.6,1.5,2.7,2c1.1,0.5,2.4,0.7,3.9,0.7c1.9,0,3.5-0.4,4.7-1.3s2-2.2,2.4-4h4.5
			C609.3,279.4,608,281.7,606,283.3z M604.9,265.6c-0.4-1-1-1.8-1.6-2.5s-1.5-1.2-2.4-1.6s-2-0.6-3.1-0.6c-1.2,0-2.2,0.2-3.2,0.6
			c-0.9,0.4-1.7,1-2.4,1.7s-1.2,1.5-1.6,2.5c-0.4,0.9-0.6,1.9-0.7,3h15.8C605.5,267.6,605.3,266.6,604.9,265.6z"/>
		<path d="M455.8,339c-2.2,0.9-4.4,1.3-6.6,1.3c-2.8,0-5.4-0.5-7.6-1.6c-2.2-1-4.1-2.4-5.7-4.2c-1.6-1.8-2.7-3.8-3.6-6.1
			c-0.8-2.3-1.2-4.7-1.2-7.2c0-2.8,0.4-5.4,1.1-7.9c0.8-2.5,1.9-4.7,3.4-6.6s3.4-3.4,5.6-4.5s4.9-1.7,7.9-1.7c2.1,0,4,0.2,5.8,0.7
			s3.4,1.2,4.9,2.3c1.4,1,2.6,2.3,3.6,3.9s1.6,3.5,2,5.7h-5c-0.2-1.4-0.7-2.7-1.4-3.7c-0.7-1-1.5-1.9-2.5-2.6s-2.1-1.2-3.4-1.5
			s-2.6-0.5-4-0.5c-2.3,0-4.3,0.5-5.9,1.4s-3,2.1-4,3.6s-1.8,3.2-2.3,5.1s-0.7,3.9-0.7,5.9s0.3,3.9,0.8,5.7c0.6,1.8,1.4,3.4,2.5,4.8
			s2.4,2.5,4.1,3.3c1.6,0.8,3.5,1.2,5.6,1.2c2,0,3.7-0.3,5.3-1c1.5-0.6,2.8-1.5,3.8-2.6s1.8-2.4,2.4-3.9c0.5-1.5,0.8-3.1,0.7-4.9
			h-12.1v-4.2h16.6v19.9h-3.2l-1.3-4.7C459.9,336.7,458,338.2,455.8,339z"/>
		<path d="M473.8,312.1v5.8h0.1c1.1-2.2,2.4-3.9,4-4.9c1.6-1.1,3.6-1.6,6-1.5v4.8c-1.8,0-3.3,0.2-4.6,0.7c-1.3,0.5-2.3,1.2-3.1,2.2
			c-0.8,1-1.3,2.1-1.7,3.5c-0.4,1.4-0.5,2.9-0.5,4.7v12.2h-4.5v-27.4h4.3V312.1z"/>
		<path d="M508.9,339.4c-0.8,0.5-1.9,0.7-3.2,0.7c-1.2,0-2.1-0.3-2.8-1c-0.7-0.7-1-1.7-1-3.2c-1.2,1.5-2.7,2.6-4.3,3.2
			c-1.6,0.7-3.4,1-5.3,1c-1.2,0-2.4-0.1-3.5-0.4s-2.1-0.7-2.9-1.3c-0.8-0.6-1.5-1.4-1.9-2.4c-0.5-1-0.7-2.1-0.7-3.5
			c0-1.6,0.3-2.8,0.8-3.8s1.2-1.8,2.1-2.4s1.9-1.1,3-1.4s2.3-0.6,3.4-0.8c1.2-0.2,2.4-0.4,3.5-0.6c1.1-0.1,2.1-0.3,2.9-0.5
			s1.5-0.6,2-1s0.7-1.1,0.7-1.9c0-1-0.2-1.8-0.6-2.4s-0.8-1.1-1.4-1.4s-1.2-0.5-2-0.6c-0.7-0.1-1.4-0.2-2.1-0.2
			c-1.9,0-3.5,0.4-4.8,1.1s-2,2.1-2.1,4.1h-4.5c0.1-1.7,0.4-3.1,1.1-4.3c0.6-1.2,1.5-2.1,2.5-2.8c1.1-0.7,2.3-1.2,3.6-1.6
			c1.4-0.3,2.8-0.5,4.4-0.5c1.2,0,2.5,0.1,3.7,0.3c1.2,0.2,2.3,0.5,3.3,1.1s1.8,1.3,2.4,2.3s0.9,2.3,0.9,3.9V333
			c0,1.1,0.1,1.8,0.2,2.3s0.5,0.7,1.2,0.7c0.4,0,0.8-0.1,1.4-0.2L508.9,339.4L508.9,339.4z M501.6,325.3c-0.6,0.4-1.3,0.7-2.2,0.9
			c-0.9,0.2-1.9,0.4-2.9,0.5s-2,0.3-3.1,0.4c-1,0.2-1.9,0.4-2.8,0.8c-0.8,0.4-1.5,0.9-2,1.5c-0.5,0.7-0.8,1.5-0.8,2.7
			c0,0.7,0.1,1.4,0.5,1.9c0.3,0.5,0.7,0.9,1.2,1.2c0.5,0.3,1,0.5,1.7,0.7c0.6,0.1,1.3,0.2,2,0.2c1.5,0,2.8-0.2,3.8-0.6
			c1.1-0.4,1.9-0.9,2.6-1.5s1.2-1.3,1.5-2s0.5-1.4,0.5-2L501.6,325.3L501.6,325.3z"/>
		<path d="M514.9,312.1v3.7h0.1c0.7-1.5,1.9-2.6,3.5-3.3c1.6-0.7,3.3-1,5.3-1c2.1,0,4,0.4,5.5,1.2c1.6,0.8,2.9,1.8,3.9,3.2
			c1,1.3,1.8,2.9,2.4,4.6c0.5,1.7,0.8,3.6,0.8,5.5s-0.3,3.8-0.8,5.5s-1.3,3.2-2.3,4.5s-2.4,2.3-3.9,3.1s-3.4,1.1-5.5,1.1
			c-0.7,0-1.4-0.1-2.3-0.2c-0.8-0.1-1.7-0.4-2.5-0.7c-0.8-0.3-1.6-0.8-2.3-1.3s-1.3-1.2-1.8-2h-0.1v14.1h-4.5v-37.9h4.5V312.1z
			 M531.1,321.8c-0.3-1.2-0.8-2.3-1.5-3.3s-1.6-1.7-2.7-2.3c-1.1-0.6-2.3-0.8-3.8-0.8s-2.8,0.3-3.9,0.9c-1.1,0.6-1.9,1.4-2.6,2.4
			c-0.7,1-1.2,2.1-1.5,3.3c-0.3,1.2-0.5,2.5-0.5,3.8s0.2,2.6,0.5,3.9s0.8,2.4,1.5,3.3c0.7,1,1.6,1.7,2.7,2.3c1.1,0.6,2.4,0.9,4,0.9
			s2.9-0.3,3.9-0.9s1.9-1.4,2.5-2.4s1.1-2.1,1.4-3.4c0.3-1.3,0.4-2.6,0.4-3.9C531.6,324.3,531.5,323,531.1,321.8z"/>
		<path d="M543.4,301.6v14.5h0.1c0.4-0.8,0.8-1.6,1.5-2.1s1.4-1.1,2.1-1.4c0.8-0.4,1.6-0.6,2.5-0.8c0.9-0.2,1.7-0.3,2.5-0.3
			c1.8,0,3.3,0.2,4.5,0.7s2.2,1.2,2.9,2.1s1.3,1.9,1.6,3.2c0.3,1.2,0.5,2.6,0.5,4.1v18h-4.5V321c0-1.7-0.5-3-1.5-4s-2.4-1.5-4.1-1.5
			c-1.4,0-2.6,0.2-3.6,0.6s-1.8,1-2.5,1.8s-1.2,1.7-1.5,2.7s-0.5,2.2-0.5,3.4v15.5h-4.5v-37.9L543.4,301.6L543.4,301.6z"/>
		<path d="M565.8,307.1v-5.5h4.5v5.5H565.8z M570.4,312.1v27.4h-4.5v-27.4H570.4z"/>
		<path d="M590.9,316.8c-1.1-1-2.7-1.4-4.6-1.4c-1.6,0-3,0.3-4.1,0.9s-2,1.4-2.6,2.4c-0.7,1-1.1,2.1-1.4,3.4c-0.3,1.3-0.4,2.6-0.4,4
			c0,1.3,0.1,2.5,0.5,3.7c0.3,1.2,0.8,2.3,1.4,3.2c0.6,0.9,1.5,1.7,2.5,2.3c1,0.6,2.2,0.8,3.7,0.8c2.2,0,4-0.6,5.2-1.8
			c1.3-1.2,2-2.8,2.3-4.9h4.6c-0.5,3.4-1.8,6-3.8,7.9c-2,1.8-4.8,2.8-8.3,2.8c-2.1,0-3.9-0.3-5.5-1s-3-1.6-4-2.9
			c-1.1-1.2-1.9-2.7-2.4-4.4c-0.5-1.7-0.8-3.6-0.8-5.6c0-2.1,0.3-4,0.8-5.8s1.3-3.3,2.4-4.7c1.1-1.3,2.4-2.4,4.1-3.1
			c1.6-0.8,3.5-1.1,5.7-1.1c1.6,0,3,0.2,4.4,0.6s2.6,0.9,3.6,1.7c1,0.8,1.9,1.8,2.6,2.9c0.7,1.2,1.1,2.6,1.3,4.2h-4.7
			C592.8,319.1,592.1,317.8,590.9,316.8z"/>
	</g>
</g>
</svg>
