<?xml version="1.0" encoding="iso-8859-1"?>
<!-- Generator: Adobe Illustrator 18.0.0, SVG Export Plug-In . SVG Version: 6.00 Build 0)  -->
<!DOCTYPE svg PUBLIC "-//W3C//DTD SVG 1.0//EN" "http://www.w3.org/TR/2001/REC-SVG-20010904/DTD/svg10.dtd">
<svg version="1.0" id="Layer_1" xmlns="http://www.w3.org/2000/svg" xmlns:xlink="http://www.w3.org/1999/xlink" x="0px" y="0px"
	 viewBox="0 0 500 500" enable-background="new 0 0 500 500" xml:space="preserve">
<g>
	<circle fill="#D8D8D8" cx="249.433" cy="250.176" r="250"/>
	<circle fill="#FFFFFF" cx="250.312" cy="250.926" r="238.623"/>
	<g>
		<path fill-rule="evenodd" clip-rule="evenodd" fill="#C21E54" d="M183.897,310.234c33.062,0,59.864-26.802,59.864-59.864
			c0-33.061-26.802-59.863-59.864-59.863s-59.864,26.802-59.864,59.863C124.034,283.432,150.836,310.234,183.897,310.234
			L183.897,310.234z"/>
		<polygon fill-rule="evenodd" clip-rule="evenodd" fill="#FFFFFF" points="198.475,271.435 186.076,271.435 186.076,224.584 
			181.48,224.584 181.48,276.062 186.076,276.062 186.076,276.03 198.475,276.03 198.475,271.435 		"/>
		<path fill-rule="evenodd" clip-rule="evenodd" fill="#FFFFFF" d="M229.416,252.285h-30.869v-4.595h35.393
			c0.047,0.89,0.07,1.78,0.07,2.68c0,27.677-22.436,50.113-50.113,50.113c-27.676,0-50.113-22.436-50.113-50.113
			c0-27.676,22.437-50.113,50.113-50.113c0.731,0,1.458,0.015,2.18,0.047l-0.006,4.563c-0.721-0.034-1.446-0.05-2.175-0.05
			c-25.158,0-45.554,20.395-45.554,45.553c0,25.159,20.396,45.554,45.554,45.554c24.472,0,44.437-19.297,45.508-43.504
			L229.416,252.285L229.416,252.285z"/>
		<path fill-rule="evenodd" clip-rule="evenodd" fill="#FFFFFF" d="M165.204,238.454c3.888,0,7.041-3.152,7.041-7.041
			c0-3.889-3.153-7.04-7.041-7.04c-3.889,0-7.041,3.152-7.041,7.04C158.164,235.302,161.315,238.454,165.204,238.454
			L165.204,238.454z"/>
		<polygon fill-rule="evenodd" clip-rule="evenodd" fill="#808083" points="273.487,279.754 316.261,279.754 316.261,266.837 
			290.444,266.837 289.195,266.837 289.195,265.586 289.195,220.575 273.487,220.575 273.487,279.754 		"/>
		<path fill-rule="evenodd" clip-rule="evenodd" fill="#808083" d="M367.946,224.743c-4.907-3.799-11.219-5.726-18.755-5.726
			c-8.949,0-16.424,2.747-21.621,7.942c-5.427,5.429-8.298,13.425-8.298,23.125c0,10.362,3.037,19.106,8.55,24.618
			c4.325,4.325,10.097,6.612,16.694,6.612c14.486,0,17.82-8.684,17.82-8.684v3.99v3.135h13.082v-33.424h-26.042v10.457h10.478h1.51
			c0,0,0.116,13.166-12.255,13.166c-3.143,0-5.943-1.139-8.099-3.295c-3.356-3.354-5.129-9.002-5.129-16.33
			c0-12.135,4.823-19.378,12.899-19.378c5.044,0,8.835,3.098,9.807,7.792h16.662C374.384,231.922,372.513,228.366,367.946,224.743
			L367.946,224.743z"/>
	</g>
</g>
</svg>
