<?xml version="1.0" encoding="utf-8"?>
<!-- Generator: Adobe Illustrator 18.1.0, SVG Export Plug-In . SVG Version: 6.00 Build 0)  -->
<!DOCTYPE svg PUBLIC "-//W3C//DTD SVG 1.1//EN" "http://www.w3.org/Graphics/SVG/1.1/DTD/svg11.dtd">
<svg version="1.1" id="Layer_1" xmlns="http://www.w3.org/2000/svg" xmlns:xlink="http://www.w3.org/1999/xlink" x="0px" y="0px"
	 viewBox="0 0 500 500" enable-background="new 0 0 500 500" xml:space="preserve">
<g>
	<circle fill="#0079BB" cx="250" cy="250" r="250"/>
	<g>
		<path fill-rule="evenodd" clip-rule="evenodd" fill="#FFFFFF" d="M110.1,266.2v7.5c0,13.2,5.2,24.9,10.5,32.8
			c6,9,14,14.3,23.2,20.1c7.2,4.6,21.9,9.6,31.8,11.6c12.2,2.4,24.5,4.2,39.1,4.2h7.2c45,0,90.8-13.1,120.3-28.7v-21.2
			c-8,4.2-17.8,9.8-27,12.6c-2,0.6-5,1.9-7.1,2.7c-2.5,0.9-5,1.5-7.5,2.5c-3.7,1.5-11.3,3.5-15.4,4.4c-5.4,1.2-10.5,2.6-16.1,3.7
			c-5.8,1.2-11,1.8-17,2.8c-5.6,1-12.2,1.3-18.1,1.7c-6.2,0.4-12.6,0.7-19.3,0.7h-1.4c-23.9,0-46.7-3.8-62.6-11.7
			c-15.3-7.7-29.7-21.9-29.7-44.7v-2.1c0-10.7,3.3-19,6.4-26.7c1.4-3.4,3.9-7.8,5.9-10.7c1.2-1.8,2.2-3.2,3.5-4.9
			c1.1-1.6,2.9-3.2,3.8-4.6V211c-3.7,2.5-7.6,7.4-10.8,10.7c-3.6,3.7-6.2,7.9-9.2,12.3C116.3,240.4,110.1,255.6,110.1,266.2
			L110.1,266.2z"/>
		<path fill-rule="evenodd" clip-rule="evenodd" fill="#FFFFFF" d="M389.9,225.9v-6.8c-0.1-0.1-1.1-7.6-1.3-8.5
			c-0.4-2.4-1.3-5.6-2.2-7.6c-2.1-5.2-3.9-8.7-7-12.8c-5.8-7.6-12.8-13.2-21.4-18c-15.9-8.8-40.2-14.1-64.9-14.1H291
			c-25.5,0-46.6,4.2-66.6,9.9c-5.3,1.5-9.6,3-14.5,4.7c-4.1,1.3-10,3.6-13.7,5.4c-4.4,2.2-8.7,4-13,6.1c-2.3,1.1-10.9,6.4-12.4,6.8
			v5.6c1.9-0.4,9-4.4,11.7-5.5c3.8-1.6,8.5-4,12.3-5.2c1.7-0.5,4.6-1.6,6.3-2.3c2.1-0.9,4.2-1.4,6.5-2.2c4.2-1.4,8.9-3,13.4-4.1
			c9.6-2.4,18-4.4,28.5-6.2c8.9-1.6,21.5-3.2,31.6-3.2h10.5c20.4,0,42.5,4.7,55.6,12c7.9,4.4,13.3,8.1,18.8,15
			c4.1,5.2,9.3,15.6,9.3,24.8v4c0,9.7-5,20.1-9.2,25.7c-2.5,3.4-5.1,6.5-8.2,9.3c-1.5,1.4-8.6,7-10.3,7.4v15.4
			c3.3-0.3,13.2-6.6,15.7-8.5c4.7-3.5,8.9-7.5,12.5-12c4.1-5.2,6.3-8.9,9.2-15.3c1.3-2.9,2.1-5.8,3.1-9
			C388.5,235.2,389.8,226,389.9,225.9L389.9,225.9z"/>
		<path fill-rule="evenodd" clip-rule="evenodd" fill="#FFFFFF" d="M264.2,251.8v2.8c0,16,9.8,27.7,25.9,27.7h3
			c4.9,0,8.3-1.2,11.8-2.7c3.8-1.6,5.7-4.3,8.5-6.3l-9.2-8.6c-1.8,2.7-6.8,5.4-11.4,5.4h-2.6c-6.1,0-11.7-5.2-11.7-11v-1.6H315v-6.3
			c0-7.4-2.7-14.6-5.9-18.8c-3.1-4-9.3-8.7-16.3-8.7h-4.4c-7.3,0-14,4.6-17.5,8.6C267.3,236.4,264.2,244.1,264.2,251.8L264.2,251.8z
			 M278.7,246.2v1.6h21.9v-1.2c0-5.8-4.2-11-10.3-11h-1.2C283.8,235.7,278.7,240.9,278.7,246.2L278.7,246.2z"/>
		<path fill-rule="evenodd" clip-rule="evenodd" fill="#FFFFFF" d="M178.2,281.4h14.2v-45h12.8c2.8,0,5.1,2.2,5.1,4.9v40.1h14.5
			v-39.9c0-9.5-6.4-16.8-15.9-16.8h-30.8V281.4L178.2,281.4z"/>
		<path fill-rule="evenodd" clip-rule="evenodd" fill="#FFFFFF" d="M235.3,264.6c0,9.6,6.2,16.8,15.6,16.8h9.8v-12.1h-7.2
			c-2.1,0-3.7-2.5-3.7-4.7v-28.2h11v-11.7h-11v-15.6h-14.5V264.6L235.3,264.6z"/>
		<path fill-rule="evenodd" clip-rule="evenodd" fill="#FFFFFF" d="M323.4,267.6c0,3.9,2.3,7.4,4.4,9.4c1.1,1.1,2.8,2,4.4,2.6
			c2.2,0.9,3.4,0.8,5.7,1.3v-79.7h-14.5V267.6L323.4,267.6z"/>
		<path fill-rule="evenodd" clip-rule="evenodd" fill="#FFFFFF" d="M150.6,238l0.1,28.2c0,9.6,5.6,15.6,14.7,15.9v-57.3l-14.4,0
			L150.6,238L150.6,238z"/>
		<polygon fill-rule="evenodd" clip-rule="evenodd" fill="#FFFFFF" points="150.9,216.8 165.4,216.8 165.4,203.1 150.9,203.1 
			150.9,216.8 		"/>
		<path fill-rule="evenodd" clip-rule="evenodd" fill="#FFFFFF" d="M353.5,201.1c1,0,1.9,0.2,2.8,0.7c0.9,0.5,1.6,1.2,2.2,2.1
			c0.5,0.9,0.8,1.9,0.8,2.9c0,1-0.3,2-0.8,2.9c-0.5,0.9-1.2,1.6-2.1,2.1c-0.9,0.5-1.9,0.8-2.9,0.8c-1,0-2-0.3-2.9-0.8
			c-0.9-0.5-1.6-1.2-2.1-2.1c-0.5-0.9-0.8-1.9-0.8-2.9c0-1,0.3-2,0.8-2.9c0.5-0.9,1.2-1.6,2.2-2.1
			C351.6,201.4,352.5,201.1,353.5,201.1L353.5,201.1z M353.5,202.1c-0.8,0-1.6,0.2-2.4,0.6c-0.8,0.4-1.4,1-1.8,1.8
			c-0.4,0.8-0.7,1.6-0.7,2.4c0,0.8,0.2,1.6,0.6,2.4c0.4,0.8,1,1.4,1.8,1.8c0.8,0.4,1.6,0.6,2.4,0.6c0.8,0,1.6-0.2,2.4-0.6
			c0.8-0.4,1.4-1,1.8-1.8c0.4-0.8,0.6-1.6,0.6-2.4c0-0.8-0.2-1.6-0.6-2.4c-0.4-0.8-1-1.4-1.8-1.8
			C355.1,202.3,354.3,202.1,353.5,202.1L353.5,202.1z M350.9,210.1v-6.2h2.1c0.7,0,1.3,0.1,1.6,0.2c0.3,0.1,0.6,0.3,0.8,0.6
			c0.2,0.3,0.3,0.6,0.3,0.9c0,0.5-0.2,0.9-0.5,1.2c-0.3,0.3-0.8,0.5-1.3,0.6c0.2,0.1,0.4,0.2,0.5,0.3c0.3,0.2,0.6,0.7,0.9,1.2
			l0.8,1.2h-1.2l-0.6-1c-0.4-0.8-0.8-1.3-1-1.4c-0.2-0.1-0.5-0.2-0.8-0.2h-0.6v2.6H350.9L350.9,210.1z M351.9,206.6h1.2
			c0.6,0,1-0.1,1.2-0.3c0.2-0.2,0.3-0.4,0.3-0.7c0-0.2-0.1-0.3-0.2-0.5c-0.1-0.1-0.2-0.3-0.4-0.3c-0.2-0.1-0.5-0.1-1-0.1h-1.1V206.6
			L351.9,206.6z"/>
	</g>
</g>
</svg>
