<?xml version="1.0" encoding="iso-8859-1"?>
<!-- Generator: Adobe Illustrator 18.0.0, SVG Export Plug-In . SVG Version: 6.00 Build 0)  -->
<!DOCTYPE svg PUBLIC "-//W3C//DTD SVG 1.0//EN" "http://www.w3.org/TR/2001/REC-SVG-20010904/DTD/svg10.dtd">
<svg version="1.0" id="Layer_1" xmlns="http://www.w3.org/2000/svg" xmlns:xlink="http://www.w3.org/1999/xlink" x="0px" y="0px"
	 viewBox="0 0 500 500" enable-background="new 0 0 500 500" xml:space="preserve">
<g>
	
		<linearGradient id="SVGID_1_" gradientUnits="userSpaceOnUse" x1="-4247.29" y1="6932.394" x2="-3887.6196" y2="6585.0645" gradientTransform="matrix(1 0 0 1 4317.4507 -6508.5527)">
		<stop  offset="0" style="stop-color:#1E0A40"/>
		<stop  offset="0.1001" style="stop-color:#1E0A40"/>
		<stop  offset="0.2048" style="stop-color:#1E0A40"/>
		<stop  offset="0.3" style="stop-color:#261651"/>
		<stop  offset="0.4" style="stop-color:#352267"/>
		<stop  offset="0.5" style="stop-color:#412977"/>
		<stop  offset="0.6" style="stop-color:#4C2D8B"/>
		<stop  offset="0.7003" style="stop-color:#533392"/>
		<stop  offset="0.8031" style="stop-color:#573F97"/>
		<stop  offset="0.9" style="stop-color:#584299"/>
		<stop  offset="1" style="stop-color:#5D4A9D"/>
	</linearGradient>
	<circle fill="url(#SVGID_1_)" cx="249.996" cy="250.176" r="250"/>
	
		<linearGradient id="SVGID_2_" gradientUnits="userSpaceOnUse" x1="-3983.678" y1="6528.5542" x2="-4151.2314" y2="6988.9043" gradientTransform="matrix(1 0 0 1 4317.4507 -6508.5527)">
		<stop  offset="0" style="stop-color:#1F0E46"/>
		<stop  offset="0.1001" style="stop-color:#301E5E"/>
		<stop  offset="0.2048" style="stop-color:#372367"/>
		<stop  offset="0.3" style="stop-color:#432A7C"/>
		<stop  offset="0.4" style="stop-color:#4C2D8A"/>
		<stop  offset="0.5" style="stop-color:#543693"/>
		<stop  offset="0.6" style="stop-color:#573F98"/>
		<stop  offset="0.7003" style="stop-color:#533392"/>
		<stop  offset="0.8031" style="stop-color:#573F97"/>
		<stop  offset="0.9" style="stop-color:#584299"/>
		<stop  offset="1" style="stop-color:#5D4A9D"/>
	</linearGradient>
	<circle fill="url(#SVGID_2_)" cx="249.996" cy="250.176" r="244.881"/>
	<circle fill="#FFFFFF" cx="249.996" cy="249.034" r="238.623"/>
	<g id="layer1" transform="translate(1259.5404,-281.52527)" inkscape:label="Layer 1" inkscape:groupmode="layer">
		
			<linearGradient id="path3223_1_" gradientUnits="userSpaceOnUse" x1="-8252.7246" y1="-11986.25" x2="-8237.9854" y2="-11904.8584" gradientTransform="matrix(0.6099 0 0 -0.6099 4167.7207 -6759.3633)">
			<stop  offset="0" style="stop-color:#220D45"/>
			<stop  offset="0.5942" style="stop-color:#462B7E"/>
			<stop  offset="1" style="stop-color:#543995"/>
		</linearGradient>
		<path id="path3223" inkscape:connector-curvature="0" sodipodi:nodetypes="ccccccc" fill="url(#path3223_1_)" d="
			M-857.384,495.914c2.395,0.401,3.995,1.867,3.995,4.391c0,0.835-0.344,2.012-0.574,3.006c-1.605,7.075-7.873,32.072-10.511,48.756
			l-2.428-2.428l7.728-51.322L-857.384,495.914z"/>
		<path id="path3201" inkscape:connector-curvature="0" sodipodi:nodetypes="cccc" fill="#604D9F" d="M-1013.572,502.706
			c-3.235,0.775-6.411,0.753-9.533,0l4.957,5.148L-1013.572,502.706z"/>
		<path id="path3193" inkscape:connector-curvature="0" sodipodi:nodetypes="cccc" fill="#604D9F" d="M-1063.126,502.706
			c3.235,0.775,6.411,0.753,9.533,0l-4.957,5.148L-1063.126,502.706z"/>
		
			<linearGradient id="path3181_1_" gradientUnits="userSpaceOnUse" x1="-8629.2148" y1="-11911.0381" x2="-8585.5166" y2="-12000.1924" gradientTransform="matrix(0.6099 0 0 -0.6099 4167.7207 -6759.3633)">
			<stop  offset="0" style="stop-color:#573F98"/>
			<stop  offset="1" style="stop-color:#543693"/>
		</linearGradient>
		<path id="path3181" inkscape:connector-curvature="0" sodipodi:nodetypes="ccccc" fill="url(#path3181_1_)" d="M-1091.106,502.686
			c7.31,18.5,18.814,46.503,24.546,57.205l-8.486-2.593l-20.997-52.51L-1091.106,502.686z"/>
		<path id="path3175" inkscape:connector-curvature="0" sodipodi:nodetypes="cccc" fill="#604D9F" d="M-1097.753,502.684
			c2.335,0.782,4.271,0.83,6.648,0l-4.725,2.902L-1097.753,502.684z"/>
		
			<linearGradient id="path3177_1_" gradientUnits="userSpaceOnUse" x1="-8615.1299" y1="-11956.4062" x2="-8609.4375" y2="-11954.2295" gradientTransform="matrix(0.6099 0 0 -0.6099 4167.7207 -6759.3633)">
			<stop  offset="0" style="stop-color:#2C1A58"/>
			<stop  offset="1" style="stop-color:#220E47"/>
		</linearGradient>
		<path id="path3177" inkscape:connector-curvature="0" sodipodi:nodetypes="cccccc" fill="url(#path3177_1_)" d="
			M-1094.396,504.703l21.395,52.474c-1.266,1.371-1.83,2.09-3.061,2.731c-6.201-15.972-12.861-31.949-18.503-47.715l-2.785-4.722
			L-1094.396,504.703z"/>
		
			<linearGradient id="path3173_1_" gradientUnits="userSpaceOnUse" x1="-8662.9473" y1="-11998.8086" x2="-8632.876" y2="-11921.0859" gradientTransform="matrix(0.6099 0 0 -0.6099 4167.7207 -6759.3633)">
			<stop  offset="0" style="stop-color:#22134E"/>
			<stop  offset="1" style="stop-color:#3E2979"/>
		</linearGradient>
		<path id="path3173" inkscape:connector-curvature="0" sodipodi:nodetypes="cccccc" fill="url(#path3173_1_)" d="
			M-1112.797,559.889l-6.316-2.237l22.241-52.181l2.479-0.766v7.725C-1097.852,522.408-1106.629,544.302-1112.797,559.889
			L-1112.797,559.889z"/>
		<path id="path3167" inkscape:connector-curvature="0" sodipodi:nodetypes="ccccc" fill="#604D9F" d="M-1118.036,495.08
			l2.097,4.766l5.338-2.479l2.171-2.288C-1111.863,495.859-1114.96,495.885-1118.036,495.08z"/>
		
			<linearGradient id="path3165_1_" gradientUnits="userSpaceOnUse" x1="-8678.3779" y1="-11927.0586" x2="-8672.5176" y2="-11930.5508" gradientTransform="matrix(0.6099 0 0 -0.6099 4167.7207 -6759.3633)">
			<stop  offset="0" style="stop-color:#1E0A40"/>
			<stop  offset="1" style="stop-color:#22144F"/>
		</linearGradient>
		<path id="path3165" inkscape:connector-curvature="0" sodipodi:nodetypes="ccccccc" fill="url(#path3165_1_)" d="
			M-1133.097,536.643l-3.622,1.335l-2.288-4.004l22.688-36.225l1.622-0.556c2.239-0.506,4.681-1.049,6.271-2.114
			C-1112.029,499.947-1125.149,522.698-1133.097,536.643L-1133.097,536.643z"/>
		
			<linearGradient id="path3163_1_" gradientUnits="userSpaceOnUse" x1="-8666.3955" y1="-11894.4629" x2="-8697.7041" y2="-11959.9268" gradientTransform="matrix(0.6099 0 0 -0.6099 4167.7207 -6759.3633)">
			<stop  offset="0" style="stop-color:#573F98"/>
			<stop  offset="1" style="stop-color:#4B2C83"/>
		</linearGradient>
		<path id="path3163" inkscape:connector-curvature="0" sodipodi:nodetypes="ccccccc" fill="url(#path3163_1_)" d="
			M-1138.054,536.071l0.953-0.953l22.445-37.932l-3.379-2.105c-2.71,5.047-12.704,21.381-19.066,31.84l-3.051,5.72
			L-1138.054,536.071z"/>
		
			<linearGradient id="path3161_1_" gradientUnits="userSpaceOnUse" x1="-8730.1484" y1="-11895.5176" x2="-8699.0127" y2="-11960.5127" gradientTransform="matrix(0.6099 0 0 -0.6099 4167.7207 -6759.3633)">
			<stop  offset="0" style="stop-color:#553995"/>
			<stop  offset="1" style="stop-color:#573F98"/>
		</linearGradient>
		<path id="path3161" inkscape:connector-curvature="0" sodipodi:nodetypes="cccccc" fill="url(#path3161_1_)" d="M-1156.167,495.08
			c4.976,8.818,12.614,21.154,19.066,31.84v8.198l-1.525,1.525l-22.307-39.656L-1156.167,495.08z"/>
		<path id="path3159" inkscape:connector-curvature="0" sodipodi:nodetypes="ccccc" fill="#604D9F" d="M-1159.844,497.478
			l3.677-2.398c-3.945,0.841-5.596,0.895-9.533,0l1.525,1.716L-1159.844,497.478z"/>
		
			<linearGradient id="path3157_1_" gradientUnits="userSpaceOnUse" x1="-8724.6494" y1="-11930.6279" x2="-8719.0215" y2="-11926.8828" gradientTransform="matrix(0.6099 0 0 -0.6099 4167.7207 -6759.3633)">
			<stop  offset="0" style="stop-color:#2A1B5A;stop-opacity:0.9804"/>
			<stop  offset="0.3177" style="stop-color:#2D1B5A"/>
			<stop  offset="0.5976" style="stop-color:#291754"/>
			<stop  offset="0.8088" style="stop-color:#25134D"/>
			<stop  offset="1" style="stop-color:#231049"/>
		</linearGradient>
		<path id="path3157" inkscape:connector-curvature="0" sodipodi:nodetypes="cccccc" fill="url(#path3157_1_)" d="
			M-1137.101,535.118l-1.716,2.479l-2.288-0.953c-4.26-7.362-16.781-29.789-24.595-41.563c1.584,1.148,3.724,1.778,6.195,2.179
			L-1137.101,535.118z"/>
		
			<linearGradient id="path3155_1_" gradientUnits="userSpaceOnUse" x1="-8699.3301" y1="-11960.125" x2="-8692.582" y2="-12013.2812" gradientTransform="matrix(0.6099 0 0 -0.6099 4167.7207 -6759.3633)">
			<stop  offset="0" style="stop-color:#573F98"/>
			<stop  offset="1" style="stop-color:#573A96"/>
		</linearGradient>
		<path id="path3155" inkscape:connector-curvature="0" fill="url(#path3155_1_)" d="M-1132.525,567.338l-6.482-3.05l0.572-27.073
			l1.335-2.097l4.004,1.525L-1132.525,567.338z"/>
		
			<linearGradient id="path3153_1_" gradientUnits="userSpaceOnUse" x1="-8701.6064" y1="-11960.3799" x2="-8701.6064" y2="-12012.9775" gradientTransform="matrix(0.6099 0 0 -0.6099 4167.7207 -6759.3633)">
			<stop  offset="0" style="stop-color:#220D45"/>
			<stop  offset="0.25" style="stop-color:#26124D"/>
			<stop  offset="0.5" style="stop-color:#2D1B59"/>
			<stop  offset="0.7485" style="stop-color:#39256C"/>
			<stop  offset="1" style="stop-color:#422B80"/>
		</linearGradient>
		<path id="path3153" inkscape:connector-curvature="0" sodipodi:nodetypes="ccccc" fill="url(#path3153_1_)" d="M-1137.101,565.242
			l-4.576,2.097l0.572-30.696l4.004-1.525V565.242z"/>
		
			<linearGradient id="path3171_1_" gradientUnits="userSpaceOnUse" x1="-8672.3066" y1="-12000.0352" x2="-8627.5557" y2="-11910.4443" gradientTransform="matrix(0.6099 0 0 -0.6099 4167.7207 -6759.3633)">
			<stop  offset="0" style="stop-color:#512E90"/>
			<stop  offset="1" style="stop-color:#563A96"/>
		</linearGradient>
		<path id="path3171" inkscape:connector-curvature="0" sodipodi:nodetypes="cccccc" fill="url(#path3171_1_)" d="M-1122.23,559.903
			c7.954-16.214,16.799-37.957,24.477-57.222l3.359,2.024l-21.716,53.121l-4.404,1.505L-1122.23,559.903z"/>
		<path id="path3179" inkscape:connector-curvature="0" sodipodi:nodetypes="ccccc" fill="#210D45" d="M-1073.227,557.082
			l6.675,2.811c-2.561-0.646-6.027-0.893-9.51,0.016l1.303-3.21L-1073.227,557.082z"/>
		
			<linearGradient id="path3185_1_" gradientUnits="userSpaceOnUse" x1="-8652.1006" y1="-11969.2012" x2="-8603.6309" y2="-11969.2012" gradientTransform="matrix(0.6099 0 0 -0.6099 4167.7207 -6759.3633)">
			<stop  offset="0" style="stop-color:#604D9F"/>
			<stop  offset="0.506" style="stop-color:#604D9F"/>
			<stop  offset="1" style="stop-color:#604D9F"/>
		</linearGradient>
		<path id="path3185" inkscape:connector-curvature="0" sodipodi:nodetypes="ccccccc" fill="url(#path3185_1_)" d="
			M-1109.263,541.146l4.693-2.014c6.76,0.238,13.521,0.234,20.281,0l4.761,2.073l-4.432,0.969h-21.941L-1109.263,541.146z"/>
		<path id="path3183" inkscape:connector-curvature="0" sodipodi:nodetypes="ccccc" fill="#210D45" d="M-1106.137,543.126
			l-3.151-1.98c9.902-0.151,19.818-0.139,29.752,0.059l-3.151,1.921C-1090.504,542.872-1098.321,542.903-1106.137,543.126z"/>
		
			<linearGradient id="path3191_1_" gradientUnits="userSpaceOnUse" x1="-8568.8564" y1="-11953.874" x2="-8560.9824" y2="-11953.874" gradientTransform="matrix(0.6099 0 0 -0.6099 4167.7207 -6759.3633)">
			<stop  offset="0" style="stop-color:#5A449A"/>
			<stop  offset="1" style="stop-color:#533392"/>
		</linearGradient>
		<path id="path3191" inkscape:connector-curvature="0" sodipodi:nodetypes="cccccc" fill="url(#path3191_1_)" d="
			M-1053.594,559.903l-6.673-2.288v-51.287l1.907-0.953l4.766-2.669C-1054.583,521.738-1054.604,540.804-1053.594,559.903z"/>
		
			<linearGradient id="path3189_1_" gradientUnits="userSpaceOnUse" x1="-8576.4922" y1="-11953.874" x2="-8568.6768" y2="-11953.874" gradientTransform="matrix(0.6099 0 0 -0.6099 4167.7207 -6759.3633)">
			<stop  offset="0" style="stop-color:#3D2A7A"/>
			<stop  offset="0.5" style="stop-color:#36246A"/>
			<stop  offset="1" style="stop-color:#271855"/>
		</linearGradient>
		<path id="path3189" inkscape:connector-curvature="0" sodipodi:nodetypes="cccccc" fill="url(#path3189_1_)" d="M-1058.36,557.234
			v1.335l-4.767,1.335c0.758-19.036,0.83-38.098,0-57.197l4.767,2.669V557.234z"/>
		
			<linearGradient id="path3199_1_" gradientUnits="userSpaceOnUse" x1="-8511.0859" y1="-11953.874" x2="-8502.9922" y2="-11953.874" gradientTransform="matrix(0.6099 0 0 -0.6099 4167.7207 -6759.3633)">
			<stop  offset="0" style="stop-color:#442C82"/>
			<stop  offset="1" style="stop-color:#241550"/>
		</linearGradient>
		<path id="path3199" inkscape:connector-curvature="0" sodipodi:nodetypes="cccccc" fill="url(#path3199_1_)" d="
			M-1023.105,559.903l6.673-2.288v-51.287l-1.907-0.953l-4.767-2.669C-1022.116,521.738-1022.094,540.804-1023.105,559.903z"/>
		
			<linearGradient id="path3205_1_" gradientUnits="userSpaceOnUse" x1="-8568.7188" y1="-11953.1895" x2="-8503.1309" y2="-11953.1895" gradientTransform="matrix(0.6099 0 0 -0.6099 4167.7207 -6759.3633)">
			<stop  offset="0" style="stop-color:#604D9F"/>
			<stop  offset="0.5" style="stop-color:#604D9F"/>
			<stop  offset="1" style="stop-color:#604D9F"/>
		</linearGradient>
		<path id="path3205" inkscape:connector-curvature="0" sodipodi:nodetypes="ccccccc" fill="url(#path3205_1_)" d="
			M-1058.341,531.186l4.007-1.786c10.647,0.268,21.307,0.248,31.976,0l4.019,1.786l-4.971,1.188h-31.058L-1058.341,531.186z"/>
		
			<linearGradient id="path3207_1_" gradientUnits="userSpaceOnUse" x1="-5282.2153" y1="7062.5547" x2="-5312.9517" y2="7017.2808" gradientTransform="matrix(1 0 0 1 4317.4507 -6508.5527)">
			<stop  offset="0" style="stop-color:#1E0C44"/>
			<stop  offset="0.1001" style="stop-color:#322062"/>
			<stop  offset="0.2048" style="stop-color:#382369"/>
			<stop  offset="0.3" style="stop-color:#3F2874"/>
			<stop  offset="0.4" style="stop-color:#402874"/>
			<stop  offset="0.5" style="stop-color:#4C2D8A"/>
			<stop  offset="0.6" style="stop-color:#533593"/>
			<stop  offset="0.7003" style="stop-color:#573E97"/>
			<stop  offset="0.8031" style="stop-color:#573F97"/>
			<stop  offset="0.9" style="stop-color:#584299"/>
			<stop  offset="1" style="stop-color:#5B469B"/>
		</linearGradient>
		<path id="path3207" inkscape:connector-curvature="0" fill="url(#path3207_1_)" d="M-979.923,502.685
			c-18.725,0-28.068,11.707-28.068,28.729c0,21.32,14.142,28.706,27.824,28.706c16.251,0,27.902-9.144,27.902-28.652
			C-952.266,512.693-963.293,502.685-979.923,502.685L-979.923,502.685z M-980.483,505.402c0.176-0.004,0.353,0,0.53,0
			c12.367,0,21.449,8.423,21.449,26.025c0,17.579-9.07,26.001-21.425,26.001c-13.48,0-21.401-9.66-21.401-25.953
			C-1001.33,513.046-991.57,505.629-980.483,505.402z"/>
		
			<linearGradient id="path3209_1_" gradientUnits="userSpaceOnUse" x1="-5316.7485" y1="7015.79" x2="-5278.3442" y2="7063.8672" gradientTransform="matrix(1 0 0 1 4317.4507 -6508.5527)">
			<stop  offset="0" style="stop-color:#1E0A40"/>
			<stop  offset="0.1001" style="stop-color:#1E0A40"/>
			<stop  offset="0.2048" style="stop-color:#1E0A40"/>
			<stop  offset="0.3" style="stop-color:#261651"/>
			<stop  offset="0.4" style="stop-color:#352267"/>
			<stop  offset="0.5" style="stop-color:#412977"/>
			<stop  offset="0.6" style="stop-color:#4C2D8B"/>
			<stop  offset="0.7003" style="stop-color:#533392"/>
			<stop  offset="0.8031" style="stop-color:#573F97"/>
			<stop  offset="0.9" style="stop-color:#584299"/>
			<stop  offset="1" style="stop-color:#5D4A9D"/>
		</linearGradient>
		<path id="path3209" inkscape:connector-curvature="0" fill="url(#path3209_1_)" d="M-979.988,501.934
			c-20.223,0-30.833,12.822-30.833,29.444c0,18.194,11.583,29.29,30.803,29.29c20.78,0,30.928-12.506,30.928-29.099
			C-949.09,513.068-961.21,501.934-979.988,501.934z M-979.929,503.829c15.967,0,26.555,9.606,26.555,27.633
			c0,18.732-11.189,27.514-26.793,27.514c-13.137,0-26.716-7.091-26.716-27.562C-1006.883,515.069-997.908,503.829-979.929,503.829
			L-979.929,503.829z"/>
		
			<linearGradient id="path3213_1_" gradientUnits="userSpaceOnUse" x1="-5213.312" y1="7067.0659" x2="-5241.9927" y2="7012.8945" gradientTransform="matrix(1 0 0 1 4317.4507 -6508.5527)">
			<stop  offset="0" style="stop-color:#1F0E46"/>
			<stop  offset="0.1001" style="stop-color:#301E5E"/>
			<stop  offset="0.2048" style="stop-color:#372367"/>
			<stop  offset="0.3" style="stop-color:#432A7C"/>
			<stop  offset="0.4" style="stop-color:#4C2D8A"/>
			<stop  offset="0.5" style="stop-color:#543693"/>
			<stop  offset="0.6" style="stop-color:#573F98"/>
			<stop  offset="0.7003" style="stop-color:#533392"/>
			<stop  offset="0.8031" style="stop-color:#573F97"/>
			<stop  offset="0.9" style="stop-color:#584299"/>
			<stop  offset="1" style="stop-color:#5D4A9D"/>
		</linearGradient>
		<path id="path3213" inkscape:connector-curvature="0" fill="url(#path3213_1_)" d="M-910.047,499.759
			c-19.004,0-32.024,10.744-32.024,31.685c0,20.543,12.113,32.018,32.102,32.018c15.139,0,31.727-7.776,31.727-31.726
			C-878.243,505.887-896.361,499.759-910.047,499.759z M-910.148,502.047c15.123,0,26.263,9.187,26.263,29.451
			c0,22.027-13.475,29.17-26.239,29.17c-13.637,0-26.06-8.003-26.06-29.606C-936.185,508.672-922.415,502.047-910.148,502.047z"/>
		
			<linearGradient id="path3215_1_" gradientUnits="userSpaceOnUse" x1="-5245.9648" y1="7010.6245" x2="-5209.5576" y2="7068.5879" gradientTransform="matrix(1 0 0 1 4317.4507 -6508.5527)">
			<stop  offset="0" style="stop-color:#1E0A40"/>
			<stop  offset="0.1001" style="stop-color:#1E0A40"/>
			<stop  offset="0.2048" style="stop-color:#1E0A40"/>
			<stop  offset="0.3" style="stop-color:#261651"/>
			<stop  offset="0.4" style="stop-color:#352267"/>
			<stop  offset="0.5" style="stop-color:#412977"/>
			<stop  offset="0.6" style="stop-color:#4C2D8B"/>
			<stop  offset="0.7003" style="stop-color:#533392"/>
			<stop  offset="0.8031" style="stop-color:#573F97"/>
			<stop  offset="0.9" style="stop-color:#584299"/>
			<stop  offset="1" style="stop-color:#5D4A9D"/>
		</linearGradient>
		<path id="path3215" inkscape:connector-curvature="0" fill="url(#path3215_1_)" d="M-910.172,498.49
			c-20.139,0-35.534,11.435-35.534,32.698c0,17.518,10.24,32.936,35.7,32.936c21.555,0,35.629-11.85,35.629-32.626
			C-874.377,511.906-887.505,498.49-910.172,498.49L-910.172,498.49z M-910.047,500.623c13.314,0,30.94,5.967,30.94,31.113
			c0,23.3-16.141,30.862-30.869,30.862c-19.445,0-31.226-11.164-31.226-31.148C-941.202,511.079-928.534,500.623-910.047,500.623z"
			/>
		
			<radialGradient id="path3217_1_" cx="10393.7373" cy="-4400.689" r="8.0761" gradientTransform="matrix(-0.2118 0.7192 0.7554 0.2224 4658.2383 -5936.3628)" gradientUnits="userSpaceOnUse">
			<stop  offset="0" style="stop-color:#5D499D"/>
			<stop  offset="0.2089" style="stop-color:#5B459B"/>
			<stop  offset="0.3742" style="stop-color:#584098"/>
			<stop  offset="0.721" style="stop-color:#301E5F"/>
			<stop  offset="1" style="stop-color:#220D45"/>
		</radialGradient>
		<path id="path3217" inkscape:connector-curvature="0" sodipodi:nodetypes="ccccc" fill="url(#path3217_1_)" d="M-872.822,563.175
			c0-2.46,1.496-4.748,4.495-4.748c2.87,0,5.018,1.717,5.018,4.459c0,3.416-2.261,4.675-4.332,4.675
			C-870.505,567.562-872.822,566.076-872.822,563.175L-872.822,563.175z"/>
		
			<linearGradient id="path3221_1_" gradientUnits="userSpaceOnUse" x1="-8256.4531" y1="-11986.7051" x2="-8244.7334" y2="-11905.8379" gradientTransform="matrix(0.6099 0 0 -0.6099 4167.7207 -6759.3633)">
			<stop  offset="0" style="stop-color:#4B2C83"/>
			<stop  offset="1" style="stop-color:#553A95"/>
		</linearGradient>
		<path id="path3221" inkscape:connector-curvature="0" sodipodi:nodetypes="ccccccc" fill="url(#path3221_1_)" d="
			M-868.033,551.521c2.325-16.43,3.739-33.698,5.096-50.916c0-3.432,2.268-4.774,4.557-4.774c0.401,0,0.993,0.084,0.993,0.084
			l-0.622,4.116l-8.153,51.035L-868.033,551.521z"/>
		<path id="path3151" inkscape:connector-curvature="0" sodipodi:nodetypes="cccsc" fill="#210D45" d="M-1141.677,567.338
			l4.584-3.358l4.567,3.358c0,0-2.532-0.46-4.567-0.46C-1138.929,566.878-1141.677,567.338-1141.677,567.338z"/>
		<path id="path3169" inkscape:connector-curvature="0" sodipodi:nodetypes="ccccc" fill="#210D45" d="M-1122.231,559.91
			l6.395-2.765c0.976,1.17,1.844,2.161,3.042,2.748c-2.302-0.623-5.787-0.902-9.436,0.01L-1122.231,559.91z"/>
		<path id="path3187" inkscape:connector-curvature="0" sodipodi:nodetypes="cccc" fill="#210D45" d="M-1063.126,559.903
			c3.096-0.746,6.266-0.779,9.521,0l-4.754-2.669L-1063.126,559.903z"/>
		<path id="path3203" inkscape:connector-curvature="0" sodipodi:nodetypes="cccccc" fill="#210D45" d="M-1054.335,533.301
			l-4.015-2.115c13.337,0.139,26.673,0.163,40.009,0l-4.009,2.103C-1033.011,533.145-1043.673,533.152-1054.335,533.301
			L-1054.335,533.301z"/>
		
			<linearGradient id="path3197_1_" gradientUnits="userSpaceOnUse" x1="-8503.1748" y1="-11953.874" x2="-8495.3477" y2="-11953.874" gradientTransform="matrix(0.6099 0 0 -0.6099 4167.7207 -6759.3633)">
			<stop  offset="0" style="stop-color:#573F98"/>
			<stop  offset="1" style="stop-color:#563995"/>
		</linearGradient>
		<path id="path3197" inkscape:connector-curvature="0" sodipodi:nodetypes="cccccc" fill="url(#path3197_1_)" d="
			M-1018.338,557.234v1.335l4.766,1.335c-0.758-19.036-0.83-38.098,0-57.197l-4.766,2.669V557.234z"/>
		<path id="path3195" inkscape:connector-curvature="0" sodipodi:nodetypes="cccc" fill="#210D45" d="M-1013.572,559.903
			c-3.096-0.746-6.266-0.779-9.521,0l4.754-2.669L-1013.572,559.903z"/>
		<path id="path3219" inkscape:connector-curvature="0" sodipodi:nodetypes="cccc" fill="#210D45" d="M-865.93,549.594l-2.112,1.927
			c1.415-0.249,2.51,0.12,3.574,0.549L-865.93,549.594z"/>
		
			<radialGradient id="path3507_1_" cx="4186.3711" cy="13197.7188" r="7.2813" gradientTransform="matrix(-0.7804 -0.1397 -0.0999 0.5576 3726.9802 -6276.0557)" gradientUnits="userSpaceOnUse">
			<stop  offset="0" style="stop-color:#604D9F"/>
			<stop  offset="0.3994" style="stop-color:#5B469B"/>
			<stop  offset="0.7012" style="stop-color:#584098;stop-opacity:0.045"/>
			<stop  offset="1" style="stop-color:#220E47;stop-opacity:0"/>
		</radialGradient>
		
			<path id="path3507" sodipodi:ry="21.289658" sodipodi:cx="1214.9834" sodipodi:cy="1693.0604" sodipodi:rx="22.494734" sodipodi:type="arc" fill="url(#path3507_1_)" d="
			M-853.504,499.992c0,2.242-2.08,4.059-4.646,4.059c-2.566,0-4.646-1.817-4.646-4.059c0-2.242,2.08-4.059,4.646-4.059
			C-855.584,495.933-853.504,497.75-853.504,499.992z"/>
	</g>
</g>
</svg>
