<?xml version="1.0" encoding="utf-8"?>
<!-- Generator: Adobe Illustrator 18.1.1, SVG Export Plug-In . SVG Version: 6.00 Build 0)  -->
<svg version="1.1" id="Layer_1" xmlns="http://www.w3.org/2000/svg" xmlns:xlink="http://www.w3.org/1999/xlink" x="0px" y="0px"
	 viewBox="0 0 500 500" enable-background="new 0 0 500 500" xml:space="preserve">
<g>
	<g>
		<circle fill="#0098E1" cx="250" cy="250.3" r="250"/>
	</g>
	<g>
		<path fill-rule="evenodd" clip-rule="evenodd" fill="#FFFFFF" d="M79,217.4h29.9l0,0c0,0,22.6,0.4,22.6,25.8
			c0,24.2-23.1,25.8-23.1,25.8l0,0H96.5v14.7H79V217.4L79,217.4L79,217.4z M96.5,253.8h7l0,0c0,0,9.3-0.9,9.3-11
			c0-10.2-10-10.9-10-10.9l0,0h-6.3V253.8L96.5,253.8L96.5,253.8z"/>
		<path fill-rule="evenodd" clip-rule="evenodd" fill="#FFFFFF" d="M317,217.4h30.5l0,0c0,0,22.1,1.4,22.1,25.8
			c0,22.1-22.3,25.8-22.3,25.8l0,0h-12.8v14.7H317V217.4L317,217.4L317,217.4z M334.5,253.8h7l0,0c0,0,9.3-0.9,9.3-11
			c0-10.2-10-10.9-10-10.9l0,0h-6.3V253.8L334.5,253.8L334.5,253.8z"/>
		<polygon fill-rule="evenodd" clip-rule="evenodd" fill="#FFFFFF" points="139.2,217.9 156.6,217.9 156.6,242.1 175,242.1 
			175,217.9 191.6,217.9 191.6,283.6 175.2,283.6 175.2,257 156.8,257 156.8,283.6 139.2,283.6 139.2,217.9 139.2,217.9 		"/>
		<polygon fill-rule="evenodd" clip-rule="evenodd" fill="#FFFFFF" points="208,217.7 224.6,217.7 224.6,283.6 208,283.6 208,217.7 
			208,217.7 		"/>
		<polygon fill-rule="evenodd" clip-rule="evenodd" fill="#FFFFFF" points="284.4,217.7 301,217.7 301,283.6 284.4,283.6 
			284.4,217.7 284.4,217.7 		"/>
		<polygon fill-rule="evenodd" clip-rule="evenodd" fill="#FFFFFF" points="240.9,217.9 257.5,217.9 257.5,268 275.6,268 
			275.6,283.6 240.9,283.6 240.9,217.9 240.9,217.9 		"/>
		<path fill-rule="evenodd" clip-rule="evenodd" fill="#FFFFFF" d="M413.6,217.2c0,0-6.5-0.9-12.4-0.9c-9.1,0-25.1,2.5-25.2,21.4
			c0,0-1.2,14.8,15.1,18.9c15.2,3.9,11.8,6.9,12.3,7.4c0,0,0.4,4.7-11.2,4.7c-11.6,0-14.2-2.1-14.2-2.1l0,0V282l0,0
			c0,0,2.7,1.2,14,2.1c14.9,1.2,29.1-5.2,29.1-21.2c0-6.3-3.2-16.5-17.7-20c-9.3-2.2-10.6-4.9-10.5-6.1c0,0-0.4-5.3,10.2-5.1
			c9.8,0.2,10.9,1.6,10.9,1.6l0,0L413.6,217.2L413.6,217.2L413.6,217.2z"/>
	</g>
</g>
</svg>
