<?xml version="1.0" encoding="iso-8859-1"?>
<!-- Generator: Adobe Illustrator 18.0.0, SVG Export Plug-In . SVG Version: 6.00 Build 0)  -->
<!DOCTYPE svg PUBLIC "-//W3C//DTD SVG 1.0//EN" "http://www.w3.org/TR/2001/REC-SVG-20010904/DTD/svg10.dtd">
<svg version="1.0" id="Layer_1" xmlns="http://www.w3.org/2000/svg" xmlns:xlink="http://www.w3.org/1999/xlink" x="0px" y="0px"
	 viewBox="0 0 500 500" enable-background="new 0 0 500 500" xml:space="preserve">
<g>
	
		<linearGradient id="SVGID_1_" gradientUnits="userSpaceOnUse" x1="-1028.3079" y1="7597.5874" x2="-528.3079" y2="7597.5874" gradientTransform="matrix(1 0 0 1 1028.5928 -7347.4111)">
		<stop  offset="0" style="stop-color:#0075BE"/>
		<stop  offset="0.2" style="stop-color:#EE3E34"/>
		<stop  offset="0.4" style="stop-color:#FFDE1B"/>
		<stop  offset="0.6" style="stop-color:#0075BE"/>
		<stop  offset="0.8" style="stop-color:#2FB357"/>
		<stop  offset="1" style="stop-color:#EE3E34"/>
	</linearGradient>
	<circle fill="url(#SVGID_1_)" cx="250.285" cy="250.176" r="250"/>
	<circle fill="#FFFFFF" cx="250.285" cy="250.176" r="238.623"/>
	<g>
		<path fill-rule="evenodd" clip-rule="evenodd" fill="#6D6E70" d="M397.511,222.348h1.934c0.015,0.025,0.021,0.049,0.031,0.072
			c0.315,0.688,0.631,1.375,0.922,2.069c0.316,0.777,0.596,1.567,0.937,2.336c0.015,0.023,0.025,0.048,0.032,0.073
			c0.249-0.566,0.637-1.479,0.89-2.045c0.233-0.524,0.467-1.058,0.701-1.583c0.092-0.203,0.107-0.244,0.107-0.316
			c0-0.177-0.18-0.177-0.341-0.177l-0.71,0.032l0.71-0.461h2.595l-0.186,0.178c-0.187,0.17-0.284,0.29-0.284,0.623
			c0,0.113,0.01,0.225,0.025,0.347c0.048,0.51,0.089,1.018,0.129,1.529c0.057,0.671,0.12,1.341,0.244,2.004
			c0.104,0.542,0.218,0.736,0.606,1.026c-0.429,0.081-0.719,0.121-1.149,0.121c-0.177,0-0.482,0-0.766-0.209
			c-0.332-0.259-0.379-0.672-0.436-1.407c-0.048-0.503-0.098-1.003-0.139-1.505c-0.032-0.476-0.048-0.954-0.094-1.43l-0.01-0.096
			l-0.048,0.105c-0.284,0.613-0.543,1.245-0.817,1.859c-0.638,1.471-0.685,1.568-0.814,1.964l0.088,0.243
			c-0.234,0.057-1.156,0.362-1.497,0.492c-0.259-0.72-1.171-3.062-1.897-4.663c-0.072,0.679-0.139,1.358-0.202,2.036
			c-0.019,0.226-0.154,1.738-0.154,1.876c0,0.177,0.041,0.225,0.356,0.259l0.711,0.104l-0.414,0.251h-1.503l0.212-0.251
			c0.042-0.057,0.079-0.104,0.105-0.177c0.047-0.13,0.072-0.357,0.104-0.679c0.057-0.494,0.123-0.979,0.18-1.471
			c0.032-0.308,0.183-1.81,0.224-2.158c0.01-0.081,0.016-0.17,0.016-0.251c0-0.21-0.079-0.315-0.322-0.315
			c-0.114,0-0.631,0.015-0.751,0.015L397.511,222.348L397.511,222.348z"/>
		<path fill-rule="evenodd" clip-rule="evenodd" fill="#6D6E70" d="M397.155,222.348l-0.354,0.824l-0.363,0.162
			c0.022-0.081,0.088-0.38,0.088-0.411c0-0.186-0.217-0.195-0.444-0.195l-1.125,0.009c-0.098,3.152-0.098,3.426-0.098,3.854
			c0,0.228,0,0.412,0.017,0.687c0.025,0.349,0.139,0.422,0.512,0.445l0.684,0.073l-0.524,0.259h-2.693l0.18-0.259
			c0.177-0.267,0.203-0.306,0.203-0.485c0.006-0.178,0-1.01,0-1.196c0-0.341,0-0.687,0.006-1.026
			c0.025-0.695,0.067-1.391,0.067-2.078c0-0.114-0.01-0.243-0.01-0.274h-0.984c-0.493,0.016-0.503,0.031-0.768,0.435l-0.429,0.162
			l0.429-0.986H397.155L397.155,222.348z"/>
		<path fill-rule="evenodd" clip-rule="evenodd" fill="#EE3E34" d="M386.693,268.479c-1.136,0.62-2.276,1.345-3.412,1.863
			c-3.416,1.551-6.933,1.965-10.036,1.965c-3.309,0-8.482-0.208-13.758-4.034c-7.343-5.173-10.55-14.069-10.55-21.827
			c0-16.033,13.034-23.895,23.69-23.895c3.721,0,7.551,0.93,10.654,2.897c5.171,3.413,6.515,7.861,7.238,10.241l-24.308,9.826
			l-7.965,0.623c2.586,13.137,11.482,20.791,21.309,20.791c5.275,0,9.104-1.861,12.621-3.62L386.693,268.479L386.693,268.479z
			 M376.97,237.654c1.964-0.725,2.999-1.345,2.999-2.794c0-4.137-4.654-8.896-10.241-8.896c-4.139,0-11.895,3.208-11.895,14.38
			c0,1.759,0.205,3.62,0.309,5.482L376.97,237.654L376.97,237.654z"/>
		<path fill-rule="evenodd" clip-rule="evenodd" fill="#2FB357" d="M346.451,270.754h-18.31c2.38-3.102,2.794-3.413,2.794-5.481
			v-16.863c0-8.068,0.103-19.551,0.413-30.309c0.104-5.276,0.518-11.897,0.621-16.656h-8.068l7.76-3.724h14.79
			c-3.205,1.863-4.24,2.484-4.653,6.105c-0.827,7.964-0.932,20.584-0.932,35.273v23.897c0,4.034,0.723,4.655,4.139,4.966
			c1.758,0.207,3.517,0.309,5.275,0.516L346.451,270.754L346.451,270.754z"/>
		<path fill-rule="evenodd" clip-rule="evenodd" fill="#0075BE" d="M312.524,227.618c2.377,1.966,7.343,6.103,7.343,13.965
			c0,7.655-4.345,11.275-8.688,14.689c-1.344,1.344-2.897,2.794-2.897,5.068c0,2.276,1.553,3.517,2.69,4.447l3.725,2.897
			c4.553,3.827,8.688,7.346,8.688,14.484c0,9.723-9.413,19.551-27.207,19.551c-14.999,0-22.241-7.139-22.241-14.793
			c0-3.725,1.863-9.001,7.969-12.622c6.412-3.93,15.102-4.446,19.755-4.757c-1.448-1.863-3.102-3.827-3.102-7.033
			c0-1.76,0.517-2.794,1.036-4.034c-1.14,0.103-2.277,0.207-3.312,0.207c-10.965,0-17.171-8.174-17.171-16.242
			c0-4.759,2.172-10.034,6.62-13.862c5.897-4.862,12.93-5.689,18.516-5.689h21.309l-6.62,3.723H312.524L312.524,227.618z
			 M305.178,273.548c-0.828-0.104-1.345-0.104-2.377-0.104c-0.931,0-6.519,0.207-10.864,1.656
			c-2.276,0.828-8.896,3.309-8.896,10.655c0,7.343,7.138,12.617,18.206,12.617c9.932,0,15.208-4.757,15.208-11.168
			C316.455,281.926,313.042,279.134,305.178,273.548L305.178,273.548z M308.181,253.894c2.376-2.38,2.585-5.691,2.585-7.552
			c0-7.448-4.449-19.034-13.035-19.034c-2.69,0-5.584,1.345-7.242,3.414c-1.759,2.172-2.276,4.966-2.276,7.655
			c0,6.93,4.034,18.414,12.93,18.414C303.729,256.791,306.523,255.548,308.181,253.894L308.181,253.894z"/>
		<path fill-rule="evenodd" clip-rule="evenodd" fill="#FFDE1B" d="M248.387,272.099c-16.448,0-25.24-12.826-25.24-24.411
			c0-13.551,11.069-25.138,26.791-25.138c15.207,0,24.725,11.896,24.725,24.413C274.663,259.17,265.249,272.099,248.387,272.099
			L248.387,272.099z M261.318,263.722c2.482-3.312,3.104-7.449,3.104-11.484c0-9.103-4.347-26.481-17.174-26.481
			c-3.412,0-6.826,1.345-9.309,3.517c-4.032,3.621-4.758,8.173-4.758,12.621c0,10.241,5.069,27.102,17.583,27.102
			C254.799,268.996,258.938,267.032,261.318,263.722L261.318,263.722z"/>
		<path fill-rule="evenodd" clip-rule="evenodd" fill="#EE3E34" d="M193.354,272.099c-16.448,0-25.241-12.826-25.241-24.411
			c0-13.551,11.069-25.138,26.793-25.138c15.205,0,24.722,11.896,24.722,24.413C219.628,259.17,210.216,272.099,193.354,272.099
			L193.354,272.099z M206.284,263.722c2.484-3.312,3.103-7.449,3.103-11.484c0-9.103-4.344-26.481-17.17-26.481
			c-3.414,0-6.829,1.345-9.312,3.517c-4.033,3.621-4.758,8.173-4.758,12.621c0,10.241,5.07,27.102,17.586,27.102
			C199.768,268.996,203.905,267.032,206.284,263.722L206.284,263.722z"/>
		<path fill-rule="evenodd" clip-rule="evenodd" fill="#0075BE" d="M161.536,268.49l-13.867,3.198
			c-5.626,0.874-10.669,1.65-16.003,1.65c-26.767,0-36.949-19.687-36.949-35.107c0-18.814,14.45-36.27,39.18-36.27
			c5.238,0,10.281,0.777,14.838,2.037c7.273,2.038,10.668,4.558,12.801,6.015l-8.049,7.66l-3.393,0.776l2.424-3.88
			c-3.298-3.199-9.312-9.115-20.753-9.115c-15.325,0-26.865,11.638-26.865,28.61c0,18.231,13.191,35.397,34.33,35.397
			c6.209,0,9.407-1.261,12.317-2.425v-15.614l-14.644,0.776l7.758-4.17h20.56l-2.521,2.424c-0.68,0.581-0.777,0.775-0.972,1.551
			c-0.096,0.874-0.193,3.686-0.193,4.655V268.49L161.536,268.49z"/>
	</g>
</g>
</svg>
