<?xml version="1.0" encoding="utf-8"?>
<!-- Generator: Adobe Illustrator 18.1.0, SVG Export Plug-In . SVG Version: 6.00 Build 0)  -->
<!DOCTYPE svg PUBLIC "-//W3C//DTD SVG 1.1//EN" "http://www.w3.org/Graphics/SVG/1.1/DTD/svg11.dtd">
<svg version="1.1" id="Layer_1" xmlns="http://www.w3.org/2000/svg" xmlns:xlink="http://www.w3.org/1999/xlink" x="0px" y="0px"
	 viewBox="0 0 500 500" enable-background="new 0 0 500 500" xml:space="preserve">
<g>
	<circle fill="#4B80C1" cx="250" cy="250" r="250"/>
	<g>
		<polygon fill="#FFFFFF" points="389,199.5 344.4,199.5 347.1,191.8 389,191.8 		"/>
		<path fill="#FFFFFF" d="M270,191.8l41.4,0l2.7,7.7c0,0-44.1,0-44.1,0C270,199.5,270,191.8,270,191.8z"/>
		<path fill="#FFFFFF" d="M237.1,191.8c6.8,0.7,12.8,3.1,17.8,7.7c0,0-75.1,0-75.1,0c0,0,0-7.7,0-7.7L237.1,191.8z"/>
		<g>
			<rect x="120.9" y="191.8" fill="#FFFFFF" width="52.2" height="7.7"/>
			<path fill="#FFFFFF" d="M147,195.6"/>
		</g>
		<path fill="#FFFFFF" d="M389,213.9h-49.7c0,0,2.7-7.7,2.7-7.7h47V213.9z"/>
		<polygon fill="#FFFFFF" points="319.3,213.9 270,213.9 270,206.3 316.6,206.3 		"/>
		<path fill="#FFFFFF" d="M260.8,206.3c1,2.5,2.2,4.7,2.2,7.7h-83.1v-7.7H260.8z"/>
		<g>
			<rect x="120.9" y="206.3" fill="#FFFFFF" width="52.2" height="7.7"/>
			<path fill="#FFFFFF" d="M147,210.1"/>
		</g>
		<polygon fill="#FFFFFF" points="334.2,228.4 336.9,220.7 374.2,220.7 374.2,228.4 		"/>
		<polygon fill="#FFFFFF" points="321.7,220.7 324.4,228.4 284.7,228.4 284.7,220.7 		"/>
		<path fill="#FFFFFF" d="M263.6,220.7c0,2.6-0.3,5.4-1.1,7.7h-22.8v-7.7H263.6z"/>
		<g>
			<rect x="135.5" y="220.7" fill="#FFFFFF" width="22.4" height="7.7"/>
			<path fill="#FFFFFF" d="M146.7,224.6"/>
		</g>
		<g>
			<rect x="195" y="220.7" fill="#FFFFFF" width="22.4" height="7.7"/>
			<path fill="#FFFFFF" d="M206.2,224.5"/>
		</g>
		<path fill="#FFFFFF" d="M306.8,236.7c0,0,0,5.8,0,5.8h-22.1v-7.7h42l2.6,7.1c0,0,2.5-7.2,2.5-7.1h42.4v7.7h-21.9c0,0,0-5.8,0-5.8
			l-2,5.8l-41.4,0L306.8,236.7z"/>
		<path fill="#FFFFFF" d="M195,234.9h64.3v0c-1.4,2.6-4,5.7-6.4,7.7c0,0-57.9,0-57.9,0C195,242.5,195,234.9,195,234.9z"/>
		<g>
			<rect x="135.5" y="234.9" fill="#FFFFFF" width="22.4" height="7.7"/>
			<path fill="#FFFFFF" d="M146.7,238.7"/>
		</g>
		<g>
			<rect x="352.3" y="249.3" fill="#FFFFFF" width="21.9" height="7.7"/>
			<path fill="#FFFFFF" d="M363.3,253.1"/>
		</g>
		<path fill="#FFFFFF" d="M306.8,249.3h-22.1v7.7c0,0,22.1,0,22.1,0C306.8,257,306.8,249.3,306.8,249.3z"/>
		<path fill="#FFFFFF" d="M347.9,249.3c-0.1,0-2.6,7.7-2.7,7.7l-31.3,0c0,0-2.7-7.7-2.8-7.7H347.9z"/>
		<path fill="#FFFFFF" d="M195,249.3h57.8c2.6,2.2,5,4.9,6.9,7.7c0.1,0-64.7,0-64.7,0C195,257,195,249.3,195,249.3z"/>
		<path fill="#FFFFFF" d="M157.9,257v-7.7h-22.4c0,0,0,7.7,0,7.7C135.5,257,157.9,257,157.9,257z"/>
		<g>
			<rect x="352.3" y="263.7" fill="#FFFFFF" width="21.9" height="7.7"/>
			<path fill="#FFFFFF" d="M363.3,267.6"/>
		</g>
		<g>
			<rect x="284.7" y="263.7" fill="#FFFFFF" width="22.1" height="7.7"/>
			<path fill="#FFFFFF" d="M295.7,267.6"/>
		</g>
		<path fill="#FFFFFF" d="M340,271.4c0,0,2.7-7.7,2.7-7.7h-26.6c0,0,2.7,7.7,2.7,7.7S340,271.5,340,271.4z"/>
		<path fill="#FFFFFF" d="M195,271.4c0,0,0-7.7,0-7.7l22.7,0c0,0,0,7.7,0,7.7C217.7,271.4,195,271.4,195,271.4z"/>
		<path fill="#FFFFFF" d="M262.8,263.7c1.1,2.3,1.2,5.1,1.4,7.7h-24.1v-7.7H262.8z"/>
		<g>
			<rect x="135.5" y="263.7" fill="#FFFFFF" width="22.4" height="7.7"/>
			<path fill="#FFFFFF" d="M146.7,267.6"/>
		</g>
		<g>
			<rect x="352.3" y="277.9" fill="#FFFFFF" width="36.7" height="7.7"/>
			<path fill="#FFFFFF" d="M370.6,281.7"/>
		</g>
		<g>
			<rect x="270" y="277.9" fill="#FFFFFF" width="36.7" height="7.7"/>
			<path fill="#FFFFFF" d="M288.4,281.7"/>
		</g>
		<polygon fill="#FFFFFF" points="335.1,285.5 323.9,285.5 321.2,277.9 337.7,277.9 		"/>
		<path fill="#FFFFFF" d="M120.9,277.9v7.7h52.1c0,0,0-7.7,0-7.7C173.1,277.9,120.9,277.9,120.9,277.9z"/>
		<path fill="#FFFFFF" d="M263.3,277.9c-0.5,2.5-1.1,5.6-2.9,7.7l-0.7,0h-79.8v-7.7H263.3z"/>
		<polygon fill="#FFFFFF" points="330,300 329,300 326.4,292.3 332.7,292.3 		"/>
		<g>
			<rect x="352.3" y="292.3" fill="#FFFFFF" width="36.7" height="7.7"/>
			<path fill="#FFFFFF" d="M370.6,296.2"/>
		</g>
		<path fill="#FFFFFF" d="M179.9,300v-7.7c0,0,75.3,0,75.5,0c-5.1,4.8-12,7.6-19.5,7.7L179.9,300"/>
		<g>
			<rect x="270" y="292.3" fill="#FFFFFF" width="36.7" height="7.7"/>
			<path fill="#FFFFFF" d="M288.4,296.2"/>
		</g>
		<path fill="#FFFFFF" d="M173.1,292.4c0,0,0,7.6,0,7.6c0,0-52.1,0-52.1,0c0,0,0-7.7,0-7.7C120.9,292.3,173,292.4,173.1,292.4z"/>
	</g>
</g>
</svg>
