<?xml version="1.0" encoding="iso-8859-1"?>
<!-- Generator: Adobe Illustrator 18.0.0, SVG Export Plug-In . SVG Version: 6.00 Build 0)  -->
<!DOCTYPE svg PUBLIC "-//W3C//DTD SVG 1.0//EN" "http://www.w3.org/TR/2001/REC-SVG-20010904/DTD/svg10.dtd">
<svg version="1.0" id="Layer_1" xmlns="http://www.w3.org/2000/svg" xmlns:xlink="http://www.w3.org/1999/xlink" x="0px" y="0px"
	 viewBox="0 0 500 500" enable-background="new 0 0 500 500" xml:space="preserve">
<g>
	<circle fill="#65B22E" cx="250.144" cy="250.176" r="250"/>
	<g id="htc">
		<polygon fill="#FFFFFF" points="297.872,224.519 204.156,224.519 204.156,240.905 242.823,240.905 242.823,302.527 
			259.205,302.527 259.205,240.905 297.872,240.905 		"/>
		<path fill="#FFFFFF" d="M407.488,223.785c0,0-36.133,0-59.363,0c-23.231,0-35.826,13.083-35.826,39.247
			c0,22.497,8.439,39.836,36.925,39.836c28.49,0,58.263,0,58.263,0v-16.361c0,0-44.936,0-57.529,0
			c-12.596,0-21.398-2.47-21.398-23.181c0-20.712,12.41-23.279,19.687-23.279c7.274,0,59.24,0,59.24,0V223.785z"/>
		<path fill="#FFFFFF" d="M150.908,223.663c-24.699,0-21.458,0.122-27.022,0.122c-4.459,0-11.272,1.808-14.998,4.73v-30.112H92.8
			v104.465h16.088v-37.025v-7.947c0-8.556,5.95-18.215,17.199-18.215c11.982,0,14.794,0,25.676,0
			c10.881,0,18.953,5.746,18.953,18.339c0,12.593,0,44.749,0,44.749l16.383,0.099c0,0,0-35.799,0-46.191
			C187.099,239.433,175.606,223.663,150.908,223.663z"/>
	</g>
</g>
</svg>
