<?xml version="1.0" encoding="utf-8"?>
<!-- Generator: Adobe Illustrator 18.1.0, SVG Export Plug-In . SVG Version: 6.00 Build 0)  -->
<!DOCTYPE svg PUBLIC "-//W3C//DTD SVG 1.1//EN" "http://www.w3.org/Graphics/SVG/1.1/DTD/svg11.dtd">
<svg version="1.1" id="Layer_1" xmlns="http://www.w3.org/2000/svg" xmlns:xlink="http://www.w3.org/1999/xlink" x="0px" y="0px"
	 viewBox="0 0 500 500" enable-background="new 0 0 500 500" xml:space="preserve">
<g>
	<path fill="none" d="M136.8,264.9c-0.3,0.1-0.6,0.1-0.9,0.1C136.2,265,136.5,265,136.8,264.9z"/>
	<path fill="none" d="M162.7,273c0,0-6.6,0.3-8.7,8.2c-0.1,0.9-0.1,1.7-0.1,2.4c0-0.7,0-1.4,0.1-2.3
		C156.1,273.4,162.7,273,162.7,273z"/>
	<path fill="none" d="M140.5,259c0,0.2,0,0.5,0,0.8C140.5,259.5,140.5,259.2,140.5,259z"/>
	<path fill="none" d="M233.6,270.1C233.6,270.1,233.6,270.1,233.6,270.1C233.6,270.1,233.6,270.1,233.6,270.1z"/>
	<path fill="none" d="M163.5,284.5c-0.1-0.2-0.3-0.8-0.3-1.5C163.2,283.7,163.4,284.3,163.5,284.5c0.1,0.4,0.7,1.5,2.5,2.5
		C164.2,286,163.6,284.8,163.5,284.5z"/>
	<path fill="none" d="M232.4,270.7c-1.1,0.8-1.7,2-1.9,2.6c-0.2,0.6-0.6,1.8-0.6,3.2c0-1.3,0.4-2.5,0.6-3.1
		C230.7,272.7,231.3,271.5,232.4,270.7z"/>
	<path fill="none" d="M232.7,270.5c0.1,0,0.2-0.1,0.2-0.1C232.9,270.4,232.8,270.4,232.7,270.5z"/>
	<path fill="none" d="M223.9,277.6c0-0.3-0.1-0.5-0.1-0.8C223.9,277,223.9,277.3,223.9,277.6z"/>
	<path fill="none" d="M233.3,265c0,0-6.8,0.3-9.2,8c-0.2,1.3-0.3,2.5-0.2,3.5c0-1,0-2.1,0.2-3.4C226.5,265.3,233.3,265,233.3,265z"
		/>
	<path fill="none" d="M137.5,264.7c-0.2,0.1-0.4,0.1-0.6,0.2C137.2,264.8,137.3,264.8,137.5,264.7z"/>
	<path fill="#EC1C24" d="M12.6,249.3c0-92,52.1-171.8,128.4-211.7V25C57,65.6,0.2,151.1,0.2,250S57,434.4,141,475v-14
		C64.7,421.2,12.6,341.3,12.6,249.3z"/>
	<path fill="#EC1C24" d="M359,25.1v11.3c77.6,39.4,130.9,119.9,130.9,213s-53.2,173.6-130.9,213v12.6c82-40.6,140.7-126,140.7-224.9
		S441,65.6,359,25.1z"/>
	<path fill="#006CB6" d="M251.2,10.7c38.8,0,75.4,9.3,107.8,25.7V25.1C325,9,289.1,0,250,0c-39.1,0-77,9-109,25v12.6
		C174,20.4,211.5,10.7,251.2,10.7z"/>
	<path fill="#006CB6" d="M251.2,487.9c-39.8,0-77.3-9.7-110.2-27v14c32,16,69.8,25,109,25c39.2,0,75-9,109-25.1v-12.6
		C326.6,478.7,290,487.9,251.2,487.9z"/>
	<path fill="#FFFFFF" d="M136.8,264.9c0.1,0,0.1,0,0.2,0c0.2,0,0.4-0.1,0.6-0.2c1.7-0.6,2.4-2.1,2.4-2.1c0.5-0.9,0.7-1.9,0.7-2.8
		c0-0.3,0-0.5,0-0.8c-0.1-0.7-0.2-1.3-0.2-1.3c-1.1-2.7-4.5-2.7-4.5-2.7H120v10h15.9C136.2,265,136.5,265,136.8,264.9z"/>
	<path fill="#FFFFFF" d="M365,267h13.9c0.8,0,1.1-1,1.1-1v-4h-15V267z"/>
	<polygon fill="#FFFFFF" points="379,279 366.4,279 372.4,282.5 	"/>
	<path fill="#FFFFFF" d="M141,277.9c-1.2-2.6-4.1-3-4.1-3l-0.5,0.1H120v10h16v-0.1c3-0.5,4.1-2.2,4.1-2.2c0.3-0.4,0.7-0.9,0.9-1.4
		c0.5-1.6,0.1-3.2,0.1-3.2C141.1,278,141,277.9,141,277.9z"/>
	<path fill="#FFFFFF" d="M163.4,281.8c-0.2,0.4-0.2,0.8-0.2,1.2c0,0.7,0.2,1.3,0.3,1.5c0.1,0.3,0.7,1.5,2.5,2.5h14v-8h-13.7
		C166.3,279,164.5,279.7,163.4,281.8z"/>
	<path fill="#FFFFFF" d="M304,287h26.4c0.7,0,1.6-0.9,1.6-0.9V279h-28V287z"/>
	<path fill="#FFFFFF" d="M141,37.6C64.7,77.5,12.6,157.3,12.6,249.3S64.7,421.2,141,461c33,17.2,70.5,27,110.2,27
		c38.8,0,75.4-9.3,107.8-25.7c77.6-39.4,130.9-119.9,130.9-213S436.6,75.7,359,36.4c-32.4-16.4-69-25.7-107.8-25.7
		C211.5,10.7,174,20.4,141,37.6z M238.4,204.5c5.5,0,9.9,6.3,9.9,14.1c0,7.8-4.4,14.1-9.9,14.1c-5.5,0-9.9-6.3-9.9-14.1
		C228.5,210.8,232.9,204.5,238.4,204.5z M141,293.4c-1.2,0.2-2.5,0.6-4,0.6h-27v-48h23.8c0,0,3.4-0.1,7.2,1.1
		c4.2,1.3,8.8,4.4,9.2,11.1c0,0,0.8,8.4-5.5,11.7c0,0,7.5,2.9,7.2,11.2C151.8,281.2,152.8,291.5,141,293.4z M189,293h-26.7
		c-5.8-1-7.7-5.2-7.9-5.8c-0.2-0.5-0.5-1.5-0.5-3.6c0-0.7,0-1.5,0.1-2.4c2.1-7.9,8.7-8.2,8.7-8.2H180v-3c0-2.8-4.9-4-4.9-4H157v-7.1
		l20.9,0.1c10.1,1.4,11.1,9.8,11.1,9.8V293z M204,293h-10v-34h10V293z M204,255h-10v-9h10V255z M207.6,237.8c0,0,1.2-11.6,9.2-12.3
		c6.4-0.6,11,6.4,11.5,10.4c0.3,2.6,1.6,14.4-8.3,16.5C210.2,254.6,206.5,243.2,207.6,237.8z M282.9,287.7
		c-5.4,12.8-25.2,6.1-25.2,6.1s-7.3-2.4-15.8-0.5c-8.5,1.9-15.8,1.2-15.8,1.2s-9.9,0.2-12.7-12.3c-2.8-12.5,9.9-19.4,10.8-20.5
		c0.9-1.2,7.5-5.7,11.8-12.8c4.2-7.1,17-12.8,25.9,1.2c6.6,9.5,17.9,18.2,17.9,18.2S288.3,274.9,282.9,287.7z M392,278.3l-13.4,7.9
		c0,0,2.2,0.9,4.6,1.9h8.8v5h-11.7c0,0-4.6-1.1-6.9-3.3c0,0-5.7,3.3-8.8,3.3H359h-5v-5h5h2.8c0,0,3.9-1.2,4.8-2.2l-7.6-4.3l-4-2.2
		V274h4h33V278.3z M393,262h-5v6.6c0,0-0.9,3.4-4.4,3.4H359v-10h-4.8l-0.1-5h4.9v-2h7v2h14v-2h8v2h5V262z M346,248h13h7v-4h9v4h17v6
		h-33h-6v39h-7V248z M295,248h45v7h-15.9l-1.5,4H339v30.3c0,0,0.6,3.7-3.5,3.7H296v-34h16.6l1.8-4h-19.5L295,248z M290.9,243.5
		c0,2.8,1.2,14.9-9.6,15.1c-10.8,0.2-11.3-7.3-11.3-12.7c0-5.7,1.2-13.7,9.9-13.7C288.5,232.2,290.9,240.7,290.9,243.5z
		 M253.7,219.4c0.6-5.4,7.1-13.7,12.2-12.5c5.2,1.2,9.9,8,8.9,13.9c-0.9,5.9-5.6,13.7-12.9,12.7C254.6,232.6,253,226,253.7,219.4z"
		/>
	<rect x="304" y="265" fill="#FFFFFF" width="28" height="7"/>
	<path fill="#006CB6" d="M238.4,232.7c5.5,0,9.9-6.3,9.9-14.1c0-7.8-4.4-14.1-9.9-14.1c-5.5,0-9.9,6.3-9.9,14.1
		C228.5,226.4,232.9,232.7,238.4,232.7z"/>
	<path fill="#006CB6" d="M220,252.5c9.9-2.1,8.5-14,8.3-16.5c-0.5-4-5.2-11-11.5-10.4c-8,0.7-9.2,12.3-9.2,12.3
		C206.5,243.2,210.2,254.6,220,252.5z"/>
	<path fill="#006CB6" d="M279.8,268.3c0,0-11.3-8.7-17.9-18.2c-9-13.9-21.7-8.3-25.9-1.2c-4.2,7.1-10.8,11.6-11.8,12.8
		c-1,1.2-13.6,8-10.8,20.5c2.8,12.5,12.7,12.3,12.7,12.3s7.3,0.7,15.8-1.2c8.5-1.9,15.8,0.5,15.8,0.5s19.8,6.6,25.2-6.1
		C288.3,274.9,279.8,268.3,279.8,268.3z M246,287h-12.9c-5.6-1-7.8-4.6-8-5.3c-0.2-0.4-0.9-1.8-1.2-4.2c0-0.3-0.1-0.5-0.1-0.8
		c0-0.1,0-0.2,0-0.3c0-1,0-2.1,0.2-3.5c2.4-7.8,9.2-8,9.2-8h6.7v-8.9l6,0.1V287z M270,287h-14.9c-5.7-1-6.1-5.3-6.1-5.3v-16.4l6-0.1
		v14.7c0,1.6,2.4,2.1,2.4,2.1h6.6v-17h6V287z"/>
	<path fill="#006CB6" d="M233.7,270.1C233.6,270.1,233.6,270.1,233.7,270.1c-0.3,0.1-0.5,0.2-0.7,0.2c-0.1,0-0.2,0.1-0.2,0.1
		c-0.1,0.1-0.2,0.1-0.3,0.2c-1.1,0.8-1.7,2-1.9,2.6c-0.2,0.6-0.6,1.8-0.6,3.1c0,0.4,0.1,0.9,0.2,1.3c1.1,4.2,4.7,4.2,4.7,4.2h5.1
		v-12h-5.5C234.2,270,233.9,270,233.7,270.1z"/>
	<path fill="#006CB6" d="M261.9,233.6c7.3,1,12-6.8,12.9-12.7c1-5.9-3.8-12.8-8.9-13.9c-5.2-1.2-11.7,7.1-12.2,12.5
		C253,226,254.6,232.6,261.9,233.6z"/>
	<path fill="#006CB6" d="M269.9,245.9c0,5.4,0.5,13,11.3,12.7c10.8-0.2,9.6-12.3,9.6-15.1c0-2.8-2.3-11.3-11.1-11.3
		C271.1,232.2,269.9,240.2,269.9,245.9z"/>
	<path fill="#FFFFFF" d="M240,265h-6.7c0,0-6.8,0.3-9.2,8.1c-0.2,1.3-0.3,2.4-0.2,3.4c0,0.1,0,0.2,0,0.3c0,0.3,0,0.6,0.1,0.8
		c0.2,2.4,1,3.7,1.2,4.2c0.3,0.7,2.5,4.3,8,5.3H246v-30.8l-6-0.1V265z M240,282h-5.1c0,0-3.6-0.1-4.7-4.2c-0.1-0.5-0.2-0.9-0.2-1.3
		c0-1.3,0.4-2.5,0.6-3.2c0.2-0.6,0.8-1.8,1.9-2.6c0.1-0.1,0.2-0.1,0.3-0.2c0.1,0,0.2-0.1,0.2-0.1c0.2-0.1,0.4-0.2,0.6-0.2
		c0,0,0,0,0.1,0c0.3-0.1,0.5-0.1,0.8-0.1h5.5V282z"/>
	<path fill="#FFFFFF" d="M264,282h-6.6c0,0-2.4-0.5-2.4-2.1v-14.7l-6,0.1v16.4c0,0,0.4,4.3,6.1,5.3H270v-22h-6V282z"/>
	<path fill="#EC1C24" d="M312.6,259H296v34h39.5c4.1,0,3.5-3.7,3.5-3.7V259h-16.4l1.5-4H340v-7h-45l-0.1,7h19.5L312.6,259z
		 M332,286.1c0,0-0.9,0.9-1.6,0.9H304v-8h28V286.1z M332,265v7h-28v-7H332z"/>
	<path fill="#EC1C24" d="M388,255h-8v2h-14v-2h-7v2h-4.9l0.1,5h4.8v10h24.6c3.5,0,4.4-3.4,4.4-3.4V262h5v-5h-5V255z M380,266
		c0,0-0.3,1-1.1,1H365v-5h15V266z"/>
	<path fill="#EC1C24" d="M355,274v5.3l4,2.2l7.6,4.3c-0.9,1-4.8,2.2-4.8,2.2H359h-5v5h5h5.5c3.1,0,8.8-3.3,8.8-3.3
		c2.4,2.2,6.9,3.3,6.9,3.3H392v-5h-8.8c-2.4-1-4.6-1.9-4.6-1.9l13.4-7.9V274h-33H355z M379,279l-6.5,3.5l-6-3.5H379z"/>
	<polygon fill="#EC1C24" points="353,254 359,254 392,254 392,248 375,248 375,244 366,244 366,248 359,248 346,248 346,293 
		353,293 	"/>
	
		<line fill="none" stroke="#EC1C24" stroke-width="0" stroke-linecap="round" stroke-linejoin="round" x1="359" y1="272" x2="359" y2="262"/>
	
		<line fill="none" stroke="#EC1C24" stroke-width="0" stroke-linecap="round" stroke-linejoin="round" x1="359" y1="257" x2="359" y2="255"/>
	<rect x="194" y="259" fill="#EC1C24" width="10" height="34"/>
	<rect x="194" y="246" fill="#EC1C24" width="10" height="9"/>
	<path fill="#EC1C24" d="M177.9,258.9l-20.9-0.1v7.1h18.1c0,0,4.9,1.2,4.9,4v3h-17.3c0,0-6.6,0.4-8.7,8.3c-0.1,0.9-0.1,1.7-0.1,2.3
		c0,2,0.3,3,0.5,3.6c0.2,0.7,2.2,4.8,7.9,5.8H189v-24.2C189,268.8,188,260.3,177.9,258.9z M180,287h-14c-1.8-1-2.4-2.2-2.5-2.5
		c-0.1-0.2-0.3-0.8-0.3-1.5c0-0.4,0.1-0.8,0.2-1.2c1.1-2.1,2.9-2.8,2.9-2.8H180V287z"/>
	<path fill="#EC1C24" d="M144.6,269.9c6.3-3.3,5.5-11.7,5.5-11.7c-0.4-6.8-4.9-9.8-9.2-11.1c-3.7-1.2-7.2-1.1-7.2-1.1H110v48h27
		c1.5,0,2.8-0.4,4-0.6c11.8-2,10.8-12.2,10.8-12.2C152.1,272.8,144.6,269.9,144.6,269.9z M120,255h15.8c0,0,3.4,0,4.5,2.7
		c0,0,0.1,0.5,0.2,1.3c0,0.2,0,0.5,0,0.8c0,0.9-0.2,1.9-0.7,2.8c0,0-0.7,1.5-2.4,2.1c-0.2,0.1-0.4,0.1-0.6,0.2c-0.1,0-0.1,0-0.2,0
		c-0.3,0.1-0.6,0.1-0.9,0.1H120V255z M141,281.3c-0.1,0.5-0.6,0.9-0.9,1.4c0,0-1.1,1.8-4.1,2.2v0.1h-16v-10h16.3l0.5-0.1
		c0,0,2.9,0.4,4.1,3c0,0.1,0.1,0.1,0.1,0.2C141.1,278.1,141.5,279.6,141,281.3z"/>
</g>
</svg>
