<?xml version="1.0" encoding="utf-8"?>
<!-- Generator: Adobe Illustrator 18.1.0, SVG Export Plug-In . SVG Version: 6.00 Build 0)  -->
<!DOCTYPE svg PUBLIC "-//W3C//DTD SVG 1.1//EN" "http://www.w3.org/Graphics/SVG/1.1/DTD/svg11.dtd">
<svg version="1.1" id="Layer_1" xmlns="http://www.w3.org/2000/svg" xmlns:xlink="http://www.w3.org/1999/xlink" x="0px" y="0px"
	 viewBox="0 0 500 500" enable-background="new 0 0 500 500" xml:space="preserve">
<g>
	<g>
		<circle fill="#0066B2" cx="250" cy="250.4" r="250"/>
	</g>
	<g>
		<path fill="#FFFFFF" d="M209.5,267.6c0,1.6,1.9,3.5,3.5,3.5l24,0l-5.4-8.6l-13.9,0v-33.3h-8.2V267.6z"/>
		<path fill="#FFFFFF" d="M103.1,304.6H93l0.1-14.1c-2,0.4-4,0.5-6.2,0.5c-20,0-36.2-16.2-36.2-36.2c0-20,16.2-36.2,36.2-36.2
			c20,0,36.2,16.2,36.2,36.2c0,14.1-8.2,26.2-19.9,32.2V304.6z M110.3,254.9c0-13-10.5-23.5-23.5-23.5c-13,0-23.5,10.5-23.5,23.5
			c0,13,10.5,23.5,23.5,23.5c2.1,0,4.2-0.3,6.1-0.9l0-14.5l10.2-2.9v11.7C107.6,267.5,110.3,261.5,110.3,254.9z"/>
		<path fill="#FFFFFF" d="M154.9,271.1h-23.7c-1.6,0-3.5-1.9-3.5-3.5l0-38.4h8.2v33.3h14.3v-33.3h8.2l0,38.4
			C158.4,269.2,156.5,271.1,154.9,271.1z"/>
		<path fill="#FFFFFF" d="M265.3,230.7c-3.3-1.9-7.1-3-11.2-3c-12.3,0-22.2,10-22.2,22.2c0,12.3,10,22.2,22.2,22.2
			c3.8,0,7.5-1,10.7-2.7l-4-7.2c-2,1.1-4.2,1.7-6.6,1.7c-7.7,0-14-6.3-14-14c0-7.7,6.3-14,14-14c2.6,0,5.1,0.7,7.2,2L265.3,230.7z"
			/>
		<path fill="#FFFFFF" d="M439,266L424,231.2c-0.9-1.7-2.4-2.4-4.6-2.4c-2.2,0-3.7,0.8-4.6,2.4l-11.1,25.5l-11.1-25.5
			c-0.9-1.7-2.4-2.4-4.6-2.4c-2.2,0-3.7,0.8-4.6,2.4l-11.1,25.5l-11.1-25.5c-0.9-1.7-2.4-2.4-4.6-2.4c-2.2,0-3.7,0.8-4.6,2.4
			l-11.1,25.5l-11.1-25.5c-0.9-1.7-2.5-2.4-4.6-2.4c-2.2,0-3.7,0.8-4.6,2.4L305.4,266c-2.1,5.4,5.4,8.2,7.8,3.9l11.8-27.7l11.8,27.7
			c1.5,2.8,6.3,2.7,7.7,0l11.8-27.7l11.8,27.7c0.9,1.6,2.4,2.2,3.9,2.1c1.5,0.1,3-0.6,3.9-2.1l11.8-27.7l11.8,27.7
			c1.4,2.7,6.2,2.8,7.7,0l11.8-27.7l11.8,27.7C433.6,274.2,441.1,271.4,439,266z"/>
		<path fill="#FFFFFF" d="M193.5,261.7h-19l-4.3,9.2h-8.7l18.3-41.6h8.2l18.3,41.6h-8.7L193.5,261.7z M177.3,254.9l13.2,0l-6.6-15
			L177.3,254.9z"/>
		<path fill="#FFFFFF" d="M262.1,250.1c0-12.3,9.9-22.3,22.2-22.3c12.3,0,22.2,9.9,22.2,22.2c0,12.3-10,22.2-22.2,22.2
			C272.1,272.3,262.1,262.4,262.1,250.1z M270.3,250.1c0,7.7,6.3,13.9,14,13.9c7.7,0,14-6.3,14-14c0-7.7-6.3-14-14-14
			C276.6,236,270.3,242.4,270.3,250.1z"/>
		<path fill="#FFFFFF" d="M435.4,234.9c0-3.5,2.9-6.2,6.3-6.2c3.4,0,6.2,2.6,6.2,6.2c0,3.6-2.9,6.2-6.2,6.2
			C438.3,241.1,435.4,238.5,435.4,234.9z M441.7,240c2.8,0,5-2.2,5-5.2c0-2.9-2.2-5.1-5-5.1c-2.8,0-5,2.2-5,5.1
			C436.6,237.8,438.8,240,441.7,240z M440.4,238.5h-1.1v-7.1h2.7c1.7,0,2.5,0.6,2.5,2c0,1.3-0.8,1.8-1.8,2l2,3.1h-1.2l-1.9-3.1h-1.2
			V238.5z M441.7,234.4c0.9,0,1.7-0.1,1.7-1.2c0-0.9-0.8-1-1.6-1h-1.5v2.2H441.7z"/>
	</g>
</g>
</svg>
