<?xml version="1.0" encoding="utf-8"?>
<!-- Generator: Adobe Illustrator 18.1.0, SVG Export Plug-In . SVG Version: 6.00 Build 0)  -->
<!DOCTYPE svg PUBLIC "-//W3C//DTD SVG 1.1//EN" "http://www.w3.org/Graphics/SVG/1.1/DTD/svg11.dtd">
<svg version="1.1" id="Layer_1" xmlns="http://www.w3.org/2000/svg" xmlns:xlink="http://www.w3.org/1999/xlink" x="0px" y="0px"
	 viewBox="0 0 500 500" enable-background="new 0 0 500 500" xml:space="preserve">
<g>
	<circle fill="#D8D8D8" cx="250" cy="250" r="250"/>
	<circle fill="#FFFFFF" cx="250" cy="250" r="238.6"/>
	<g>
		<path fill="#FEBC00" d="M286.6,222.4v-20h-20.5v33.3c0,5.5-4.7,10-10.4,10c-5.7,0-10.4-4.5-10.4-10v-33.3h-20.5v33.2
			c12.8,3.9,22.1,15.2,22.7,28.6c2.6,0.7,5.4,1.1,8.2,1.1c7.1,0,13.5-2.3,18.7-6.1v-14.5C274.5,235.4,279.3,227.3,286.6,222.4"/>
		<path fill="#F2685E" d="M338.9,217.5c-6.8,0-13.1,2.4-18,6.3c-4.9-3.9-11.2-6.3-18-6.3c-6,0-11.6,1.8-16.1,4.9
			c-7.3,4.9-12.1,13-12.1,22.2v14.5v22.1H295v-36.6c0-4.1,3.5-7.5,7.8-7.5s7.8,3.4,7.8,7.5v36.6h20.5v-36.6c0-4.1,3.5-7.5,7.8-7.5
			c4.3,0,7.8,3.4,7.8,7.5v36.6h20.5v-36.6C367.1,229.7,354.4,217.5,338.9,217.5"/>
		<path fill="#618FFC" d="M195.4,240.4c-3.9-13.6-16.9-23.7-32.4-23.7h-30.2v64.5h30.2c7.7,0,14.7-2.5,20.4-6.7
			c8-5.9,13.2-15.2,13.2-25.6C196.7,246,196.2,243.1,195.4,240.4 M163.1,261.6h-9.7v-25.2h9.7c7.2,0,13.1,5.7,13.1,12.6
			C176.2,255.9,170.3,261.6,163.1,261.6"/>
		<path fill="#ADC900" d="M247.6,264.2c-0.5-13.4-9.9-24.7-22.7-28.6c-3.1-1-6.4-1.5-9.9-1.5c-7.3,0-14.1,2.4-19.6,6.3
			c0.8,2.7,1.2,5.6,1.2,8.6c0,10.4-5.2,19.7-13.2,25.6c3.6,13.5,16.4,23.6,31.6,23.6c7.1,0,13.7-2.2,19.1-6
			c3.1,2.7,7.4,4.4,13.5,5.3v-30v-0.6V266v-0.7C247.6,264.9,247.6,264.6,247.6,264.2 M227.1,266.9c0,6.4-5.4,11.6-12.1,11.6
			c-6.7,0-12.1-5.2-12.1-11.6v-1.5c0-6.4,5.4-11.6,12.1-11.6c6.7,0,12.1,5.2,12.1,11.6V266.9z"/>
	</g>
</g>
</svg>
